<?xml version="1.0" ?><svg height="60px" version="1.1" viewBox="0 0 60 60" width="60px" xmlns="http://www.w3.org/2000/svg" xmlns:sketch="http://www.bohemiancoding.com/sketch/ns" xmlns:xlink="http://www.w3.org/1999/xlink"><title/><defs/><g fill="none" fill-rule="evenodd" id="flat" stroke="none" stroke-width="1"><g id="forrst"><path d="M30,60 C46.5685433,60 60,46.5685433 60,30 C60,13.4314567 46.5685433,0 30,0 C13.4314567,0 0,13.4314567 0,30 C0,46.5685433 13.4314567,60 30,60 Z" fill="#479951"/><path d="M16.7215385,44.9430033 L27.6806175,45.0000008 L27.6806175,38.1396023 L24.5495576,36.0826712 L25.3730006,34.8627294 L27.6806175,36.082672 L27.6806175,31.2110311 L31.1162395,31.2110311 L31.1162395,34.7487355 L33.901973,33.4176329 L34.6259373,34.748736 L31.1162395,36.5788394 L31.1162395,38.1396023 L36.2604328,35.8525603 L36.9075755,37.1645465 L31.1162395,39.8886821 L31.1162395,45.0000008 L38.3144382,44.9430033 L43.2784615,45 L29.9876094,13.1384894 L16.7215385,44.9430033 Z" fill="#FFFFFF"/></g></g></svg>