<?xml version="1.0" ?><svg height="60px" version="1.1" viewBox="0 0 60 60" width="60px" xmlns="http://www.w3.org/2000/svg" xmlns:sketch="http://www.bohemiancoding.com/sketch/ns" xmlns:xlink="http://www.w3.org/1999/xlink"><title/><defs/><g fill="none" fill-rule="evenodd" id="flat" stroke="none" stroke-width="1"><g id="last_fm"><path d="M30,60 C46.5685433,60 60,46.5685433 60,30 C60,13.4314567 46.5685433,0 30,0 C13.4314567,0 0,13.4314567 0,30 C0,46.5685433 13.4314567,60 30,60 Z" fill="#CA4638" id="last.fm"/><path d="M41.8284217,27.6185894 C39.5303571,26.8680843 38.1439631,26.4151167 38.1439631,24.5566172 C38.1439631,23.0489457 39.2638236,21.9569385 40.8063601,21.9569385 C41.9891813,21.9569385 42.8697912,22.466305 43.6597378,23.6151552 C43.7340314,23.7221799 43.8725449,23.7599272 43.9871333,23.6977551 L46.3066045,22.4680813 C46.3691454,22.4361071 46.4161561,22.3765996 46.4358837,22.3064341 C46.4564509,22.2362685 46.4484759,22.1616621 46.4140574,22.0972696 C45.1707939,19.8040101 43.3793529,18.6889104 40.9356393,18.6889104 C37.217182,18.6889104 34.8141829,21.0261345 34.8141829,24.6418817 C34.8141829,28.3397849 37.1391107,29.8367984 41.4271523,31.3027259 C43.9111607,32.1633644 45.0104541,32.6194406 45.0104541,34.4566239 C45.0104541,36.5207351 43.2181736,38.0053142 40.7715218,37.9182734 C38.2090224,37.828568 37.4320877,36.4172631 36.4553578,34.1057961 C34.8041092,30.191179 32.9241035,25.6202029 32.9060548,25.5757944 C31.019753,21.0536678 27.2794693,18.4615385 22.6438848,18.4615385 C16.5207495,18.4615385 11.5384615,23.6378036 11.5384615,30.0015543 C11.5384615,36.3617524 16.5207495,41.5384615 22.6438848,41.5384615 C25.9841584,41.5384615 29.1145631,40.0005921 31.2325601,37.3169811 C31.2942616,37.2392661 31.3081129,37.1340177 31.2699168,37.0407597 L29.8705109,33.6843586 C29.8306358,33.5911005 29.7412316,33.5284844 29.643013,33.5240436 C29.5418562,33.5196027 29.4507731,33.5777779 29.4050216,33.6674833 C28.0832672,36.2915868 25.4930651,37.9209379 22.6438848,37.9209379 C18.4414697,37.9209379 15.0235447,34.3695831 15.0235447,30.0015543 C15.0235447,25.6335255 19.5898936,22.0846147 23.7923087,22.0846147 C26.8513579,22.0846147 28.5055235,23.9677594 29.6186682,26.7828198 L33.0815052,34.9877506 L33.4810956,35.9092288 C35.0471374,39.6972815 37.3460415,41.3954659 40.9490709,41.4092325 C45.2320757,41.4092325 48.4615385,38.4600582 48.4615385,34.5516583 C48.4615385,30.6241627 46.3725033,29.152018 42.766116,27.9298936 C42.4420784,27.8202044 42.1293737,27.7176206 41.8284217,27.6185894 Z" fill="#FFFFFF" id="last.fm"/></g></g></svg>