<?xml version="1.0" ?><svg height="60px" version="1.1" viewBox="0 0 60 60" width="60px" xmlns="http://www.w3.org/2000/svg" xmlns:sketch="http://www.bohemiancoding.com/sketch/ns" xmlns:xlink="http://www.w3.org/1999/xlink"><title/><defs/><g fill="none" fill-rule="evenodd" id="flat" stroke="none" stroke-width="1"><g id="rdio"><path d="M30,60 C46.5685433,60 60,46.5685433 60,30 C60,13.4314567 46.5685433,0 30,0 C13.4314567,0 0,13.4314567 0,30 C0,46.5685433 13.4314567,60 30,60 Z" fill="#4086CD" id="Rdio"/><path d="M39.236471,16.358551 C39.0461109,16.2351619 39.0071689,16.1209524 38.8105946,16.0174166 C38.5957922,15.8940276 38.37374,15.7808854 38.1518949,15.6668893 L38.1518949,28.7006565 C38.1533449,29.8675154 37.6624271,31.0984171 36.9544285,32.2782981 L36.8924941,32.3820473 C34.8434822,35.7948856 30.5325201,37.7844804 26.4891807,36.3772476 C22.5624602,35.0105753 21.5139262,31.0930802 23.5933875,27.6279404 L23.6561504,27.5235508 C25.7030909,24.1122069 28.5121842,21.1914704 34.6456674,23.1669265 L34.6456674,14.44843 C33.1985993,14.0449607 31.9476889,13.8461538 30.330146,13.8461538 C20.9716382,13.8461538 14.0238057,21.0622776 14.0238057,29.9526923 L14.0238057,30.0683962 C14.0238057,38.9588109 20.9155037,46.0592308 30.2178771,46.0592308 C39.5753492,46.0592308 46.5242173,38.843534 46.5242173,29.9526923 L46.5242173,29.8372019 C46.5242173,29.1442593 46.4776112,28.4643388 46.3962059,27.7957324 C51.2699626,26.4869121 53.2798255,21.2904833 50.9615337,21.1041188 C46.579109,21.2354065 41.2873472,17.692775 39.236471,16.358551 Z" fill="#FFFFFF" id="Rdio"/></g></g></svg>