<?xml version="1.0" ?><svg height="60px" version="1.1" viewBox="0 0 60 60" width="60px" xmlns="http://www.w3.org/2000/svg" xmlns:sketch="http://www.bohemiancoding.com/sketch/ns" xmlns:xlink="http://www.w3.org/1999/xlink"><title/><defs/><g fill="none" fill-rule="evenodd" id="flat" stroke="none" stroke-width="1"><g id="aim"><path d="M30,60 C46.5685433,60 60,46.5685433 60,30 C60,13.4314567 46.5685433,0 30,0 C13.4314567,0 0,13.4314567 0,30 C0,46.5685433 13.4314567,60 30,60 Z" fill="#E5B731"/><path d="M47.953711,31.8743618 C47.6446778,38.2742235 41.0595559,43.9122825 30.7780138,43.9737697 C26.3740913,44.0009199 23.6538805,43.2347252 21.8008792,42.4996734 C21.660337,42.4445745 21.6016446,42.4034499 21.6064358,42.3367722 C21.6224066,42.2657025 21.6986667,42.2657025 21.8815313,42.3076256 C26.4247983,43.3884433 28.0370412,41.5542075 27.2736413,40.1787303 C26.4299887,38.65233 20.6601714,38.7521469 16.541326,35.887002 L16.5788572,35.7951705 C16.5788572,35.7951705 16.8511577,35.1419685 16.9314105,34.9622981 C16.9960919,34.8113749 17.0555828,34.7371111 17.2164877,34.7391074 L22.2109271,34.7391074 C22.3662422,34.7367118 22.440506,34.8113749 22.529942,35.0046204 C22.6321545,35.2409869 23.0362134,36.2259803 23.0362134,36.2259803 C23.037012,36.2319693 23.3759902,37.1335157 24.2196428,37.1630615 C24.4268628,37.1718454 25.1459439,37.0824095 25.3835081,36.3349804 C25.4521822,36.1193758 25.4457939,35.9321193 25.4158488,35.7907785 C25.4030722,35.7149176 25.3835081,35.6586209 25.3663396,35.6071154 C25.3451784,35.5580054 25.3276107,35.5228699 25.3188268,35.4981153 C25.2549439,35.3611665 20.1838451,24.0167738 20.1726656,23.9888251 C20.0720501,23.7648359 19.9638486,23.5791764 19.7258851,23.5791764 C19.6112952,23.5767808 19.531841,23.6226966 19.4679581,23.6929677 C19.4308262,23.7332937 19.4008812,23.7760154 19.3689398,23.8263231 C19.3385954,23.8814221 19.3082511,23.9373195 19.2791045,23.9936163 C19.2252034,24.1002207 16.2822013,30.6669763 14.8675959,33.8259822 L14.6747496,34.2591877 C14.1916357,33.7333521 13.9580641,33.3756083 13.9580641,33.3756083 C13.0233785,32.1398748 12.160561,30.0968221 12.0527587,28.3468318 C11.6175569,21.232281 18.5783897,15.5722623 28.9054484,16.0541784 C38.4343709,16.4997611 48.3733413,23.1288025 47.953711,31.8743618 Z M29.225661,35.7911778 L29.225661,24.9434741 C29.225661,24.0650852 28.7461406,23.6805904 27.9240484,23.6805904 C27.1007584,23.6805904 26.6148497,24.0650852 26.6148497,24.9434741 L26.6148497,35.7911778 C26.6148497,36.6707645 27.0963665,37.0500688 27.9184587,37.0500688 C28.7409501,37.0500688 29.225661,36.6707645 29.225661,35.7911778 L29.225661,35.7911778 Z M44.4908624,35.7911778 L44.4908624,24.9434741 C44.4908624,24.0650852 44.0261148,23.6805904 43.2048212,23.6805904 C42.7628319,23.6805904 42.4266485,23.7955795 42.208249,24.0199679 C42.0848753,24.140946 41.9750767,24.3010524 41.8780547,24.5070745 L38.0722351,32.9300256 L34.3542544,24.5070745 C34.2584302,24.3010524 34.1466352,24.140946 34.0256571,24.0199679 C33.8036643,23.7955795 33.4678802,23.6805904 33.0270887,23.6805904 C32.2030002,23.6805904 31.7430438,24.0650852 31.7430438,24.9434741 L31.7430438,35.7911778 C31.7430438,36.6707645 32.2473189,37.0500688 33.0690118,37.0500688 C33.8919025,37.0500688 34.3682288,36.6707645 34.3682288,35.7911778 L34.3682288,30.7184819 L36.9063735,35.8989801 C37.1215788,36.2854712 37.539612,36.7258634 38.0622534,36.7126876 C38.6367996,36.7258634 39.0899684,36.3070316 39.3403093,35.887002 L41.8684722,30.733654 L41.8684722,35.791577 C41.8684722,36.6711638 42.3428023,37.050468 43.1636966,37.050468 C43.9877851,37.0500688 44.4908624,36.6707645 44.4908624,35.7911778 L44.4908624,35.7911778 Z M21.2167506,32.4964209 L18.2210452,32.4964209 C18.0713198,32.4964209 18.0633344,32.3478933 18.0932795,32.2772229 L19.5490095,28.8403267 L19.5649802,28.8035941 C19.5729655,28.7824329 19.5805516,28.763268 19.5913319,28.7472973 C19.6077018,28.7237405 19.6476286,28.660257 19.7190975,28.660257 C19.7905664,28.660257 19.8288961,28.7237405 19.8464639,28.7472973 L19.8708192,28.8035941 L19.8899841,28.8379311 L21.339725,32.2724317 C21.3908313,32.3838274 21.3473111,32.4964209 21.2167506,32.4964209 L21.2167506,32.4964209 Z" fill="#FFFFFF"/></g></g></svg>