<?xml version="1.0" ?><svg height="60px" version="1.1" viewBox="0 0 60 60" width="60px" xmlns="http://www.w3.org/2000/svg" xmlns:sketch="http://www.bohemiancoding.com/sketch/ns" xmlns:xlink="http://www.w3.org/1999/xlink"><title/><defs/><g fill="none" fill-rule="evenodd" id="flat" stroke="none" stroke-width="1"><g id="limelight"><path d="M30,60 C46.5685433,60 60,46.5685433 60,30 C60,13.4314567 46.5685433,0 30,0 C13.4314567,0 0,13.4314567 0,30 C0,46.5685433 13.4314567,60 30,60 Z" fill="#CA4638" id="Limelight"/><g fill="#FFFFFF" id="Limelight" transform="translate(12.692308, 19.615385)"><path d="M23.0921351,5.35175031 L10.5901052,22.3814365 L33.453651,7.88423979 L23.0921351,5.35175031 Z" fill-opacity="0.68146829" id="Shape"/><path d="M13.6850211,3.24885442 L1.53780424,5.71570764 L24.0252794,22.3814365 L13.6850211,3.24885442 Z" fill-opacity="0.68146829" id="Shape"/><path d="M0,3.46153846 C0,5.37328809 3.09963721,6.92307692 6.92307692,6.92307692 C10.7465981,6.92307692 13.8461538,5.37328809 13.8461538,3.46153846 C13.8461538,1.54978883 10.7466795,0 6.92307692,0 C3.09963721,0 0,1.54978883 0,3.46153846 Z M28.8461138,2.30769231 C25.6599132,2.30769231 23.0769231,3.85748757 23.0769231,5.76923077 C23.0769231,7.68097397 25.6598331,9.23076923 28.8461138,9.23076923 C32.0323945,9.23076923 34.6153846,7.68106056 34.6153846,5.76923077 C34.6153846,3.85757416 32.0323143,2.30769231 28.8461138,2.30769231 L28.8461138,2.30769231 Z" id="Spotlights"/></g></g></g></svg>