<?xml version="1.0" ?><svg height="60px" version="1.1" viewBox="0 0 60 60" width="60px" xmlns="http://www.w3.org/2000/svg" xmlns:sketch="http://www.bohemiancoding.com/sketch/ns" xmlns:xlink="http://www.w3.org/1999/xlink"><title/><defs/><g fill="none" fill-rule="evenodd" id="flat" stroke="none" stroke-width="1"><g id="vimeo"><path d="M30,60 C46.5685433,60 60,46.5685433 60,30 C60,13.4314567 46.5685433,0 30,0 C13.4314567,0 0,13.4314567 0,30 C0,46.5685433 13.4314567,60 30,60 Z" fill="#4086CD"/><path d="M31.3953549,23.209792 C35.3490807,20.8971783 37.4600709,24.1495482 35.4369125,27.8302601 C33.4172154,31.5079434 31.5710184,33.9062255 30.6048694,33.9062255 C29.6400184,33.9062255 28.8971264,31.4456391 27.7925234,27.1440477 C26.6489802,22.6970797 26.6563356,14.6862203 21.9060669,15.593959 C17.4257834,16.4502102 11.5384615,23.2971911 11.5384615,23.2971911 L12.9442019,25.0923331 C12.9442019,25.0923331 15.8439469,22.8671185 16.8109613,23.9795095 C17.7771103,25.0923331 21.4660429,38.5266936 22.6978504,41.0054521 C23.773032,43.1791792 26.7389753,46.0542622 29.9904799,44.0012496 C33.2406866,41.948237 44.0474506,32.9638732 45.9814793,22.3552715 C47.9150753,11.7471024 32.9758934,13.9675577 31.3953549,23.209792 L31.3953549,23.209792 Z" fill="#FFFFFF"/></g></g></svg>