<?xml version="1.0" ?><svg height="60px" version="1.1" viewBox="0 0 60 60" width="60px" xmlns="http://www.w3.org/2000/svg" xmlns:sketch="http://www.bohemiancoding.com/sketch/ns" xmlns:xlink="http://www.w3.org/1999/xlink"><title/><defs/><g fill="none" fill-rule="evenodd" id="flat" stroke="none" stroke-width="1"><g id="path"><path d="M30,60 C46.5685433,60 60,46.5685433 60,30 C60,13.4314567 46.5685433,0 30,0 C13.4314567,0 0,13.4314567 0,30 C0,46.5685433 13.4314567,60 30,60 Z" fill="#CA4638" id="Path"/><path d="M30.0981529,23.0377664 L30.0981529,32.2307883 C30.0981529,32.2307883 38.582507,34.9747852 39.6649336,27.2919578 C39.837242,18.765618 30.098152,18.808875 30.098152,18.808875 C30.098152,18.808875 23.9949523,18.4092176 20.964891,23.4279752 C18.6698899,27.4254904 21.613797,31.0224078 21.613797,31.0224078 L17.674534,34.6193251 C17.674534,34.6193251 11.7445592,27.1142277 17.5443862,18.9866051 C25.0764624,10.2373975 37.8236168,15.4950092 37.8236168,15.4950092 C37.8236168,15.4950092 47.6708578,19.60819 44.2952632,30.5334151 C39.6200234,40.4806548 30.0981525,36.7746408 30.0981525,36.7746408 L30.0981525,41.8691581 C30.0981525,41.8691581 30.2273833,44.5223674 27.0240971,45.7213398 C23.8217274,46.9203123 20.8778203,44.4636421 20.8778203,44.4636421 L20.8778202,39.6371424 C22.3396919,41.1699464 24.6104933,41.8677016 25.3877141,39.6371426 L25.3877141,23.0377664 L30.0981529,23.0377664 Z" fill="#FFFFFF"/></g></g></svg>