<?xml version="1.0" ?><svg height="60px" version="1.1" viewBox="0 0 60 60" width="60px" xmlns="http://www.w3.org/2000/svg" xmlns:sketch="http://www.bohemiancoding.com/sketch/ns" xmlns:xlink="http://www.w3.org/1999/xlink"><title/><defs/><g fill="none" fill-rule="evenodd" id="flat" stroke="none" stroke-width="1"><g id="stumbleUpon"><path d="M30,60 C46.5685433,60 60,46.5685433 60,30 C60,13.4314567 46.5685433,0 30,0 C13.4314567,0 0,13.4314567 0,30 C0,46.5685433 13.4314567,60 30,60 Z" fill="#CA4638"/><path d="M34.5997502,27.6963924 L38.1012902,26.4663021 L38.1012902,24.2892656 C38.1012902,19.8042526 34.5565385,16.1538462 30,16.1538462 C25.4457692,16.1538462 21.9229361,19.803114 21.9229361,24.2892656 L21.9229361,35.7107339 C21.9229361,36.7650933 21.2548828,38.0842473 19.6029898,38.0842473 C17.9510968,38.0842473 17.2762827,36.7650933 17.2762827,35.7107339 L17.2762827,31.2231445 L11.5384615,31.2231445 L11.5384615,35.7107343 C11.5384615,40.1957473 15.2434615,43.8461538 19.8,43.8461538 C24.3565385,43.8461538 27.7354079,40.1968854 27.7354079,35.7107339 L27.7354079,24.2892656 C27.7354079,23.2360447 28.0928861,21.9829391 30,21.9829383 C31.9071139,21.9829378 32.3753005,23.2360447 32.3753005,24.2892656 L32.3753005,26.4663021 L34.5997502,27.6963924 Z M42.7775221,35.7107342 C42.7775221,36.7650936 42.1419228,38.0595982 40.4229267,38.0595982 C38.7039305,38.0595984 38.0672042,36.7650936 38.0672042,35.7107342 L38.0672042,31.1679312 L34.6383433,32.3931885 L32.3843149,31.1679312 L32.3843149,35.8688117 C32.3843149,40.3538247 35.6457692,43.8461538 40.2023077,43.8461538 C44.7565385,43.8461538 48.4615385,40.1968859 48.4615385,35.7107343 L48.4615384,31.1679312 L42.7775221,31.1679312 L42.7775221,35.7107342 Z" fill="#FFFFFF"/></g></g></svg>