<?xml version="1.0" ?><svg height="60px" version="1.1" viewBox="0 0 60 60" width="60px" xmlns="http://www.w3.org/2000/svg" xmlns:sketch="http://www.bohemiancoding.com/sketch/ns" xmlns:xlink="http://www.w3.org/1999/xlink"><title/><defs/><g fill="none" fill-rule="evenodd" id="flat" stroke="none" stroke-width="1"><g id="digg"><path d="M30,60 C46.5685433,60 60,46.5685433 60,30 C60,13.4314567 46.5685433,0 30,0 C13.4314567,0 0,13.4314567 0,30 C0,46.5685433 13.4314567,60 30,60 Z" fill="#262626"/><path d="M48.8076923,44.8461538 L50.5384616,44.8461538 L50.5384616,22.9230769 L48.8076923,22.9230769 L40.1538462,22.9230769 L40.1538462,24.6538462 L47.0769231,26.3846154 L47.0769231,34.4615385 L43.6153846,34.4615385 L43.6153846,26.3846154 L40.1538462,26.3846154 L40.1538462,24.6538462 L40.1538462,37.9230769 L41.8846154,37.9230769 L47.0769231,37.9230769 L47.0769231,41.3846154 L40.1538462,41.3846154 L40.1538462,44.8461538 L48.8076923,44.8461538 L48.8076923,44.8461538 Z M36.1153846,44.8461538 L37.8461539,44.8461538 L37.8461539,22.9230769 L36.1153846,22.9230769 L27.4615385,22.9230769 L27.4615385,24.6538462 L34.3846154,26.3846154 L34.3846154,34.4615385 L30.923077,34.4615385 L30.923077,26.3846154 L27.4615385,26.3846154 L27.4615385,24.6538462 L27.4615385,37.9230769 L29.1923077,37.9230769 L34.3846154,37.9230769 L34.3846154,41.3846154 L27.4615385,41.3846154 L27.4615385,44.8461538 L36.1153846,44.8461538 L36.1153846,44.8461538 Z M10.7307693,37.9230769 L9,37.9230769 L9,24.6538462 L9,22.9230769 L15.923077,22.9230769 L15.923077,16 L19.3846154,16 L19.3846154,36.1923077 L19.3846154,37.9230769 L10.7307693,37.9230769 L10.7307693,37.9230769 Z M12.4615385,34.4615385 L12.4615385,26.3846154 L15.923077,26.3846154 L15.923077,34.4615385 L12.4615385,34.4615385 L12.4615385,34.4615385 Z M21.6923077,19.4615385 L21.6923077,16 L25.1538462,16 L25.1538462,19.4615385 L21.6923077,19.4615385 L21.6923077,19.4615385 Z M21.6923077,22.9230769 L21.6923077,37.9230769 L25.1538462,37.9230769 L25.1538462,22.9230769 L21.6923077,22.9230769 L21.6923077,22.9230769 Z" fill="#FFFFFF"/></g></g></svg>