<?xml version="1.0" ?><svg height="60px" version="1.1" viewBox="0 0 60 60" width="60px" xmlns="http://www.w3.org/2000/svg" xmlns:sketch="http://www.bohemiancoding.com/sketch/ns" xmlns:xlink="http://www.w3.org/1999/xlink"><title/><defs/><g fill="none" fill-rule="evenodd" id="flat" stroke="none" stroke-width="1"><g id="500"><path d="M30,60 C46.5685433,60 60,46.5685433 60,30 C60,13.4314567 46.5685433,0 30,0 C13.4314567,0 0,13.4314567 0,30 C0,46.5685433 13.4314567,60 30,60 Z" fill="#262626"/><path d="M21.3588397,37.9951714 C19.9344089,39.5127255 18.1742527,40.3034396 16.094871,40.3763556 C14.5979374,40.4288668 13.1326935,40.2383566 11.7683419,39.5927978 C9.48314757,38.5115798 8.22434711,36.7140144 8.07866227,34.1752967 C8.07502258,34.111761 8.07822551,34.0477902 8.07822551,33.9645266 L12.2166552,33.9645266 C12.246161,34.1192074 12.2707653,34.2839939 12.3095887,34.4452989 C12.6120716,35.7029564 13.3568501,36.5691493 14.6308888,36.8841681 C15.9950948,37.2216226 17.2037645,36.9042829 18.1484351,35.8274167 C19.2900374,34.5260482 19.470906,32.3426271 18.5675823,30.8671884 C17.9445637,29.8495544 17.0189651,29.3268602 15.8257762,29.2550078 C14.4704996,29.1733399 13.372331,29.6348194 12.5632997,30.7410358 C12.5139939,30.808488 12.4117913,30.8775843 12.3337563,30.8781645 C11.1691996,30.8864812 10.004643,30.8835317 8.84003782,30.8820327 C8.81024086,30.8820327 8.78049242,30.8678653 8.72259702,30.853021 C9.39288315,27.1069327 10.061859,23.3678072 10.7332128,19.6153846 L22.1579711,19.6153846 L22.1579711,23.0125105 L21.8721337,23.0125105 C19.243692,23.0125105 16.6152987,23.0151215 13.9869055,23.0076268 C13.7746385,23.0069982 13.7034461,23.0661338 13.6677771,23.2769522 C13.431294,24.6745428 13.1779713,26.069329 12.9315397,27.4652756 C12.9198927,27.5313256 12.9216883,27.5996965 12.9116427,27.7507508 C14.4625408,26.1943694 16.3093703,25.8982083 18.2961096,26.2634657 C20.3242445,26.6363628 21.7254783,27.8543226 22.6223475,29.7250942 C22.7157178,29.5076998 22.7861338,29.3224601 22.8728556,29.1451985 C24.0698783,26.6985929 26.0640912,25.4613887 28.7644533,25.3202951 C30.8235498,25.21271 32.5913251,25.9539591 34.1761937,27.2102144 C35.1763817,28.003056 36.0027865,28.9637303 36.8357427,29.9187473 C36.8988307,29.9910348 36.961579,30.0636125 37.0458258,30.1606566 C37.1267726,30.0683027 37.1987901,29.9870216 37.2698369,29.9047734 C38.034561,29.0190943 38.7855998,28.1201666 39.6892146,27.3662973 C40.8554212,26.3933898 42.1487745,25.6518989 43.6684198,25.4230932 C46.0942519,25.0578358 48.2781656,25.5686836 50.0116308,27.4043994 C51.1189714,28.5771009 51.6807461,30.0150662 51.8575382,31.6024901 C52.059614,33.4162053 51.8072134,35.1575364 50.9212632,36.7746489 C49.7437492,38.9235944 47.8928433,40.0364835 45.464245,40.2273322 C43.5117188,40.3809008 41.7864066,39.7635317 40.2063424,38.6651968 C39.1235576,37.9124397 38.217031,36.9715417 37.3374382,36.001632 C37.2454752,35.9002844 37.1558417,35.796906 37.0135539,35.6361328 C36.9500776,35.7286802 36.9062557,35.8187615 36.8392368,35.8860203 C36.0931965,36.6349092 35.3715664,37.4110207 34.58811,38.1191481 C33.4872238,39.114153 32.2176498,39.84607 30.7380412,40.1049028 C28.2090359,40.5473313 25.9507753,40.0036519 24.1002576,38.1390695 C23.5482373,37.5828184 23.1358356,36.931022 22.8190852,36.2174307 C22.7842897,36.138809 22.7485721,36.0606224 22.6991208,35.9507648 C22.3408293,36.719575 21.9159556,37.4016403 21.3588397,37.9951714 Z M39.486702,32.8808426 C40.4379726,33.9561132 41.4358312,34.9444454 42.7231669,35.5941625 C43.3282782,35.8995591 43.9616336,36.0944211 44.6412858,36.1525896 C46.1404517,36.2808213 47.3104922,35.6114729 47.8302891,34.2759673 C48.2140585,33.2899077 48.2202217,32.2852806 47.8067524,31.3068125 C47.3783361,30.2929984 46.640109,29.6156234 45.5245184,29.4158778 C44.7030151,29.2687884 43.9166469,29.3947959 43.1657052,29.7582159 C41.6730907,30.4804623 40.6063206,31.6957144 39.486702,32.8808426 L39.486702,32.8808426 Z M34.6066967,32.8811328 C33.7775743,32.0017879 32.9479666,31.1657189 31.9800991,30.4814294 C31.3644084,30.0461087 30.7146501,29.6711324 29.9770054,29.4767056 C28.4718704,29.0801156 27.197492,29.626406 26.4608179,30.9897629 C25.926996,31.9778049 25.840808,33.0225648 26.1838614,34.0792679 C26.5533146,35.2170587 27.3488062,35.9122276 28.5470907,36.1107643 C29.2898796,36.233919 30.0134994,36.1399695 30.7143589,35.8698705 C32.3005863,35.2587389 33.5005208,34.149718 34.6066967,32.8811328 L34.6066967,32.8811328 Z" fill="#FFFFFF"/></g></g></svg>