<?xml version="1.0" ?><svg height="60px" version="1.1" viewBox="0 0 60 60" width="60px" xmlns="http://www.w3.org/2000/svg" xmlns:sketch="http://www.bohemiancoding.com/sketch/ns" xmlns:xlink="http://www.w3.org/1999/xlink"><title/><defs/><g fill="none" fill-rule="evenodd" id="flat" stroke="none" stroke-width="1"><g id="zootool"><path d="M30,60 C46.5685433,60 60,46.5685433 60,30 C60,13.4314567 46.5685433,0 30,0 C13.4314567,0 0,13.4314567 0,30 C0,46.5685433 13.4314567,60 30,60 Z" fill="#57BB63"/><path d="M22.7323846,35.9042707 C28.4942692,46.7056215 30.1138077,48.4615385 34.0678846,48.4615385 C38.3612692,48.4615385 42.6923077,45.2848878 42.6923077,42.4081379 C42.6923077,41.4354091 42.1651538,40.5759124 41.6388462,40.3145761 C39.8310385,41.2856639 38.2110769,41.8095671 36.7421538,41.8095671 C34.8590385,41.8095671 33.8047308,40.9865836 27.8169231,32.2418711 C32.3726154,28.3550586 35.0481538,25.7761582 38.5110385,20.8805141 C41.4873846,18.9371078 42.6542308,17.2177041 42.6542308,15.6484559 C42.6542308,14.3032102 41.4873846,12.5095493 39.9820769,12.5095493 C39.2649615,12.5095493 38.7005769,13.1827875 37.9475,14.3413645 C32.4111154,12.248213 29.8121538,11.5384615 26.9508846,11.5384615 C24.2770385,11.5384615 22.0922692,13.854795 22.0922692,16.5461069 C22.0922692,18.0788419 22.7328077,18.9371078 23.7109615,19.2361881 C24.9907692,18.4899234 26.0463462,18.1904329 26.7232692,18.1904329 C28.4946923,18.1904329 31.2438462,18.9752621 34.6322692,19.9845041 C32.9382692,22.413249 28.5319231,26.8990425 25.3681538,29.3655314 C24.1632308,28.3554689 23.4093077,27.9825417 22.3186154,27.9825417 C18.8151154,27.9825417 17.3076923,32.0178686 17.3076923,34.522922 C17.3076923,37.0636682 17.9105769,37.7734197 18.8519231,37.7734197 C19.9070769,37.7734197 21.64,36.8769995 22.7323846,35.9042707 Z" fill="#FFFFFF"/></g></g></svg>