<?xml version="1.0" ?><svg height="60px" version="1.1" viewBox="0 0 60 60" width="60px" xmlns="http://www.w3.org/2000/svg" xmlns:sketch="http://www.bohemiancoding.com/sketch/ns" xmlns:xlink="http://www.w3.org/1999/xlink"><title/><defs/><g fill="none" fill-rule="evenodd" id="flat" stroke="none" stroke-width="1"><g id="readability"><path d="M30,60 C46.5685433,60 60,46.5685433 60,30 C60,13.4314567 46.5685433,0 30,0 C13.4314567,0 0,13.4314567 0,30 C0,46.5685433 13.4314567,60 30,60 Z" fill="#CA4638" id="Readability"/><path d="M20.4312091,29.589245 C20.1927853,27.2256717 18.2991505,25.3846154 15.9980174,25.3846154 C13.5352605,25.3846154 11.5384615,27.4927619 11.5384615,30.093684 C11.5384615,32.6502854 13.4687769,34.7298567 15.8736473,34.7992535 C16.3545067,36.2315102 18.7467682,41.2065026 18.7467682,41.5114987 L18.7467682,44.355018 C18.7467682,44.7113326 19.0201531,45 19.3571559,45 L21.3121161,45 C21.649692,45 21.9230769,44.7113326 21.9230769,44.355018 L20.4570001,29.6423132 C20.4570001,29.6166539 20.4466837,29.6009084 20.4312091,29.589245 L20.4312091,29.589245 Z M21.9230769,34.848358 L22.714824,40.3846154 L37.3177496,40.3840625 L38.0769231,34.9163588 C33.2959688,31.4720924 26.6725084,31.4273114 21.9230769,34.848358 L21.9230769,34.848358 Z M44.0025558,25.3846154 C41.7008495,25.3846154 39.8072147,27.2259811 39.5687909,29.5897863 C39.5533163,29.6008648 39.5429999,29.6166079 39.5429999,29.6422634 L38.0769231,44.3551138 C38.0769231,44.7113755 38.3508811,45 38.6878839,45 L40.6428441,45 C40.98042,45 41.253805,44.7113755 41.253805,44.3551138 L41.253805,41.5120172 C41.253805,41.2070665 43.6454933,36.2316473 44.1263527,34.7996035 C46.5317962,34.730217 48.4615385,32.6503717 48.4615385,30.0935671 C48.4615385,27.4936147 46.4653127,25.3846154 44.0025558,25.3846154 L44.0025558,25.3846154 Z M40.3846154,25.9214489 C40.3846154,25.9214489 39.9906679,15.1657927 29.9933901,15 L29.9933901,15.0081157 C20.1034565,15.2562251 19.6153846,25.8878267 19.6153846,25.8878267 C20.9907638,26.5805619 21.2927021,29.1468705 21.2927021,29.1468705 L21.6628542,33.4615385 C22.3851794,32.8534387 25.1433409,30.7363935 30.0415099,30.6227733 C34.9105956,30.7514655 37.6174645,32.8180773 38.3371458,33.4238583 L38.7072979,29.2175933 C38.7072979,29.2170136 39.0092362,26.6141842 40.3846154,25.9214489 L40.3846154,25.9214489 Z" fill="#FFFFFF" id="Readability"/></g></g></svg>