<?xml version="1.0" ?><svg height="60px" version="1.1" viewBox="0 0 60 60" width="60px" xmlns="http://www.w3.org/2000/svg" xmlns:sketch="http://www.bohemiancoding.com/sketch/ns" xmlns:xlink="http://www.w3.org/1999/xlink"><title/><defs/><g fill="none" fill-rule="evenodd" id="flat" stroke="none" stroke-width="1"><g id="picasa"><path d="M30,60 C46.5685433,60 60,46.5685433 60,30 C60,13.4314567 46.5685433,0 30,0 C13.4314567,0 0,13.4314567 0,30 C0,46.5685433 13.4314567,60 30,60 Z" fill="#262626" id="Picasa"/><path d="M13.7930625,38.848278 L19.6153846,33.0259558 L19.6153846,45.2661238 C17.2030875,43.622005 15.2006478,41.4210467 13.7930625,38.848278 Z M11.5384615,30 C11.5384615,23.0096402 15.4236035,16.9267044 21.1523047,13.7927437 L27.552136,20.1925749 L12.3416753,35.4030357 C11.8194428,33.6941737 11.5384615,31.8799002 11.5384615,30 Z M30,11.5384615 C32.4482304,11.5384615 34.7851554,12.0150158 36.9230769,12.8804238 L36.9230769,24.6668864 L24.5976548,12.3414643 C26.3064269,11.8193498 28.120411,11.5384615 30,11.5384615 Z M48.4615385,30 C48.4615385,32.4482304 47.9849842,34.7851554 47.1195762,36.9230769 L40.3855169,36.9230769 L40.3855169,14.7344906 C45.2606278,18.057577 48.4615385,23.6549819 48.4615385,30 Z M23.0778245,47.1199411 L23.0778245,40.3846154 L45.2661238,40.3846154 C41.9431092,45.2602354 36.345407,48.4615385 30,48.4615385 C27.5520808,48.4615385 25.2154386,47.9851053 23.0778245,47.1199411 Z" fill="#FFFFFF"/></g></g></svg>