<?xml version="1.0" ?><svg height="60px" version="1.1" viewBox="0 0 60 60" width="60px" xmlns="http://www.w3.org/2000/svg" xmlns:sketch="http://www.bohemiancoding.com/sketch/ns" xmlns:xlink="http://www.w3.org/1999/xlink"><title/><defs/><g fill="none" fill-rule="evenodd" id="flat" stroke="none" stroke-width="1"><g id="yahoo_messenger"><path d="M30,60 C46.5685433,60 60,46.5685433 60,30 C60,13.4314567 46.5685433,0 30,0 C13.4314567,0 0,13.4314567 0,30 C0,46.5685433 13.4314567,60 30,60 Z" fill="#7E4EA3" id="yahoo"/><path d="M48.4615385,30 C48.4615385,19.8034872 40.1968312,11.5384615 30.0002051,11.5384615 C19.803579,11.5384615 11.5384615,19.8034872 11.5384615,30 C11.5380513,40.1956923 19.8031688,48.4615385 30.0002051,48.4615385 C40.1968312,48.4615385 48.4615385,40.1956923 48.4615385,30 Z M25.3842216,19.6153846 C26.658178,19.6153846 27.6923077,20.6478977 27.6923077,21.9234709 C27.6923077,23.1974683 26.6585718,24.2307692 25.3842216,24.2307692 C24.1094776,24.2307692 23.0769232,23.1974683 23.0769232,21.9234709 C23.0765294,20.6478977 24.1094776,19.6153846 25.3842216,19.6153846 L25.3842216,19.6153846 Z M34.6149909,19.6153846 C35.8889473,19.6153846 36.9230769,20.6478977 36.9230769,21.9234709 C36.9230769,23.1974683 35.8893411,24.2307692 34.6149909,24.2307692 C33.3402469,24.2307692 32.3076924,23.1974683 32.3076924,21.9234709 C32.3072986,20.6478977 33.3402469,19.6153846 34.6149909,19.6153846 L34.6149909,19.6153846 Z M17.3076923,27.6923077 L42.6923077,27.6923077 L42.6923077,32.3362117 L42.6401585,32.3362117 C42.1130507,38.7788164 36.6610547,43.8461538 29.9987966,43.8461538 C23.3381431,43.8461538 17.8869493,38.7788164 17.3610449,32.3362117 L17.3076923,32.3362117 L17.3076923,27.6923077 L17.3076923,27.6923077 Z M40.3846154,32.3076923 L19.6153846,32.3076923 L19.6153846,30 L40.3846154,30 L40.3846154,32.3076923 L40.3846154,32.3076923 Z" fill="#FFFFFF" id="yahoo"/></g></g></svg>