<?xml version="1.0" ?><svg height="60px" version="1.1" viewBox="0 0 60 60" width="60px" xmlns="http://www.w3.org/2000/svg" xmlns:sketch="http://www.bohemiancoding.com/sketch/ns" xmlns:xlink="http://www.w3.org/1999/xlink"><title/><defs/><g fill="none" fill-rule="evenodd" id="flat" stroke="none" stroke-width="1"><g id="app_net"><path d="M30,60 C46.5685433,60 60,46.5685433 60,30 C60,13.4314567 46.5685433,0 30,0 C13.4314567,0 0,13.4314567 0,30 C0,46.5685433 13.4314567,60 30,60 Z" fill="#6E797A" id="App.net"/><path d="M39.227636,37.9191025 L38.2940004,32.9989618 C38.2940004,32.9989618 43.7643454,22.3631677 43.7525769,17.5520174 C43.7525769,17.5520174 44.2427052,15.0489829 40.1937752,15.0489829 C40.1937752,15.0489829 37.6691482,14.5622742 36.9776077,17.2120687 L36.0747944,21.9695887 C36.0747944,21.9695887 34.7276606,15.0489829 26.8892683,15.0489829 C26.8892683,15.0489829 17.3964776,13.4815963 15.1688656,28.0793978 C15.1688656,28.0793978 12.9377668,45.0440643 24.6950751,45.0440643 C24.6950751,45.0440643 30.3687452,44.9215953 33.5837918,39.5418493 C33.5837918,39.5418493 34.2161901,45.0440643 39.8740444,45.0440643 C39.8740444,45.0440643 43.5368208,45.4077318 43.7525769,41.1905507 C43.7536977,41.1888207 44.4993709,37.5125508 41.7623503,38.4865449 C41.7623503,38.4865449 40.1377346,39.4328589 39.227636,37.9191025 Z M25.1656752,38.9973727 C21.0280926,38.9973727 21.9619201,29.6229884 21.9619201,29.6229884 C22.7320642,20.3849924 27.9294272,20.4387386 27.9294272,20.4387386 C32.0470348,20.276344 32.2728624,31.8173375 32.2728624,31.8173375 C28.8504929,38.8621402 25.2561172,39.106021 25.1656752,38.9973727 L25.1656752,38.9973727 Z" fill="#FFFFFF" id="app.net"/></g></g></svg>