<?xml version="1.0" ?><svg height="60px" version="1.1" viewBox="0 0 60 60" width="60px" xmlns="http://www.w3.org/2000/svg" xmlns:sketch="http://www.bohemiancoding.com/sketch/ns" xmlns:xlink="http://www.w3.org/1999/xlink"><title/><defs/><g fill="none" fill-rule="evenodd" id="flat" stroke="none" stroke-width="1"><g id="basecamp"><path d="M30,60 C46.5685433,60 60,46.5685433 60,30 C60,13.4314567 46.5685433,0 30,0 C13.4314567,0 0,13.4314567 0,30 C0,46.5685433 13.4314567,60 30,60 Z" fill="#479951"/><path d="M11.694369,38.0649368 C11.9540571,38.4385334 12.2346679,38.7977302 12.53374,39.142127 C13.1314739,39.8289208 13.805104,40.4513152 14.5337076,41.0037102 C16.0844517,42.1776995 17.8731407,43.0200919 19.7315722,43.6128866 C21.881281,44.3000803 24.1298599,44.666477 26.3788492,44.8488754 C28.9876275,45.0604734 31.6316872,45.0576735 34.234722,44.7908759 C36.6461701,44.5436781 39.0485928,44.0548825 41.3078382,43.1796905 C43.3078059,42.4044975 45.1473658,41.2977075 46.7555449,39.8981202 C47.1711279,39.5349235 47.573583,39.147327 47.9050648,38.706531 C48.1848551,38.3341344 48.4092617,37.9225381 48.4494662,37.4553423 C48.4954142,36.9077473 48.403108,36.3505523 48.2923405,35.8161572 C48.1692656,35.2237625 48.0076272,34.6405678 47.854604,34.0553731 C47.7979896,33.842175 47.7438366,33.628977 47.6946066,33.4145789 C47.1046675,30.8790019 46.203759,28.4098242 44.9803942,26.1002452 C43.943693,24.1434629 42.664124,22.2958796 41.1790198,20.6374946 C39.7919653,19.0883087 38.1780428,17.7335209 36.3249446,16.7463299 C35.3407554,16.2223346 34.2999517,15.8043384 33.2279691,15.4907413 C32.6486964,15.3207428 32.0595777,15.1811441 31.4659463,15.0683451 C31.3137436,15.0391454 31.1599,15.0015457 31.0048256,15.0015457 L30.4161171,15.0015457 L29.2838278,15.0015457 C29.1115229,15.0015457 28.937577,14.9935458 28.7660926,15.0139456 C28.6081464,15.0323454 28.4502003,15.0543452 28.2922541,15.079545 C27.991541,15.1275446 27.6924689,15.185944 27.3954481,15.2551434 C26.8067397,15.3931421 26.2278773,15.5731405 25.6641941,15.7891386 C24.537238,16.2211346 23.4693578,16.7959294 22.4732714,17.4659234 C20.5266362,18.7747115 18.8359969,20.4406964 17.4128405,22.2790798 C15.9039418,24.2290621 14.698628,26.3966425 13.767361,28.663022 C12.7774284,31.0734001 12.0939522,33.5989772 11.671395,36.162554 C11.6168318,36.4913511 11.5384741,36.832948 11.5384741,37.1661449 L11.5384741,37.7025401 C11.5384741,37.7885393 11.5364228,37.8345389 11.5848323,37.9057382 C11.6217548,37.9593378 11.6570362,38.0117373 11.694369,38.0649368 L11.694369,38.0649368 Z M14.1004839,36.4753512 C14.1316628,36.3057527 14.1681751,36.1373543 14.2083796,35.9697558 C14.2850963,35.6553586 14.3774025,35.3445614 14.4852981,35.0377642 C14.8988299,33.8589749 15.5236403,32.7653848 16.1939884,31.7097944 C16.5271112,31.1861991 16.868439,30.6678038 17.2077156,30.1482085 C17.5539664,29.6174133 17.9071915,29.0898181 18.3047235,28.5942226 C18.9496361,27.7894299 19.7430592,26.9218377 20.7715553,26.5978407 C22.2168653,26.1430448 23.2978734,27.6098315 24.1339624,28.5154233 C24.6098522,29.0294186 25.1222541,29.5706137 25.777423,29.8638111 C26.0793668,29.9990099 26.4083872,30.0686092 26.7406895,30.0486094 C27.2251944,30.0186097 27.654726,29.6942126 28.0149253,29.4026153 C29.0019862,28.6042225 29.8073065,27.5954316 30.5761146,26.6014406 C31.4175368,25.5134505 32.2302416,24.4026605 33.1926876,23.4114695 C33.5873479,23.0054732 34.0078539,22.4666781 34.573178,22.2870797 C34.8312252,22.2050804 35.1126565,22.2302802 35.3583961,22.3406792 C35.492958,22.4010787 35.616033,22.4862779 35.7226979,22.587077 C35.8437216,22.701476 35.9877192,22.7914751 36.1226914,22.8906742 C37.1552901,23.6526673 38.1103515,24.5134595 39.012901,25.4186513 C39.7981191,26.2058442 40.5435429,27.0298367 41.2573775,27.880229 C41.9527509,28.7110215 42.6218682,29.5570139 43.1974487,30.4742056 C43.8969245,31.5913954 44.4885047,32.7661848 45.1399813,33.9097744 C45.7344332,34.952965 46.3354492,36.1593541 45.7418177,37.3357434 C45.7106388,37.3977428 45.676588,37.4601423 45.6400758,37.5193417 C44.5865544,39.257326 42.685457,40.3397162 40.8085643,41.0481098 C38.5480881,41.9005021 36.1144864,42.3064984 33.7054998,42.4708969 C31.2156939,42.6412954 28.6955296,42.6332954 26.2098263,42.4060975 C23.9632985,42.2004993 21.7011813,41.8105029 19.5875745,41.0145101 C17.821039,40.3493161 16.1180922,39.366125 14.9365729,37.8901384 C14.660885,37.5457415 14.4163762,37.1777448 14.2083796,36.7901483 C14.1837646,36.7441488 14.1591496,36.6969492 14.1345346,36.6493496 C14.0996634,36.5805502 14.0865354,36.5525505 14.1004839,36.4753512 L14.1004839,36.4753512 Z" fill="#FFFFFF"/></g></g></svg>