<?xml version="1.0" ?><svg height="60px" version="1.1" viewBox="0 0 60 60" width="60px" xmlns="http://www.w3.org/2000/svg" xmlns:sketch="http://www.bohemiancoding.com/sketch/ns" xmlns:xlink="http://www.w3.org/1999/xlink"><title/><defs/><g fill="none" fill-rule="evenodd" id="flat" stroke="none" stroke-width="1"><g id="cloudapp"><path d="M30,60 C46.5685433,60 60,46.5685433 60,30 C60,13.4314567 46.5685433,0 30,0 C13.4314567,0 0,13.4314567 0,30 C0,46.5685433 13.4314567,60 30,60 Z" fill="#4086CD"/><path d="M19.3837949,41.5158107 L19.3813333,41.5244024 L19.5700513,41.5244024 C19.6676923,41.5279172 19.7641026,41.5384615 19.8625641,41.5384615 C19.9618462,41.5384615 20.0578462,41.5279172 20.1554872,41.5244024 L38.6592821,41.5244024 L38.6592821,41.5193254 C38.7946667,41.5244024 38.9267692,41.5384615 39.0629744,41.5384615 C44.2535385,41.5384615 48.4615385,37.5007456 48.4615385,32.519503 C48.4615385,27.5382604 44.2535385,23.5005444 39.0629744,23.5005444 C38.8717949,23.5005444 38.6843077,23.5169467 38.4955897,23.5278817 C37.6890256,19.3339527 33.8650256,16.1538462 29.2607179,16.1538462 C24.0705641,16.1538462 19.8625641,20.1919527 19.8625641,25.1731953 C19.8625641,25.3040237 19.8773333,25.4325089 19.8830769,25.5621657 C19.8761026,25.5621657 19.8699487,25.5613846 19.8625641,25.5613846 C15.265641,25.5613846 11.5384615,29.1374911 11.5384615,33.5497278 C11.5384615,37.8069231 15.0108718,41.2764142 19.3837949,41.5158107 L19.3837949,41.5158107 Z" fill="#FFFFFF"/></g></g></svg>