<?xml version="1.0" ?><svg height="60px" version="1.1" viewBox="0 0 60 60" width="60px" xmlns="http://www.w3.org/2000/svg" xmlns:sketch="http://www.bohemiancoding.com/sketch/ns" xmlns:xlink="http://www.w3.org/1999/xlink"><title/><defs/><g fill="none" fill-rule="evenodd" id="flat" stroke="none" stroke-width="1"><g id="cloud"><path d="M30,60 C46.5685433,60 60,46.5685433 60,30 C60,13.4314567 46.5685433,0 30,0 C13.4314567,0 0,13.4314567 0,30 C0,46.5685433 13.4314567,60 30,60 Z" fill="#7F8C8D"/><path d="M32.8846154,17.3076923 C28.5623077,17.3076923 24.825,19.8092308 23.04,23.4438462 C22.1953846,22.5103846 20.9734615,21.9230769 19.6153846,21.9230769 C17.0665385,21.9230769 15,23.9896154 15,26.5384615 C15,27.2042308 15.1407692,27.8365385 15.3934615,28.4076923 C13.1088462,29.5384615 11.5384615,31.8934615 11.5384615,34.6153846 C11.5384615,38.0457692 14.0330769,40.8934615 17.3076923,41.4426923 L17.3076923,41.5384615 L18.4615385,41.5384615 L41.5384615,41.5384615 L42.6923077,41.5384615 L42.6923077,41.4426923 C45.9669231,40.8934615 48.4615385,38.0457692 48.4615385,34.6153846 C48.4615385,31.6003846 46.5346154,29.0353846 43.8438462,28.0857692 C43.7469231,22.1157692 38.8765385,17.3076923 32.8846154,17.3076923 L32.8846154,17.3076923 L32.8846154,17.3076923 Z" fill="#FFFFFF"/></g></g></svg>