<?xml version="1.0" ?><svg height="60px" version="1.1" viewBox="0 0 60 60" width="60px" xmlns="http://www.w3.org/2000/svg" xmlns:sketch="http://www.bohemiancoding.com/sketch/ns" xmlns:xlink="http://www.w3.org/1999/xlink"><title/><defs/><g fill="none" fill-rule="evenodd" id="flat" stroke="none" stroke-width="1"><g id="dropbox"><path d="M30,60 C46.5685433,60 60,46.5685433 60,30 C60,13.4314567 46.5685433,0 30,0 C13.4314567,0 0,13.4314567 0,30 C0,46.5685433 13.4314567,60 30,60 Z" fill="#4086CD"/><path d="M30.4176923,20.4730862 L36.9473077,15 L47.3076923,21.4552353 L40.7715385,26.8582236 L30.4176923,20.4730862 Z M46.8211538,33.0334569 L40.8407692,27.9112495 L31.1207463,33.6163328 L36.9649095,38.2394642 L46.8211538,33.0334569 Z M19.1588462,27.9112495 L13.1792308,33.0334569 L23.0974873,38.3807371 L28.9575666,33.4711161 L19.1588462,27.9112495 Z M19.6255258,41.5902945 L30.0312688,46.8802115 L40.4079965,41.5902945 L40.4079965,39.1948524 L36.7334923,40.7373047 L30.0312688,35.3261155 L23.208759,40.9274527 L19.6255258,39.1948524 L19.6255258,41.5902945 Z M29.5830769,20.4730862 L23.0534615,15 L12.6923077,21.4552353 L19.2292308,26.8582236 L29.5830769,20.4730862 L29.5830769,20.4730862 Z" fill="#FFFFFF"/></g></g></svg>