<?xml version="1.0" ?><svg height="60px" version="1.1" viewBox="0 0 60 60" width="60px" xmlns="http://www.w3.org/2000/svg" xmlns:sketch="http://www.bohemiancoding.com/sketch/ns" xmlns:xlink="http://www.w3.org/1999/xlink"><title/><defs/><g fill="none" fill-rule="evenodd" id="flat" stroke="none" stroke-width="1"><g id="evernote"><path d="M30,60 C46.5685433,60 60,46.5685433 60,30 C60,13.4314567 46.5685433,0 30,0 C13.4314567,0 0,13.4314567 0,30 C0,46.5685433 13.4314567,60 30,60 Z" fill="#479951" id="Evernote"/><path d="M44.1498664,17.9622565 C43.8723171,16.4887446 42.9886907,15.7626388 42.1900284,15.477214 C41.328115,15.1685953 39.5806872,14.8486165 37.3853099,14.5920655 C35.6190012,14.3852153 33.5425736,14.4022556 32.2884094,14.4405962 C32.1378342,13.4186521 31.4146955,12.4842761 30.6061207,12.1614572 C28.4503933,11.3013958 25.1193295,11.5087194 24.2640245,11.7463368 C23.5847839,11.9347267 22.8323798,12.3209733 22.4136957,12.9154901 C22.1328423,13.3130969 21.9515856,13.821939 21.9501695,14.5328978 C21.9501695,14.935238 21.961498,15.8833409 21.9718825,16.7254153 C21.982267,17.5703298 21.9931236,18.326256 21.9931236,18.3314628 C21.9926515,19.0836023 21.3780781,19.6956328 20.6162335,19.6965795 L17.1209058,19.6965795 C16.3751101,19.6965795 15.8058508,19.8210683 15.3706459,20.0170316 C14.934969,20.2134683 14.6262662,20.4780662 14.3916709,20.7909449 C13.9248405,21.4119689 13.8436526,22.1792553 13.8455407,22.9616887 C13.8455407,22.9616887 13.8526211,23.601173 14.0079165,24.8389608 C14.1372507,25.7965306 15.184669,32.4867384 16.1796927,34.5216332 C16.5653352,35.3135334 16.8221155,35.6429791 17.5801839,35.9918317 C19.2686089,36.7084706 23.1255059,37.5055776 24.9333526,37.7346749 C26.7374231,37.9632988 27.8702775,38.444687 28.5447978,37.0412297 C28.5471579,37.0379163 28.6802683,36.692377 28.8629411,36.184955 C29.4491932,34.4245982 29.5303811,32.8620982 29.5303811,31.7322321 C29.5303811,31.6172102 29.7003093,31.6120034 29.7003093,31.7322321 C29.7003093,32.5302858 29.5469019,35.3542408 31.6979091,36.1120604 C32.5470778,36.4107389 34.3091383,36.6767568 36.0995202,36.885027 C37.7180859,37.0701035 38.8929502,37.701541 38.8929502,41.8196115 C38.8929502,44.3250077 38.3619248,44.6686535 35.5878477,44.6686535 C33.3386598,44.6686535 32.4814667,44.7264012 32.4814667,42.9546842 C32.4814667,41.5228264 33.9098072,41.6728756 34.968554,41.6728756 C35.4410486,41.6728756 35.0978882,41.3244963 35.0978882,40.4407679 C35.0978882,39.5622462 35.6520428,39.0538775 35.1280976,39.0410972 C31.467562,38.9412222 29.3141947,39.0368372 29.3141947,43.5757082 C29.3141947,47.6966187 30.904439,48.4615385 36.0995202,48.4615385 C40.1726036,48.4615385 41.6084965,48.3294762 43.2903132,43.1549076 C43.6235611,42.1334368 44.4278877,39.0160101 44.9150151,33.7822739 C45.2227739,30.4717239 44.6242492,20.483273 44.1498664,17.9622565 L44.1498664,17.9622565 Z M37.0497018,29.0029454 C36.5465257,28.9854318 36.0627025,29.0171457 35.6114488,29.0890936 C35.7384229,28.0723562 36.1618272,26.8236815 37.6619152,26.875749 C39.3224908,26.93255 39.555198,28.4888966 39.5608623,29.543028 C38.8603807,29.2329894 37.9937471,29.035606 37.0497018,29.0029454 L37.0497018,29.0029454 Z M16.957114,18.6893089 L16.9594741,18.6893089 L20.4538577,18.6893089 C20.6539953,18.6893089 20.8154271,18.5274262 20.8154271,18.3305161 C20.8154271,18.3290961 20.772945,15.3593519 20.772945,14.5333711 L20.772945,14.523431 C20.772945,13.8451327 20.9164399,13.2534559 21.1666119,12.7583408 L21.2860336,12.5358703 C21.272817,12.538237 21.2591283,12.5448638 21.2459117,12.557644 L14.455866,19.2345983 C14.4426494,19.2454851 14.434153,19.2596854 14.4303768,19.2738856 C14.5705675,19.2047777 14.7626807,19.1105828 14.790058,19.0992226 C15.3815024,18.8341514 16.0985048,18.6893089 16.957114,18.6893089 L16.957114,18.6893089 Z" fill="#FFFFFF" id="Evernote"/></g></g></svg>