<?xml version="1.0" ?><svg height="60px" version="1.1" viewBox="0 0 60 60" width="60px" xmlns="http://www.w3.org/2000/svg" xmlns:sketch="http://www.bohemiancoding.com/sketch/ns" xmlns:xlink="http://www.w3.org/1999/xlink"><title/><defs/><g fill="none" fill-rule="evenodd" id="flat" stroke="none" stroke-width="1"><g id="flickr"><path d="M30,60 C46.5685433,60 60,46.5685433 60,30 C60,13.4314567 46.5685433,0 30,0 C13.4314567,0 0,13.4314567 0,30 C0,46.5685433 13.4314567,60 30,60 Z" fill="#262626" id="Flickr"/><path d="M20.7692308,36.9230769 C24.5927408,36.9230769 27.6923077,33.82351 27.6923077,30 C27.6923077,26.17649 24.5927408,23.0769231 20.7692308,23.0769231 C16.9457208,23.0769231 13.8461538,26.17649 13.8461538,30 C13.8461538,33.82351 16.9457208,36.9230769 20.7692308,36.9230769 Z M39.2307692,36.9230769 C43.0542792,36.9230769 46.1538462,33.82351 46.1538462,30 C46.1538462,26.17649 43.0542792,23.0769231 39.2307692,23.0769231 C35.4072592,23.0769231 32.3076923,26.17649 32.3076923,30 C32.3076923,33.82351 35.4072592,36.9230769 39.2307692,36.9230769 Z" fill="#FFFFFF"/></g></g></svg>