<?xml version="1.0" ?><svg height="60px" version="1.1" viewBox="0 0 60 60" width="60px" xmlns="http://www.w3.org/2000/svg" xmlns:sketch="http://www.bohemiancoding.com/sketch/ns" xmlns:xlink="http://www.w3.org/1999/xlink"><title/><defs/><g fill="none" fill-rule="evenodd" id="flat" stroke="none" stroke-width="1"><g id="foresquare"><path d="M30,60 C46.5685433,60 60,46.5685433 60,30 C60,13.4314567 46.5685433,0 30,0 C13.4314567,0 0,13.4314567 0,30 C0,46.5685433 13.4314567,60 30,60 Z" fill="#4086CD" id="Foursquare"/><path d="M20.5507524,33.2427659 C20.2463083,33.2920356 19.93386,33.3176516 19.6153846,33.3176516 C16.4291263,33.3176516 13.8461538,30.7536263 13.8461538,27.5907405 C13.8461538,24.4278547 16.4291263,21.8638294 19.6153846,21.8638294 C22.8016429,21.8638294 25.3846154,24.4278547 25.3846154,27.5907405 C25.3846154,28.1025609 25.3169778,28.5986995 25.1900915,29.0708292 L29.6384371,35.8888893 L46.2530048,18.3944062 L46.1007456,25.2497817 L29.4726562,41.5077217 L20.5507524,33.2427659 Z M27.0524732,24.457934 C27.3133668,24.4977206 27.5024504,24.6433651 27.5997682,24.9148649 L29.6822529,22.9525382 L34.6492824,27.6390691 L48.4615385,13.8461538 L48.4615385,26.3582955 L40.0241114,32.7509179 L41.5608574,34.3762074 L29.4588525,46.1538462 L18.4993087,35.5324938 C14.5667258,34.9929211 11.5384615,31.6428814 11.5384615,27.5907405 C11.5384615,23.1627004 15.154623,19.573065 19.6153846,19.573065 C22.956317,19.573065 25.8234784,21.5866393 27.0524732,24.457934 L27.0524732,24.457934 Z" fill="#FFFFFF" id="foursquare"/></g></g></svg>