<?xml version="1.0" ?><svg height="60px" version="1.1" viewBox="0 0 60 60" width="60px" xmlns="http://www.w3.org/2000/svg" xmlns:sketch="http://www.bohemiancoding.com/sketch/ns" xmlns:xlink="http://www.w3.org/1999/xlink"><title/><defs/><g fill="none" fill-rule="evenodd" id="flat" stroke="none" stroke-width="1"><g id="hangouts"><path d="M30,60 C46.5685433,60 60,46.5685433 60,30 C60,13.4314567 46.5685433,0 30,0 C13.4314567,0 0,13.4314567 0,30 C0,46.5685433 13.4314567,60 30,60 Z" fill="#57BB63"/><path d="M38.0769231,36.9230769 C39.9886781,36.9230769 41.5384615,35.3732935 41.5384615,33.4615385 L33.4615385,33.4615385 C32.8242868,33.4615385 32.3076923,32.9449439 32.3076923,32.3076923 L32.3076923,19.6153846 C32.3076923,18.978133 32.8242868,18.4615385 33.4615385,18.4615385 L46.1538462,18.4615385 C46.7910978,18.4615385 47.3076923,18.978133 47.3076923,19.6153846 L47.3076923,32.3076923 C47.3076923,37.4057056 43.1749364,41.5384615 38.0769231,41.5384615 C37.6335184,41.5384615 37.1936609,41.5071144 36.7596962,41.4450411 C36.1913465,41.3637456 35.7692308,40.8769549 35.7692308,40.3028206 L35.7692308,37.9315183 C35.7692308,37.1775521 36.4805186,36.626157 37.2106867,36.814092 C37.4907757,36.886183 37.78091,36.9230769 38.0769231,36.9230769 Z M18.4615385,36.9230769 C20.3732935,36.9230769 21.9230769,35.3732935 21.9230769,33.4615385 L13.8461538,33.4615385 C13.2089022,33.4615385 12.6923077,32.9449439 12.6923077,32.3076923 L12.6923077,19.6153846 C12.6923077,18.978133 13.2089022,18.4615385 13.8461538,18.4615385 L26.5384615,18.4615385 C27.1757132,18.4615385 27.6923077,18.978133 27.6923077,19.6153846 L27.6923077,32.3076923 C27.6923077,37.4057056 23.5595518,41.5384615 18.4615385,41.5384615 C18.0181337,41.5384615 17.5782763,41.5071144 17.1443116,41.4450411 C16.5759619,41.3637456 16.1538462,40.8769549 16.1538462,40.3028206 L16.1538462,37.9315183 C16.1538462,37.1775521 16.865134,36.626157 17.5953021,36.814092 C17.8753911,36.886183 18.1655254,36.9230769 18.4615385,36.9230769 Z" fill="#FFFFFF"/></g></g></svg>