<?xml version="1.0" ?><svg height="60px" version="1.1" viewBox="0 0 60 60" width="60px" xmlns="http://www.w3.org/2000/svg" xmlns:sketch="http://www.bohemiancoding.com/sketch/ns" xmlns:xlink="http://www.w3.org/1999/xlink"><title/><defs/><g fill="none" fill-rule="evenodd" id="flat" stroke="none" stroke-width="1"><g id="trip_advisor"><path d="M30,60 C46.5685433,60 60,46.5685433 60,30 C60,13.4314567 46.5685433,0 30,0 C13.4314567,0 0,13.4314567 0,30 C0,46.5685433 13.4314567,60 30,60 Z" fill="#479951"/><path d="M49.4891264,24.9583911 C49.8955786,23.7378641 50.5174295,22.300224 51.3763774,21.4344393 L44.2962751,21.4344393 C44.1793143,21.3981649 44.057061,21.3736264 43.9379832,21.3410861 C43.5532296,20.7329564 40.9197575,17.3076923 30.3943371,17.3076923 C18.8432597,17.3076923 16.7961798,21.4344393 16.7961798,21.4344393 L9.41176751,21.4344393 C10.3538053,22.3839752 11.0084687,24.0179238 11.4090994,25.3024645 C10.0484369,27.1215193 9.23076923,29.3758669 9.23076923,31.8249227 C9.23076923,37.8171343 14.0674455,42.6923077 20.0128685,42.6923077 C23.3084132,42.6923077 26.2594261,41.190654 28.238764,38.8338846 L30.6864747,42.2890217 L32.7991797,38.6999893 C34.7779884,41.1346421 37.7819248,42.6923077 41.1409776,42.6923077 C47.0858714,42.6923077 51.9230769,37.8171343 51.9230769,31.8249227 C51.9230769,29.2222341 51.0085593,26.831324 49.4891264,24.9583911 Z M20.192572,40.3846154 C15.4207336,40.3846154 11.5384615,36.5028718 11.5384615,31.7310335 C11.5384615,26.9591952 15.4207336,23.0769231 20.192572,23.0769231 C24.9638817,23.0769231 28.8461538,26.9591952 28.8461538,31.7310335 C28.8461538,36.5028718 24.9638817,40.3846154 20.192572,40.3846154 Z M16.5207995,28.0592611 C15.5399979,29.0400627 15,30.3439083 15,31.7310345 C15,33.1181606 15.5399979,34.4220062 16.5207995,35.4022774 C17.5016012,36.383079 18.8054467,36.9230769 20.1925729,36.9230769 C23.0554104,36.9230769 25.3846154,34.5938719 25.3846154,31.7310345 C25.3846154,28.8676665 23.0554104,26.5384615 20.1925729,26.5384615 C18.8054467,26.5384615 17.5016012,27.0784594 16.5207995,28.0592611 Z M17.3365023,34.5865746 C16.5738438,33.823916 16.1538462,32.8096158 16.1538462,31.7310667 C16.1538462,30.6519227 16.5738438,29.6382173 17.3365023,28.8755588 C18.0997558,28.1123053 19.1134611,27.6923077 20.1926051,27.6923077 C22.4193064,27.6923077 24.2307692,29.5043654 24.2307692,31.7310667 C24.2307692,33.9577679 22.4193064,35.7692308 20.1926051,35.7692308 C19.1134611,35.7692308 18.0997558,35.3492331 17.3365023,34.5865746 C17.3365023,34.5865746 18.0997558,35.3492331 17.3365023,34.5865746 Z M18.4615385,31.7310302 C18.4615385,32.6868554 19.2367435,33.4615385 20.1925687,33.4615385 C21.1483939,33.4615385 21.9230769,32.6868554 21.9230769,31.7310302 C21.9230769,30.775205 21.1483939,30 20.1925687,30 C19.2367435,30 18.4615385,30.775205 18.4615385,31.7310302 Z M40.9615385,40.3846154 C36.1898459,40.3846154 32.3076923,36.5028718 32.3076923,31.7310335 C32.3076923,26.9591952 36.1898459,23.0769231 40.9615385,23.0769231 C45.7332311,23.0769231 49.6153846,26.9591952 49.6153846,31.7310335 C49.6153846,36.5028718 45.7332311,40.3846154 40.9615385,40.3846154 Z M37.2900303,28.0592611 C36.3092286,29.0400627 35.7692308,30.3439083 35.7692308,31.7310345 C35.7692308,33.1181606 36.3092286,34.4220062 37.2900303,35.4022774 C38.2708319,36.383079 39.5746775,36.9230769 40.9618037,36.9230769 C43.8246412,36.9230769 46.1538462,34.5938719 46.1538462,31.7310345 C46.1538462,28.8676665 43.8246412,26.5384615 40.9618037,26.5384615 C39.5746775,26.5384615 38.2708319,27.0784594 37.2900303,28.0592611 Z M38.1057331,34.5865746 C37.3430745,33.823916 36.9230769,32.8096158 36.9230769,31.7310667 C36.9230769,30.6519227 37.3430745,29.6382173 38.1057331,28.8755588 C38.8689866,28.1123053 39.8826919,27.6923077 40.9618359,27.6923077 C43.1885372,27.6923077 45,29.5043654 45,31.7310667 C45,33.9577679 43.1885372,35.7692308 40.9618359,35.7692308 C39.8826919,35.7692308 38.8689866,35.3492331 38.1057331,34.5865746 C38.1057331,34.5865746 38.8689866,35.3492331 38.1057331,34.5865746 Z M39.2307692,31.7310302 C39.2307692,32.6868554 40.0059743,33.4615385 40.9617995,33.4615385 C41.9176247,33.4615385 42.6923077,32.6868554 42.6923077,31.7310302 C42.6923077,30.775205 41.9176247,30 40.9617995,30 C40.0059743,30 39.2307692,30.775205 39.2307692,31.7310302 Z M30.3607364,18.4615385 C37.6443758,18.4615385 40.3846154,21.5477896 40.3846154,21.5477896 C40.3846154,21.5477896 32.5961538,20.2251866 30,30 C27.4038462,20.2251866 19.6153846,21.5477896 19.6153846,21.5477896 C19.6153846,21.5477896 22.3561463,18.4615385 29.6397856,18.4615385 L30.3607364,18.4615385 Z" fill="#FFFFFF"/></g></g></svg>