<?xml version="1.0" ?><svg height="60px" version="1.1" viewBox="0 0 60 60" width="60px" xmlns="http://www.w3.org/2000/svg" xmlns:sketch="http://www.bohemiancoding.com/sketch/ns" xmlns:xlink="http://www.w3.org/1999/xlink"><title/><defs/><g fill="none" fill-rule="evenodd" id="flat" stroke="none" stroke-width="1"><g id="vine"><path d="M30,60 C46.5685433,60 60,46.5685433 60,30 C60,13.4314567 46.5685433,0 30,0 C13.4314567,0 0,13.4314567 0,30 C0,46.5685433 13.4314567,60 30,60 Z" fill="#479951"/><path d="M28.0063696,44.5252892 C29.2102861,45.1921959 30.5753933,45.1604911 31.4920203,44.4043685 C35.168169,41.3743483 38.9746584,36.2713503 40.0517048,33.9082368 C42.0762281,34.092567 43.4710282,33.6188384 43.4710282,33.6188384 L43.4583026,29.8835707 C43.4583026,29.8835707 40.4893874,29.9370264 39.9236778,29.945137 C35.6170347,30.0063346 32.6450345,25.0106168 34.3961507,20.7898233 C35.6093222,17.8659773 37.7433626,19.9732404 38.1235874,20.8819884 C38.5038121,21.7907364 38.4205174,24.2257387 37.8667621,26.0122673 C38.5416032,27.5178765 42.2050263,28.3163951 43.0402868,27.057051 C44.0691302,24.2920976 44.5187672,19.3151815 41.8517952,16.7345583 C40.0925809,15.032453 35.6756495,14.1679443 32.4433534,16.1070983 C29.2106717,18.0462522 29.273914,22.1667701 29.5272686,24.226476 C29.7810089,26.2869193 30.4782161,30.6492784 34.7879442,33.0732209 C35.168169,33.4971804 30.0640565,39.8359282 29.7810089,39.5572209 C23.4429013,33.3157995 21.7315042,19.8641169 21.7315042,19.8641169 L16.1538462,19.8032879 C16.1538462,19.8032879 19.1964155,39.374734 28.0063696,44.5252892 Z" fill="#FFFFFF"/></g></g></svg>