<?xml version="1.0" ?><svg height="60px" version="1.1" viewBox="0 0 60 60" width="60px" xmlns="http://www.w3.org/2000/svg" xmlns:sketch="http://www.bohemiancoding.com/sketch/ns" xmlns:xlink="http://www.w3.org/1999/xlink"><title/><defs/><g fill="none" fill-rule="evenodd" id="flat" stroke="none" stroke-width="1"><g id="window_store"><path d="M30,60 C46.5685433,60 60,46.5685433 60,30 C60,13.4314567 46.5685433,0 30,0 C13.4314567,0 0,13.4314567 0,30 C0,46.5685433 13.4314567,60 30,60 Z" fill="#262626" id="Window-Store"/><path d="M26.6324087,18.5784443 L26.5157142,28.8461538 L16.1538462,28.8461538 L16.1538462,19.9193673 L26.6324087,18.5784443 Z M26.5531804,31.1538462 L26.5531804,41.2928889 L16.1542715,40.0700176 L16.1538462,31.1538462 L26.5531804,31.1538462 Z M28.8461538,18.245534 L43.8461538,16.1538462 L43.8461538,28.7322501 L28.8461538,28.8461538 L28.8461538,18.245534 L28.8461538,18.245534 Z M43.8461538,31.177619 L43.8424088,43.8461538 L28.8673756,41.7992674 L28.8461538,31.1538462 L43.8461538,31.177619 L43.8461538,31.177619 Z" fill="#FFFFFF" id="Window-Store"/></g></g></svg>