<?xml version="1.0" ?><!DOCTYPE svg  PUBLIC '-//W3C//DTD SVG 1.1//EN'  'http://www.w3.org/Graphics/SVG/1.1/DTD/svg11.dtd'><svg enable-background="new 0 0 128 128" id="Слой_1" version="1.1" viewBox="0 0 128 128" xml:space="preserve" xmlns="http://www.w3.org/2000/svg" xmlns:xlink="http://www.w3.org/1999/xlink"><circle cx="64" cy="64" fill="#CADBCD" r="62"/><path d="M13.8,100.3h53.6l4.9,15H75v-15h10V97H11.5C12.2,98.1,13,99.2,13.8,100.3z" fill="#70573D"/><rect fill="#65C8CE" height="51.1" width="64" x="20" y="45.6"/><circle cx="78" cy="51.6" fill="#3F3E3D" r="3"/><path d="M2.1,60.3c0-0.7,0.1-1.4,0.2-2.1C2.2,58.9,2.2,59.6,2.1,60.3z" fill="#3F3E3D"/><path d="M2.4,57.3c0.1-0.9,0.2-1.8,0.3-2.8C2.6,55.5,2.5,56.4,2.4,57.3z" fill="#3F3E3D"/><path d="M2,64c0-1,0-1.9,0.1-2.9C2,62.1,2,63,2,64z" fill="#3F3E3D"/><path d="M5.4,84.3C5.3,83.9,5.1,83.5,5,83C5.1,83.5,5.3,83.9,5.4,84.3z" fill="#3F3E3D"/><path d="M2.1,66.8C2,65.9,2,65,2,64C2,65,2,65.9,2.1,66.8z" fill="#3F3E3D"/><path d="M2.3,69.9c-0.1-0.8-0.1-1.5-0.2-2.3C2.2,68.4,2.2,69.1,2.3,69.9z" fill="#3F3E3D"/><path d="M2.7,73.2c-0.1-0.9-0.2-1.8-0.3-2.7C2.4,71.4,2.5,72.3,2.7,73.2z" fill="#3F3E3D"/><path d="M6.6,87.5c-0.1-0.4-0.3-0.7-0.4-1.1C6.3,86.8,6.5,87.2,6.6,87.5z" fill="#3F3E3D"/><path d="M7.6,89.8c-0.1-0.3-0.3-0.6-0.4-0.9C7.4,89.2,7.5,89.5,7.6,89.8z" fill="#3F3E3D"/><path d="M3.9,79.3c-0.2-0.8-0.4-1.6-0.6-2.4C3.5,77.7,3.7,78.5,3.9,79.3z" fill="#3F3E3D"/><path d="M4.6,81.8c-0.2-0.5-0.3-1-0.4-1.5C4.3,80.8,4.5,81.3,4.6,81.8z" fill="#3F3E3D"/><path d="M10.4,95.2c-0.1-0.2-0.2-0.4-0.4-0.6C10.2,94.8,10.3,95,10.4,95.2z" fill="#3F3E3D"/><path d="M4.8,45.6c-0.3,0.8-0.5,1.7-0.7,2.6C4.3,47.3,4.5,46.5,4.8,45.6L4.8,45.6z" fill="#3F3E3D"/><path d="M3.4,51c0.1-0.6,0.3-1.3,0.4-1.9C3.7,49.7,3.5,50.3,3.4,51z" fill="#3F3E3D"/><path d="M2.8,54.4c0.1-0.8,0.3-1.7,0.4-2.5C3,52.7,2.9,53.5,2.8,54.4z" fill="#3F3E3D"/><path d="M3.2,75.9C3,75.3,2.9,74.6,2.8,74C2.9,74.6,3,75.3,3.2,75.9z" fill="#3F3E3D"/><path d="M20,96.7V45.6H4.8c-0.3,0.8-0.5,1.7-0.7,2.6c-0.1,0.3-0.1,0.6-0.2,0.9c-0.2,0.6-0.3,1.2-0.4,1.9  c-0.1,0.3-0.1,0.6-0.2,0.9c-0.2,0.8-0.3,1.7-0.4,2.5c0,0.1,0,0.2,0,0.2c-0.1,0.9-0.3,1.8-0.3,2.8c0,0.3-0.1,0.6-0.1,0.9  c-0.1,0.7-0.1,1.4-0.2,2.1c0,0.3,0,0.6,0,0.9C2,62.1,2,63,2,64c0,1,0,1.9,0.1,2.8c0,0.3,0,0.5,0,0.8c0,0.8,0.1,1.5,0.2,2.3  c0,0.2,0,0.4,0.1,0.6c0.1,0.9,0.2,1.8,0.3,2.7c0,0.3,0.1,0.6,0.1,0.9c0.1,0.6,0.2,1.3,0.3,1.9c0.1,0.3,0.1,0.6,0.2,0.9  c0.2,0.8,0.4,1.6,0.6,2.4c0.1,0.3,0.2,0.7,0.3,1c0.1,0.5,0.3,1,0.4,1.5C4.7,82.2,4.8,82.6,5,83c0.1,0.5,0.3,0.9,0.5,1.3  c0.2,0.7,0.5,1.4,0.8,2.1c0.1,0.4,0.3,0.7,0.4,1.1C6.8,88,7,88.5,7.2,88.9c0.1,0.3,0.3,0.6,0.4,0.9c0.7,1.6,1.6,3.2,2.4,4.8  c0.1,0.2,0.2,0.4,0.4,0.6c0.3,0.5,0.6,1,0.9,1.5H20z" fill="#3F3E3D"/><polygon fill="#70573D" points="12,97.7 12,97.7 12,97.7 "/><polygon fill="#70573D" points="10.7,95.7 10.7,95.7 10.7,95.7 "/><path d="M85,44.6H5.1c-0.2,0.7-0.4,1.3-0.6,2H83v49.1H10.7c0,0,0,0,0,0c0.4,0.7,0.8,1.3,1.3,2c0,0,0,0,0,0h73V44.6z" fill="#70573D"/><polygon fill="#C55C44" points="2.6,72.2 2.6,72.2 2.6,72.2 "/><path d="M20,70.2H2.3c0.1,0.7,0.2,1.3,0.2,2c0,0,0,0,0,0H20V70.2z" fill="#C55C44"/><path d="M110.3,105.2V22.8c-0.4-0.5-0.8-0.9-1.3-1.4v85.2" fill="#70573D"/><path d="M112,24.8c-6.2-7.6-14.3-13.7-23.4-17.7l-3.5,17.7H112z" fill="#FCF2E3"/><g><rect fill="#C55C44" height="13.3" width="1" x="103.6" y="24.8"/></g><path d="M85.1,24.8L63.7,126c0.1,0,0.2,0,0.3,0c34.2,0,62-27.8,62-62c0-14.9-5.2-28.5-14-39.2H85.1z" fill="#FCF2E3" opacity="0.3"/></svg>