<?xml version="1.0" ?><!DOCTYPE svg  PUBLIC '-//W3C//DTD SVG 1.1//EN'  'http://www.w3.org/Graphics/SVG/1.1/DTD/svg11.dtd'><svg enable-background="new 0 0 128 128" id="Слой_1" version="1.1" viewBox="0 0 128 128" xml:space="preserve" xmlns="http://www.w3.org/2000/svg" xmlns:xlink="http://www.w3.org/1999/xlink"><g><g><circle cx="64" cy="64" fill="#CADBCD" r="62"/><circle cx="64" cy="64" fill="#FCF2E3" r="62"/><path d="M110.3,22.8c-0.4-0.5-0.8-0.9-1.3-1.4v85.2c0.4-0.5,0.9-0.9,1.3-1.4V22.8z" fill="#70573D"/><path d="M112,24.8c-6.2-7.6-14.3-13.7-23.4-17.7l-3.5,17.7H112z" fill="#DBAE49"/><rect fill="#C55C44" height="13.3" width="1" x="103.6" y="24.8"/><path d="M15.8,25H70c2.8,0,5,2.2,5,5v67H11.5c-4.7-7.4-7.8-15.9-9-25C2.2,69.4,2,66.7,2,64    C2,49.2,7.2,35.7,15.8,25z" fill="#65C8CE"/><path d="M75,72v25H11.5c-4.7-7.4-7.8-15.9-9-25H75z" fill="#60BEC3"/><path d="M70,25c2.8,0,5,2.2,5,5v42H2.5C2.2,69.4,2,66.7,2,64c0-14.8,5.2-28.3,13.8-39H70z" fill="#020202" opacity="0.1"/><path d="M13.8,100.3h-0.2c-0.8-1.1-1.5-2.2-2.2-3.3c0,0,0,0,0,0c0,0,0,0,0,0h0.2C12.2,98.1,13,99.2,13.8,100.3z" fill="#70573D"/><path d="M80,97v3.3h-5v15h-2.7l-4.9-15H13.8c-0.8-1.1-1.5-2.2-2.3-3.3H80z" fill="#70573D"/><rect fill="#70573D" height="40" width="5" x="75" y="57"/><rect fill="#020202" height="15" opacity="0.1" width="5" x="75" y="57"/><circle cx="33" cy="41" fill="#020202" opacity="0.15" r="1.5"/><circle cx="55" cy="41" fill="#020202" opacity="0.15" r="1.5"/><circle cx="55" cy="56" fill="#020202" opacity="0.15" r="1.5"/><circle cx="33" cy="56" fill="#020202" opacity="0.15" r="1.5"/><circle cx="11" cy="40.7" fill="#020202" opacity="0.15" r="1.5"/><circle cx="11" cy="55.7" fill="#020202" opacity="0.15" r="1.5"/><path d="M85.1,24.8L63.7,126c0.1,0,0.2,0,0.3,0c34.2,0,62-27.8,62-62c0-14.9-5.2-28.5-14-39.2H85.1z    " fill="#FCF2E3" opacity="0.3"/></g></g></svg>