<?xml version="1.0" ?><!DOCTYPE svg  PUBLIC '-//W3C//DTD SVG 1.1//EN'  'http://www.w3.org/Graphics/SVG/1.1/DTD/svg11.dtd'><svg enable-background="new 0 0 128 128" id="Слой_1" version="1.1" viewBox="0 0 128 128" xml:space="preserve" xmlns="http://www.w3.org/2000/svg" xmlns:xlink="http://www.w3.org/1999/xlink"><g><g><circle cx="64" cy="64" fill="#CADBCD" r="62"/><g><path d="M94,63.2c-0.1-2.1-1.8-3.8-3.9-3.9l-2.3-0.2c-1.9-0.1-3.8-0.1-5.7,0l-2.3,0.2c-2.1,0.1-3.8,1.8-3.9,3.9     l-0.3,4c-0.1,1.9,0.4,3.8,1.4,5.4l0.2,0.3c0.5,0.7,1.3,1.2,2.2,1.2H85h5.5c0.9,0,1.7-0.4,2.2-1.2l0.2-0.3     c1.1-1.6,1.6-3.5,1.4-5.4L94,63.2z" fill="#C55C44"/><g><path d="M87.8,59.1c-1.9-0.1-3.8-0.1-5.7,0l-2.3,0.2c-2.1,0.1-3.8,1.8-3.9,3.9l-0.3,4      c-0.1,1.9,0.4,3.8,1.4,5.4l0.2,0.3c0.3,0.5,0.8,0.8,1.3,1c-0.3-0.2-0.5-0.4-0.7-0.7l-0.2-0.3c-1.1-1.6-1.6-3.5-1.4-5.4l0.3-4      c0-0.4-0.1-1-0.1-1c0.5-1.6,2.3-2.8,4.1-2.9l2.3-0.2c1.9-0.1,3.8-0.1,5.7,0l2.3,0.2c0.5,0,0.9,0.1,1.3,0.3      c-0.6-0.3-1.2-0.6-1.9-0.6L87.8,59.1z" fill="#FCFCFC" opacity="0.2"/><path d="M94,63.2c-0.1-1.7-1.2-3-2.6-3.6c1,0.6,1.9,1.7,2.2,2.9c0,0.2-0.1,0.2-0.1,0.4l0.3,4      c0.1,1.9-0.4,3.8-1.4,5.4L92,72.5c-0.5,0.7-1.3,1.2-2.2,1.2h-5.5h-5.5c-0.3,0-0.6-0.1-0.9-0.1c0.4,0.3,0.9,0.4,1.4,0.4H85h5.5      c0.9,0,1.7-0.4,2.2-1.2l0.2-0.3c1.1-1.6,1.6-3.5,1.4-5.4L94,63.2z" opacity="0.1"/></g><path d="M94,63.2c0-0.1,0-0.3-0.1-0.4l-0.4-0.3l-5.4,6.1l-1.8,1.7l-7.9-1c1.7,2,3.1,3.5,5.9,4.7H85h5.5     c0.9,0,1.7-0.4,2.2-1.2l0.2-0.3c1.1-1.6,1.6-3.5,1.4-5.4L94,63.2z" opacity="0.1"/><path d="M85.3,68.5l0,0.1c0,0.2-0.2,0.3-0.3,0.3s-0.3-0.1-0.3-0.3l0-0.1c-0.4-3-2.1-6.6-6.5-6.2l-1.7,0.1l0,2.8     c0,2.3,1.5,4.3,3.7,4.8c0.6,0.1,1.1,0.2,1.7,0.3l1.6,0.1c1,0,1.9,0,2.9,0l1.6-0.1c0.6,0,1.2-0.1,1.7-0.3c2.2-0.5,3.7-2.6,3.7-4.8     v-2.8l-1.7-0.1C87.4,62,85.8,65.6,85.3,68.5z" fill="#B28F6F"/><circle cx="79.2" cy="65.3" opacity="0.7" r="1.5"/><g opacity="0.3"><path d="M79.2,63.8c-0.8,0-1.5,0.7-1.5,1.5c0,0.5,0.2,0.9,0.6,1.2c-0.2-0.2-0.3-0.6-0.3-0.9      c0-0.8,0.7-1.5,1.5-1.5c0.3,0,0.6,0.1,0.9,0.3C80.1,64,79.7,63.8,79.2,63.8z" opacity="0.7"/></g><circle cx="90.8" cy="65.3" opacity="0.7" r="1.5"/><g opacity="0.3"><path d="M90.8,63.8c-0.8,0-1.5,0.7-1.5,1.5c0,0.5,0.2,0.9,0.6,1.2c-0.2-0.2-0.3-0.6-0.3-0.9      c0-0.8,0.7-1.5,1.5-1.5c0.3,0,0.6,0.1,0.9,0.3C91.7,64,91.3,63.8,90.8,63.8z" opacity="0.7"/></g><g><path d="M84.7,68.8L84.7,68.8C84.7,68.8,84.7,68.8,84.7,68.8C84.7,68.8,84.7,68.8,84.7,68.8z" fill="#5B4734"/><path d="M84.7,68.5c-0.4-3-2.1-6.6-6.5-6.2l-1.7,0.1c0,0,6.1,1.8,8.2,6.3c0,0,0,0,0-0.1L84.7,68.5      z" fill="#FCFCFC" opacity="0.2"/><path d="M85.3,68.5l0,0.1c0,0,0,0,0,0.1c2.1-4.5,8.2-6.3,8.2-6.3l-1.7-0.1C87.4,62,85.8,65.6,85.3,68.5z" opacity="0.1"/></g></g><polygon fill="#70573D" points="96,96 32,96 24.4,96 24.4,99.3 32.4,99.3 32.4,114.3 35.1,114.3 40,99.3 88,99.3 92.9,114.3     95.6,114.3 95.6,99.3 103.6,99.3 103.6,96   "/><polygon fill="#70573D" points="24.4,74 24.4,96 64.5,96 103.6,96 103.6,74   "/></g><rect fill="#DBAE49" height="20" width="75.2" x="26.4" y="76"/><path d="M49.9,53.2l49.8,61.5C115.6,103.5,126,85,126,64c0-0.9,0-1.7-0.1-2.6L69.1,30L49.9,53.2z" fill="#FCF2E3" opacity="0.3"/><circle cx="64" cy="80" fill="#3F3E3D" r="3"/></g><g><path d="M41.7,70.5L23.4,42.3c-0.3-0.5-0.9-0.6-1.4-0.3l-1.8,1.2c-0.5,0.3-0.6,0.9-0.3,1.4l18.4,28.2   c0.3,0.5,0.9,0.6,1.4,0.3l1.8-1.2C41.9,71.6,42,71,41.7,70.5z" fill="#B28F6F"/></g><polygon opacity="0.1" points="24.7,51.9 27.4,48.6 24.2,43.6 21.4,46.9 "/><path d="M22.6,53.2l21.5-25.9c0.4-0.4,0.3-1.1-0.1-1.4l-1.6-1.4c-0.4-0.4-1.1-0.3-1.4,0.1L19.4,50.6  C19,51,19.1,51.6,19.5,52l1.6,1.4C21.6,53.7,22.2,53.7,22.6,53.2z" fill="#B28F6F"/><circle cx="24.5" cy="47.6" fill="#BCBCBC" r="1.6"/><g><path d="M25.9,48.4c0-0.1,0.1-0.1,0.1-0.2c0-0.1,0-0.1,0.1-0.2l-2.9-1.1c0,0.1-0.1,0.1-0.1,0.2c0,0.1,0,0.1-0.1,0.2   L25.9,48.4z" opacity="0.2"/></g><path d="M48.3,69.9l-15.2,0c-2.3,0-4.1,1.8-4.1,4.1l0,0l23.5,0v0C52.4,71.7,50.6,69.9,48.3,69.9z" fill="#65C8CE"/><path d="M42.3,24.6c-0.4-0.4-1.1-0.3-1.4,0.1l-7.6,9.2l2.6,3.3l8.2-9.8c0.4-0.4,0.3-1.1-0.1-1.4L42.3,24.6z" opacity="0.1"/><polygon fill="#FCF2E3" points="31.8,30.8 49.9,53.2 69.1,30 43.8,16.3 "/><path d="M45.7,69.9H45V69c0-0.2,0.2-0.4,0.4-0.4h0c0.2,0,0.4,0.2,0.4,0.4V69.9z" fill="#C55C44"/><rect fill="#C55C44" height="0.4" width="1.6" x="44.5" y="69.5"/></svg>