<?xml version="1.0" ?><!DOCTYPE svg  PUBLIC '-//W3C//DTD SVG 1.1//EN'  'http://www.w3.org/Graphics/SVG/1.1/DTD/svg11.dtd'><svg enable-background="new 0 0 128 128" id="Слой_1" version="1.1" viewBox="0 0 128 128" xml:space="preserve" xmlns="http://www.w3.org/2000/svg" xmlns:xlink="http://www.w3.org/1999/xlink"><g><g><circle cx="64" cy="64" fill="#CADBCD" r="62"/><polygon fill="#70573D" points="96,96 32,96 24.4,96 24.4,99.3 32.4,99.3 32.4,114.3 35.1,114.3 40,99.3 88,99.3 92.9,114.3     95.6,114.3 95.6,99.3 103.6,99.3 103.6,96   "/><polygon fill="#70573D" points="24.4,30 24.4,96 64.5,96 103.6,96 103.6,30   "/></g><rect fill="#FCF2E3" height="20" width="75.2" x="26.4" y="32"/><circle cx="64" cy="36" fill="#3F3E3D" r="3"/><rect fill="#DBAE49" height="20" width="75.2" x="26.4" y="54"/><circle cx="64" cy="58" fill="#3F3E3D" r="3"/><rect fill="#65C8CE" height="20" width="75.2" x="26.4" y="76"/><circle cx="64" cy="80" fill="#3F3E3D" r="3"/></g><g><g><g><g><path d="M83.4,15c-7,0-12.9,4-15.7,9.7c-0.8,1.6,0.4,3.5,2.2,3.5h27c1.8,0,3-1.9,2.2-3.5      C96.4,19,90.4,15,83.4,15z" fill="#262525"/><g><path d="M69.4,25.2c2.8-5.7,8.8-9.7,15.7-9.7c1.7,0,3.3,0.2,4.8,0.7c-2-0.8-4.2-1.2-6.5-1.2       c-7,0-12.9,4-15.7,9.7c-0.8,1.6,0.4,3.5,2.2,3.5H70C69.2,27.5,68.8,26.3,69.4,25.2z" fill="#FFFFFF" opacity="0.2"/><path d="M99.1,24.7c-2.1-4.3-6.1-7.7-10.9-9c4.1,1.6,7.4,4.6,9.2,8.5c0.8,1.6-0.4,3.5-2.2,3.5H68.3       c0.4,0.3,1,0.6,1.6,0.6h27C98.7,28.2,99.9,26.3,99.1,24.7z" opacity="0.2"/></g></g><circle cx="75.1" cy="26.1" fill="#C55C44" r="3.9"/><g><path d="M75.5,22.5c1,0,1.9,0.4,2.6,1c-0.7-0.8-1.8-1.3-2.9-1.3c-2.2,0-3.9,1.8-3.9,3.9      c0,1.2,0.5,2.2,1.3,2.9c-0.6-0.7-1-1.6-1-2.6C71.6,24.3,73.3,22.5,75.5,22.5z" fill="#FFFFFF" opacity="0.2"/><path d="M77.7,23.1c0.6,0.7,1,1.6,1,2.6c0,2.2-1.8,3.9-3.9,3.9c-1,0-1.9-0.4-2.6-1c0.7,0.8,1.8,1.3,2.9,1.3      c2.2,0,3.9-1.8,3.9-3.9C79.1,24.9,78.5,23.9,77.7,23.1z" opacity="0.2"/></g><circle cx="75.1" cy="26.1" fill="#BCBCBC" r="1"/><circle cx="91.8" cy="26.1" fill="#C55C44" r="3.9"/><g><path d="M92.2,22.5c1,0,1.9,0.4,2.6,1c-0.7-0.8-1.8-1.3-2.9-1.3c-2.2,0-3.9,1.8-3.9,3.9      c0,1.2,0.5,2.2,1.3,2.9c-0.6-0.7-1-1.6-1-2.6C88.3,24.3,90,22.5,92.2,22.5z" fill="#FFFFFF" opacity="0.2"/><path d="M94.5,23.1c0.6,0.7,1,1.6,1,2.6c0,2.2-1.8,3.9-3.9,3.9c-1,0-1.9-0.4-2.6-1c0.7,0.8,1.8,1.3,2.9,1.3      c2.2,0,3.9-1.8,3.9-3.9C95.8,24.9,95.3,23.9,94.5,23.1z" opacity="0.2"/></g><circle cx="91.8" cy="26.1" fill="#BCBCBC" r="1"/><g><path d="M92.6,25.5C92.6,25.4,92.6,25.4,92.6,25.5c-0.1-0.1-0.1-0.1-0.2-0.2L91,26.7c0,0,0,0.1,0.1,0.1      c0,0,0.1,0.1,0.1,0.1L92.6,25.5z" opacity="0.2"/></g><g><path d="M75.8,26.9C75.8,26.8,75.8,26.8,75.8,26.9c0.1-0.1,0.1-0.1,0.2-0.2l-1.4-1.4c0,0-0.1,0-0.1,0.1      c0,0-0.1,0.1-0.1,0.1L75.8,26.9z" opacity="0.2"/></g></g></g></g></svg>