<?xml version="1.0" ?><!DOCTYPE svg  PUBLIC '-//W3C//DTD SVG 1.1//EN'  'http://www.w3.org/Graphics/SVG/1.1/DTD/svg11.dtd'><svg enable-background="new 0 0 128 128" id="Слой_1" version="1.1" viewBox="0 0 128 128" xml:space="preserve" xmlns="http://www.w3.org/2000/svg" xmlns:xlink="http://www.w3.org/1999/xlink"><circle cx="64" cy="64" fill="#CADBCD" r="62"/><path d="M94.1,49c-0.5-7.1-6.1-12.7-13.1-13.2l-7.6-0.5c-6.3-0.4-12.6-0.4-18.9,0L47,35.8  c-7.1,0.5-12.7,6.1-13.1,13.2L33,62.4c-0.4,6.4,1.3,12.7,4.8,18l0.6,1c1.6,2.4,4.3,3.9,7.2,3.9H64h18.4c2.9,0,5.6-1.4,7.2-3.9l0.6-1  c3.5-5.3,5.2-11.6,4.8-18L94.1,49z" fill="#C55C44"/><g><path d="M73.5,35.3c-6.3-0.4-12.6-0.4-18.9,0L47,35.8c-7.1,0.5-12.7,6.1-13.1,13.2L33,62.4   c-0.4,6.4,1.3,12.7,4.8,18l0.6,1c1.1,1.6,2.6,2.7,4.3,3.4c-0.9-0.6-1.7-1.4-2.3-2.4l-0.6-1c-3.5-5.3-5.2-11.6-4.8-18L35.9,50   c0.1-1.3-0.4-3.5-0.4-3.5c1.8-5.2,7.8-9.3,13.6-9.7l7.6-0.5c6.3-0.4,12.6-0.4,18.9,0l7.6,0.5c1.5,0.1,3,0.5,4.3,1   c-1.9-1.1-4-1.9-6.3-2L73.5,35.3z" fill="#FCFCFC" opacity="0.2"/><path d="M94.1,49c-0.4-5.5-3.9-10.2-8.8-12.1c3.3,2,6.4,5.8,7.2,9.7c0.1,0.6-0.5,0.8-0.4,1.5L93,61.4   c0.4,6.4-1.3,12.7-4.8,18l-0.6,1c-1.6,2.4-4.3,3.9-7.2,3.9H62H43.6c-1,0-1.9-0.2-2.8-0.5c1.4,1,3.1,1.5,4.8,1.5H64h18.4   c2.9,0,5.6-1.4,7.2-3.9l0.6-1c3.5-5.3,5.2-11.6,4.8-18L94.1,49z" opacity="0.1"/></g><path d="M94.1,49c0-0.5-0.1-1-0.2-1.4l-1.4-1.1L74.4,66.8l-6,5.8l-26.3-3.2c5.5,6.8,10.2,11.9,19.8,15.9h2h18.4  c2.9,0,5.6-1.4,7.2-3.9l0.6-1c3.5-5.3,5.2-11.6,4.8-18L94.1,49z" opacity="0.1"/><path d="M65.2,66.9l-0.1,0.4c-0.1,0.5-0.5,0.9-1.1,0.9s-1-0.4-1.1-0.9l-0.1-0.4c-1.5-9.9-7-22-21.8-20.9l-5.7,0.5  l0,9.4c0,7.6,5.1,14.4,12.5,16.2c1.9,0.5,3.8,0.7,5.8,0.8l5.5,0.3c3.2,0.2,6.5,0.2,9.7,0l5.5-0.3c2-0.1,3.9-0.4,5.8-0.8  c7.4-1.8,12.5-8.6,12.5-16.2v-9.4L86.9,46C72.2,44.9,66.6,57,65.2,66.9z" fill="#B28F6F"/><circle cx="44.5" cy="56" opacity="0.7" r="5"/><g opacity="0.3"><path d="M44.5,51c-2.8,0-5,2.2-5,5c0,1.6,0.8,3.1,2,4c-0.6-0.8-1-1.9-1-3c0-2.8,2.2-5,5-5c1.1,0,2.2,0.4,3,1   C47.6,51.8,46.2,51,44.5,51z" opacity="0.7"/></g><circle cx="83.5" cy="56" opacity="0.7" r="5"/><g opacity="0.3"><path d="M83.5,51c-2.8,0-5,2.2-5,5c0,1.6,0.8,3.1,2,4c-0.6-0.8-1-1.9-1-3c0-2.8,2.2-5,5-5c1.1,0,2.2,0.4,3,1   C86.5,51.8,85.1,51,83.5,51z" opacity="0.7"/></g><g><path d="M63.1,67.8L63.1,67.8C63.1,67.8,63.1,67.8,63.1,67.8C63.1,67.8,63.1,67.8,63.1,67.8z" fill="#5B4734"/><path d="M62.8,66.9c-1.5-9.9-7-22-21.8-20.9l-5.7,0.5c0,0,20.4,6,27.5,21c0-0.1-0.1-0.1-0.1-0.2   L62.8,66.9z" fill="#FCFCFC" opacity="0.2"/><path d="M65.2,66.9l-0.1,0.4c0,0.1,0,0.1-0.1,0.2c7.2-15,27.5-21,27.5-21L86.9,46C72.2,44.9,66.6,57,65.2,66.9z" opacity="0.1"/></g><path d="M5.7,85.2C7.4,89.7,9.5,94,12.2,98h103.7c2.6-4,4.8-8.3,6.5-12.8H5.7z" fill="#70573D"/><path d="M64,126c21.7,0,40.8-11.1,51.8-28H12.2C23.2,114.9,42.3,126,64,126z" fill="#65C8CE"/></svg>