<?xml version="1.0" ?><!DOCTYPE svg  PUBLIC '-//W3C//DTD SVG 1.1//EN'  'http://www.w3.org/Graphics/SVG/1.1/DTD/svg11.dtd'><svg enable-background="new 0 0 128 128" id="Слой_1" version="1.1" viewBox="0 0 128 128" xml:space="preserve" xmlns="http://www.w3.org/2000/svg" xmlns:xlink="http://www.w3.org/1999/xlink"><circle cx="64" cy="64" fill="#CADBCD" r="62"/><path d="M108.9,45.3h-8.3c-2.8,0-5,2.2-5,5V29c0-2.8-2.2-5-5-5H64.4h-27c-2.8,0-5,2.2-5,5v21.3c0-2.8-2.2-5-5-5h-8.3  c-3,0-5.3,2.6-5,5.6L22.4,91c0.8,2.8,2.2,5,5,5h5h32h31.2h5c2.8,0,4.2-2.2,5-5l8.3-40.1C114.3,48,112,45.3,108.9,45.3z" fill="#DBAE49"/><polygon fill="#70573D" points="96,96 32,96 24.4,96 24.4,99.3 32.4,99.3 32.4,114.3 35.1,114.3 40,99.3 88,99.3 92.9,114.3   95.6,114.3 95.6,99.3 103.6,99.3 103.6,96 "/><polygon fill="#D0A545" points="64.4,71 32.4,71 32.4,96 64.4,96 95.6,96 95.6,71 "/><path d="M90.6,24H64.4h-27c-2.8,0-5,2.2-5,5v42h32h31.2V29C95.6,26.2,93.4,24,90.6,24z" fill="#020202" opacity="0.1"/><circle cx="76.4" cy="40" fill="#020202" opacity="0.15" r="1.5"/><circle cx="52.4" cy="40" fill="#020202" opacity="0.15" r="1.5"/><circle cx="52.4" cy="55" fill="#020202" opacity="0.15" r="1.5"/><circle cx="76.4" cy="55" fill="#020202" opacity="0.15" r="1.5"/></svg>