<?xml version="1.0" ?><!DOCTYPE svg  PUBLIC '-//W3C//DTD SVG 1.1//EN'  'http://www.w3.org/Graphics/SVG/1.1/DTD/svg11.dtd'><svg enable-background="new 0 0 128 128" id="Слой_1" version="1.1" viewBox="0 0 128 128" xml:space="preserve" xmlns="http://www.w3.org/2000/svg" xmlns:xlink="http://www.w3.org/1999/xlink"><circle cx="64" cy="64" fill="#CADBCD" r="62"/><circle cx="64" cy="75.1" fill="#FCF2E3" r="22.7"/><path d="M65.6,52.5c-0.5,0-1.1-0.1-1.7-0.1c-12.6,0-22.7,10.2-22.7,22.7S51.4,97.9,64,97.9  c0.6,0,1.1,0,1.7-0.1C53.9,97,44.6,87.1,44.6,75.1S53.9,53.3,65.6,52.5z" fill="#FCFCFC" opacity="0.5"/><path d="M64,52.4c-0.6,0-1.1,0-1.7,0.1c11.8,0.8,21.1,10.7,21.1,22.7S74.1,97,62.3,97.8c0.5,0,1.1,0.1,1.7,0.1  c12.6,0,22.7-10.2,22.7-22.7S76.5,52.4,64,52.4z" fill="#EFE6D8"/><path d="M64,52.2c-0.8,0-1.4,0.6-1.4,1.4v31.1c0,0.8,0.6,1.4,1.4,1.4s1.4-0.6,1.4-1.4V53.6  C65.4,52.8,64.8,52.2,64,52.2z" fill="#FFFFFF"/><path d="M65.3,36.6V2c-0.3,0-0.6,0-0.9,0h-0.8c-0.3,0-0.6,0-0.9,0v34.6H65.3z" fill="#C55C44"/><path d="M64,33.3c-4.6,0-8.3,3.7-8.3,8.3v12.4h16.5V41.5C72.3,37,68.6,33.3,64,33.3z" fill="#70573D"/><path d="M55.7,41.5v12.4H57V41.5c0-4.4,3.4-7.9,7.6-8.2c-0.2,0-0.4,0-0.6,0  C59.4,33.3,55.7,37,55.7,41.5z" fill="#FCFCFC" opacity="0.1"/><path d="M64,33.3c-0.2,0-0.4,0-0.6,0c4.3,0.3,7.6,3.9,7.6,8.2v12.4h1.2V41.5C72.3,37,68.6,33.3,64,33.3z" opacity="0.1"/><path d="M70.4,61.8c0-0.1-0.1-0.2-0.1-0.2c-0.1,0-0.2,0-0.2,0.1l-2.2,4.3l-0.5-4.3c0-0.1-0.1-0.2-0.2-0.2  s-0.2,0.1-0.2,0.2l-1,8.2l-0.4,0.8l-1.2-9.1c0-0.1-0.1-0.2-0.2-0.2c0,0,0,0,0,0c-0.1,0-0.2,0.1-0.2,0.2l-1.1,9.4L62,69.8l-1-8  c0-0.1-0.1-0.2-0.2-0.2c0,0,0,0,0,0c-0.1,0-0.2,0.1-0.2,0.2l-0.5,4.1L58,61.7c0-0.1-0.2-0.1-0.2-0.1c-0.1,0-0.2,0.1-0.1,0.2  l1.6,11.8l-1.6,13c0,0.1,0,0.2,0.1,0.2c0,0,0,0,0.1,0c0.1,0,0.1,0,0.2-0.1l2.3-4.6l0.6,4.6c0,0.1,0.1,0.2,0.2,0.2c0,0,0,0,0,0  c0.1,0,0.2-0.1,0.2-0.2l1-8.6l0.3-0.6l1.2,9.2c0,0.1,0.1,0.2,0.2,0.2h0c0.1,0,0.2-0.1,0.2-0.2l1.2-9.2l0.8,1.6l1.1,7.7  c0,0.1,0.1,0.2,0.2,0.2c0,0,0,0,0,0c0.1,0,0.2-0.1,0.2-0.2l0.4-3.9l2,3.9c0,0.1,0.1,0.1,0.2,0.1c0,0,0,0,0.1,0  c0.1,0,0.2-0.1,0.1-0.2l-1.5-11.7L70.4,61.8z M67.8,81.3l-1.2-2.5l-0.7-5.2l0.4-3.5l1.3-2.7l0.9,7.4L67.8,81.3z M59.6,73.6l0.8-6.3  l1.3,2.6l0.6,4.9l-0.4,3.1l-1.4,2.8L59.6,73.6z M62.7,74.8l0.3-2.3l0.8,1.6L62.8,76L62.7,74.8z M65.4,73.6L65.1,76l-0.9-1.8l1-2  L65.4,73.6z M69.9,62.9l-1.1,10.2l-0.8-6.3L69.9,62.9z M67.1,63.5l0.4,3.3l-1.1,2.2L67.1,63.5z M65.7,71.2L65.6,72l-0.1-0.5  L65.7,71.2z M64,63.4l1.1,8.1L64,73.7l-1-1.9L64,63.4z M62.6,71.9l-0.1,1.2l-0.3-2.1L62.6,71.9z M60.8,63.5l0.7,5.2l-1.1-2.1  L60.8,63.5z M60,66.7l-0.6,5.3l-1.2-9L60,66.7z M58.1,85.4l1.2-10.2l0.8,6.1L58.1,85.4z M61.1,84.9l-0.5-3.5l1.1-2.3L61.1,84.9z   M62.5,76.8l0-0.3l0,0.2L62.5,76.8z M64,85l-1.1-8.2l1.1-2.1l1,2.1L64,85z M65.5,76.6l0.2-1.4l0.3,2.5L65.5,76.6z M67.4,84.9  l-0.7-4.8l1,2L67.4,84.9z M68.1,82l0.6-5.4l1.1,8.8L68.1,82z" fill="#E2B90E"/></svg>