<?xml version="1.0" ?><!DOCTYPE svg  PUBLIC '-//W3C//DTD SVG 1.1//EN'  'http://www.w3.org/Graphics/SVG/1.1/DTD/svg11.dtd'><svg enable-background="new 0 0 128 128" id="Слой_1" version="1.1" viewBox="0 0 128 128" xml:space="preserve" xmlns="http://www.w3.org/2000/svg" xmlns:xlink="http://www.w3.org/1999/xlink"><circle cx="64" cy="64" fill="#CADBCD" r="62"/><g><path d="M64,126c20.2,0,38.1-9.7,49.5-24.6c0.5-3.3,0.7-6.7,0.4-10.1l-1.4-21.5c-0.7-11.3-9.8-20.4-21.1-21.2   l-12.2-0.8c-10.1-0.7-20.3-0.7-30.4,0l-12.2,0.8c-11.3,0.8-20.4,9.8-21.1,21.2l-1.4,21.5c-0.2,3.4-0.1,6.8,0.4,10.1   C25.9,116.3,43.8,126,64,126z" fill="#C55C44"/><g><path d="M17.3,92.9l1.4-21.5c0.1-2.1-0.7-5.6-0.7-5.6c2.9-8.4,12.6-14.9,21.8-15.6L52,49.4    c10.1-0.7,20.3-0.7,30.4,0l12.2,0.8c2.5,0.2,4.8,0.7,7,1.6c-3-1.8-6.5-3-10.2-3.2l-12.2-0.8c-10.1-0.7-20.3-0.7-30.4,0l-12.2,0.8    c-11.3,0.8-20.4,9.8-21.1,21.2l-1.4,21.5c-0.2,3.4-0.1,6.8,0.4,10.1c1.2,1.6,2.4,3.1,3.7,4.5C17.4,101.6,17,97.3,17.3,92.9z" fill="#FCFCFC" opacity="0.2"/><path d="M113.9,91.3l-1.4-21.5c-0.6-8.9-6.3-16.3-14.1-19.5c5.3,3.2,10.3,9.3,11.6,15.5c0.2,1-0.8,1.3-0.7,2.4    l1.4,21.5c0.4,5.9-0.4,11.9-2.2,17.4c1.8-1.8,3.4-3.7,5-5.8C114,98.1,114.1,94.7,113.9,91.3z" opacity="0.1"/></g><path d="M113.5,101.4c0.5-3.3,0.7-6.7,0.4-10.1l-1.4-21.5c-0.1-0.8-0.1-1.5-0.3-2.3l-2.2-1.7L80.8,98.4l-9.7,9.2   l-42.3-5.1c7.7,9.4,14.4,16.8,26.1,22.8c3,0.4,6,0.7,9,0.7C84.2,126,102.1,116.3,113.5,101.4z" opacity="0.1"/><path d="M100.9,65c-23.7-1.8-32.6,17.7-35,33.6l-0.1,0.7c-0.1,0.9-0.9,1.5-1.8,1.5s-1.6-0.6-1.8-1.5l-0.1-0.7   c-2.4-15.9-11.3-35.3-35-33.6L18,65.8v15.1c0,12.2,8.2,23.1,20.1,26c3.1,0.7,6.2,1.2,9.3,1.3l8.8,0.4c5.2,0.3,10.4,0.3,15.6,0   l8.8-0.4c3.1-0.2,6.3-0.6,9.3-1.3c11.9-2.9,20.1-13.8,20.1-26V65.8L100.9,65z" fill="#B28F6F"/><circle cx="32.7" cy="81.1" opacity="0.7" r="8"/><g opacity="0.3"><path d="M32.7,73c-4.4,0-8,3.6-8,8c0,2.6,1.3,4.9,3.2,6.4c-1-1.3-1.6-3-1.6-4.8c0-4.4,3.6-8,8-8    c1.8,0,3.5,0.6,4.8,1.6C37.6,74.3,35.3,73,32.7,73z" opacity="0.7"/></g><circle cx="95.3" cy="81.1" opacity="0.7" r="8"/><g opacity="0.3"><path d="M95.3,73c-4.4,0-8,3.6-8,8c0,2.6,1.3,4.9,3.2,6.4c-1-1.3-1.6-3-1.6-4.8c0-4.4,3.6-8,8-8    c1.8,0,3.5,0.6,4.8,1.6C100.2,74.3,97.9,73,95.3,73z" opacity="0.7"/></g><g><path d="M62.6,100.1L62.6,100.1c0-0.1,0-0.1-0.1-0.1C62.6,100.1,62.6,100.1,62.6,100.1z" fill="#5B4734"/><path d="M62.1,98.6c-2.4-15.9-11.3-35.3-35-33.6L18,65.8c0,0,32.8,9.6,44.3,33.8    c0-0.1-0.1-0.2-0.1-0.3L62.1,98.6z" fill="#FCFCFC" opacity="0.2"/><path d="M100.9,65c-23.7-1.8-32.6,17.7-35,33.6l-0.1,0.7c0,0.1-0.1,0.2-0.1,0.3C77.2,75.4,110,65.8,110,65.8    L100.9,65z" opacity="0.1"/></g></g></svg>