<?xml version="1.0" ?><!DOCTYPE svg  PUBLIC '-//W3C//DTD SVG 1.1//EN'  'http://www.w3.org/Graphics/SVG/1.1/DTD/svg11.dtd'><svg enable-background="new 0 0 128 128" id="Слой_1" version="1.1" viewBox="0 0 128 128" xml:space="preserve" xmlns="http://www.w3.org/2000/svg" xmlns:xlink="http://www.w3.org/1999/xlink"><circle cx="64" cy="64" fill="#CADBCD" r="62"/><path d="M99.5,30L99.5,30c-1.8-0.7-3.7,0.4-4.4,1.9l-18,37.8c-0.7,1.8,0.2,3.9,1.9,4.6L29.7,65  c-2.7-0.5-5.3,1.2-5.9,3.9c-0.5,2.7,1.2,5.3,3.9,5.9l52.2,9.8l21.5-50.1C102.1,32.6,101.3,30.7,99.5,30z" fill="#DBAE49"/><polygon fill="#70573D" points="93.3,98.2 91.3,98.2 91.3,58.8 32.6,58.8 32.6,98.2 30.6,98.2 30.6,56.8 93.3,56.8 "/><polyline fill="#70573D" points="81,86.7 27,76.6 27.4,74.7 79.8,84.5 101.5,34.2 103.4,35 "/><polygon fill="#C55C44" points="71.6,83 70.9,86.9 72.9,87.2 73.6,83.4 "/></svg>