<?xml version="1.0" ?><!DOCTYPE svg  PUBLIC '-//W3C//DTD SVG 1.1//EN'  'http://www.w3.org/Graphics/SVG/1.1/DTD/svg11.dtd'><svg enable-background="new 0 0 128 128" id="Слой_1" version="1.1" viewBox="0 0 128 128" xml:space="preserve" xmlns="http://www.w3.org/2000/svg" xmlns:xlink="http://www.w3.org/1999/xlink"><g><circle cx="64" cy="64" fill="#CADBCD" r="62"/><path d="M66.3,102h0.2c13.2,0,24-10.4,24.6-23.5c0-0.4-1-0.9-1-1.3c0-17.3-6.4-26.8-6.3-36.8c0-5.5,4-8,7-9.3   c1.2-0.5,2.5-0.8,3.5-1c0.6-0.1,0.6-0.9,0-1.1c-3-0.8-7.3-1.2-8.2-1.2c-0.1,0-0.2-0.1-0.3-0.2c-0.6-0.7-3.6-3.6-9.6-1.5   c-6.8,2.4-11,12.1-11,24.6c0,23.3-25.8,38-38.2,45.4c-2.8,1.7-1.6,5.9,1.6,5.9h35.5h0.3c0.1,0,0.2,0.1,0.2,0.2l0,23.8   c0.5,0,1,0,1.5,0l0-23.7C66.1,102.1,66.2,102,66.3,102z" fill="#262525"/><g><path d="M76.2,26.1c-6.8,2.4-11,12.1-11,24.6c0,23.3-25.8,38-38.2,45.4c-2.8,1.7-1.6,5.9,1.6,5.9h3    c-3.2,0-4.4-4.2-1.6-5.9c12.4-7.5,38.2-22.2,38.2-45.4c0-12.4,4.2-22.2,11-24.6c0.9-0.3,1.8-0.5,2.6-0.6    C80.3,25.2,78.5,25.3,76.2,26.1z" fill="#FCFCFC" opacity="0.1"/><path d="M66.3,102h-1.9c0.1,0,0.2,0.1,0.2,0.2l0,23.8c0.5,0,1,0,1.5,0l0-23.7C66.1,102.1,66.2,102,66.3,102z" fill="#262525"/><path d="M66.3,102h0.2c13.2,0,24-10.4,24.6-23.5c0-0.4-1-0.9-1-1.3c0-17.3-6.4-26.8-6.3-36.8c0-5.5,4-8,7-9.3    c1.2-0.5,2.5-0.8,3.5-1c0.6-0.1,0.6-0.9,0-1.1c-3-0.8-7.3-1.2-8.2-1.2c-0.1,0-0.2-0.1-0.3-0.2c-0.5-0.6-2.7-2.8-7.1-2.1    c2.4,0.4,3.7,1.7,4.1,2.1c0.1,0.1,0.2,0.1,0.3,0.2c0.9,0.1,5.2,0.4,8.2,1.2c0.6,0.2,0.5,1,0,1.1c-1,0.2-2.2,0.5-3.5,1    c-3,1.3-7,3.8-7,9.3c0,10,7.3,19.5,7.3,36.8c0,0.4,0,0.9,0,1.3C87.5,91.6,76.7,102,63.5,102h0.7h0.3c0.1,0,0.2,0.1,0.2,0.2l0,23.8    c0.5,0,1,0,1.5,0l0-23.7C66.1,102.1,66.2,102,66.3,102z" opacity="0.3"/></g><g><path d="M90.3,31.3C80.1,35.2,77.1,40.2,75.4,45c-3.5,9.8,1.1,18.6,3.5,22c2.1,2.9,6.3,6.9,12.3,11.5    c0-0.4,0-0.9,0-1.3c0-17.3-6.4-26.8-6.3-36.8C84.8,35.2,87.5,32.7,90.3,31.3z" fill="#DBAE49"/><polygon fill="#B28F6F" points="93.2,30.3 93.2,30.3 93.2,30.3   "/></g><g><path d="M85.9,35.1c-0.1,0.1-0.1,0.2-0.1,0.3C85.8,35.3,85.9,35.2,85.9,35.1z" fill="#B28F6F"/><path d="M85.1,37.1c0,0.1-0.1,0.3-0.1,0.4C85,37.4,85.1,37.2,85.1,37.1z" fill="#B28F6F"/><path d="M86.3,34.6c-0.1,0.1-0.1,0.1-0.2,0.2C86.2,34.7,86.2,34.6,86.3,34.6z" fill="#B28F6F"/><path d="M85.6,35.7c0,0.1-0.1,0.2-0.1,0.3C85.5,35.9,85.6,35.8,85.6,35.7z" fill="#B28F6F"/><path d="M85.3,36.4c0,0.1-0.1,0.2-0.1,0.4C85.2,36.6,85.3,36.5,85.3,36.4z" fill="#B28F6F"/><path d="M87.9,32.8C87.9,32.8,87.9,32.8,87.9,32.8C87.9,32.8,87.9,32.8,87.9,32.8z" fill="#B28F6F"/><path d="M86.7,34.1c0,0.1-0.1,0.1-0.1,0.2C86.6,34.2,86.6,34.1,86.7,34.1z" fill="#B28F6F"/><path d="M90,31.5c0.2-0.1,0.4-0.2,0.5-0.3C90.3,31.3,90.2,31.4,90,31.5C90,31.5,90,31.5,90,31.5z" fill="#B28F6F"/><path d="M87.5,33.2C87.5,33.2,87.5,33.2,87.5,33.2C87.5,33.2,87.5,33.2,87.5,33.2z" fill="#B28F6F"/><path d="M84.8,38.6c0,0.2,0,0.4,0,0.6C84.8,39,84.8,38.8,84.8,38.6z" fill="#B28F6F"/><path d="M84.8,40.4c0-0.3,0-0.6,0-0.9C84.8,39.8,84.8,40.1,84.8,40.4z" fill="#B28F6F"/><path d="M87,33.7c0,0,0.1-0.1,0.1-0.1C87,33.6,87,33.7,87,33.7z" fill="#B28F6F"/><path d="M84.9,37.8c0,0.2,0,0.3-0.1,0.5C84.9,38.1,84.9,38,84.9,37.8z" fill="#B28F6F"/><path d="M89.8,31.5c-9.8,3.8-12.8,8.8-14.5,13.5c-3.5,9.8,1.1,18.6,3.5,22c2.2,3.2,5.9,6.9,12.5,11.7    C73,63.8,70.3,41.4,89.8,31.5z" opacity="0.2"/><path d="M87,33.7c-0.1,0.1-0.2,0.2-0.3,0.3C86.8,33.9,86.9,33.8,87,33.7z" fill="#B28F6F"/><path d="M89.8,31.5c0,0,0.1,0,0.1,0c0,0,0,0,0,0C89.9,31.4,89.9,31.5,89.8,31.5z" fill="#B28F6F"/><path d="M87.9,32.8c-0.1,0.1-0.3,0.2-0.4,0.4C87.6,33,87.8,32.9,87.9,32.8z" fill="#B28F6F"/><path d="M87.9,32.8c0.6-0.5,1.3-1,2-1.3c0,0,0,0,0,0C89.3,31.8,88.6,32.3,87.9,32.8z" fill="#B28F6F"/><path d="M87.1,33.6c0.1-0.1,0.2-0.2,0.3-0.3C87.3,33.4,87.2,33.5,87.1,33.6z" fill="#B28F6F"/><path d="M84.9,38.3c0,0.1,0,0.2,0,0.3C84.8,38.5,84.8,38.4,84.9,38.3z" fill="#B28F6F"/><path d="M85.5,36c0,0.1-0.1,0.2-0.1,0.3C85.4,36.3,85.4,36.2,85.5,36z" fill="#B28F6F"/><path d="M85,37.5c0,0.1-0.1,0.2-0.1,0.3C84.9,37.7,85,37.6,85,37.5z" fill="#B28F6F"/><path d="M85.8,35.4c-0.1,0.1-0.1,0.2-0.2,0.3C85.7,35.6,85.7,35.5,85.8,35.4z" fill="#B28F6F"/><path d="M86.5,34.2c-0.1,0.1-0.2,0.2-0.2,0.3C86.4,34.5,86.4,34.3,86.5,34.2z" fill="#B28F6F"/><path d="M84.8,39.5c0-0.1,0-0.2,0-0.3C84.8,39.3,84.8,39.4,84.8,39.5z" fill="#B28F6F"/><path d="M85.2,36.7c0,0.1-0.1,0.2-0.1,0.3C85.1,37,85.2,36.9,85.2,36.7z" fill="#B28F6F"/><path d="M86.1,34.8c-0.1,0.1-0.1,0.2-0.2,0.3C86,35,86.1,34.9,86.1,34.8z" fill="#B28F6F"/></g></g></svg>