<?xml version="1.0" ?><!DOCTYPE svg  PUBLIC '-//W3C//DTD SVG 1.1//EN'  'http://www.w3.org/Graphics/SVG/1.1/DTD/svg11.dtd'><svg enable-background="new 0 0 128 128" id="Слой_1" version="1.1" viewBox="0 0 128 128" xml:space="preserve" xmlns="http://www.w3.org/2000/svg" xmlns:xlink="http://www.w3.org/1999/xlink"><circle cx="64" cy="64" fill="#CADBCD" r="62"/><path d="M62.4,109H51.5h-5.7c-0.6,0-0.9-0.8-0.4-1.1c3.8-2.7,6.1-7.1,6.1-11.8V27c0.2-4.5,3.8-8,8.3-8h0  c7.2,0,13,8,13,8l8.7,0c0.7,0,1,0.9,0.4,1.3l-6.6,4.2c-1.5,1-3.5,2.7-3.5,4.5v0c0,7.9,10.8,63.2,4.4,67.6  C72.3,107.4,67.5,109,62.4,109z" fill="#262525"/><g><path d="M48.4,107.9c3.8-2.7,6.1-7.1,6.1-11.8V27c0.2-4,3.1-7.2,6.9-7.9c-0.5-0.1-1-0.1-1.5-0.1h0   c-4.5,0-8.1,3.5-8.3,8v69.1c0,4.7-2.3,9.1-6.1,11.8c-0.5,0.4-0.3,1.1,0.4,1.1h3C48.2,109,47.9,108.2,48.4,107.9z" fill="#FCFCFC" opacity="0.1"/><path d="M69.9,27h3c0,0-5.8-8-13-8h0c-0.5,0-1,0-1.5,0.1C64.8,20.1,69.9,27,69.9,27z" opacity="0.3"/><path d="M82.3,66.6l-3.8-7.1c-3.7-6.9-5.7-14.7-5.7-22.5c0-1.8,0.9-3.5,2.5-4.5l6.6-4.2c0.6-0.4,0.3-1.3-0.4-1.3h-3   c0.7,0,1,0.9,0.4,1.3l-6.6,4.2c-1.5,1-2.5,2.7-2.5,4.5c0,7.9,2,15.6,5.7,22.5l3.8,7.1c3,5.5,4.5,11.6,4.5,17.9   c0,13.5-11,24.5-24.5,24.5h3c13.5,0,24.5-11,24.5-24.5C86.9,78.3,85.3,72.1,82.3,66.6z" opacity="0.3"/></g><g><path d="M86.9,84.5c0-6.2-1.5-12.4-4.5-17.9l-3.8-7.1c-3.7-6.9-5.7-14.7-5.7-22.5c0-1.5,0.7-3,1.8-4c0,0,0,0,0,0   C55,48.9,64.1,76.2,76.3,104.7C82.7,100.2,86.9,92.9,86.9,84.5z" fill="#FCF2E3"/><path d="M74.8,32.9c-0.1,0.1-0.1,0.1-0.2,0.2c0.2-0.2,0.5-0.4,0.7-0.6L74.8,32.9L74.8,32.9z" fill="#262525"/></g><path d="M73.3,35c0.3-0.7,0.8-1.4,1.4-1.9c0,0,0,0,0,0C55,48.9,64.1,76.2,76.3,104.7C69.4,79.6,59.3,53.4,73.3,35z" opacity="0.1"/></svg>