<?xml version="1.0" ?><!DOCTYPE svg  PUBLIC '-//W3C//DTD SVG 1.1//EN'  'http://www.w3.org/Graphics/SVG/1.1/DTD/svg11.dtd'><svg enable-background="new 0 0 128 128" id="Слой_1" version="1.1" viewBox="0 0 128 128" xml:space="preserve" xmlns="http://www.w3.org/2000/svg" xmlns:xlink="http://www.w3.org/1999/xlink"><g><circle cx="64" cy="64" fill="#FCF2E3" r="62"/><path d="M112.2,25H58c-2.8,0-5,2.2-5,5v67h63.5c4.7-7.4,7.8-15.9,9-25c0.3-2.6,0.5-5.3,0.5-8   C126,49.2,120.8,35.7,112.2,25z" fill="#65C8CE"/><path d="M53,72v25h63.5c4.7-7.4,7.8-15.9,9-25H53z" fill="#60BEC3"/><path d="M58,25c-2.8,0-5,2.2-5,5v42h72.5c0.3-2.6,0.5-5.3,0.5-8c0-14.8-5.2-28.3-13.8-39H58z" fill="#020202" opacity="0.1"/><path d="M114.2,100.3h0.2c0.8-1.1,1.5-2.2,2.2-3.3c0,0,0,0,0,0c0,0,0,0,0,0h-0.2C115.8,98.1,115,99.2,114.2,100.3z" fill="#70573D"/><path d="M48,97v3.3h5v15h2.7l4.9-15h53.6c0.8-1.1,1.5-2.2,2.3-3.3H48z" fill="#70573D"/><circle cx="95" cy="41" fill="#020202" opacity="0.15" r="1.5"/><circle cx="73" cy="41" fill="#020202" opacity="0.15" r="1.5"/><circle cx="73" cy="56" fill="#020202" opacity="0.15" r="1.5"/><circle cx="95" cy="56" fill="#020202" opacity="0.15" r="1.5"/><circle cx="117" cy="40.7" fill="#020202" opacity="0.15" r="1.5"/><circle cx="117" cy="55.7" fill="#020202" opacity="0.15" r="1.5"/></g><rect fill="#70573D" height="40" width="5" x="48" y="57"/><rect fill="#020202" height="15" opacity="0.1" width="5" x="48" y="57"/></svg>