<?xml version="1.0" ?><!DOCTYPE svg  PUBLIC '-//W3C//DTD SVG 1.1//EN'  'http://www.w3.org/Graphics/SVG/1.1/DTD/svg11.dtd'><svg enable-background="new 0 0 128 128" id="Слой_1" version="1.1" viewBox="0 0 128 128" xml:space="preserve" xmlns="http://www.w3.org/2000/svg" xmlns:xlink="http://www.w3.org/1999/xlink"><g><circle cx="64" cy="64" fill="#FCF2E3" r="62"/><path d="M95.6,29c0-2.4-1.8-4.5-4.1-4.9c0,0,0-0.1,0-0.1h-0.9H37.4h-0.9c0,0,0,0.1,0,0.1c-2.3,0.4-4.1,2.5-4.1,4.9   v67h63.2V29z" fill="#65C8CE"/><polygon fill="#70573D" points="96,96 32,96 27.4,96 27.4,99.3 32.4,99.3 32.4,114.3 35.1,114.3 40,99.3 88,99.3 92.9,114.3    95.6,114.3 95.6,99.3 100.6,99.3 100.6,96  "/><polygon fill="#60BEC3" points="64.4,71 32.4,71 32.4,96 64.4,96 95.6,96 95.6,71  "/><path d="M90.6,24H64.4h-27c-2.8,0-5,2.2-5,5v42h32h31.2V29C95.6,26.2,93.4,24,90.6,24z" fill="#020202" opacity="0.1"/><circle cx="76.4" cy="40" fill="#020202" opacity="0.15" r="1.5"/><circle cx="52.4" cy="40" fill="#020202" opacity="0.15" r="1.5"/><circle cx="52.4" cy="55" fill="#020202" opacity="0.15" r="1.5"/><circle cx="76.4" cy="55" fill="#020202" opacity="0.15" r="1.5"/></g><rect fill="#70573D" height="40" width="5" x="27.4" y="56"/><rect fill="#020202" height="15" opacity="0.1" width="5" x="27.4" y="56"/><rect fill="#70573D" height="40" width="5" x="95.6" y="56"/><rect fill="#020202" height="15" opacity="0.1" width="5" x="95.6" y="56"/></svg>