<?xml version="1.0" ?><!DOCTYPE svg  PUBLIC '-//W3C//DTD SVG 1.1//EN'  'http://www.w3.org/Graphics/SVG/1.1/DTD/svg11.dtd'><svg enable-background="new 0 0 128 128" id="Слой_1" version="1.1" viewBox="0 0 128 128" xml:space="preserve" xmlns="http://www.w3.org/2000/svg" xmlns:xlink="http://www.w3.org/1999/xlink"><g><g><circle cx="64" cy="64" fill="#CADBCD" r="62"/><g><path d="M84.7,46.8L84.7,46.8C84.7,46.8,84.7,46.8,84.7,46.8C84.7,46.8,84.7,46.8,84.7,46.8z" fill="#5B4734"/></g><polygon fill="#70573D" points="96,96 32,96 24.4,96 24.4,99.3 32.4,99.3 32.4,114.3 35.1,114.3 40,99.3 88,99.3 92.9,114.3     95.6,114.3 95.6,99.3 103.6,99.3 103.6,96   "/><polygon fill="#70573D" points="24.4,74 24.4,96 64.5,96 103.6,96 103.6,74   "/></g><rect fill="#FCF2E3" height="20" width="75.2" x="26.4" y="76"/><circle cx="64" cy="80" fill="#3F3E3D" r="3"/></g></svg>