<?xml version="1.0" ?><!DOCTYPE svg  PUBLIC '-//W3C//DTD SVG 1.1//EN'  'http://www.w3.org/Graphics/SVG/1.1/DTD/svg11.dtd'><svg enable-background="new 0 0 128 128" id="Слой_1" version="1.1" viewBox="0 0 128 128" xml:space="preserve" xmlns="http://www.w3.org/2000/svg" xmlns:xlink="http://www.w3.org/1999/xlink"><circle cx="64" cy="64" fill="#CADBCD" r="62"/><path d="M43,97v3.3h10v15h2.7l4.9-15h53.6c0.8-1.1,1.5-2.2,2.3-3.3H43z" fill="#70573D"/><rect fill="#FCF2E3" height="51.1" width="64" x="44" y="45.6"/><circle cx="50" cy="51.6" fill="#3F3E3D" r="3"/><path d="M108,96.7h8.7C122.6,87.2,126,76,126,64c0-6.4-1-12.6-2.8-18.4H108V96.7z" fill="#3F3E3D"/><path d="M43,97.7h73c0.4-0.7,0.8-1.3,1.3-2H45V46.6h78.5c-0.2-0.7-0.4-1.3-0.6-2H43V97.7z" fill="#70573D"/><path d="M108,72.2h17.4c0.1-0.7,0.2-1.3,0.2-2H108V72.2z" fill="#C55C44"/></svg>