<?xml version="1.0" ?><!DOCTYPE svg  PUBLIC '-//W3C//DTD SVG 1.1//EN'  'http://www.w3.org/Graphics/SVG/1.1/DTD/svg11.dtd'><svg enable-background="new 0 0 128 128" id="Слой_1" version="1.1" viewBox="0 0 128 128" xml:space="preserve" xmlns="http://www.w3.org/2000/svg" xmlns:xlink="http://www.w3.org/1999/xlink"><circle cx="64" cy="64" fill="#CADBCD" r="62"/><path d="M112.2,25H58c-2.8,0-5,2.2-5,5v21.3c0-2.8-2.2-5-5-5h-8.3c-3,0-5.3,2.6-5,5.6L43,92c0.8,2.8,2.2,5,5,5h5  h63.5c4.7-7.4,7.8-15.9,9-25c0.3-2.6,0.5-5.3,0.5-8C126,49.2,120.8,35.7,112.2,25z" fill="#DBAE49"/><path d="M53,72v25h63.5c4.7-7.4,7.8-15.9,9-25H53z" fill="#D0A545"/><path d="M58,25c-2.8,0-5,2.2-5,5v42h72.5c0.3-2.6,0.5-5.3,0.5-8c0-14.8-5.2-28.3-13.8-39H58z" fill="#020202" opacity="0.1"/><path d="M114.2,100.3h0.2c0.8-1.1,1.5-2.2,2.2-3.3c0,0,0,0,0,0c0,0,0,0,0,0h-0.2C115.8,98.1,115,99.2,114.2,100.3z" fill="#70573D"/><path d="M43,97v3.3h10v15h2.7l4.9-15h53.6c0.8-1.1,1.5-2.2,2.3-3.3H43z" fill="#70573D"/><circle cx="95" cy="41" fill="#020202" opacity="0.15" r="1.5"/><circle cx="73" cy="41" fill="#020202" opacity="0.15" r="1.5"/><circle cx="73" cy="56" fill="#020202" opacity="0.15" r="1.5"/><circle cx="95" cy="56" fill="#020202" opacity="0.15" r="1.5"/><circle cx="117" cy="40.7" fill="#020202" opacity="0.15" r="1.5"/><circle cx="117" cy="55.7" fill="#020202" opacity="0.15" r="1.5"/></svg>