<?xml version="1.0" ?><!DOCTYPE svg  PUBLIC '-//W3C//DTD SVG 1.1//EN'  'http://www.w3.org/Graphics/SVG/1.1/DTD/svg11.dtd'><svg enable-background="new 0 0 128 128" id="Слой_1" version="1.1" viewBox="0 0 128 128" xml:space="preserve" xmlns="http://www.w3.org/2000/svg" xmlns:xlink="http://www.w3.org/1999/xlink"><g><g><circle cx="64" cy="64" fill="#CADBCD" r="62"/><path d="M94,41.2c-0.1-2.1-1.8-3.8-3.9-3.9l-2.3-0.2c-1.9-0.1-3.8-0.1-5.7,0l-2.3,0.2c-2.1,0.1-3.8,1.8-3.9,3.9    l-0.3,4c-0.1,1.9,0.4,3.8,1.4,5.4l0.2,0.3c0.5,0.7,1.3,1.2,2.2,1.2H85h5.5c0.9,0,1.7-0.4,2.2-1.2l0.2-0.3c1.1-1.6,1.6-3.5,1.4-5.4    L94,41.2z" fill="#C55C44"/><g><path d="M87.8,37.1c-1.9-0.1-3.8-0.1-5.7,0l-2.3,0.2c-2.1,0.1-3.8,1.8-3.9,3.9l-0.3,4     c-0.1,1.9,0.4,3.8,1.4,5.4l0.2,0.3c0.3,0.5,0.8,0.8,1.3,1c-0.3-0.2-0.5-0.4-0.7-0.7l-0.2-0.3c-1.1-1.6-1.6-3.5-1.4-5.4l0.3-4     c0-0.4-0.1-1-0.1-1c0.5-1.6,2.3-2.8,4.1-2.9l2.3-0.2c1.9-0.1,3.8-0.1,5.7,0l2.3,0.2c0.5,0,0.9,0.1,1.3,0.3     c-0.6-0.3-1.2-0.6-1.9-0.6L87.8,37.1z" fill="#FCFCFC" opacity="0.2"/><path d="M94,41.2c-0.1-1.7-1.2-3-2.6-3.6c1,0.6,1.9,1.7,2.2,2.9c0,0.2-0.1,0.2-0.1,0.4l0.3,4     c0.1,1.9-0.4,3.8-1.4,5.4L92,50.5c-0.5,0.7-1.3,1.2-2.2,1.2h-5.5h-5.5c-0.3,0-0.6-0.1-0.9-0.1c0.4,0.3,0.9,0.4,1.4,0.4H85h5.5     c0.9,0,1.7-0.4,2.2-1.2l0.2-0.3c1.1-1.6,1.6-3.5,1.4-5.4L94,41.2z" opacity="0.1"/></g><path d="M94,41.2c0-0.1,0-0.3-0.1-0.4l-0.4-0.3l-5.4,6.1l-1.8,1.7l-7.9-1c1.7,2,3.1,3.5,5.9,4.7H85h5.5    c0.9,0,1.7-0.4,2.2-1.2l0.2-0.3c1.1-1.6,1.6-3.5,1.4-5.4L94,41.2z" opacity="0.1"/><path d="M85.3,46.5l0,0.1c0,0.2-0.2,0.3-0.3,0.3s-0.3-0.1-0.3-0.3l0-0.1c-0.4-3-2.1-6.6-6.5-6.2l-1.7,0.1l0,2.8    c0,2.3,1.5,4.3,3.7,4.8c0.6,0.1,1.1,0.2,1.7,0.3l1.6,0.1c1,0,1.9,0,2.9,0l1.6-0.1c0.6,0,1.2-0.1,1.7-0.3c2.2-0.5,3.7-2.6,3.7-4.8    v-2.8l-1.7-0.1C87.4,40,85.8,43.6,85.3,46.5z" fill="#B28F6F"/><circle cx="79.2" cy="43.3" opacity="0.7" r="1.5"/><g opacity="0.3"><path d="M79.2,41.8c-0.8,0-1.5,0.7-1.5,1.5c0,0.5,0.2,0.9,0.6,1.2c-0.2-0.2-0.3-0.6-0.3-0.9c0-0.8,0.7-1.5,1.5-1.5     c0.3,0,0.6,0.1,0.9,0.3C80.1,42,79.7,41.8,79.2,41.8z" opacity="0.7"/></g><circle cx="90.8" cy="43.3" opacity="0.7" r="1.5"/><g opacity="0.3"><path d="M90.8,41.8c-0.8,0-1.5,0.7-1.5,1.5c0,0.5,0.2,0.9,0.6,1.2c-0.2-0.2-0.3-0.6-0.3-0.9c0-0.8,0.7-1.5,1.5-1.5     c0.3,0,0.6,0.1,0.9,0.3C91.7,42,91.3,41.8,90.8,41.8z" opacity="0.7"/></g><g><path d="M84.7,46.8L84.7,46.8C84.7,46.8,84.7,46.8,84.7,46.8C84.7,46.8,84.7,46.8,84.7,46.8z" fill="#5B4734"/><path d="M84.7,46.5c-0.4-3-2.1-6.6-6.5-6.2l-1.7,0.1c0,0,6.1,1.8,8.2,6.3c0,0,0,0,0-0.1L84.7,46.5z     " fill="#FCFCFC" opacity="0.2"/><path d="M85.3,46.5l0,0.1c0,0,0,0,0,0.1c2.1-4.5,8.2-6.3,8.2-6.3l-1.7-0.1C87.4,40,85.8,43.6,85.3,46.5z" opacity="0.1"/></g><polygon fill="#70573D" points="96,96 32,96 24.4,96 24.4,99.3 32.4,99.3 32.4,114.3 35.1,114.3 40,99.3 88,99.3 92.9,114.3     95.6,114.3 95.6,99.3 103.6,99.3 103.6,96   "/><polygon fill="#70573D" points="24.4,52 24.4,96 64.5,96 103.6,96 103.6,52   "/></g><rect fill="#65C8CE" height="20" width="75.2" x="26.4" y="54"/><circle cx="64" cy="58" fill="#3F3E3D" r="3"/><rect fill="#DBAE49" height="20" width="75.2" x="26.4" y="76"/><circle cx="64" cy="80" fill="#3F3E3D" r="3"/></g></svg>