<?xml version="1.0" ?><!DOCTYPE svg  PUBLIC '-//W3C//DTD SVG 1.1//EN'  'http://www.w3.org/Graphics/SVG/1.1/DTD/svg11.dtd'><svg enable-background="new 0 0 128 128" id="Слой_1" version="1.1" viewBox="0 0 128 128" xml:space="preserve" xmlns="http://www.w3.org/2000/svg" xmlns:xlink="http://www.w3.org/1999/xlink"><circle cx="64" cy="64" fill="#FCF2E3" r="62"/><g><g><path d="M29.6,32.4l3.9,3.8c4.8,4.6,11.5,6.8,18.1,5.8l22.9-3.5c3.5-0.5,6.9,1.1,8.8,4.1c0,0,9.4,14.4,10.1,15.5    c1.5,2.5,4.4,4.5,7.1,5.6l2.6,1.1c1,0.4,1.8,1.2,2.1,2.2c0.1,0.3,0.1,0.7,0.1,1v0c0,0.8-0.5,1.4-1.2,1.6l-0.6,0.2    c-0.4,0.1-0.9,0.1-1.3,0.1l-3.2-0.5l-5.3-3L79.9,62L41.6,50.3l-12.8-6.5l-8.1-12.2l-2.8-1c0,0,0.7-0.5,2.3-0.8    C23.6,29.2,27,30.2,29.6,32.4z" fill="#65C8CE"/></g><g opacity="0.1"><path d="M29.6,32.4l3.9,3.8c4.8,4.6,11.5,6.8,18.1,5.8l22.9-3.5c3.5-0.5,6.9,1.1,8.8,4.1c0,0,9.4,14.4,10.1,15.5    c1.5,2.5,4.4,4.5,7.1,5.6l2.6,1.1c1,0.4,1.8,1.2,2.1,2.2c0.1,0.3,0.1,0.7,0.1,1v0c0,0.8-0.5,1.4-1.2,1.6l-0.6,0.2    c-0.4,0.1-0.9,0.1-1.3,0.1l-3.2-0.5l-5.3-3L79.9,62L41.6,50.3l-12.8-6.5l-8.1-12.2l-2.8-1c0,0,0.7-0.5,2.3-0.8    C23.6,29.2,27,30.2,29.6,32.4z"/></g><g><path d="M45.6,106.1c-0.1,0-0.2,0-0.3-0.1c-0.2-0.1-0.2-0.4-0.1-0.5l16.6-29.7c0.1-0.1,0.2-0.2,0.3-0.2    c0.1,0,0.3,0,0.3,0.1l7.4,6.6l12.9-12.1c0.1-0.1,0.3-0.1,0.4-0.1c0.1,0,0.2,0.1,0.3,0.3l11.1,34.1c0,0.1,0.1,0.1,0.1,0.2    c0,0.2-0.2,0.4-0.4,0.4c0,0,0,0,0,0c-0.1,0-0.2,0-0.3-0.1l-24-21.5l-24,22.5C45.8,106.1,45.7,106.1,45.6,106.1z M62.3,76.6    l-15,26.9l22-20.7L62.3,76.6z M70.5,82.9l22.8,20.4L83,71.2L70.5,82.9z" fill="#666463"/></g><g><circle cx="62.1" cy="74.9" fill="#65C8CE" r="1.9"/></g><g><circle cx="83.6" cy="69.1" fill="#65C8CE" r="1.9"/></g><g opacity="0.1"><circle cx="62.1" cy="74.9" r="1.9"/></g><g opacity="0.1"><circle cx="83.6" cy="69.1" r="1.9"/></g><path d="M25.5,31.5l5.9,8.6c2.5,3.6,6.8,5.4,11.1,4.7l28.2-4c4.5-0.7,9,1.2,11.5,5l13.1,19.6   c0.9,1.4,2.2,2.4,3.7,3.1c1.1,0.5,2.4,0.8,3.7,0.8l2,0.1l-1.3,0.5c-1.8,0.5-3.7,0.4-5.4-0.4l-2.1-0.9c-2.2-1-4.7-1.2-7.1-0.6   l-25.7,6.8c-1.7,0.5-3.4,0.8-5.1,0.9l0,0c-7.1,0.5-13.8-3.3-17-9.6c-0.6-1.2-1.2-2.5-1.9-3.6L25.9,40.4c-1.4-2.4-2.9-4.7-4.6-6.9   c-0.9-1.2-2-2.2-3.4-2.9C18,30.6,24.1,28.6,25.5,31.5z" fill="#65C8CE"/><g><path d="M24.2,100L24.2,100c0.2-0.3,0.5-0.4,0.8-0.3c26.5,7.9,53,8.3,79.5,1.3c0.5-0.1,0.9,0.1,1.2,0.5v0    c0.3,0.6,0.1,1.3-0.6,1.5c-26.9,9.3-53.7,8.7-80.6-1.9C24.1,101,23.9,100.4,24.2,100z" fill="#70573D"/></g></g></svg>