<?xml version="1.0" ?><!DOCTYPE svg  PUBLIC '-//W3C//DTD SVG 1.1//EN'  'http://www.w3.org/Graphics/SVG/1.1/DTD/svg11.dtd'><svg enable-background="new 0 0 128 128" id="Слой_1" version="1.1" viewBox="0 0 128 128" xml:space="preserve" xmlns="http://www.w3.org/2000/svg" xmlns:xlink="http://www.w3.org/1999/xlink"><g><circle cx="64" cy="64" fill="#FCF2E3" r="62"/><g><path d="M97.6,88.9c-0.1-0.5-0.3-1-0.4-1.6c0-0.1,0-0.1,0-0.2c-0.3-1.1-0.5-2.3-0.8-3.5c0-0.1,0-0.2-0.1-0.3    c-0.1-0.6-0.2-1.2-0.4-1.8c0-0.1,0-0.2-0.1-0.3c-0.1-0.6-0.2-1.3-0.3-1.9c0,0,0,0,0,0c-0.1-0.6-0.2-1.3-0.3-2c0-0.1,0-0.3-0.1-0.4    c-0.1-0.7-0.2-1.3-0.3-2c0-0.1,0-0.3-0.1-0.4c-0.1-0.6-0.2-1.3-0.2-1.9c0-0.1,0-0.2,0-0.3c-0.1-0.7-0.1-1.4-0.2-2.1    c0-0.2,0-0.4,0-0.6c-0.1-0.7-0.1-1.4-0.2-2.1c0-0.2,0-0.3,0-0.5c0-0.6-0.1-1.3-0.1-2c0-0.2,0-0.3,0-0.5c0-0.7,0-1.5,0-2.2    c0-0.2,0-0.4,0-0.6c0-0.8,0-1.5,0-2.3c0-0.1,0-0.3,0-0.4c0-0.7,0.1-1.4,0.1-2.1c0-0.2,0-0.3,0-0.5c0-0.8,0.1-1.5,0.2-2.3    c0-0.2,0-0.4,0.1-0.6c0.1-0.8,0.2-1.6,0.3-2.4c1.9-13.8,3.1-20.7,3.8-24c0.2-1.2-0.9-2.3-2.1-1.9l-9.4,3.1    c-1.8,0.6-3.8,0.9-5.7,0.9h-0.6c-0.9,0-1.9,0.1-2.8,0.2l-9,1.3c-0.6,0.1-1.2,0.1-1.8,0.2v0c-0.9,0-1.9,0-2.8-0.1L56.8,30    c-0.1,0-0.2,0-0.3,0L52.9,30c-0.2,0-0.4,0-0.6-0.1l-3.2-0.7c-0.2,0-0.4-0.1-0.6-0.1l-2.8,0.2c-0.3,0-0.7,0-1-0.2l-3.4-1.3    c-0.5-0.2-1-0.4-1.5-0.5l-1.8-0.5L30.1,25c-0.4-0.1-0.8,0.3-0.7,0.7c0.6,2.7,2.4,10.6,3.7,12.6c0.2,0.4,0.3,0.8,0.3,1.3    c0,1.4,0,4.2,0.3,5.7c0,0,0,0,0,0c0.1,0.3,0.1,0.6,0.1,0.9c-0.2,1.3-0.5,4.7,0.1,5.6c0,0,0.4,0.2,0,2.1c-0.3,1.6,0.5,4.8,0.7,5.6    c0,0.2,0.1,0.3,0.1,0.5c0,0.4,0,1.2-0.5,1.4c-0.5,0.2-0.6,3.1-0.7,5h0c0,0,0,0,0,0.1c0,0.2,0,0.3,0,0.5c0,0,0,0.1,0,0.1    c0,0.1,0,0.2,0,0.3c0,0.1,0,0.2,0,0.2c0,0,0,0.1,0,0.1c0,0.1,0,0.2,0,0.3c-0.1,1-0.1,3.6-0.1,4.8c0,0.2,0,0.3-0.1,0.5    c0,0.2-0.1,0.3-0.2,0.5c-0.3,0.7-0.8,2.1-0.7,4.3c0.1,2.2-2.1,9.6-3.4,13.9c-0.4,1.3,0.9,2.6,2.2,2.1c3.1-1.2,7.7-2.7,9.9-2.9    c3-0.2,6.1-0.2,7.6-1.3c0.5-0.4,1.2-0.6,1.9-0.4l2.3,0.4c0.4,0.1,0.7,0.1,1.1,0l2.2-0.6c0.3-0.1,0.6-0.1,0.9-0.1l4.7,0.5    c0.5,0.1,1.1-0.1,1.5-0.3l0.4-0.2c0.5-0.3,1-0.4,1.6-0.3l4.5,0.6c0.1,0,0.2,0,0.3,0l11,0.2c1.1,0,2.2,0.2,3.3,0.6l6.7,2.4    c0.5,0.2,1.1,0.3,1.7,0.3l0.9,0c0.5,0,1,0.1,1.4,0.4l2.5,1.6c0.9,0.6,1.9-0.3,1.6-1.2C98.6,92.3,98.1,90.8,97.6,88.9z" fill="#65C8CE"/><g opacity="0.2"><g><g><path d="M83.4,29.9l0.9-0.9c-0.5,0.1-1.1,0.2-1.6,0.2L83.4,29.9z"/><path d="M96.4,25.1L93.8,26l-2.2,2.2l-1.1-1.1l-1.2,0.4l2.3,2.3l4.1-4.1l2.6,2.5c0.1-0.5,0.2-0.9,0.2-1.2c0,0,0-0.1,0-0.1       l-1.9-1.8C96.5,25.1,96.5,25.1,96.4,25.1z"/><path d="M40.5,27.7l2.2,2.2l1-1l-2.4-0.9C41,27.9,40.7,27.8,40.5,27.7z"/><path d="M34.5,28.2l-2.8-2.8L30.1,25c-0.4-0.1-0.8,0.3-0.7,0.7c0.1,0.2,0.1,0.5,0.2,0.9l0.8-0.8l4.1,4.1l3-3l-1.3-0.3       L34.5,28.2z"/><polygon points="75.3,29.9 75.4,29.7 75.2,29.8      "/><polygon points="50.8,29.9 51,29.7 50.5,29.6      "/></g><g><path d="M91.6,32.3l-4.1-4.1l-4.1,4.1l-3.1-3.1c-0.7,0-1.4,0.1-2.2,0.1l-2.9,2.9L73,30.1l-1.4,0.2l3.7,3.7l4.1-4.1l4.1,4.1       l4.1-4.1l4.1,4.1l4.1-4.1l2,1.9c0.1-0.5,0.2-1,0.2-1.4l-2.2-2.1L91.6,32.3z"/><path d="M67.1,32.3l-1.5-1.5c-0.5,0-1,0-1.5-0.1l-0.3,0l3.2,3.2l3.5-3.5l-1.9,0.3L67.1,32.3z"/><path d="M50.8,32.3l-3-3l-2.1,0.1c0,0-0.1,0-0.1,0l-2.9,2.9l-4.1-4.1l-4.1,4.1l-4.1-4.1l-0.3,0.3c0.1,0.4,0.2,0.9,0.3,1.3l0,0       l4.1,4.1l4.1-4.1l4.1,4.1l4.1-4.1l4.1,4.1l3.9-3.9l-1.7,0L50.8,32.3z"/><path d="M59,32.3L56.6,30c0,0-0.1,0-0.1,0L55,30l4,4l3.4-3.4l-1.5-0.2L59,32.3z"/></g><g><path d="M91.6,36.4l-4.1-4.1l-4.1,4.1l-4.1-4.1l-4.1,4.1l-4.1-4.1l-4.1,4.1L63,32.3L59,36.4l-4.1-4.1l-4.1,4.1l-4.1-4.1       l-4.1,4.1l-4.1-4.1l-4.1,4.1l-3.3-3.3c0.2,0.8,0.5,1.6,0.7,2.3l2.6,2.6l4.1-4.1l4.1,4.1l4.1-4.1l4.1,4.1l4.1-4.1L59,38l4.1-4.1       l4.1,4.1l4.1-4.1l4.1,4.1l4.1-4.1l4.1,4.1l4.1-4.1l4.1,4.1l4.1-4.1l1.4,1.3c0.1-0.5,0.2-1,0.2-1.4l-1.6-1.6L91.6,36.4z"/></g><g><path d="M91.6,40.4l-4.1-4.1l-4.1,4.1l-4.1-4.1l-4.1,4.1l-4.1-4.1l-4.1,4.1L63,36.4L59,40.4l-4.1-4.1l-4.1,4.1l-4.1-4.1       l-4.1,4.1l-4.1-4.1l-4.1,4.1l-1.1-1.1c0,0.1,0,0.2,0,0.3c0,0.4,0,0.9,0,1.4l1.1,1.1l4.1-4.1l4.1,4.1l4.1-4.1l4.1,4.1l4.1-4.1       l4.1,4.1L63,38l4.1,4.1l4.1-4.1l4.1,4.1l4.1-4.1l4.1,4.1l4.1-4.1l4.1,4.1l4.1-4.1l0.8,0.8c0.1-0.5,0.1-1,0.2-1.4l-1.1-1       L91.6,40.4z"/></g><g><path d="M91.6,44.5l-4.1-4.1l-4.1,4.1l-4.1-4.1l-4.1,4.1l-4.1-4.1l-4.1,4.1L63,40.4L59,44.5l-4.1-4.1l-4.1,4.1l-4.1-4.1       l-4.1,4.1l-4.1-4.1l-4.1,4.1l-1-1c0.1,0.7,0.1,1.3,0.3,1.7c0,0,0,0,0,0c0,0.1,0,0.1,0,0.2l0.7,0.7l4.1-4.1l4.1,4.1l4.1-4.1       l4.1,4.1l4.1-4.1l4.1,4.1l4.1-4.1l4.1,4.1l4.1-4.1l4.1,4.1l4.1-4.1l4.1,4.1l4.1-4.1l4.1,4.1l4.1-4.1l0.3,0.3       c0.1-0.5,0.1-1,0.2-1.4l-0.5-0.5L91.6,44.5z"/></g><g><path d="M91.6,48.6l-4.1-4.1l-4.1,4.1l-4.1-4.1l-4.1,4.1l-4.1-4.1l-4.1,4.1L63,44.5L59,48.6l-4.1-4.1l-4.1,4.1l-4.1-4.1       l-4.1,4.1l-4.1-4.1l-4.1,4.1l-0.8-0.8c0,0.5-0.1,1-0.1,1.6l0.9,0.9l4.1-4.1l4.1,4.1l4.1-4.1l4.1,4.1l4.1-4.1l4.1,4.1l4.1-4.1       l4.1,4.1l4.1-4.1l4.1,4.1l4.1-4.1l4.1,4.1l4.1-4.1l4.1,4.1l3.8-3.8c0.1-0.7,0.2-1.3,0.3-1.9l0,0L91.6,48.6z"/></g><g><path d="M87.5,48.6l-4.1,4.1l-4.1-4.1l-4.1,4.1l-4.1-4.1l-4.1,4.1L63,48.6L59,52.7l-4.1-4.1l-4.1,4.1l-4.1-4.1l-4.1,4.1       l-4.1-4.1l-4.1,4.1L34,52.2c0,0.3,0,0.8-0.1,1.5l0.6,0.6l4.1-4.1l4.1,4.1l4.1-4.1l4.1,4.1l4.1-4.1l4.1,4.1l4.1-4.1l4.1,4.1       l4.1-4.1l4.1,4.1l4.1-4.1l4.1,4.1l4.1-4.1l4.1,4.1l3.1-3.1c0,0,0-0.1,0-0.1c0.1-0.6,0.2-1.2,0.2-1.8l-3.4,3.4L87.5,48.6z"/></g><g><path d="M87.5,52.7l-4.1,4.1l-4.1-4.1l-4.1,4.1l-4.1-4.1l-4.1,4.1L63,52.7L59,56.8l-4.1-4.1l-4.1,4.1l-4.1-4.1l-4.1,4.1       l-4.1-4.1l-4.1,4.1l-0.6-0.6c0.1,0.7,0.2,1.4,0.4,2l0.2,0.2l4.1-4.1l4.1,4.1l4.1-4.1l4.1,4.1l4.1-4.1l4.1,4.1l4.1-4.1l4.1,4.1       l4.1-4.1l4.1,4.1l4.1-4.1l4.1,4.1l4.1-4.1l4.1,4.1l2.7-2.7c0-0.6,0.1-1.1,0.1-1.7c0,0,0-0.1,0-0.1l-2.8,2.8L87.5,52.7z"/></g><g><path d="M87.5,56.8l-4.1,4.1l-4.1-4.1l-4.1,4.1l-4.1-4.1l-4.1,4.1L63,56.8L59,60.8l-4.1-4.1l-4.1,4.1l-4.1-4.1l-4.1,4.1       l-4.1-4.1l-3.9,3.9c0,0.3-0.2,0.7-0.5,0.8c-0.1,0-0.2,0.2-0.3,0.5l0.6,0.6l4.1-4.1l4.1,4.1l4.1-4.1l4.1,4.1l4.1-4.1l4.1,4.1       l4.1-4.1l4.1,4.1l4.1-4.1l4.1,4.1l4.1-4.1l4.1,4.1l4.1-4.1l4.1,4.1l2.5-2.5c0-0.2,0-0.4,0-0.7c0-0.1,0-0.3,0-0.4       c0-0.2,0-0.4,0-0.6l-2.5,2.5L87.5,56.8z"/></g><g><path d="M94.2,66.9c0-0.1,0-0.3,0-0.4L91.6,69l-4.1-4.1L83.4,69l-4.1-4.1L75.3,69l-4.1-4.1L67.1,69L63,64.9L59,69l-4.1-4.1       L50.8,69l-4.1-4.1L42.6,69l-4.1-4.1L34.5,69l-1-1c0,0,0,0,0,0.1c0,0.3,0,0.9,0,1.5l1,1l4.1-4.1l4.1,4.1l4.1-4.1l4.1,4.1       l4.1-4.1l4.1,4.1l4.1-4.1l4.1,4.1l4.1-4.1l4.1,4.1l4.1-4.1l4.1,4.1l4.1-4.1l4.1,4.1l2.7-2.7c0-0.2,0-0.4,0-0.6       C94.2,67.2,94.2,67,94.2,66.9z"/></g><g><path d="M91.6,64.9l-4.1-4.1l-4.1,4.1l-4.1-4.1l-4.1,4.1l-4.1-4.1l-4.1,4.1L63,60.8L59,64.9l-4.1-4.1l-4.1,4.1l-4.1-4.1       l-4.1,4.1l-4.1-4.1l-4.1,4.1l-0.8-0.8c0,0.5-0.1,1.1-0.1,1.6l0.9,0.9l4.1-4.1l4.1,4.1l4.1-4.1l4.1,4.1l4.1-4.1l4.1,4.1l4.1-4.1       l4.1,4.1l4.1-4.1l4.1,4.1l4.1-4.1l4.1,4.1l4.1-4.1l4.1,4.1l2.5-2.5c0-0.5,0-1.1,0-1.6L91.6,64.9z"/></g><g><path d="M91.6,73.1L87.5,69l-4.1,4.1L79.4,69l-4.1,4.1L71.2,69l-4.1,4.1L63,69L59,73.1L54.9,69l-4.1,4.1L46.7,69l-4.1,4.1       L38.6,69l-4.1,4.1l-1-1c0,0.3,0,0.6,0,0.8c0,0.2,0,0.3-0.1,0.5c0,0.1,0,0.1-0.1,0.2l1.2,1.2l4.1-4.1l4.1,4.1l4.1-4.1l4.1,4.1       l4.1-4.1l4.1,4.1l4.1-4.1l4.1,4.1l4.1-4.1l4.1,4.1l4.1-4.1l4.1,4.1l4.1-4.1l4.1,4.1l3-3c-0.1-0.5-0.1-1-0.1-1.5L91.6,73.1z"/></g><g><path d="M94.9,74.4c0-0.1,0-0.3-0.1-0.4l-3.2,3.2l-4.1-4.1l-4.1,4.1l-4.1-4.1l-4.1,4.1l-4.1-4.1l-4.1,4.1L63,73.1L59,77.2       l-4.1-4.1l-4.1,4.1l-4.1-4.1l-4.1,4.1l-4.1-4.1l-4.1,4.1l-1.8-1.8c-0.1,0.4-0.2,0.9-0.2,1.4l2,2l4.1-4.1l4.1,4.1l4.1-4.1       l4.1,4.1l4.1-4.1l4.1,4.1l4.1-4.1l4.1,4.1l4.1-4.1l4.1,4.1l4.1-4.1l4.1,4.1l4.1-4.1l4.1,4.1l3.4-3.4c0-0.2-0.1-0.4-0.1-0.6       C94.9,74.7,94.9,74.5,94.9,74.4z"/></g><g><path d="M91.6,81.2l-4.1-4.1l-4.1,4.1l-4.1-4.1l-4.1,4.1l-4.1-4.1l-4.1,4.1L63,77.2L59,81.2l-4.1-4.1l-4.1,4.1l-4.1-4.1       l-4.1,4.1l-4.1-4.1l-4.1,4.1l-2.1-2.1c-0.1,0.4-0.1,0.9-0.2,1.4l2.3,2.3l4.1-4.1l4.1,4.1l4.1-4.1l4.1,4.1l4.1-4.1l4.1,4.1       l4.1-4.1l4.1,4.1l4.1-4.1l4.1,4.1l4.1-4.1l4.1,4.1l4.1-4.1l4.1,4.1l4-4c-0.1-0.5-0.2-0.9-0.2-1.4L91.6,81.2z"/></g><g><path d="M96,81.6l-0.4-0.3l-4.1,4.1l-4.1-4.1l-4.1,4.1l-4.1-4.1l-4.1,4.1l-4.1-4.1l-4.1,4.1L63,81.2L59,85.3l-4.1-4.1l-4.1,4.1       l-4.1-4.1l-4.1,4.1l-4.1-4.1l-4.1,4.1l-2.7-2.7c-0.1,0.4-0.2,0.9-0.3,1.3l3.1,3.1l4.1-4.1l4.1,4.1l4.1-4.1l4.1,4.1l4.1-4.1       L59,87l4.1-4.1l4.1,4.1l4.1-4.1l4.1,4.1l4.1-4.1l4.1,4.1l4.1-4.1l4.1,4.1l4.1-4.1l0.7,0.7c0-0.1,0-0.2-0.1-0.2       C96.3,82.8,96.1,82.2,96,81.6z"/></g><g><path d="M97.2,87.1c0-0.1-0.1-0.3-0.1-0.4l-1.5-1.4l-4.1,4.1l-4.1-4.1l-4.1,4.1l-4.1-4.1l-4.1,4.1l-4.1-4.1l-3.8,3.8l1.5,0.2       l2.4-2.4l2.6,2.6l3,0.1l2.6-2.6l2.8,2.8c0.7,0.1,1.4,0.3,2,0.5l0,0l3.3-3.3l4.1,4.1l4.1-4.1l2,1.9c-0.1-0.5-0.3-1-0.4-1.6       C97.2,87.2,97.2,87.2,97.2,87.1z"/><path d="M59,89.4l-4.1-4.1l-4.1,4.1l-4.1-4.1l-4.1,4.1l-4.1-4.1l-4.1,4.1l-3.6-3.6c-0.1,0.4-0.2,0.9-0.4,1.3l3.9,3.9l4.1-4.1       l4.1,4.1l4.1-4.1l2.7,2.7c0.4-0.1,0.8-0.2,1.2-0.1l1.4,0.3l2.9-2.9l2.3,2.3l3.2,0.3L63,87l1.9,1.9c0.1,0,0.2,0,0.2,0l1.6,0.2       L63,85.3L59,89.4z"/></g><g><path d="M98.5,92.2l-2.9-2.8l-3.4,3.4c0.1,0,0.2,0,0.3,0l0.9,0c0.1,0,0.2,0,0.4,0l1.9-1.9l3.3,3.2c0.1-0.2,0.1-0.4,0-0.6       C98.8,93.2,98.7,92.7,98.5,92.2z"/><polygon points="86,90.9 87.2,91.3 87.5,91 88.1,91.6 90.6,92.5 87.5,89.4      "/><polygon points="54.5,89.8 55.1,89.6 54.9,89.4      "/><path d="M45.1,91c1-0.1,1.9-0.3,2.6-0.5l-1.1-1.1L45.1,91z"/><polygon points="79.1,89.6 79.6,89.6 79.4,89.4      "/><path d="M29.7,90.1c-0.2,0.7-0.4,1.3-0.6,1.9c0,0.1,0,0.2-0.1,0.3l1.4-1.4l2.5,2.5c0.4-0.1,0.8-0.3,1.2-0.4l-3.7-3.7L29.7,90.1       z"/><polygon points="71.1,89.5 71.3,89.5 71.2,89.4      "/><path d="M35.2,92.8c0.8-0.3,1.6-0.5,2.4-0.7l1-1l0.6,0.6c0.5-0.1,1-0.2,1.4-0.3l-1.9-1.9L35.2,92.8z"/><path d="M62.8,89.6c0.1,0,0.2-0.1,0.3-0.1L63,89.4L62.8,89.6z"/></g><g><polygon points="95.5,93.7 96.5,94.3 95.7,93.5      "/><path d="M29.9,94c0.4,0.2,0.8,0.3,1.3,0.2l-0.7-0.7L29.9,94z"/></g></g><path d="M33.6,65.1c0-0.1,0-0.1,0-0.2C33.6,65,33.6,65.1,33.6,65.1z" fill="#FFFFFF" opacity="0.1"/><path d="M34.1,61.6C34.1,61.6,34.1,61.6,34.1,61.6C34.1,61.6,34.1,61.6,34.1,61.6z" fill="#FFFFFF" opacity="0.1"/><path d="M34,61.8C34,61.8,34,61.8,34,61.8C34,61.8,34,61.8,34,61.8z" fill="#FFFFFF" opacity="0.1"/><path d="M33.7,64c0-0.1,0-0.1,0-0.2C33.7,63.9,33.7,63.9,33.7,64z" fill="#FFFFFF" opacity="0.1"/><path d="M33.6,64.5c0,0,0-0.1,0-0.1C33.6,64.4,33.6,64.4,33.6,64.5z" fill="#FFFFFF" opacity="0.1"/><path d="M29.4,25.7L29.4,25.7c0-0.2,0-0.4,0.2-0.5C29.4,25.3,29.4,25.5,29.4,25.7z" fill="#FFFFFF" opacity="0.1"/><path d="M33.9,62.1C33.9,62.1,33.9,62.1,33.9,62.1C33.9,62.1,33.9,62.1,33.9,62.1z" fill="#FFFFFF" opacity="0.1"/><path d="M33.7,62.9C33.8,62.9,33.8,62.9,33.7,62.9C33.8,62.9,33.8,62.9,33.7,62.9z" fill="#FFFFFF" opacity="0.1"/><path d="M33.7,63.4C33.7,63.4,33.7,63.4,33.7,63.4C33.7,63.4,33.7,63.4,33.7,63.4z" fill="#FFFFFF" opacity="0.1"/><path d="M33.8,62.5c0,0,0-0.1,0-0.1C33.8,62.4,33.8,62.5,33.8,62.5z" fill="#FFFFFF" opacity="0.1"/><path d="M33.6,65.6c0-0.1,0-0.1,0-0.2C33.6,65.5,33.6,65.6,33.6,65.6z" fill="#FFFFFF" opacity="0.1"/><path d="M49.1,29.3c-0.2,0-0.4-0.1-0.6-0.1C48.7,29.2,48.9,29.2,49.1,29.3l3.2,0.7     c0.2,0,0.4,0.1,0.6,0.1c-0.2,0-0.4,0-0.6-0.1L49.1,29.3z" fill="#FFFFFF" opacity="0.1"/><path d="M33.6,65.9c0,0.2,0,0.4,0,0.6l0,0C33.6,66.3,33.6,66.1,33.6,65.9z" fill="#FFFFFF" opacity="0.1"/><path d="M33.5,67.1C33.5,67.1,33.5,67.1,33.5,67.1c0,0.1,0,0.1,0,0.2     C33.5,67.3,33.5,67.2,33.5,67.1z" fill="#FFFFFF" opacity="0.1"/><path d="M33.5,67.4c0,0,0-0.1,0-0.1C33.5,67.4,33.5,67.4,33.5,67.4C33.5,67.4,33.5,67.4,33.5,67.4z     " fill="#FFFFFF" opacity="0.1"/><path d="M65.6,30.8c0,0-0.1,0-0.1,0C65.6,30.8,65.6,30.8,65.6,30.8z" fill="#FFFFFF" opacity="0.1"/><path d="M33.5,67c0-0.1,0-0.3,0-0.5C33.5,66.7,33.5,66.9,33.5,67C33.5,67,33.5,67,33.5,67z" fill="#FFFFFF" opacity="0.1"/><path d="M33.5,67.7C33.5,67.7,33.5,67.7,33.5,67.7c0,0,0,0.1,0,0.1C33.5,67.8,33.5,67.7,33.5,67.7z     " fill="#FFFFFF" opacity="0.1"/><polygon fill="#FFFFFF" opacity="0.1" points="67,30.8 67,30.8 67,30.8    "/><path d="M29.7,94c-0.1,0-0.1-0.1-0.2-0.1C29.6,93.9,29.7,93.9,29.7,94z" opacity="0.1"/><path d="M29.2,93.3c0-0.1-0.1-0.1-0.1-0.2C29.1,93.2,29.1,93.2,29.2,93.3z" opacity="0.1"/><path d="M29.4,93.7c0-0.1-0.1-0.1-0.1-0.2C29.3,93.6,29.4,93.6,29.4,93.7z" opacity="0.1"/><path d="M31.3,94.1c-0.2,0.1-0.3,0.1-0.5,0.1C31,94.2,31.1,94.2,31.3,94.1z" opacity="0.1"/><path d="M30.2,94.2c-0.1,0-0.2,0-0.2-0.1C30,94.1,30.1,94.1,30.2,94.2z" opacity="0.1"/><path d="M30.6,94.2c-0.1,0-0.2,0-0.3,0C30.4,94.2,30.5,94.2,30.6,94.2z" opacity="0.1"/><path d="M29,92.9c0-0.1,0-0.1,0-0.2C29,92.7,29,92.8,29,92.9z" opacity="0.1"/><path d="M29,92.4c0,0,0-0.1,0-0.1c0,0,0,0,0,0C29,92.3,29,92.3,29,92.4z" opacity="0.1"/><path d="M98.6,92.5c0,0.1,0,0.1,0.1,0.2C98.7,92.6,98.6,92.6,98.6,92.5z" opacity="0.1"/><path d="M98,90.2C98,90.2,98,90.2,98,90.2C98,90.2,98,90.2,98,90.2z" opacity="0.1"/></g><path d="M96.4,25.1l-9.4,3.1c-1.8,0.6-3.8,0.9-5.7,0.9h-0.6c-0.9,0-1.9,0.1-2.8,0.2l-9,1.3    c-0.6,0.1-1.2,0.1-1.8,0.2c0,0,0,0,0,0c-0.4,0-0.9,0-1.3,0c0,0-0.1,0-0.1,0c-0.5,0-0.9,0-1.4-0.1L56.8,30c-0.1,0-0.2,0-0.3,0    L52.9,30c-0.2,0-0.4,0-0.6-0.1l-3.2-0.7c-0.2,0-0.4-0.1-0.6-0.1l-2.8,0.2c-0.3,0-0.7,0-1-0.2l-3.4-1.3c-0.5-0.2-1-0.4-1.5-0.5    l-1.8-0.5L30.1,25c-0.2-0.1-0.4,0-0.5,0.1c-0.1,0.1-0.2,0.3-0.2,0.5c0.1,0.7,0.4,1.7,0.6,2.8c0.1,0.6,0.3,1.2,0.4,1.8    c0.2,0.9,0.5,1.9,0.8,2.9c0.3,0.9,0.5,1.9,0.8,2.7c0.4,1.1,0.7,1.9,1,2.4c0.2,0.4,0.3,0.8,0.3,1.3c0,1.4,0,4.2,0.3,5.7    c0,0,0,0,0,0c0.1,0.3,0.1,0.6,0.1,0.9c-0.2,1.3-0.5,4.7,0.1,5.6c0,0,0.4,0.2,0,2.1c-0.3,1.6,0.5,4.8,0.7,5.6    c0,0.2,0.1,0.3,0.1,0.5c0,0.4,0,1.2-0.5,1.4c0,0-0.1,0.1-0.1,0.1c0,0,0,0,0,0c0,0,0,0.1-0.1,0.1c0,0,0,0,0,0.1    c0,0.1-0.1,0.2-0.1,0.3c0,0,0,0,0,0c0,0.1,0,0.2-0.1,0.3c0,0,0,0.1,0,0.1c0,0.1,0,0.2,0,0.3c0,0,0,0.1,0,0.1c0,0.1,0,0.3,0,0.4    c0,0,0,0.1,0,0.1c0,0.1,0,0.2,0,0.4c0,0.1,0,0.1,0,0.2c0,0.1,0,0.2,0,0.4c0,0,0,0.1,0,0.1c0,0.2,0,0.3,0,0.5c0,0.1,0,0.1,0,0.2    c0,0.1,0,0.2,0,0.3c0,0.1,0,0.2,0,0.2c0,0.1,0,0.2,0,0.2c0,0.2,0,0.4,0,0.6c0,0,0,0,0,0.1c0,0.2,0,0.3,0,0.5c0,0,0,0,0,0    c0,0,0,0.1,0,0.1c0,0,0,0,0,0c0,0.1,0,0.2,0,0.3c0,0,0,0,0,0c0,0.1,0,0.1,0,0.2c0,0,0,0,0,0c0,0,0,0.1,0,0.1c0,0.1,0,0.2,0,0.3    c-0.1,1-0.1,3.6-0.1,4.8c0,0.2,0,0.3-0.1,0.5c0,0.2-0.1,0.3-0.2,0.5c-0.3,0.7-0.8,2.1-0.7,4.3c0.1,2.2-2.1,9.6-3.4,13.9    c-0.4,1.3,0.9,2.6,2.2,2.1c0.3-0.1,0.6-0.2,0.9-0.3c0-0.1,0-0.1,0-0.2c1.3-4.4,3.5-11.8,3.4-13.9c-0.1-2.2,0.4-3.7,0.7-4.3    c0.1-0.3,0.2-0.6,0.2-1c0-1.1,0-3.8,0.1-4.8c0.1-1.2,0-6.3,0.7-6.6c0.5-0.2,0.5-1,0.5-1.4c0-0.2,0-0.3-0.1-0.5    c-0.2-0.8-1.1-4-0.7-5.6c0.4-1.9,0-2.1,0-2.1c-0.6-0.9-0.2-4.3-0.1-5.6c0-0.3,0-0.6-0.1-0.9c0,0,0,0,0,0c-0.4-1.5-0.4-4.3-0.3-5.7    c0-0.4-0.1-0.9-0.3-1.3c-1.3-2-3.1-9.9-3.7-12.6c-0.1-0.4,0.3-0.8,0.7-0.7l7.7,1.9l1.8,0.5c0.5,0.1,1,0.3,1.5,0.5l3.4,1.3    c0.3,0.1,0.7,0.2,1,0.2l2.8-0.2c0.2,0,0.4,0,0.6,0.1l3.2,0.7c0.2,0,0.4,0.1,0.6,0.1l3.6-0.1c0.1,0,0.2,0,0.3,0l7.3,0.8    c1.5,0.2,3.1,0.1,4.6-0.1l9-1.3c0.9-0.1,1.9-0.2,2.8-0.2h0.6c1.9,0,3.9-0.3,5.7-0.9l8.5-2.8c0,0,0,0,0,0    C98.7,25.8,97.6,24.7,96.4,25.1z" fill="#FFFFFF" opacity="0.1"/><path d="M98.7,92.7c0-0.1,0-0.1-0.1-0.2c-0.2-0.7-0.4-1.4-0.6-2.3c0,0,0,0,0,0c-2.2-8.3-5.4-23.7-3.2-39.1    c1.9-13.8,3.1-20.7,3.8-24c0.2-1.2-0.9-2.3-2.1-1.9l-1,0.3c-0.7,3.3-1.9,10.3-3.8,24c-2.5,17.8,2.1,35.7,4.2,42.5    c0.2,0.6-0.2,1.2-0.7,1.4l2.2,1.4c0.9,0.6,1.9-0.3,1.6-1.2C98.9,93.3,98.8,93,98.7,92.7z" opacity="0.1"/><path d="M90.3,91.3l-0.9,0c-0.6,0-1.1-0.1-1.7-0.3l-6.7-2.4c-1.1-0.4-2.2-0.6-3.3-0.6l-11-0.2c-0.1,0-0.2,0-0.3,0    L62,87.3c-0.5-0.1-1.1,0-1.6,0.3l-0.4,0.2c-0.5,0.3-1,0.4-1.5,0.3l-4.7-0.5c-0.3,0-0.6,0-0.9,0.1l-2.2,0.6c-0.4,0.1-0.7,0.1-1.1,0    L47.5,88c-0.7-0.1-1.3,0.1-1.9,0.4c-1.4,1-4.6,1.1-7.6,1.3c-2,0.1-5.9,1.4-9,2.6c0,0,0,0.1,0,0.1c0,0.1,0,0.2,0,0.3    c0,0.1,0,0.1,0,0.2c0,0.1,0,0.2,0.1,0.3c0,0.1,0,0.1,0.1,0.2c0,0.1,0.1,0.2,0.1,0.2c0,0.1,0.1,0.1,0.1,0.2    c0.1,0.1,0.1,0.1,0.2,0.2c0.1,0,0.1,0.1,0.2,0.1c0.1,0,0.1,0.1,0.2,0.1c0.1,0,0.2,0.1,0.2,0.1c0.1,0,0.1,0,0.2,0.1    c0.1,0,0.2,0,0.3,0c0.1,0,0.1,0,0.2,0c0.2,0,0.3,0,0.5-0.1c3.1-1.2,7.7-2.7,9.9-2.9c3-0.2,6.1-0.2,7.6-1.3    c0.5-0.4,1.2-0.6,1.9-0.4l2.3,0.4c0.4,0.1,0.7,0.1,1.1,0l2.2-0.6c0.3-0.1,0.6-0.1,0.9-0.1l4.7,0.5c0.5,0.1,1.1-0.1,1.5-0.3    l0.4-0.2c0.5-0.3,1-0.4,1.6-0.3l4.5,0.6c0.1,0,0.2,0,0.3,0l11,0.2c1.1,0,2.2,0.2,3.3,0.6l6.7,2.4c0.5,0.2,1.1,0.3,1.7,0.3l0.9,0    c0,0,0.1,0,0.1,0l-1.8-1.2C91.3,91.4,90.8,91.3,90.3,91.3z" opacity="0.1"/></g><g><path d="M36.1,117.3l2-1.2c0,0,0.1,0,0.1-0.1l4.6-0.7c1-0.2,1.8-0.6,2.5-1.3l0.3-0.3c0.1-0.1,0.2-0.1,0.2-0.1    l4.5-0.6c0.2,0,0.3-0.1,0.5-0.1l10.6-2.7c0.7-0.2,1.4-0.3,2.1-0.3c0.2,0,0.4,0,0.6,0l7.1,0.5c0.2,0,0.3,0,0.5,0    c0.6,0,1.3-0.1,1.9-0.3l0.8-0.3c0,0,0.1,0,0.1,0c0,0,0.1,0,0.1,0l2.8,0.9c0.3,0.1,0.6,0.1,1,0.1c1.1,0,2.2-0.6,2.7-1.6    c0.6-1,0.5-2.2-0.1-3.1c-0.8-1.3-1.6-2.7-2.5-4.1c-0.3-0.5-0.5-0.9-0.8-1.4l-0.1-0.1c-0.5-1-1.1-2-1.6-3.1l-0.1-0.2    c-0.3-0.5-0.5-1.1-0.8-1.6l-0.1-0.3c-0.3-0.6-0.6-1.2-0.8-1.8l0,0c-0.3-0.6-0.5-1.2-0.8-1.8l-0.2-0.4c-0.3-0.6-0.5-1.2-0.8-1.8    l-0.2-0.4c-0.2-0.6-0.5-1.2-0.7-1.7L71.6,87c-0.2-0.6-0.5-1.3-0.7-2l-0.2-0.5c-0.2-0.7-0.5-1.3-0.7-2l-0.1-0.4    c-0.2-0.6-0.4-1.2-0.6-1.8l-0.1-0.4c-0.2-0.7-0.4-1.4-0.6-2.1l-0.2-0.6c-0.2-0.7-0.4-1.4-0.5-2.1l-0.1-0.4c-0.2-0.7-0.3-1.3-0.4-2    l-0.1-0.5c-0.1-0.7-0.3-1.5-0.4-2.2l-0.1-0.6c-0.1-0.8-0.2-1.6-0.3-2.3c-1.7-13.6-2.4-20.6-2.6-24.1c-0.1-1.9-1.7-3.4-3.6-3.4    c-0.7,0-1.4,0.2-2,0.6l-8.3,5.5c-1.4,1-3,1.7-4.7,2.1L44.4,48c-1,0.3-2,0.6-2.9,1l-8.4,3.6c-0.4,0.2-0.9,0.4-1.5,0.5    c-0.8,0.3-1.7,0.5-2.4,0.6l-7.3,1.2c-0.2,0-0.4,0.1-0.6,0.1l-3.5,1l-0.1,0l-3.3,0.2c-0.4,0-0.8,0.1-1.2,0.2l-2.7,0.9    c0,0-0.1,0-0.1,0c0,0-3.7-0.4-3.7-0.4c-0.6-0.1-1.2-0.1-1.8-0.1l-1.9,0l-0.7,0C2.2,59.2,2,61.6,2,64c0,23.1,12.6,43.2,31.4,53.9    l0.8-0.1C34.9,117.8,35.5,117.6,36.1,117.3z" opacity="0.15"/><path d="M29.8,112l2.3-0.2c0.4,0,0.7-0.1,1-0.3l2-1.2c0.3-0.1,0.5-0.2,0.8-0.3l4.6-0.7c0.5-0.1,1-0.3,1.4-0.7    l0.3-0.3c0.4-0.4,0.9-0.7,1.4-0.7l4.5-0.6c0.1,0,0.2,0,0.3-0.1l10.6-2.7c1.1-0.3,2.2-0.4,3.3-0.3l7.1,0.5c0.6,0,1.1,0,1.7-0.2    L72,104c0.5-0.1,1-0.1,1.4,0l2.8,0.9c1,0.3,1.8-0.8,1.3-1.6c-0.7-1.1-1.5-2.5-2.5-4.2c-0.3-0.5-0.5-0.9-0.8-1.4    c0,0-0.1-0.1-0.1-0.1c-0.5-1-1.1-2-1.7-3.2c0-0.1-0.1-0.2-0.1-0.2c-0.3-0.5-0.5-1.1-0.8-1.7c0-0.1-0.1-0.2-0.1-0.3    c-0.3-0.6-0.6-1.2-0.8-1.8c0,0,0,0,0,0c-0.3-0.6-0.6-1.2-0.8-1.8c-0.1-0.1-0.1-0.3-0.2-0.4c-0.3-0.6-0.5-1.2-0.8-1.9    c-0.1-0.1-0.1-0.3-0.2-0.4c-0.2-0.6-0.5-1.2-0.7-1.8c0-0.1-0.1-0.2-0.1-0.3c-0.3-0.7-0.5-1.3-0.7-2c-0.1-0.2-0.1-0.4-0.2-0.5    c-0.2-0.7-0.5-1.3-0.7-2c0-0.1-0.1-0.3-0.1-0.4c-0.2-0.6-0.4-1.2-0.6-1.9c0-0.1-0.1-0.3-0.1-0.4c-0.2-0.7-0.4-1.4-0.6-2.1    c-0.1-0.2-0.1-0.4-0.2-0.6c-0.2-0.7-0.4-1.5-0.6-2.2c0-0.1-0.1-0.3-0.1-0.4c-0.2-0.7-0.3-1.3-0.4-2c0-0.2-0.1-0.3-0.1-0.5    c-0.2-0.7-0.3-1.5-0.4-2.3c0-0.2-0.1-0.4-0.1-0.6c-0.1-0.8-0.3-1.6-0.4-2.4c-1.8-13.8-2.4-20.8-2.6-24.2c-0.1-1.3-1.5-2-2.6-1.3    l-8.3,5.5c-1.6,1.1-3.4,1.9-5.3,2.4L43,46c-0.9,0.2-1.8,0.6-2.7,0.9l-8.4,3.6c-0.5,0.2-1.1,0.4-1.7,0.6v0    c-0.9,0.3-1.8,0.5-2.7,0.7l-7.3,1.2c-0.1,0-0.2,0-0.3,0.1l-3.5,1c-0.2,0.1-0.4,0.1-0.6,0.1l-3.3,0.2c-0.2,0-0.4,0.1-0.6,0.1    l-2.7,0.9c-0.3,0.1-0.7,0.1-1,0.1L4.6,55c-0.5-0.1-1.1-0.1-1.6-0.1l-0.3,0c-0.4,3-0.7,6-0.7,9.1c0,8.2,1.6,16,4.5,23.2    c0,0,0,0,0,0c0.1,0.1,0.2,0.3,0.2,0.4c0,0.1,0.1,0.2,0.1,0.3c4.3,10.3,11.4,19.2,20.2,25.8c0.4-0.3,0.8-0.5,1-0.8    C28.5,112.4,29.1,112.1,29.8,112z" fill="#CADBCD"/><g opacity="0.2"><g><g><path d="M45.9,45.8l0.7-1.1c-0.5,0.2-1,0.5-1.5,0.6L45.9,45.8z"/><path d="M59.7,39l-2.3-1.3c-0.1,0-0.2,0.1-0.3,0.1l-2.2,1.5l-1.6,2.7L52,41.3l-1.1,0.7l2.9,1.7l2.9-5l3.1,1.7       c0-0.5-0.1-0.9-0.1-1.3C59.7,39.1,59.7,39.1,59.7,39z"/><path d="M3.9,55l2.6,1.5l0.7-1.2L4.6,55C4.4,55,4.1,55,3.9,55z"/><polygon points="38,48 38.1,47.8 37.9,47.9      "/><polygon points="14.4,54.3 14.5,54.1 14.1,54.2      "/></g><g><path d="M57.3,41.1l-2.9,5l-5-2.9l-2.9,5L42.8,46c-0.7,0.2-1.4,0.4-2.1,0.7l-2.1,3.6l-2.7-1.6l-1.3,0.6l4.5,2.6l2.9-5l5,2.9       l2.9-5l5,2.9l2.9-5l2.4,1.3c0-0.5-0.1-1-0.1-1.4L57.3,41.1z"/><path d="M30.8,52.4l-1.8-1c-0.5,0.1-1,0.2-1.5,0.3l-0.3,0l4,2.3l2.5-4.3l-1.8,0.8L30.8,52.4z"/><path d="M7.6,60.4l2.9-5l5,2.9l2.8-4.8l-1.6,0.5L15,56.7l-3.7-2.1l-2,0.7c0,0-0.1,0-0.1,0l-2,3.6l-4.6-2.7       c-0.1,0.6-0.2,1.3-0.2,1.9l0.3-0.5L7.6,60.4z"/><path d="M22.9,54.6L20,52.9c0,0-0.1,0-0.1,0l-1.5,0.4l4.8,2.8l2.4-4.2l-1.5,0.2L22.9,54.6z"/></g><g><path d="M8.6,64.3l2.9-5l5,2.9l2.9-5l5,2.9l2.9-5l5,2.9l2.9-5l5,2.9l2.9-5l5,2.9l2.9-5l5,2.9l2.9-5l1.7,0.9       c-0.1-0.5-0.1-1-0.1-1.4l-2-1.1l-2.9,5l-5-2.9l-2.9,5l-5-2.9l-2.9,5l-5-2.9l-2.9,5l-5-2.9l-2.9,5l-5-2.9l-2.9,5l-5-2.9l-2.9,5       l-5-2.9l-1.2,2C2,62.6,2,63.3,2,64c0,0.1,0,0.2,0,0.3l1.6-2.8L8.6,64.3z"/></g><g><path d="M9.7,68.3l2.9-5l5,2.9l2.9-5l5,2.9l2.9-5l5,2.9l2.9-5l5,2.9l2.9-5l5,2.9l2.9-5l5,2.9l2.9-5l1,0.6       c-0.1-0.5-0.1-1-0.2-1.4l-1.3-0.7l-2.9,5l-5-2.9l-2.9,5l-5-2.9l-2.9,5l-5-2.9l-2.9,5l-5-2.9l-2.9,5l-5-2.9l-2.9,5l-5-2.9       l-2.9,5l-5-2.9l-2.2,3.8c0,0.7,0.1,1.4,0.2,2.1l2.4-4.2L9.7,68.3z"/></g><g><path d="M5.8,69.3l5,2.9l2.9-5l5,2.9l2.9-5l5,2.9l2.9-5l5,2.9l2.9-5l5,2.9l2.9-5l5,2.9l2.9-5l5,2.9l2.9-5l0.4,0.2       c-0.1-0.5-0.1-1-0.2-1.4l-0.6-0.4l-2.9,5l-5-2.9l-2.9,5l-5-2.9l-2.9,5l-5-2.9l-2.9,5l-5-2.9l-2.9,5l-5-2.9l-2.9,5l-5-2.9       l-2.9,5l-5-2.9l-2.7,4.8c0.1,0.6,0.2,1.2,0.3,1.8l0,0L5.8,69.3z"/></g><g><path d="M6.8,73.3l5,2.9l2.9-5l5,2.9l2.9-5l5,2.9l2.9-5l5,2.9l2.9-5l5,2.9l2.9-5l5,2.9l2.9-5l5,2.9l2.7-4.7       c-0.1-0.7-0.2-1.3-0.2-1.9l0,0l-2.9,5l-5-2.9l-2.9,5l-5-2.9l-2.9,5l-5-2.9l-2.9,5l-5-2.9l-2.9,5l-5-2.9l-2.9,5l-5-2.9l-2.9,5       l-5-2.9l-2.9,5l-0.3-0.1c0.1,0.5,0.2,1,0.4,1.5L4,78.3L6.8,73.3z"/></g><g><path d="M7.9,77.2l5,2.9l2.9-5l5,2.9l2.9-5l5,2.9l2.9-5l5,2.9l2.9-5l5,2.9l2.9-5l5,2.9l2.9-5l5,2.9l2.2-3.9c0,0,0-0.1,0-0.1       c-0.1-0.6-0.2-1.2-0.2-1.8l-2.4,4.2l-5-2.9l-2.9,5l-5-2.9L44,70l-5-2.9l-2.9,5l-5-2.9l-2.9,5l-5-2.9l-2.9,5l-5-2.9l-2.9,5       l-5-2.9l-2.9,5l-0.4-0.2C4.4,81,4.5,81.5,4.7,82L5,82.2L7.9,77.2z"/></g><g><path d="M14,84l2.9-5l5,2.9l2.9-5l5,2.9l2.9-5l5,2.9l2.9-5l5,2.9l2.9-5l5,2.9l2.9-5l5,2.9l1.9-3.3c-0.1-0.5-0.2-1.1-0.3-1.6       c0,0,0-0.1,0-0.1l-2,3.5l-5-2.9l-2.9,5l-5-2.9l-2.9,5l-5-2.9l-2.9,5l-5-2.9l-2.9,5l-5-2.9l-2.9,5l-5-2.9l-2.9,5l-5-2.9l-2.9,5       l-0.2-0.1c0.2,0.6,0.4,1.1,0.6,1.7l2.9-5L14,84z"/></g><g><path d="M15,88l2.9-5l5,2.9l2.9-5l5,2.9l2.9-5l5,2.9l2.9-5l5,2.9l2.9-5l5,2.9l2.9-5l5,2.9l1.7-3c-0.1-0.2-0.1-0.4-0.2-0.6       c0-0.1-0.1-0.3-0.1-0.4c0-0.2-0.1-0.4-0.1-0.6l-1.8,3.1l-5-2.9l-2.9,5l-5-2.9l-2.9,5l-5-2.9l-2.9,5l-5-2.9l-2.9,5l-5-2.9       l-2.9,5l-5-2.9l-2.9,5l-5-2.9l-2.7,4.7c0.2,0.4,0.4,0.9,0.6,1.3l2.5-4.4L15,88z"/></g><g><path d="M17.2,95.8l2.9-5l5,2.9l2.9-5l5,2.9l2.9-5l5,2.9l2.9-5l5,2.9l2.9-5l5,2.9l2.9-5l5,2.9l1.9-3.3       c-0.1-0.2-0.1-0.4-0.2-0.6c0-0.1-0.1-0.3-0.1-0.4c0-0.1-0.1-0.3-0.1-0.4L64,81.5l-5-2.9l-2.9,5l-5-2.9l-2.9,5l-5-2.9l-2.9,5       l-5-2.9l-2.9,5l-5-2.9l-2.9,5l-5-2.9l-2.9,5l-5-2.9l-1.7,3c0.2,0.4,0.4,0.8,0.7,1.2l1.5-2.6L17.2,95.8z"/></g><g><path d="M16.1,91.9l2.9-5l5,2.9l2.9-5l5,2.9l2.9-5l5,2.9l2.9-5l5,2.9l2.9-5l5,2.9l2.9-5l5,2.9l1.8-3.1c-0.2-0.5-0.3-1-0.4-1.6       l-1.7,3l-5-2.9l-2.9,5l-5-2.9l-2.9,5l-5-2.9l-2.9,5l-5-2.9l-2.9,5l-5-2.9l-2.9,5l-5-2.9l-2.9,5l-5-2.9l-2.3,4       c0.2,0.4,0.4,0.8,0.6,1.2l2.1-3.6L16.1,91.9z"/></g><g><path d="M18.2,99.8l2.9-5l5,2.9l2.9-5l5,2.9l2.9-5l5,2.9l2.9-5l5,2.9l2.9-5l5,2.9l2.9-5l5,2.9l2.1-3.7       c-0.2-0.5-0.4-0.9-0.5-1.4l-2,3.5l-5-2.9l-2.9,5l-5-2.9l-2.9,5l-5-2.9l-2.9,5l-5-2.9l-2.9,5l-5-2.9l-2.9,5l-5-2.9l-2.9,5       l-5-2.9l-1.1,1.9c0.2,0.4,0.5,0.7,0.7,1.1l0.8-1.4L18.2,99.8z"/></g><g><path d="M19.3,103.7l2.9-5l5,2.9l2.9-5l5,2.9l2.9-5l5,2.9l2.9-5l5,2.9l2.9-5l5,2.9l2.9-5l5,2.9l2.4-4.2       c-0.1-0.2-0.2-0.4-0.2-0.5c-0.1-0.1-0.1-0.3-0.2-0.4c-0.1-0.1-0.1-0.3-0.2-0.4l-2.3,4l-5-2.9l-2.9,5l-5-2.9l-2.9,5l-5-2.9       l-2.9,5l-5-2.9l-2.9,5l-5-2.9l-2.9,5l-5-2.9l-2.9,5l-5-2.9l-0.4,0.7c0.2,0.3,0.5,0.7,0.7,1l0.1-0.1L19.3,103.7z"/></g><g><path d="M23.2,102.7l5,2.9l2.9-5l5,2.9l2.9-5l5,2.9l2.9-5l5,2.9l2.9-5l5,2.9l2.9-5l5,2.9l2.8-4.8c-0.2-0.4-0.4-0.9-0.6-1.3       l-2.6,4.6l-5-2.9l-2.9,5l-5-2.9l-2.9,5l-5-2.9l-2.9,5l-5-2.9l-2.9,5l-5-2.9l-2.9,5l-5-2.9l-2.9,5l-2.9-1.7       c0.8,1,1.7,1.9,2.6,2.8l0.8,0.4L23.2,102.7z"/></g><g><path d="M29.3,109.5l2.9-5l5,2.9l2.9-5l5,2.9l2.9-5l5,2.9l2.9-5l5,2.9l2.9-5l5,2.9l2.9-5l0.9,0.5c0-0.1-0.1-0.1-0.1-0.2       c-0.3-0.5-0.5-1.1-0.8-1.6l-0.4-0.2l-2.9,5l-5-2.9l-2.9,5l-5-2.9l-2.9,5l-5-2.9l-2.9,5l-5-2.9l-2.9,5l-5-2.9l-2.9,5l-5-2.9       l-2.4,4.1c0.3,0.3,0.6,0.6,0.9,0.8l1.9-3.3L29.3,109.5z"/></g><g><path d="M74.1,97.5c-0.1-0.1-0.1-0.2-0.2-0.3l-1.8-1l-2.9,5l-5-2.9l-2.9,5l-5-2.9l-2.9,5l-5-2.9l-2.7,4.7l1.5-0.2l1.7-2.9       l3.2,1.8l2.9-0.7l1.9-3.2l3.5,2c0.7-0.1,1.4-0.1,2.1-0.1l0,0l2.3-4.1l5,2.9l2.9-5l2.4,1.3c-0.3-0.5-0.5-0.9-0.8-1.4       C74.2,97.6,74.1,97.6,74.1,97.5z"/><path d="M28.6,112.4c0.3-0.2,0.7-0.4,1.1-0.4l1.5-0.1l2-3.5l2.9,1.6l3.1-0.5l1.9-3.3l2.3,1.3c0.1,0,0.1,0,0.2-0.1l1.6-0.2       l-4.6-2.7l-2.9,5l-5-2.9l-2.9,5l-5-2.9l-1.2,2.1c0.3,0.3,0.6,0.5,0.9,0.8l0.8-1.3L28.6,112.4z"/></g><g><path d="M76.7,102.1l-3.5-1.9l-2.4,4.2c0.1,0,0.2,0,0.3-0.1L72,104c0.1,0,0.2,0,0.4-0.1l1.3-2.3l4,2.2c0-0.2,0-0.4-0.2-0.6       C77.3,102.9,77,102.5,76.7,102.1z"/><polygon points="64.3,104.1 65.6,104.2 65.8,103.8 66.5,104.3 69.2,104.5 65.4,102.3      "/><polygon points="33.6,111.3 34.1,110.9 33.9,110.8      "/><path d="M26,112.9L26,112.9c0.3,0.3,0.7,0.6,1.1,0.9c0.1,0,0.2-0.1,0.2-0.1L26,112.9z"/><polygon points="57.3,104.7 57.8,104.6 57.5,104.4      "/><polygon points="49.5,106.6 49.7,106.6 49.6,106.5      "/><path d="M41.6,108.9c0.1-0.1,0.2-0.1,0.3-0.2l-0.1-0.1L41.6,108.9z"/></g><g><polygon points="74.2,104.3 75.3,104.7 74.3,104.1      "/></g></g><path d="M12,54.4c0.2-0.1,0.4-0.1,0.6-0.1l0.2,0l-0.2,0C12.4,54.2,12.2,54.3,12,54.4z" fill="#FFFFFF" opacity="0.1"/><path d="M12.8,54.2l3.2-0.2c0.2,0,0.4,0,0.6-0.1c-0.2,0.1-0.4,0.1-0.6,0.1L12.8,54.2z" fill="#FFFFFF" opacity="0.1"/><path d="M29,51.4c0,0-0.1,0-0.1,0C28.9,51.4,28.9,51.4,29,51.4z" fill="#FFFFFF" opacity="0.1"/><polygon fill="#FFFFFF" opacity="0.1" points="30.3,51.1 30.3,51.1 30.3,51.1    "/><path d="M76.9,102.3c0,0.1,0.1,0.1,0.1,0.2C77,102.5,76.9,102.4,76.9,102.3z" opacity="0.1"/><path d="M75.7,100.3C75.7,100.3,75.7,100.3,75.7,100.3C75.7,100.3,75.7,100.3,75.7,100.3z" opacity="0.1"/></g><path d="M10,89.9c0.4-0.3,0.3-1.1,0.1-1.5c-0.1-0.2-0.1-0.3-0.2-0.4c-0.4-0.7-2.1-3.5-2.2-5.2    c-0.1-1.9-0.5-2-0.5-2c-0.8-0.8-1.3-4.1-1.5-5.4c0-0.3-0.2-0.6-0.3-0.9c0,0,0,0,0,0c-0.7-1.3-1.5-4-1.8-5.4    c-0.1-0.4-0.3-0.8-0.7-1.1c-0.2-0.2-0.5-0.6-0.8-1c0.3,7.2,1.9,14,4.4,20.3c0,0,0,0,0,0c0.1,0.1,0.2,0.3,0.2,0.4    c0,0.1,0.1,0.2,0.1,0.3c1.2,2.9,2.6,5.6,4.2,8.3C10.7,94.8,9.5,90.3,10,89.9z" fill="#FFFFFF" opacity="0.1"/><path d="M4.6,55.6l1.9,0c0.5,0,1.1,0,1.6,0.1l3.7,0.4c0.3,0,0.7,0,1-0.1l2.7-0.9    c0.2-0.1,0.4-0.1,0.6-0.1l3.3-0.2c0.2,0,0.4,0,0.6-0.1l3.5-1c0.1,0,0.2-0.1,0.3-0.1l7.3-1.2c1.5-0.2,3-0.7,4.4-1.3l8.4-3.6    c0.9-0.4,1.8-0.7,2.7-0.9l0.6-0.2c1.9-0.5,3.7-1.3,5.3-2.4l7.4-4.9c0,0,0,0,0,0c-0.1-1.3-1.5-2-2.6-1.3l-8.3,5.5    c-1.6,1.1-3.4,1.9-5.3,2.4L43,46c-0.9,0.2-1.8,0.6-2.7,0.9l-8.4,3.6c-0.5,0.2-1.1,0.4-1.7,0.6c0,0,0,0,0,0    c-0.4,0.1-0.8,0.3-1.3,0.4c0,0-0.1,0-0.1,0c-0.4,0.1-0.9,0.2-1.3,0.3l-7.3,1.2c-0.1,0-0.2,0-0.3,0.1l-3.5,1    c-0.2,0.1-0.4,0.1-0.6,0.1l-3.3,0.2c-0.2,0-0.4,0.1-0.6,0.1l-2.7,0.9c-0.3,0.1-0.7,0.1-1,0.1L4.6,55c-0.5-0.1-1.1-0.1-1.6-0.1    l-0.3,0c0,0.2-0.1,0.5-0.1,0.7L4.6,55.6z" fill="#FFFFFF" opacity="0.1"/><path d="M77,102.5c0-0.1-0.1-0.1-0.1-0.2c-0.4-0.6-0.8-1.3-1.2-2c0,0,0,0,0,0c-4.3-7.5-11.4-21.5-13.3-36.9    c-1.8-13.8-2.4-20.8-2.6-24.2c-0.1-1.3-1.5-2-2.6-1.3l-0.9,0.6c0.2,3.4,0.9,10.4,2.6,24.2c2.3,17.8,11.4,33.9,15.1,40    c0.4,0.6,0.1,1.2-0.4,1.5l2.5,0.8c1,0.3,1.8-0.8,1.3-1.6C77.3,103.1,77.2,102.8,77,102.5z" opacity="0.1"/><path d="M29.8,112l2.3-0.2c0.4,0,0.7-0.1,1-0.3l2-1.2c0.3-0.1,0.5-0.2,0.8-0.3l4.6-0.7c0.5-0.1,1-0.3,1.4-0.7    l0.3-0.3c0.4-0.4,0.9-0.7,1.4-0.7l4.5-0.6c0.1,0,0.2,0,0.3-0.1l10.6-2.7c1.1-0.3,2.2-0.4,3.3-0.3l7.1,0.5c0.6,0,1.1,0,1.7-0.2    L72,104c0,0,0.1,0,0.1,0l-2.1-0.7c-0.5-0.1-1-0.2-1.4,0l-0.9,0.3c-0.5,0.2-1.1,0.2-1.7,0.2l-7.1-0.5c-1.1-0.1-2.3,0-3.3,0.3    L45,106.2c-0.1,0-0.2,0-0.3,0.1l-4.5,0.6c-0.5,0.1-1,0.3-1.4,0.7l-0.3,0.3c-0.4,0.4-0.8,0.6-1.4,0.7l-4.6,0.7    c-0.3,0-0.6,0.1-0.8,0.3l-2,1.2c-0.3,0.2-0.7,0.3-1,0.3l-2.3,0.2c-0.6,0-1.1,0.3-1.5,0.7c0.7,0.6,1.5,1.2,2.2,1.7    c0.4-0.3,0.8-0.5,1-0.8C28.5,112.4,29.1,112.1,29.8,112z" opacity="0.1"/></g><g><path d="M126,64c0-8.7-1.8-16.9-5-24.4c-2.1,1.6-4,3.3-4.7,4.3c-0.3,0.4-0.6,0.6-1,0.8c-1.3,0.5-3.9,1.7-5.1,2.6    c0,0,0,0,0,0c-0.3,0.2-0.5,0.4-0.8,0.4c-1.3,0.4-4.5,1.4-5.1,2.3c0,0-0.1,0.5-1.9,0.8c-1.6,0.3-4.2,2.4-4.8,2.9    c-0.1,0.1-0.3,0.2-0.4,0.3c-0.4,0.2-1.1,0.5-1.5,0.1c-0.4-0.4-3,0.7-4.9,1.4l0,0c0,0,0,0-0.1,0c-0.2,0.1-0.3,0.1-0.4,0.2    c0,0-0.1,0-0.1,0.1c-0.1,0-0.2,0.1-0.3,0.1c-0.1,0-0.1,0.1-0.2,0.1c0,0-0.1,0-0.1,0c-0.1,0-0.2,0.1-0.3,0.1    c-0.9,0.3-3.3,1.4-4.4,1.8c-0.2,0.1-0.3,0.1-0.5,0.1s-0.3,0-0.5,0c-0.7,0-2.3,0.1-4.3,1.1c-2,0.9-9.6,1.9-14.1,2.4    c-1.4,0.2-2,1.8-1,2.8c2.3,2.4,5.6,5.9,6.6,7.9c1.4,2.6,2.7,5.5,4.2,6.4c0.6,0.3,1,0.9,1.2,1.5l0.5,2.3c0.1,0.4,0.2,0.7,0.5,1    l1.4,1.8c0.2,0.2,0.3,0.5,0.4,0.8l1.4,4.5c0.2,0.5,0.5,0.9,0.9,1.2l0.4,0.2c0.4,0.3,0.8,0.8,0.9,1.3l1.3,4.3    c0,0.1,0.1,0.2,0.1,0.2l4.2,10.1c0.4,1,0.7,2.1,0.8,3.3l0.5,7.1c0,0.6,0.2,1.1,0.4,1.6C111.3,110.4,126,88.9,126,64z" fill="#DBAE49"/><g opacity="0.2"><g><g><path d="M122.7,44.2c-0.3-0.9-0.7-1.9-1-2.8l-0.8,2.1L122.7,44.2z"/><path d="M124.2,50.9l0.5,0.2c-0.1-0.3-0.1-0.6-0.2-0.9L124.2,50.9z"/></g><g><path d="M125.2,59.4l0.5-1.3c-0.1-0.8-0.2-1.6-0.3-2.5l-1.7,4.4l2.2,0.9c0-0.4-0.1-0.9-0.1-1.3L125.2,59.4z"/><path d="M120.3,40.1c-0.7,0.5-1.3,1.1-1.9,1.6l-1.3,3.4l5.4,2.1l-2.1,5.4l4.8,1.9c-0.1-0.5-0.2-0.9-0.2-1.3l-3.1-1.2l1.8-4.6       c-0.1-0.4-0.2-0.7-0.3-1.1l-4.8-1.9L120.3,40.1z"/></g><g><path d="M124.7,68.5l1.2-3.2c0-0.4,0-0.9,0-1.3c0-0.4,0-0.8,0-1.2l-4.5-1.8l2.1-5.4l-5.4-2.1l2.1-5.4l-5.4-2.1l0.6-1.5       c-0.1,0-0.1,0.1-0.2,0.1c-0.4,0.1-0.8,0.3-1.3,0.6l-0.6,1.4l5.4,2.1l-2.1,5.4l5.4,2.1l-2.1,5.4l5.4,2.1l-2.1,5.4l2.5,1       c0-0.4,0.1-0.8,0.1-1.2L124.7,68.5z"/></g><g><path d="M124.3,77.6l0.5-1.4c0.3-1.4,0.5-2.9,0.7-4.4l-4.5-1.8l2.1-5.4l-5.4-2.1l2.1-5.4l-5.4-2.1l2.1-5.4l-5.4-2.1l0.5-1.3       c-0.6,0.3-1.1,0.6-1.5,0.9c0,0,0,0,0,0c-0.1,0-0.1,0.1-0.2,0.1l-0.4,0.9l5.4,2.1l-2.1,5.4l5.4,2.1l-2.1,5.4l5.4,2.1l-2.1,5.4       l5.4,2.1l-2.1,5.4l1.5,0.6c0.1-0.4,0.2-0.8,0.3-1.1L124.3,77.6z"/></g><g><path d="M120.5,79.2l2.1-5.4l-5.4-2.1l2.1-5.4l-5.4-2.1l2.1-5.4l-5.4-2.1l2.1-5.4l-5.4-2.1l0.4-1.1c-0.5,0.2-1,0.4-1.5,0.6       l-0.5,1.2l5.4,2.1l-2.1,5.4l5.4,2.1l-2.1,5.4l5.4,2.1l-2.1,5.4l5.4,2.1l-2.1,5.4l4.4,1.7c0.1-0.4,0.2-0.7,0.3-1.1L120.5,79.2z"/></g><g><path d="M120.1,88.3l2.1-5.4l-5.4-2.1l2.1-5.4l-5.4-2.1l2.1-5.4l-5.4-2.1l2.1-5.4l-5.4-2.1l2.1-5.4l-5.4-2.1l0.2-0.6       c-0.2,0.1-0.7,0.3-1.5,0.5l-0.3,0.7l5.4,2.1l-2.1,5.4l5.4,2.1l-2.1,5.4l5.4,2.1L112,74l5.4,2.1l-2.1,5.4l5.4,2.1l-2.1,5.4       l1.9,0.7c0.2-0.4,0.3-0.7,0.5-1.1L120.1,88.3z"/></g><g><path d="M116.3,90l2.1-5.4l-5.4-2.1l2.1-5.4l-5.4-2.1l2.1-5.4l-5.4-2.1l2.1-5.4l-5.4-2.1l2.1-5.4l-5.4-2.1l0.3-0.7       c-0.6,0.4-1.2,0.8-1.7,1.1l-0.1,0.3l5.4,2.1l-2.1,5.4l5.4,2.1l-2.1,5.4l5.4,2.1l-2.1,5.4l5.4,2.1l-2.1,5.4l5.4,2.1l-2.1,5.4       l4.3,1.7c0.2-0.3,0.4-0.7,0.5-1L116.3,90z"/></g><g><path d="M117.9,93.7l-5.4-2.1l2.1-5.4l-5.4-2.1l2.1-5.4l-5.4-2.1l2.1-5.4l-5.4-2.1l2.1-5.4l-5.4-2.1l2.1-5.4l-5.1-2       c-0.3,0.1-0.7,0.1-0.9-0.1c-0.1-0.1-0.3-0.1-0.6-0.1l-0.3,0.7l5.4,2.1L98,62.3l5.4,2.1l-2.1,5.4l5.4,2.1l-2.1,5.4l5.4,2.1       l-2.1,5.4l5.4,2.1l-2.1,5.4l5.4,2.1l-2.1,5.4l0.3,0.1c0.8-1.1,1.6-2.3,2.3-3.5L117.9,93.7z"/></g><g><path d="M108.4,102.3l2.1-5.4l-5.4-2.1l2.1-5.4l-5.4-2.1l2.1-5.4l-5.4-2.1l2.1-5.4l-5.4-2.1l2.1-5.4L92,65l2.1-5.4l-5.4-2.1       l0.5-1.3c0,0,0,0-0.1,0c-0.3,0.1-0.8,0.3-1.4,0.6l-0.5,1.3l5.4,2.1l-2.1,5.4l5.4,2.1l-2.1,5.4l5.4,2.1l-2.1,5.4l5.4,2.1       l-2.1,5.4l5.4,2.1l-2.1,5.4l5.4,2.1l-2.1,5.4l4,1.6c0.3-0.3,0.5-0.6,0.8-0.9L108.4,102.3z"/></g><g><path d="M112.1,100.7l2.1-5.4l-5.4-2.1l2.1-5.4l-5.4-2.1l2.1-5.4l-5.4-2.1l2.1-5.4L99,70.8l2.1-5.4l-5.4-2.1l2.1-5.4l-5.4-2.1       l0.4-1.1c-0.5,0.2-1,0.4-1.5,0.6L91,56.5l5.4,2.1L94.3,64l5.4,2.1l-2.1,5.4l5.4,2.1l-2.1,5.4l5.4,2.1l-2.1,5.4l5.4,2.1       l-2.1,5.4l5.4,2.1l-2.1,5.4l2.2,0.9c0.3-0.3,0.5-0.6,0.8-1L112.1,100.7z"/></g><g><path d="M104.6,104l2.1-5.4l-5.4-2.1l2.1-5.4L98.1,89l2.1-5.4l-5.4-2.1l2.1-5.4l-5.4-2.1l2.1-5.4l-5.4-2.1l2.1-5.4L85,59.1       l0.5-1.4c-0.3,0.1-0.6,0.2-0.8,0.3c-0.2,0.1-0.3,0.1-0.5,0.1c-0.1,0-0.1,0-0.2,0l-0.6,1.5l5.4,2.1l-2.1,5.4l5.4,2.1l-2.1,5.4       l5.4,2.1l-2.1,5.4l5.4,2.1l-2.1,5.4l5.4,2.1l-2.1,5.4l5.4,2.1l-2.1,5.4l5.4,2.1l-0.3,0.7c0.5-0.5,1-1,1.5-1.5L104.6,104z"/></g><g><path d="M106.3,107.7l-5.4-2.1l2.1-5.4l-5.4-2.1l2.1-5.4l-5.4-2.1l2.1-5.4l-5.4-2.1l2.1-5.4l-5.4-2.1l2.1-5.4l-5.4-2.1l2.1-5.4       l-5.4-2.1l0.9-2.3c-0.4,0.1-0.9,0.2-1.4,0.4l-1,2.6l5.4,2.1L83,68.9l5.4,2.1l-2.1,5.4l5.4,2.1l-2.1,5.4l5.4,2.1l-2.1,5.4       l5.4,2.1l-2.1,5.4l5.4,2.1l-2.1,5.4l5.4,2.1l-1.4,3.5c0.6-0.5,1.3-1.1,1.9-1.6L106.3,107.7z"/></g><g><path d="M102.5,109.3l-5.4-2.1l2.1-5.4l-5.4-2.1l2.1-5.4l-5.4-2.1l2.1-5.4l-5.4-2.1l2.1-5.4l-5.4-2.1l2.1-5.4l-5.4-2.1l2.1-5.4       l-5.4-2.1l1.1-2.7c-0.4,0.1-0.9,0.2-1.4,0.3L76,63l5.4,2.1l-2.1,5.4l5.4,2.1L82.6,78l5.4,2.1l-2.1,5.4l5.4,2.1l-2.1,5.4       l5.4,2.1l-2.1,5.4l5.4,2.1l-2.1,5.4l5.4,2.1l-2,5.2c0.6-0.4,1.2-0.8,1.7-1.2L102.5,109.3z"/></g><g><path d="M98.8,111l-5.4-2.1l2.1-5.4l-5.4-2.1l2.1-5.4l-5.4-2.1l2.1-5.4l-5.4-2.1l2.1-5.4L80.3,79l2.1-5.4l-5.4-2.1l2.1-5.4       L73.8,64l1.4-3.6c-0.4,0.1-0.9,0.2-1.3,0.2l-1.6,4.1l5.4,2.1l-2.1,5.4l5.4,2.1l-2.1,5.4l5.4,2.1l-2.1,5.4l5.4,2.1l-2.1,5.4       l5.4,2.1l-2.1,5.4l5.4,2.1l-2.1,5.4l5.4,2.1l-2.1,5.4l0.6,0.2c0.4-0.2,0.8-0.5,1.2-0.8l-0.3-0.1L98.8,111z"/></g><g><path d="M95.1,112.6l-5.4-2.1l2.1-5.4l-5.4-2.1l2.1-5.4l-5.1-2l0.4,1.4l3.1,1.2l-1.3,3.4l1.1,2.7l3.5,1.4l-1.5,3.7       c0.2,0.7,0.3,1.3,0.4,2l0,0l4.4,1.7l-2.1,5.4l1.1,0.4c0.5-0.2,0.9-0.5,1.4-0.7l-0.9-0.4L95.1,112.6z"/><path d="M82,82.7l-5.4-2.1l2.1-5.4l-5.4-2.1l2.1-5.4l-5.4-2.1l1.8-4.7c-0.4,0.1-0.9,0.1-1.3,0.2l-2,5.2l5.4,2.1l-2.1,5.4       l5.4,2.1l-1.4,3.5c0.3,0.3,0.5,0.6,0.6,1l0.3,1.4l3.8,1.5l-1.2,3.1l1,3l3.5,1.4l-1,2.5c0,0.1,0.1,0.1,0.1,0.2l0.5,1.6l1.9-5       l-5.4-2.1L82,82.7z"/></g><g><path d="M90.1,120.2c0.1,0,0.2-0.1,0.3-0.1l-0.4-0.2C90.1,120,90.1,120.1,90.1,120.2z"/><polygon points="89.4,114.7 89.8,114.9 89.5,115.7 89.7,118.4 91.3,114.2 89.3,113.5      "/><polygon points="78.1,84.6 78.2,84.3 77.7,84.1      "/><path d="M74.4,78.3l0.5-1.4L72.9,76C73.4,76.9,73.9,77.7,74.4,78.3z"/><polygon points="87.9,107.1 88,106.8 87.7,106.6      "/><path d="M65.5,61.8c-0.1,0-0.2,0.1-0.3,0.1l1.8,0.7l-1.3,3.3c0.3,0.3,0.6,0.6,0.9,0.9l1.9-4.9l-1-0.4       C66.7,61.6,66.1,61.7,65.5,61.8z"/><polygon points="84.7,99.4 84.8,99.3 84.7,99.2      "/><path d="M68.9,69.5l1.3,0.5l-0.3,0.7c0.3,0.4,0.6,0.8,0.8,1.2l1-2.6l-4.4-1.7C67.9,68.3,68.4,68.9,68.9,69.5z"/><path d="M81.5,91.9l0-0.1l-0.3-0.1C81.3,91.8,81.4,91.9,81.5,91.9z"/></g><g><path d="M64.3,64.5l0.4-0.9L64,63.3C63.9,63.7,64,64.1,64.3,64.5z"/></g></g><path d="M92,55.1c0.1,0,0.1,0,0.2-0.1C92.1,55.1,92,55.1,92,55.1z" fill="#FFFFFF" opacity="0.1"/><path d="M95.4,54.1C95.4,54.1,95.4,54.1,95.4,54.1C95.4,54.1,95.4,54.1,95.4,54.1z" fill="#FFFFFF" opacity="0.1"/><path d="M95.1,54.1C95.2,54.1,95.2,54.1,95.1,54.1C95.2,54.1,95.2,54.1,95.1,54.1z" fill="#FFFFFF" opacity="0.1"/><path d="M93,54.7c0,0,0.1,0,0.1-0.1C93.1,54.7,93.1,54.7,93,54.7z" fill="#FFFFFF" opacity="0.1"/><path d="M92.6,54.9c0,0,0.1,0,0.1,0C92.7,54.8,92.6,54.9,92.6,54.9z" fill="#FFFFFF" opacity="0.1"/><path d="M94.8,54.2C94.8,54.2,94.9,54.2,94.8,54.2C94.9,54.2,94.8,54.2,94.8,54.2z" fill="#FFFFFF" opacity="0.1"/><path d="M94,54.4C94.1,54.4,94.1,54.4,94,54.4C94.1,54.4,94.1,54.4,94,54.4z" fill="#FFFFFF" opacity="0.1"/><path d="M93.5,54.5C93.6,54.5,93.6,54.5,93.5,54.5C93.6,54.5,93.6,54.5,93.5,54.5z" fill="#FFFFFF" opacity="0.1"/><path d="M94.4,54.3c0,0,0.1,0,0.1,0C94.5,54.2,94.5,54.3,94.4,54.3z" fill="#FFFFFF" opacity="0.1"/><path d="M91.5,55.3c0.1,0,0.1-0.1,0.2-0.1C91.6,55.2,91.5,55.3,91.5,55.3z" fill="#FFFFFF" opacity="0.1"/><path d="M91.3,55.4c-0.2,0.1-0.4,0.2-0.5,0.2l0,0C90.9,55.5,91.1,55.5,91.3,55.4z" fill="#FFFFFF" opacity="0.1"/><path d="M89.8,56c0.1,0,0.2-0.1,0.3-0.1c0,0,0,0,0,0C90,55.9,89.9,55.9,89.8,56     C89.8,56,89.8,56,89.8,56z" fill="#FFFFFF" opacity="0.1"/><path d="M90.2,55.8c0.1-0.1,0.3-0.1,0.4-0.2C90.5,55.7,90.3,55.8,90.2,55.8     C90.2,55.8,90.2,55.8,90.2,55.8z" fill="#FFFFFF" opacity="0.1"/><path d="M89.6,56.1C89.6,56.1,89.6,56.1,89.6,56.1c0,0-0.1,0-0.1,0C89.5,56.1,89.6,56.1,89.6,56.1z     " fill="#FFFFFF" opacity="0.1"/><path d="M64,63.1c0-0.1,0-0.1,0-0.2C64,63,64,63.1,64,63.1z" opacity="0.1"/><path d="M64.4,62.3c0,0,0.1-0.1,0.1-0.1C64.5,62.2,64.4,62.3,64.4,62.3z" opacity="0.1"/><path d="M64.1,62.7c0-0.1,0.1-0.1,0.1-0.2C64.2,62.6,64.2,62.6,64.1,62.7z" opacity="0.1"/><path d="M64.4,64.6c-0.1-0.1-0.2-0.3-0.3-0.4C64.2,64.4,64.3,64.5,64.4,64.6z" opacity="0.1"/><path d="M64,63.6c0-0.1,0-0.2,0-0.2C64,63.4,64,63.5,64,63.6z" opacity="0.1"/><path d="M64.1,64.1c0-0.1-0.1-0.2-0.1-0.3C64,63.9,64.1,64,64.1,64.1z" opacity="0.1"/><path d="M64.7,62c0.1,0,0.1-0.1,0.2-0.1C64.8,62,64.8,62,64.7,62z" opacity="0.1"/><path d="M65.1,61.9c0,0,0.1,0,0.1,0c0,0,0,0,0,0C65.2,61.8,65.2,61.8,65.1,61.9z" opacity="0.1"/></g><path d="M120.2,40.2c-0.8,0.6-1.5,1.2-2.1,1.8c-0.8,0.8-1.5,1.4-1.8,1.9c-0.3,0.4-0.6,0.6-1,0.8    c-1.3,0.5-3.9,1.7-5.1,2.6c0,0,0,0,0,0c-0.3,0.2-0.5,0.4-0.8,0.4c-1.3,0.4-4.5,1.4-5.1,2.3c0,0-0.1,0.5-1.9,0.8    c-1.6,0.3-4.2,2.4-4.8,2.9c-0.1,0.1-0.3,0.2-0.4,0.3c-0.4,0.2-1.1,0.5-1.5,0.1c0,0-0.1,0-0.1-0.1c0,0,0,0-0.1,0c0,0-0.1,0-0.2,0    c0,0,0,0-0.1,0c-0.1,0-0.2,0-0.3,0c0,0,0,0,0,0c-0.1,0-0.2,0-0.3,0.1c0,0-0.1,0-0.1,0c-0.1,0-0.2,0.1-0.3,0.1c0,0-0.1,0-0.1,0    c-0.1,0-0.3,0.1-0.4,0.1c0,0-0.1,0-0.1,0c-0.1,0-0.2,0.1-0.4,0.1c0,0-0.1,0-0.1,0.1c-0.1,0-0.2,0.1-0.3,0.1c0,0-0.1,0-0.1,0    c-0.1,0.1-0.3,0.1-0.4,0.2c-0.1,0-0.1,0-0.2,0.1c-0.1,0-0.2,0.1-0.3,0.1c-0.1,0-0.1,0.1-0.2,0.1c-0.1,0-0.1,0.1-0.2,0.1    c-0.2,0.1-0.4,0.2-0.5,0.2c0,0,0,0-0.1,0c-0.1,0.1-0.3,0.1-0.4,0.2c0,0,0,0,0,0c0,0-0.1,0-0.1,0c0,0,0,0,0,0    c-0.1,0-0.2,0.1-0.3,0.1c0,0,0,0,0,0c-0.1,0-0.1,0.1-0.2,0.1c0,0,0,0,0,0c0,0-0.1,0-0.1,0c-0.1,0-0.2,0.1-0.3,0.1    c-0.9,0.3-3.3,1.4-4.4,1.8c-0.2,0.1-0.3,0.1-0.5,0.1s-0.3,0-0.5,0c-0.7,0-2.3,0.1-4.3,1.1c-2,0.9-9.6,1.9-14.1,2.4    c-1.4,0.2-2,1.8-1,2.8c0.2,0.2,0.4,0.4,0.7,0.7c0.1,0,0.1,0,0.2,0c4.5-0.5,12.2-1.5,14.1-2.4c2-0.9,3.5-1.1,4.3-1.1    c0.3,0,0.7-0.1,1-0.2c1.1-0.5,3.5-1.5,4.4-1.8c1.2-0.4,5.8-2.5,6.4-2c0.4,0.4,1.1,0.1,1.5-0.1c0.1-0.1,0.3-0.2,0.4-0.3    c0.6-0.5,3.2-2.6,4.8-2.9c1.9-0.4,1.9-0.8,1.9-0.8c0.6-0.9,3.9-1.9,5.1-2.3c0.3-0.1,0.6-0.2,0.8-0.4c0,0,0,0,0,0    c1.2-0.9,3.8-2.1,5.1-2.6c0.4-0.2,0.8-0.4,1-0.8c0.8-1.2,3.4-3.3,5.9-5.3c-0.3-0.9-0.7-1.7-1-2.5C120.7,39.8,120.5,40,120.2,40.2z    " fill="#FFFFFF" opacity="0.1"/><path d="M90.7,117.6l-0.4-0.8c-0.2-0.5-0.4-1.1-0.4-1.6l-0.5-7.1c-0.1-1.1-0.3-2.2-0.8-3.3l-4.2-10.1    c0-0.1-0.1-0.2-0.1-0.2L83,90.1c-0.2-0.5-0.5-1-0.9-1.3l-0.4-0.2c-0.4-0.3-0.8-0.7-0.9-1.2l-1.4-4.5c-0.1-0.3-0.2-0.5-0.4-0.8    l-1.4-1.8c-0.2-0.3-0.4-0.6-0.5-1L76.6,77c-0.1-0.6-0.6-1.2-1.2-1.5c-1.5-0.9-2.8-3.8-4.2-6.4c-0.9-1.8-3.7-4.9-5.9-7.2    c0,0-0.1,0-0.1,0c-0.1,0-0.2,0.1-0.3,0.1c-0.1,0-0.1,0.1-0.2,0.1c-0.1,0-0.1,0.1-0.2,0.2c0,0-0.1,0.1-0.1,0.1    c-0.1,0.1-0.1,0.1-0.2,0.2c0,0.1-0.1,0.1-0.1,0.2c0,0.1-0.1,0.1-0.1,0.2c0,0.1,0,0.1,0,0.2c0,0.1,0,0.1,0,0.2c0,0.1,0,0.2,0,0.2    c0,0.1,0,0.1,0,0.2c0,0.1,0.1,0.2,0.1,0.3c0,0,0,0.1,0.1,0.1c0.1,0.1,0.2,0.3,0.3,0.4c2.3,2.4,5.6,5.9,6.6,7.9    c1.4,2.6,2.7,5.5,4.2,6.4c0.6,0.3,1,0.9,1.2,1.5l0.5,2.3c0.1,0.4,0.2,0.7,0.5,1l1.4,1.8c0.2,0.2,0.3,0.5,0.4,0.8l1.4,4.5    c0.2,0.5,0.5,0.9,0.9,1.2l0.4,0.2c0.4,0.3,0.8,0.8,0.9,1.3l1.3,4.3c0,0.1,0.1,0.2,0.1,0.2l4.2,10.1c0.4,1,0.7,2.1,0.8,3.3l0.5,7.1    c0,0.6,0.2,1.1,0.4,1.6c0.2-0.1,0.4-0.2,0.6-0.3l0.2-0.9C91,118.5,90.9,118,90.7,117.6z" opacity="0.1"/></g><g><path d="M98,115.3c0.3-0.7,0.6-1.4,0.9-2.1l0.2-0.3c0.3-0.6,0.6-1.2,0.8-1.8l0.2-0.5c0.3-0.7,0.7-1.3,1-2l0.3-0.5    c0.4-0.7,0.7-1.4,1.1-2.1c6.8-11.9,10.5-17.9,12.4-20.8c0.7-1.1,0.8-2.5,0.2-3.6c-0.6-1.2-1.7-1.9-3-2l-9.9-0.6    c-1.7-0.1-3.4-0.5-5-1.1l-0.6-0.2c-1-0.4-2-0.7-3-1l-8.8-2.2c-0.5-0.1-0.9-0.3-1.5-0.5c-0.8-0.3-1.6-0.6-2.3-1l-6.5-3.5    c-0.2-0.1-0.3-0.2-0.5-0.2l-3.4-1.3l-0.7,1.9l0.6-1.9l-2.7-1.9c-0.3-0.2-0.7-0.4-1.1-0.5l-2.7-0.9c-0.1,0-0.1,0-0.2-0.1L61,62.1    c-0.4-0.4-0.9-0.8-1.4-1.2l-1.5-1.2l-6.5-4.7c-0.4-0.3-1-0.5-1.5-0.5c-1.3,0-2.3,0.9-2.5,2.2c-0.8,5-1.7,11.4-1.3,13.8    c0,0,0,0.1,0,0.2c-0.7,1.7-1.6,4-1.9,5.6l-0.1,0.1v0.3c0,0,0,0.1,0,0.1C42,81,41.9,82.5,42,83.2c-0.1,0.1-0.2,0.4-0.4,0.8    c-1.1,1.6-1.5,4.6-1.7,6.4c-1.2,0.5-2,2.2-3.4,5.5l-0.6,1.3c-0.4,0.8-1.3,2.9-1.9,4.6c0,0,0,0.1-0.1,0.1c-0.6,0.6-1.9,2.1-2.8,4.5    c-0.3,0.8-1.7,2.9-4.7,6.9c10.5,8,23.5,12.8,37.8,12.8c12.4,0,24-3.7,33.7-10c0,0,0-0.1,0.1-0.1L98,115.3z" opacity="0.15"/><path d="M91.5,119c0.2-0.7,0.4-1.4,0.7-2c0-0.1,0.1-0.3,0.2-0.4c0.2-0.6,0.4-1.2,0.7-1.9c0.1-0.1,0.1-0.3,0.2-0.4    c0.3-0.7,0.5-1.4,0.8-2.1c0.1-0.2,0.1-0.4,0.2-0.6c0.3-0.7,0.6-1.4,0.9-2.1c0.1-0.1,0.1-0.2,0.2-0.4c0.3-0.6,0.6-1.3,0.9-1.9    c0.1-0.2,0.1-0.3,0.2-0.5c0.3-0.7,0.7-1.4,1-2.1c0.1-0.2,0.2-0.3,0.3-0.5c0.4-0.7,0.8-1.4,1.2-2.1c6.9-12.1,10.6-18.1,12.4-20.9    c0.7-1.1,0-2.5-1.3-2.5L100,78c-1.9-0.1-3.8-0.5-5.6-1.3l-0.6-0.2c-0.9-0.4-1.8-0.6-2.7-0.9l-8.8-2.2c-0.6-0.1-1.1-0.3-1.7-0.5v0    c-0.9-0.3-1.7-0.7-2.6-1.1l-6.5-3.5c-0.1,0-0.2-0.1-0.3-0.1l-3.4-1.3c-0.2-0.1-0.4-0.2-0.5-0.3l-2.7-1.9c-0.2-0.1-0.4-0.2-0.6-0.3    l-2.7-0.9c-0.3-0.1-0.6-0.3-0.9-0.5l-2.7-2.5c-0.4-0.4-0.8-0.7-1.2-1l-1.5-1.2l-6.5-4.7c-0.3-0.3-0.8,0-0.9,0.4    c-0.5,2.7-1.7,10.7-1.3,13.1c0.1,0.4,0,0.9-0.2,1.3c-0.6,1.3-1.6,3.9-1.8,5.4c0,0,0,0,0,0c0,0.3-0.1,0.6-0.3,0.9    c-0.6,1.2-2.2,4.2-2,5.3c0,0,0.3,0.4-0.8,2c-0.9,1.4-1.3,4.6-1.4,5.5c0,0.2-0.1,0.3-0.1,0.5c-0.1,0.4-0.4,1.1-1,1.1    c-0.6,0-1.7,2.6-2.5,4.4l0,0c0,0,0,0,0,0.1C36.1,93.7,36,93.9,36,94c0,0,0,0.1-0.1,0.1c0,0.1-0.1,0.2-0.1,0.3    c0,0.1-0.1,0.1-0.1,0.2c0,0,0,0.1-0.1,0.1c0,0.1-0.1,0.2-0.1,0.3c-0.4,0.9-1.4,3.3-1.8,4.4c-0.1,0.2-0.1,0.3-0.2,0.4    c-0.1,0.1-0.2,0.3-0.3,0.4c-0.5,0.5-1.5,1.7-2.3,3.8c-0.5,1.5-3.2,5.1-5.7,8.3c4.4,3.5,9.2,6.5,14.4,8.7c0.8,0.1,1.4,0.2,2,0    c0.6-0.2,1.3-0.1,1.9,0.3l1.9,1.2c0.3,0.2,0.7,0.3,1,0.4l2.3,0.3c0.3,0,0.6,0.1,0.8,0.3l2.7,1.4C56,125.6,60,126,64,126    c9.8,0,19-2.3,27.3-6.3c0-0.1,0-0.1,0-0.2C91.4,119.3,91.4,119.2,91.5,119z" fill="#C55C44"/><g opacity="0.2"><g><g><path d="M96.1,78.1l1.2-0.5c-0.5-0.1-1.1-0.2-1.6-0.4L96.1,78.1z"/><path d="M110.2,78.7c-0.1,0-0.2-0.1-0.3-0.1l-2.7-0.2l-2.9,1.2l-0.6-1.4l-1.3-0.1l1.3,3.1l5.3-2.3l1.5,3.3       c0.3-0.4,0.5-0.8,0.7-1.1c0,0,0-0.1,0.1-0.1L110.2,78.7z"/><path d="M57.1,60.1l1.2,2.8l1.3-0.6l-1.9-1.8C57.5,60.4,57.3,60.3,57.1,60.1z"/><path d="M51.3,58.4l-1.6-3.7l-1.3-0.9c-0.3-0.3-0.8,0-0.9,0.4c0,0.2-0.1,0.6-0.1,0.9l1-0.4l2.3,5.3l3.9-1.7l-1.1-0.8L51.3,58.4       z"/><polygon points="88.6,75.1 88.7,75 88.5,75      "/><polygon points="65.9,66 66.1,65.9 65.7,65.6      "/></g><g><path d="M108.1,81.2l-5.3,2.3l-2.3-5.3l-5.3,2.3l-1.7-4c-0.7-0.3-1.4-0.5-2.1-0.7l-3.8,1.6l-1.2-2.9L85,74.1l2,4.8l5.3-2.3       l2.3,5.3l5.3-2.3l2.3,5.3l5.3-2.3l1.1,2.5c0.3-0.4,0.5-0.8,0.7-1.2L108.1,81.2z"/><path d="M80.1,74.3l-0.8-1.9c-0.5-0.2-0.9-0.4-1.3-0.6l-0.3-0.1l1.8,4.2l4.6-2l-1.9-0.5L80.1,74.3z"/><path d="M65,68.2l-1.7-3.9l-2-0.7c0,0-0.1,0-0.1,0l-3.8,1.6l-2.3-5.3l-5.3,2.3l-2.3-5.3L47.1,57c-0.1,0.4-0.1,0.9-0.2,1.4l0,0       l2.3,5.3l5.3-2.3l2.3,5.3l5.3-2.3l2.3,5.3l5.1-2.2L67.9,67L65,68.2z"/><path d="M72.5,71.3l-1.3-3c0,0-0.1,0-0.1,0l-1.4-0.5l2.2,5.1l4.4-1.9L75,70.2L72.5,71.3z"/></g><g><path d="M101.3,87.2L99,81.9l-5.3,2.3l-2.3-5.3l-5.3,2.3l-2.3-5.3l-5.3,2.3l-2.3-5.3L71,75.1l-2.3-5.3L63.4,72l-2.3-5.3       L55.9,69l-2.3-5.3l-5.3,2.3l-1.8-4.3c-0.1,0.8-0.2,1.7-0.2,2.4l1.4,3.4l5.3-2.3l2.3,5.3l5.3-2.3l2.3,5.3l5.3-2.3l2.3,5.3       l5.3-2.3l2.3,5.3l5.3-2.3l2.3,5.3l5.3-2.3l2.3,5.3l5.3-2.3l2.3,5.3l5.3-2.3l0.8,1.8c0.3-0.4,0.5-0.8,0.7-1.2l-0.9-2.1       L101.3,87.2z"/></g><g><path d="M99.8,91l-2.3-5.3L92.2,88l-2.3-5.3l-5.3,2.3l-2.3-5.3L77,81.9l-2.3-5.3l-5.3,2.3l-2.3-5.3l-5.3,2.3l-2.3-5.3l-5.3,2.3       l-2.3-5.3l-5.3,2.3l-0.6-1.4c0,0.1,0,0.2-0.1,0.2c-0.2,0.4-0.3,0.8-0.5,1.3l0.6,1.4l5.3-2.3l2.3,5.3L59,72l2.3,5.3l5.3-2.3       l2.3,5.3l5.3-2.3l2.3,5.3l5.3-2.3l2.3,5.3l5.3-2.3l2.3,5.3l5.3-2.3l2.3,5.3l5.3-2.3l0.5,1.1c0.3-0.4,0.5-0.8,0.7-1.2l-0.6-1.4       L99.8,91z"/></g><g><path d="M98.2,94.8L96,89.5l-5.3,2.3l-2.3-5.3l-5.3,2.3l-2.3-5.3l-5.3,2.3l-2.3-5.3L68,82.6l-2.3-5.3l-5.3,2.3l-2.3-5.3       l-5.3,2.3l-2.3-5.3l-5.3,2.3l-0.5-1.3c-0.2,0.6-0.3,1.2-0.4,1.7c0,0,0,0,0,0c0,0.1,0,0.1,0,0.2l0.4,0.9l5.3-2.3l2.3,5.3       l5.3-2.3l2.3,5.3l5.3-2.3l2.3,5.3l5.3-2.3l2.3,5.3l5.3-2.3l2.3,5.3l5.3-2.3l2.3,5.3l5.3-2.3l2.3,5.3l5.3-2.3l0.2,0.4       c0.2-0.4,0.5-0.8,0.7-1.2l-0.3-0.7L98.2,94.8z"/></g><g><path d="M96.7,98.6l-2.3-5.3l-5.3,2.3l-2.3-5.3l-5.3,2.3l-2.3-5.3L74,89.5l-2.3-5.3l-5.3,2.3l-2.3-5.3l-5.3,2.3l-2.3-5.3       l-5.3,2.3L49,75l-5.3,2.3l-0.4-1.1c-0.2,0.4-0.5,0.9-0.7,1.4l0.5,1.2l5.3-2.3l2.3,5.3l5.3-2.3l2.3,5.3l5.3-2.3l2.3,5.3l5.3-2.3       l2.3,5.3l5.3-2.3L81,94l5.3-2.3l2.3,5.3l5.3-2.3l2.3,5.3L101,98c0.3-0.6,0.7-1.1,1-1.7l0,0L96.7,98.6z"/></g><g><path d="M92.9,97.1l-5.3,2.3L85.4,94L80,96.3L77.8,91l-5.3,2.3l-2.3-5.3l-5.3,2.3l-2.3-5.3l-5.3,2.3l-2.3-5.3l-5.3,2.3       l-2.3-5.3l-5.3,2.3L42,80.5c-0.1,0.3-0.2,0.7-0.7,1.4l0.3,0.7l5.3-2.3l2.3,5.3l5.3-2.3l2.3,5.3l5.3-2.3l2.3,5.3l5.3-2.3       l2.3,5.3l5.3-2.3l2.3,5.3l5.3-2.3l2.3,5.3l5.3-2.3l2.3,5.3l4.1-1.7c0,0,0-0.1,0.1-0.1c0.3-0.5,0.6-1,0.9-1.6l-4.4,1.9       L92.9,97.1z"/></g><g><path d="M91.4,100.8l-5.3,2.3l-2.3-5.3l-5.3,2.3l-2.3-5.3L71,97l-2.3-5.3L63.4,94l-2.3-5.3l-5.3,2.3l-2.3-5.3l-5.3,2.3L46,82.6       l-5.3,2.3l-0.3-0.7c-0.2,0.7-0.3,1.4-0.4,2l0.1,0.3l5.3-2.3l2.3,5.3l5.3-2.3l2.3,5.3l5.3-2.3l2.3,5.3l5.3-2.3l2.3,5.3l5.3-2.3       l2.3,5.3l5.3-2.3l2.3,5.3l5.3-2.3l2.3,5.3l3.5-1.5c0.2-0.5,0.5-1,0.7-1.5c0,0,0-0.1,0.1-0.1l-3.7,1.6L91.4,100.8z"/></g><g><path d="M89.9,104.6l-5.3,2.3l-2.3-5.3l-5.3,2.3l-2.3-5.3l-5.3,2.3l-2.3-5.3l-5.3,2.3l-2.3-5.3l-5.3,2.3L52,89.4l-5.3,2.3       l-2.3-5.3l-5,2.2c-0.2,0.3-0.4,0.6-0.7,0.6c-0.1,0-0.3,0.1-0.4,0.3l0.3,0.7l5.3-2.3l2.3,5.3l5.3-2.3l2.3,5.3L59,94l2.3,5.3       l5.3-2.3l2.3,5.3l5.3-2.3l2.3,5.3l5.3-2.3l2.3,5.3l5.3-2.3l2.3,5.3l3.2-1.4c0.1-0.2,0.2-0.4,0.3-0.6c0.1-0.1,0.1-0.2,0.2-0.4       c0.1-0.2,0.2-0.4,0.3-0.6l-3.3,1.4L89.9,104.6z"/></g><g><path d="M86.8,112.2l-5.3,2.3l-2.3-5.3l-5.3,2.3l-2.3-5.3l-5.3,2.3l-2.3-5.3l-5.3,2.3l-2.3-5.3l-5.3,2.3L49,97l-5.3,2.3       l-2.3-5.3l-5.3,2.3l-0.5-1.3c0,0,0,0,0,0.1c-0.1,0.3-0.4,0.8-0.6,1.4l0.6,1.3l5.3-2.3l2.3,5.3l5.3-2.3l2.3,5.3l5.3-2.3l2.3,5.3       l5.3-2.3l2.3,5.3l5.3-2.3l2.3,5.3l5.3-2.3l2.3,5.3l5.3-2.3l2.3,5.3l3.5-1.5c0.1-0.2,0.1-0.4,0.2-0.6c0-0.1,0.1-0.3,0.2-0.4       c0-0.1,0.1-0.3,0.1-0.4l-3.4,1.4L86.8,112.2z"/></g><g><path d="M88.4,108.4l-5.3,2.3l-2.3-5.3l-5.3,2.3l-2.3-5.3l-5.3,2.3l-2.3-5.3l-5.3,2.3l-2.3-5.3l-5.3,2.3l-2.3-5.3l-5.3,2.3       l-2.3-5.3l-5.3,2.3l-0.5-1.1c-0.2,0.5-0.4,1-0.7,1.4l0.5,1.2l5.3-2.3l2.3,5.3l5.3-2.3l2.3,5.3l5.3-2.3l2.3,5.3l5.3-2.3l2.3,5.3       l5.3-2.3l2.3,5.3l5.3-2.3l2.3,5.3l5.3-2.3l2.3,5.3l3.2-1.4c0.2-0.5,0.4-1,0.6-1.5l-3.2,1.4L88.4,108.4z"/></g><g><path d="M85.3,116l-5.3,2.3l-2.3-5.3l-5.3,2.3l-2.3-5.3l-5.3,2.3l-2.3-5.3l-5.3,2.3l-2.3-5.3l-5.3,2.3l-2.3-5.3l-5.3,2.3       l-2.3-5.3l-5.3,2.3L34,98.6c-0.1,0.3-0.2,0.6-0.3,0.8c-0.1,0.2-0.1,0.3-0.2,0.4c0,0.1-0.1,0.1-0.1,0.2l0.7,1.5l5.3-2.3l2.3,5.3       l5.3-2.3l2.3,5.3l5.3-2.3l2.3,5.3l5.3-2.3l2.3,5.3l5.3-2.3l2.3,5.3l5.3-2.3l2.3,5.3l5.3-2.3l1.8,4.3c1.5-0.6,3-1.2,4.4-1.9       l-3.3,1.4L85.3,116z"/></g><g><path d="M78.5,122l-2.3-5.3l-5.3,2.3l-2.3-5.3l-5.3,2.3l-2.3-5.3l-5.3,2.3l-2.3-5.3l-5.3,2.3l-2.3-5.3l-5.3,2.3l-2.3-5.3       l-5.3,2.3l-1-2.3c-0.2,0.4-0.5,0.8-0.7,1.3l1.1,2.5l5.3-2.3l2.3,5.3l5.3-2.3l2.3,5.3l5.3-2.3l2.3,5.3l5.3-2.3l2.3,5.3l5.3-2.3       l2.3,5.3l5.3-2.3l2.3,5.3l5.3-2.3l0.6,1.5c0.4-0.1,0.7-0.2,1.1-0.4l-1.1-2.6L78.5,122z"/></g><g><path d="M69.4,122.8l-2.3-5.3l-5.3,2.3l-2.3-5.3l-5.3,2.3l-2.3-5.3l-5.3,2.3l-2.3-5.3l-5.3,2.3l-2.3-5.3l-5.3,2.3l-1.1-2.7       c-0.2,0.4-0.5,0.8-0.7,1.2l1.3,3l5.3-2.3l2.3,5.3l5.3-2.3l2.3,5.3l5.3-2.3l2.3,5.3l5.3-2.3l2.3,5.3l5.3-2.3l2.3,5.3l5.3-2.3       l1.2,2.9c0.4-0.1,0.8-0.1,1.2-0.2l-1.8-4.2L69.4,122.8z"/></g><g><path d="M65.6,121.3l-5.3,2.3l-2.3-5.3l-5.3,2.3l-2.3-5.3l-5.3,2.3l-2.3-5.3l-5.3,2.3l-2.3-5.3l-5.3,2.3l-1.5-3.6       c-0.3,0.4-0.5,0.7-0.8,1.1l1.7,4l5.3-2.3l2.3,5.3l5.3-2.3l2.3,5.3l5.3-2.3l2.3,5.3l5.3-2.3l2.3,5.3l5.3-2.3l1.3,3.2       c0.4,0,0.8,0,1.2-0.1L65.6,121.3z"/><path d="M69.8,125.7c1.3-0.1,2.5-0.3,3.7-0.5l-0.4-1L69.8,125.7z"/></g><g><path d="M62,125.9c0.7,0,1.4,0.1,2,0.1c0.2,0,0.3,0,0.5,0l-0.4-1L62,125.9z"/><path d="M26.5,110.5c-0.3,0.4-0.5,0.7-0.8,1.1l0.8,1.8c0.6,0.5,1.2,0.9,1.8,1.3L26.5,110.5z"/><path d="M51.2,124.3l-2.3-5.3l-5.3,2.3l-2.3-5.3l-5.3,2.3l-2.3-5.3l-5,2.1c0.4,0.3,0.8,0.5,1.1,0.8l3.3-1.4l1.9,4.5       c0.4,0.2,0.7,0.4,1.1,0.5l4.6-2l1.5,3.5c0.4,0,0.8,0.1,1.1,0.3l1.2,0.8l3.7-1.6l1.3,3l2.5,1.3c0.1,0,0.3,0,0.4,0.1l3.3-1.4       l0.9,2c0.4,0.1,0.9,0.1,1.3,0.1l-1.6-3.7L51.2,124.3z"/></g><g><polygon points="46.9,123 47.6,123 47.4,122.7      "/><path d="M39.9,119.7l-1.6,0.7c0.4,0.2,0.8,0.4,1.3,0.6c0.3,0.1,0.7,0.1,0.9,0.1L39.9,119.7z"/><path d="M31.7,116.9c0.3,0.2,0.6,0.4,1,0.6l-0.4-0.8L31.7,116.9z"/></g></g><path d="M36.7,92.3c0-0.1,0-0.1,0.1-0.2C36.8,92.2,36.8,92.2,36.7,92.3z" fill="#FFFFFF" opacity="0.1"/><path d="M38.5,89.2C38.5,89.2,38.5,89.2,38.5,89.2C38.5,89.2,38.5,89.2,38.5,89.2z" fill="#FFFFFF" opacity="0.1"/><path d="M38.3,89.3C38.3,89.3,38.4,89.3,38.3,89.3C38.4,89.3,38.3,89.3,38.3,89.3z" fill="#FFFFFF" opacity="0.1"/><path d="M37.2,91.2c0,0,0-0.1,0.1-0.1C37.3,91.1,37.2,91.2,37.2,91.2z" fill="#FFFFFF" opacity="0.1"/><path d="M37,91.7c0,0,0-0.1,0.1-0.1C37,91.6,37,91.6,37,91.7z" fill="#FFFFFF" opacity="0.1"/><path d="M47.6,54.1L47.6,54.1c0-0.2,0.2-0.4,0.4-0.4C47.7,53.8,47.6,53.9,47.6,54.1z" fill="#FFFFFF" opacity="0.1"/><path d="M38.1,89.6C38.1,89.6,38.1,89.6,38.1,89.6C38.1,89.6,38.1,89.6,38.1,89.6z" fill="#FFFFFF" opacity="0.1"/><path d="M37.7,90.3C37.7,90.3,37.7,90.2,37.7,90.3C37.7,90.2,37.7,90.3,37.7,90.3z" fill="#FFFFFF" opacity="0.1"/><path d="M37.5,90.8C37.5,90.7,37.5,90.7,37.5,90.8C37.5,90.7,37.5,90.7,37.5,90.8z" fill="#FFFFFF" opacity="0.1"/><path d="M37.9,89.9C37.9,89.9,37.9,89.9,37.9,89.9C37.9,89.9,37.9,89.9,37.9,89.9z" fill="#FFFFFF" opacity="0.1"/><path d="M36.5,92.8c0-0.1,0.1-0.1,0.1-0.2C36.6,92.6,36.6,92.7,36.5,92.8z" fill="#FFFFFF" opacity="0.1"/><path d="M63.9,64.5c0.2,0.1,0.4,0.2,0.6,0.3l0.7,0.5l-0.7-0.5C64.3,64.7,64.1,64.6,63.9,64.5z" fill="#FFFFFF" opacity="0.1"/><path d="M65.2,65.3l2.1,1.4c0.2,0.1,0.3,0.2,0.5,0.3c-0.2-0.1-0.4-0.2-0.5-0.3L65.2,65.3z" fill="#FFFFFF" opacity="0.1"/><path d="M36.4,93c-0.1,0.2-0.2,0.4-0.2,0.5l0,0C36.3,93.3,36.3,93.2,36.4,93z" fill="#FFFFFF" opacity="0.1"/><path d="M35.8,94.4c0-0.1,0.1-0.2,0.1-0.3c0,0,0,0,0,0C35.9,94.2,35.9,94.3,35.8,94.4     C35.8,94.4,35.8,94.4,35.8,94.4z" fill="#FFFFFF" opacity="0.1"/><path d="M79.3,72.4c0,0-0.1,0-0.1,0C79.2,72.4,79.2,72.4,79.3,72.4z" fill="#FFFFFF" opacity="0.1"/><path d="M36,94c0.1-0.1,0.1-0.3,0.2-0.4C36.1,93.7,36,93.9,36,94C36,94,36,94,36,94z" fill="#FFFFFF" opacity="0.1"/><path d="M35.7,94.6C35.7,94.6,35.7,94.6,35.7,94.6c0,0,0,0.1-0.1,0.1     C35.7,94.7,35.7,94.6,35.7,94.6z" fill="#FFFFFF" opacity="0.1"/><polygon fill="#FFFFFF" opacity="0.1" points="80.5,72.9 80.5,72.9 80.5,72.9    "/></g><path d="M35.5,102.8c0.2-0.2,0.4-0.5,0.5-0.8c0.4-1.1,1.4-3.5,1.8-4.4c0.5-1.1,2.4-5.9,3.1-5.9    c0.5,0,0.9-0.7,1-1.1c0.1-0.2,0.1-0.3,0.1-0.5c0.1-0.8,0.5-4.1,1.4-5.5c1.1-1.6,0.8-2,0.8-2c-0.2-1.1,1.4-4.1,2-5.3    c0.2-0.3,0.2-0.6,0.3-0.9c0,0,0,0,0,0c0.2-1.5,1.2-4.1,1.8-5.4c0.2-0.4,0.2-0.9,0.2-1.3c-0.4-2.3,0.9-10.4,1.3-13.1    c0.1-0.4,0.6-0.6,0.9-0.4l6.5,4.7l1.5,1.2c0.4,0.3,0.8,0.7,1.2,1l2.7,2.5c0.2,0.2,0.5,0.4,0.9,0.5l2.7,0.9    c0.2,0.1,0.4,0.2,0.6,0.3l2.7,1.9c0.2,0.1,0.3,0.2,0.5,0.3l3.4,1.3c0.1,0,0.2,0.1,0.3,0.1l6.5,3.5c1.3,0.7,2.8,1.3,4.3,1.6    l8.8,2.2c0.9,0.2,1.8,0.5,2.7,0.9l0.6,0.2c1.8,0.7,3.7,1.2,5.6,1.3l8.9,0.5c0,0,0,0,0,0c0.7-1.1,0-2.5-1.3-2.5L100,78    c-1.9-0.1-3.8-0.5-5.6-1.3l-0.6-0.2c-0.9-0.4-1.8-0.6-2.7-0.9l-8.8-2.2c-0.6-0.1-1.1-0.3-1.7-0.5c0,0,0,0,0,0    c-0.4-0.1-0.8-0.3-1.2-0.5c0,0-0.1,0-0.1,0c-0.4-0.2-0.8-0.4-1.2-0.6l-6.5-3.5c-0.1,0-0.2-0.1-0.3-0.1l-3.4-1.3    c-0.2-0.1-0.4-0.2-0.5-0.3l-2.7-1.9c-0.2-0.1-0.4-0.2-0.6-0.3l-2.7-0.9c-0.3-0.1-0.6-0.3-0.9-0.5l-2.7-2.5c-0.4-0.4-0.8-0.7-1.2-1    l-1.5-1.2l-6.5-4.7c-0.2-0.1-0.4-0.1-0.6-0.1c-0.2,0.1-0.3,0.2-0.4,0.4c-0.1,0.7-0.3,1.7-0.5,2.9c-0.1,0.6-0.2,1.2-0.3,1.9    c-0.1,1-0.3,2-0.4,2.9c-0.1,1-0.2,1.9-0.3,2.8c-0.1,1.1-0.1,2.1,0,2.7c0.1,0.4,0,0.9-0.2,1.3c-0.6,1.3-1.6,3.9-1.8,5.4    c0,0,0,0,0,0c0,0.3-0.1,0.6-0.3,0.9c-0.6,1.2-2.2,4.2-2,5.3c0,0,0.3,0.4-0.8,2c-0.9,1.4-1.3,4.6-1.4,5.5c0,0.2-0.1,0.3-0.1,0.5    c-0.1,0.4-0.4,1.1-1,1.1c0,0-0.1,0-0.1,0.1c0,0,0,0,0,0c0,0-0.1,0.1-0.1,0.1c0,0,0,0,0,0c-0.1,0.1-0.1,0.1-0.2,0.2c0,0,0,0,0,0    c-0.1,0.1-0.1,0.2-0.2,0.3c0,0,0,0.1-0.1,0.1c-0.1,0.1-0.1,0.2-0.2,0.3c0,0,0,0.1,0,0.1c-0.1,0.1-0.1,0.2-0.2,0.4c0,0,0,0.1,0,0.1    c-0.1,0.1-0.1,0.2-0.2,0.3c0,0,0,0.1-0.1,0.1c-0.1,0.1-0.1,0.2-0.2,0.3c0,0,0,0.1-0.1,0.1c-0.1,0.1-0.1,0.3-0.2,0.4    c0,0.1,0,0.1-0.1,0.2c0,0.1-0.1,0.2-0.1,0.3c0,0.1-0.1,0.1-0.1,0.2c0,0.1-0.1,0.1-0.1,0.2c-0.1,0.2-0.2,0.4-0.2,0.5c0,0,0,0,0,0.1    C36.1,93.7,36,93.9,36,94c0,0,0,0,0,0c0,0,0,0.1,0,0.1c0,0,0,0,0,0c0,0.1-0.1,0.2-0.1,0.3c0,0,0,0,0,0c0,0.1-0.1,0.1-0.1,0.2    c0,0,0,0,0,0c0,0,0,0.1-0.1,0.1c0,0.1-0.1,0.2-0.1,0.3c-0.4,0.9-1.4,3.3-1.8,4.4c-0.1,0.2-0.1,0.3-0.2,0.4    c-0.1,0.1-0.2,0.3-0.3,0.4c-0.5,0.5-1.5,1.7-2.3,3.8c-0.5,1.5-3.2,5.1-5.7,8.3c0.9,0.7,1.8,1.4,2.7,2.1c2.4-3.1,4.8-6.4,5.3-7.8    C33.9,104.5,34.9,103.3,35.5,102.8z" fill="#FFFFFF" opacity="0.1"/><path d="M111.2,81.1c0.7-1.1,0-2.5-1.3-2.5l-1-0.1c-1.9,2.8-5.6,8.8-12.4,20.9c-4.1,7.2-6.8,14.9-8.6,21.8    c1.2-0.5,2.4-1,3.5-1.6c1.8-5.8,4.2-11.9,7.4-17.6C105.6,90,109.3,84,111.2,81.1z" opacity="0.1"/><path d="M54.9,123.5c-0.5-0.3-1-0.4-1.6-0.3l-0.4,0.1c-0.5,0.1-1.1,0-1.5-0.2l-4.1-2.2c-0.3-0.1-0.5-0.2-0.8-0.3    l-2.3-0.3c-0.4,0-0.7-0.2-1-0.4l-1.9-1.2c-0.6-0.4-1.2-0.4-1.9-0.3c-1.7,0.4-4.7-0.7-7.5-1.7c-0.1,0-0.3-0.1-0.5-0.1    c2.7,1.7,5.4,3.1,8.3,4.4c0.8,0.1,1.4,0.2,2,0c0.6-0.2,1.3-0.1,1.9,0.3l1.9,1.2c0.3,0.2,0.7,0.3,1,0.4l2.3,0.3    c0.3,0,0.6,0.1,0.8,0.3l2.7,1.4c2.2,0.4,4.5,0.7,6.8,0.9c-0.1,0-0.1-0.1-0.2-0.1L54.9,123.5z" opacity="0.1"/></g></g></svg>