<?xml version="1.0" ?><!DOCTYPE svg  PUBLIC '-//W3C//DTD SVG 1.1//EN'  'http://www.w3.org/Graphics/SVG/1.1/DTD/svg11.dtd'><svg enable-background="new 0 0 128 128" id="Слой_1" version="1.1" viewBox="0 0 128 128" xml:space="preserve" xmlns="http://www.w3.org/2000/svg" xmlns:xlink="http://www.w3.org/1999/xlink"><circle cx="64" cy="64" fill="#CADBCD" r="62"/><g><g><path d="M64,38.2c-21.8,0-40.5,12.4-49.2,30.3c-2.5,5.1,1.2,11.1,6.9,11.1h84.5c5.7,0,9.4-6,6.9-11.1    C104.5,50.6,85.8,38.2,64,38.2z" fill="#262525"/><g><path d="M20,70.2c8.7-17.9,27.4-30.3,49.2-30.3c5.2,0,10.3,0.7,15,2C78,39.5,71.2,38.2,64,38.2     c-21.8,0-40.5,12.4-49.2,30.3c-2.5,5.1,1.2,11.1,6.9,11.1h0.4C19.5,77.4,18.4,73.6,20,70.2z" fill="#FFFFFF" opacity="0.2"/><path d="M113.2,68.5c-6.6-13.6-19-24-34.2-28.2c12.8,5,23.1,14.5,28.9,26.5c2.5,5.1-1.2,11.1-6.9,11.1H16.8     c1.3,1.1,3,1.8,4.9,1.8h84.5C112,79.6,115.7,73.6,113.2,68.5z" opacity="0.2"/></g></g><circle cx="38.1" cy="72.9" fill="#C55C44" r="12.3"/><g><path d="M39.1,61.7c3.1,0,6,1.2,8.1,3.1c-2.2-2.5-5.5-4.1-9.2-4.1c-6.8,0-12.3,5.5-12.3,12.3    c0,3.7,1.6,6.9,4.1,9.2c-1.9-2.2-3.1-5-3.1-8.1C26.9,67.2,32.4,61.7,39.1,61.7z" fill="#FFFFFF" opacity="0.2"/><path d="M46.2,63.7c1.9,2.2,3.1,5,3.1,8.1c0,6.8-5.5,12.3-12.3,12.3c-3.1,0-6-1.2-8.1-3.1c2.2,2.5,5.5,4.1,9.2,4.1    c6.8,0,12.3-5.5,12.3-12.3C50.4,69.2,48.8,66,46.2,63.7z" opacity="0.2"/></g><circle cx="38.1" cy="72.9" fill="#BCBCBC" r="3.2"/><circle cx="90.4" cy="72.9" fill="#C55C44" r="12.3"/><g><path d="M91.4,61.7c3.1,0,6,1.2,8.1,3.1c-2.2-2.5-5.5-4.1-9.2-4.1c-6.8,0-12.3,5.5-12.3,12.3    c0,3.7,1.6,6.9,4.1,9.2c-1.9-2.2-3.1-5-3.1-8.1C79.2,67.2,84.7,61.7,91.4,61.7z" fill="#FFFFFF" opacity="0.2"/><path d="M98.6,63.7c1.9,2.2,3.1,5,3.1,8.1c0,6.8-5.5,12.3-12.3,12.3c-3.1,0-6-1.2-8.1-3.1c2.2,2.5,5.5,4.1,9.2,4.1    c6.8,0,12.3-5.5,12.3-12.3C102.7,69.2,101.1,66,98.6,63.7z" opacity="0.2"/></g><circle cx="90.4" cy="72.9" fill="#BCBCBC" r="3.2"/><g><path d="M92.8,70.9c-0.1-0.1-0.1-0.2-0.2-0.3c-0.1-0.1-0.2-0.2-0.3-0.2l-4.4,4.4c0.1,0.1,0.1,0.2,0.2,0.3    c0.1,0.1,0.2,0.2,0.3,0.2L92.8,70.9z" opacity="0.2"/></g><g><path d="M40.1,75.4c0.1-0.1,0.2-0.1,0.3-0.2c0.1-0.1,0.2-0.2,0.2-0.3l-4.4-4.4c-0.1,0.1-0.2,0.1-0.3,0.2    c-0.1,0.1-0.2,0.2-0.2,0.3L40.1,75.4z" opacity="0.2"/></g></g><path d="M5.7,85.2C7.4,89.7,9.5,94,12.2,98h103.7c2.6-4,4.8-8.3,6.5-12.8H5.7z" fill="#70573D"/><path d="M64,126c21.7,0,40.8-11.1,51.8-28H12.2C23.2,114.9,42.3,126,64,126z" fill="#FCF2E3"/></svg>