<?xml version="1.0" ?><!DOCTYPE svg  PUBLIC '-//W3C//DTD SVG 1.1//EN'  'http://www.w3.org/Graphics/SVG/1.1/DTD/svg11.dtd'><svg enable-background="new 0 0 128 128" id="Слой_1" version="1.1" viewBox="0 0 128 128" xml:space="preserve" xmlns="http://www.w3.org/2000/svg" xmlns:xlink="http://www.w3.org/1999/xlink"><g><circle cx="64" cy="64" fill="#CADBCD" r="62"/><g><g><path d="M98.2,70.6c-13.5-27.8-39.1-48.9-70.3-57C12.2,24.8,2,43.2,2,64c0,10.4,2.6,20.2,7.1,28.8h75.2     C95.7,92.8,103.2,80.8,98.2,70.6z" fill="#262525"/><g><path d="M27.9,13.6c-0.5,0.4-1,0.7-1.5,1.1c4.7,0.7,9.4,1.7,13.9,2.9      C36.3,16.1,32.2,14.7,27.9,13.6z" fill="#FFFFFF" opacity="0.2"/><path d="M98.2,70.6C85,43.4,60.1,22.6,29.8,14.1c25.5,9.9,46.2,29,57.8,53c5,10.3-2.5,22.2-13.9,22.2H7.4      c0.5,1.2,1.1,2.4,1.7,3.5h75.2C95.7,92.8,103.2,80.8,98.2,70.6z" opacity="0.4"/></g></g><circle cx="52.5" cy="79.4" fill="#C55C44" r="24.5"/><g><path d="M52.5,54.9C39,54.9,28,65.9,28,79.4c0,7.3,3.2,13.9,8.3,18.4c-3.8-4.3-6.2-10-6.2-16.3     C30.1,68,41.1,57,54.6,57c6.2,0,11.9,2.3,16.3,6.2C66.4,58.1,59.8,54.9,52.5,54.9z" fill="#FFFFFF" opacity="0.2"/><path d="M68.9,61.1c3.8,4.3,6.2,10,6.2,16.3c0,13.6-11,24.5-24.5,24.5c-6.2,0-11.9-2.3-16.3-6.2     c4.5,5.1,11.1,8.3,18.4,8.3c13.6,0,24.5-11,24.5-24.5C77.2,72.1,74,65.6,68.9,61.1z" opacity="0.2"/></g><circle cx="52.5" cy="79.4" fill="#BCBCBC" r="6.3"/><g><path d="M56.4,74.5l-8.9,8.9c0.1,0.2,0.3,0.4,0.5,0.5c0.2,0.2,0.3,0.3,0.5,0.5l8.9-8.9c-0.1-0.2-0.3-0.4-0.5-0.5     C56.8,74.8,56.6,74.7,56.4,74.5z" opacity="0.2"/></g></g></g></svg>