<?xml version="1.0" ?><!DOCTYPE svg  PUBLIC '-//W3C//DTD SVG 1.1//EN'  'http://www.w3.org/Graphics/SVG/1.1/DTD/svg11.dtd'><svg enable-background="new 0 0 128 128" id="Слой_1" version="1.1" viewBox="0 0 128 128" xml:space="preserve" xmlns="http://www.w3.org/2000/svg" xmlns:xlink="http://www.w3.org/1999/xlink"><g><circle cx="64" cy="64" fill="#3F3E3D" r="62"/><path d="M72,60.9L114,37l-0.8-1.5L71.1,59.5c-1.2,0.7-2.6,0.6-3.8,0c-1.7-0.9-3.8-0.7-5.4,0.6   c-1.6,1.3-2.2,3.4-1.6,5.3c1,3.1,4.5,4.4,7.3,2.9c1.5-0.9,2.4-2.5,2.5-4.1C70,62.8,70.8,61.6,72,60.9z" opacity="0.1"/><path d="M71,60.9L113,37l-0.8-1.5L70.1,59.5c-1.2,0.7-2.6,0.6-3.8,0c-1.7-0.9-3.8-0.7-5.4,0.6   c-1.6,1.3-2.2,3.4-1.6,5.3c1,3.1,4.5,4.4,7.3,2.9c1.5-0.9,2.4-2.5,2.5-4.1C69,62.8,69.8,61.6,71,60.9z" fill="#CF2F3A"/><path d="M67.4,70.7L82,94.5l2.6-1.6L70,69.2c-0.6-1-0.8-2.3-0.3-3.5c0.7-1.7,0.4-3.7-1-5.2c-1.3-1.5-3.5-2-5.3-1.3   c-3.1,1.1-4.3,4.7-2.6,7.4c0.8,1.4,2.3,2.2,3.8,2.3C65.7,69,66.8,69.7,67.4,70.7z" opacity="0.1"/><path d="M66.4,70.7L81,94.5l2.6-1.6L69,69.2c-0.6-1-0.8-2.3-0.3-3.5c0.7-1.7,0.4-3.7-1-5.2c-1.3-1.5-3.5-2-5.3-1.3   c-3.1,1.1-4.3,4.7-2.6,7.4c0.8,1.4,2.3,2.2,3.8,2.3C64.7,69,65.8,69.7,66.4,70.7z" fill="#65C8CE"/><g><path d="M59.5,34.8h-0.6v-4.5h-1.3v-0.5h3.1v0.5h-1.3V34.8z" fill="#F9F9F9"/><path d="M61.2,29.7h0.6v5h-0.6V29.7z" fill="#F9F9F9"/><path d="M62.7,29.7h1l1,4h0l1-4h1v5h-0.6v-4.4h0L65,34.8h-0.6l-1.1-4.4h0v4.4h-0.6V29.7z" fill="#F9F9F9"/><path d="M67.6,29.7h2.6v0.5h-2v1.6h1.9v0.5h-1.9v1.8h2.1v0.5h-2.7V29.7z" fill="#F9F9F9"/></g><circle cx="64" cy="64" fill="#CCA048" r="1.5"/></g></svg>