<?xml version="1.0" ?><!DOCTYPE svg  PUBLIC '-//W3C//DTD SVG 1.1//EN'  'http://www.w3.org/Graphics/SVG/1.1/DTD/svg11.dtd'><svg enable-background="new 0 0 128 128" id="Слой_1" version="1.1" viewBox="0 0 128 128" xml:space="preserve" xmlns="http://www.w3.org/2000/svg" xmlns:xlink="http://www.w3.org/1999/xlink"><circle cx="64" cy="64" fill="#CADBCD" r="62"/><circle cx="64" cy="64" fill="none" r="62"/><path d="M88.3,46.3H80c-2.8,0-5,2.2-5,5V30c0-2.8-2.2-5-5-5H15.8C7.2,35.7,2,49.2,2,64c0,2.7,0.2,5.4,0.5,8  c1.2,9.1,4.3,17.6,9,25H75h5c2.8,0,4.2-2.2,5-5l8.3-40.1C93.7,49,91.3,46.3,88.3,46.3z" fill="#DBAE49"/><path d="M75,72H2.5c1.2,9.1,4.3,17.6,9,25H75V72z" fill="#D0A545"/><path d="M75,30c0-2.8-2.2-5-5-5H15.8C7.2,35.7,2,49.2,2,64c0,2.7,0.2,5.4,0.5,8H75V30z" fill="#020202" opacity="0.1"/><path d="M72.3,115.3H75v-15h10V97H11.5c0.7,1.1,1.5,2.2,2.3,3.3h53.6L72.3,115.3z" fill="#70573D"/><circle cx="33" cy="41" fill="#020202" opacity="0.15" r="1.5"/><circle cx="55" cy="41" fill="#020202" opacity="0.15" r="1.5"/><circle cx="55" cy="56" fill="#020202" opacity="0.15" r="1.5"/><circle cx="33" cy="56" fill="#020202" opacity="0.15" r="1.5"/><circle cx="11" cy="40.7" fill="#020202" opacity="0.15" r="1.5"/><circle cx="11" cy="55.7" fill="#020202" opacity="0.15" r="1.5"/><path d="M110.3,22.8c-0.4-0.5-0.8-0.9-1.3-1.4v85.2c0.4-0.5,0.9-0.9,1.3-1.4V22.8z" fill="#70573D"/><path d="M112,24.8c-6.2-7.6-14.3-13.7-23.4-17.7l-3.5,17.7H112z" fill="#FCF2E3"/><rect fill="#C55C44" height="13.3" width="1" x="103.6" y="24.8"/><path d="M63.7,126H64C63.9,126,63.8,126,63.7,126L63.7,126z" fill="#FCF2E3"/><path d="M85.1,24.8L63.7,126c0.1,0,0.2,0,0.3,0c34.2,0,62-27.8,62-62c0-14.9-5.2-28.5-14-39.2H85.1z" fill="#FCF2E3" opacity="0.3"/></svg>