<?xml version="1.0" ?><!DOCTYPE svg  PUBLIC '-//W3C//DTD SVG 1.1//EN'  'http://www.w3.org/Graphics/SVG/1.1/DTD/svg11.dtd'><svg enable-background="new 0 0 128 128" id="Слой_1" version="1.1" viewBox="0 0 128 128" xml:space="preserve" xmlns="http://www.w3.org/2000/svg" xmlns:xlink="http://www.w3.org/1999/xlink"><path d="M64,2C29.8,2,2,29.8,2,64c0,23.4,12.9,43.7,32,54.3c8.9,4.9,50.8,5,59.6,0.2C112.9,108,126,87.5,126,64  C126,29.8,98.2,2,64,2z" fill="#CADBCD"/><path d="M41.2,21.2c-3.7,0.8-5.8,3.1-5.8,7c0,0-0.1,90.7,0.5,91.1c8.5,4.3,18,6.8,28.2,6.8c10.9,0,21.1-2.8,30-7.7  V28.1c0-2.3-1-4.5-2.5-6c-1-1-2.6-0.9-4-1.3C86.8,20.7,41.7,21,41.2,21.2z" fill="#C55C44"/><g><g><path d="M45.5,21.8h43.5c0.9,0,1.7,0.1,2.5,0.4c-1.5-1.4-3.5-2.3-5.7-2.3H42.3c-4.6,0-8.3,3.7-8.3,8.3v90.1    c1.1,0.6,2.1,1.1,3.2,1.7V30C37.2,25.5,40.9,21.8,45.5,21.8z" fill="#E2AEA2"/><path d="M88.3,20.2c1.6,1.5,2.5,3.6,2.5,6v93.7c1.1-0.5,2.2-1.1,3.2-1.7V28.1    C94,24.4,91.6,21.3,88.3,20.2z" fill="#020202" opacity="0.1"/></g><path d="M63.6,67.1c-7.4-0.6-14.8-1.2-22.2-0.6c-0.3,0-0.5,0.3-0.5,0.5v1.1c0,0.3,0.2,0.5,0.5,0.5   c7.4,0.6,14.8,0.6,22.2,0c0.2,0,0.4-0.2,0.4-0.4v-0.7C64,67.3,63.8,67.2,63.6,67.1z" fill="#020202" opacity="0.1"/><path d="M63.6,66.5c-7.4-0.6-14.8-1.2-22.2-0.6c-0.3,0-0.5,0.3-0.5,0.5v1.8c0,0.3,0.2,0.5,0.5,0.5   c7.4,0.6,14.8,0,22.2-0.6c0.2,0,0.4-0.2,0.4-0.4v-0.7C64,66.7,63.8,66.5,63.6,66.5z" fill="#F1F0F2"/><g opacity="0.1"><path d="M63.6,66.5c-4.6-0.4-9.1-0.8-13.7-0.8v3.3c4.6-0.1,9.1-0.5,13.7-0.8c0.2,0,0.4-0.2,0.4-0.4v-0.7    C64,66.7,63.8,66.5,63.6,66.5z" fill="#020202"/></g><path d="M40.4,26.1c-0.8,0-1.4,0.6-1.4,1.4v18.9H39c0.1-7.2,0.2-15,2.3-18.3   C41.9,27.2,41.4,26.1,40.4,26.1C40.4,26.1,40.4,26.1,40.4,26.1z" fill="#FFFFFF" opacity="0.5"/><g><path d="M54.6,40h-0.8c0,0,0,0,0,0c0-0.1-0.1-0.2-0.2-0.2s-0.3,0-0.6,0c-0.4,0-0.6,0-0.8,0.1    c-0.1,0-0.2,0.1-0.2,0.2c0,0.1,0,0.2,0.1,0.3s0.4,0.1,1,0.1c0.6,0,1.1,0.1,1.3,0.1c0.2,0.1,0.3,0.2,0.3,0.5c0,0.3-0.1,0.5-0.3,0.6    c-0.2,0.1-0.7,0.1-1.5,0.1c-0.7,0-1.1,0-1.4-0.1s-0.3-0.3-0.3-0.5l0-0.1H52l0,0c0,0.2,0.1,0.3,0.2,0.3s0.4,0.1,0.9,0.1    c0.4,0,0.6,0,0.7-0.1c0.1,0,0.2-0.1,0.2-0.3c0-0.1,0-0.2-0.1-0.2c-0.1,0-0.2-0.1-0.5-0.1l-0.5,0c-0.7,0-1.1-0.1-1.3-0.2    c-0.2-0.1-0.3-0.3-0.3-0.5c0-0.3,0.1-0.5,0.3-0.5c0.2-0.1,0.7-0.1,1.4-0.1c0.7,0,1.1,0,1.3,0.1S54.6,39.7,54.6,40L54.6,40z" fill="#FCF2E3"/><path d="M63.3,39.3v2.3h-0.8v-1.3c0-0.1,0-0.2,0-0.3l0-0.2l0-0.2h0l-0.1,0.2L62.3,40c-0.1,0.1-0.2,0.3-0.2,0.3    l-1,1.3h-0.8l-1-1.3c-0.1-0.1-0.1-0.2-0.2-0.3l-0.1-0.2L59,39.7h0l0,0.2l0,0.2c0,0.1,0,0.2,0,0.3v1.3h-0.8v-2.3h1.3l0.8,1.1    c0.1,0.1,0.1,0.2,0.2,0.3l0.1,0.2l0.1,0.2h0l0.1-0.2l0.1-0.2c0.1-0.1,0.1-0.2,0.2-0.3l0.8-1.1H63.3z" fill="#FCF2E3"/><path d="M67.8,39.7v0.6h2v0.3h-2v0.7h2.2v0.4h-3v-2.3h3v0.4H67.8z" fill="#FCF2E3"/><path d="M75.2,40.4h1.9l0,0.5c0,0.3-0.1,0.6-0.4,0.7c-0.2,0.1-0.8,0.1-1.6,0.1c-0.8,0-1.3-0.1-1.5-0.2    c-0.2-0.1-0.4-0.4-0.4-0.8c0-0.5,0-0.8,0.1-1c0.1-0.2,0.3-0.3,0.6-0.3s0.7-0.1,1.3-0.1c0.8,0,1.3,0,1.5,0.1    c0.2,0.1,0.3,0.3,0.3,0.6h-0.8c0-0.2-0.1-0.2-0.2-0.3c-0.1,0-0.4-0.1-0.8-0.1c-0.5,0-0.8,0-0.9,0.1s-0.2,0.2-0.2,0.4l0,0.2l0,0.3    c0,0.2,0.1,0.4,0.2,0.4c0.1,0.1,0.4,0.1,0.9,0.1c0.5,0,0.7,0,0.9-0.1c0.1-0.1,0.2-0.2,0.2-0.4l0-0.1h-1.1V40.4z" fill="#FCF2E3"/></g></g></svg>