<?xml version="1.0" ?><!DOCTYPE svg  PUBLIC '-//W3C//DTD SVG 1.1//EN'  'http://www.w3.org/Graphics/SVG/1.1/DTD/svg11.dtd'><svg enable-background="new 0 0 128 128" id="Слой_1" version="1.1" viewBox="0 0 128 128" xml:space="preserve" xmlns="http://www.w3.org/2000/svg" xmlns:xlink="http://www.w3.org/1999/xlink"><circle cx="64" cy="64" fill="#3F3E3D" r="62"/><g><path d="M27.3,56.2c-0.3-0.5-0.9-0.6-1.4-0.3l-4,2.6c-0.5,0.3-0.6,0.9-0.3,1.4l30.9,47.4c0.3,0.5,0.9,0.6,1.4,0.3   l4-2.6c0.5-0.3,0.6-0.9,0.3-1.4L27.3,56.2z" fill="#B28F6F"/></g><polygon opacity="0.1" points="24.5,64.3 29.8,72.5 34.4,67 29,58.8 "/><path d="M58.3,27.2c-0.4-0.4-1.1-0.3-1.4,0.1L20.7,70.9c-0.4,0.4-0.3,1.1,0.1,1.4l3.7,3.1c0.4,0.4,1.1,0.3,1.4-0.1  l36.2-43.5c0.4-0.4,0.3-1.1-0.1-1.4L58.3,27.2z" fill="#B28F6F"/><circle cx="29.6" cy="65.5" fill="#BCBCBC" r="2.6"/><g><path d="M27.2,64.6c0,0.1-0.1,0.2-0.1,0.3l4.8,1.9c0-0.1,0.1-0.2,0.1-0.3s0.1-0.2,0.1-0.3l-4.8-1.9   C27.3,64.4,27.2,64.5,27.2,64.6z" opacity="0.2"/></g><path d="M70.2,102.1l-28.1,0c-2.9,0-5.3,2.4-5.3,5.3l0,1.5l38.6,0v-1.5C75.5,104.4,73.1,102.1,70.2,102.1z" fill="#65C8CE"/><path d="M58.5,27.4c-0.5-0.5-1.4-0.4-1.8,0.2L43.9,42.9l4.4,5.4l13.7-16.4c0.5-0.5,0.4-1.4-0.2-1.8L58.5,27.4z" opacity="0.1"/><polygon fill="#FCF2E3" points="41.5,37.8 71.2,74.7 102.9,36.6 61.3,14 "/><path d="M126,64c0-5.5-0.7-10.8-2-15.8l-21-11.6L71.2,74.7l30.8,38.3C116.6,101.6,126,83.9,126,64z" fill="#FCF2E3" opacity="0.2"/><path d="M63.8,99.9c-0.3,0-0.6,0.3-0.6,0.6v1.5h1.2v-1.5C64.4,100.2,64.1,100,63.8,99.9z" fill="#C55C44"/><path d="M63.7,99.9C63.7,99.9,63.8,99.9,63.7,99.9C63.8,99.9,63.8,99.9,63.7,99.9L63.7,99.9z" fill="#C55C44"/><rect fill="#C55C44" height="0.6" width="2.6" x="62.4" y="101.5"/><g><path d="M34.3,106.9c-2.2,1-4.5,1-7.2,1h-6.9c0.3,0.3,0.7,0.6,1,1h5.8c2.3,0,5.1,0,7.6-1.1c0.8-0.3,1.5-0.6,2.1-0.8   c0-0.4,0.1-0.7,0.2-1C36.2,106.1,35.4,106.4,34.3,106.9z" fill="#C55C44"/></g></svg>