<?xml version="1.0" ?><!DOCTYPE svg  PUBLIC '-//W3C//DTD SVG 1.1//EN'  'http://www.w3.org/Graphics/SVG/1.1/DTD/svg11.dtd'><svg enable-background="new 0 0 128 128" id="Слой_1" version="1.1" viewBox="0 0 128 128" xml:space="preserve" xmlns="http://www.w3.org/2000/svg" xmlns:xlink="http://www.w3.org/1999/xlink"><g><g><g><g><circle cx="64" cy="64.4" fill="#FCF2E3" r="62"/></g><polygon fill="#B28F6F" points="52.1,73.5 47.6,73.5 34,111.5 37.5,101.7 39.4,102.4 35.4,111.5    "/><polygon fill="#B28F6F" points="80.4,73.5 75.9,73.5 88.6,102.4 90.5,101.7    "/><path d="M15,102.8c0.4,0.5,0.8,1,1.2,1.5h37.9c2.9,0,5.6-1.1,7.6-3.2s3.1-4.7,3.1-7.6l0-28.5l-1.5,0l0,28.5     c0,2.5-0.9,4.8-2.7,6.6c-1.7,1.8-4.1,2.7-6.6,2.7" fill="#C55C44"/><g><path d="M81,73.5H47c-7.2,0-13-5.8-13-13v-34c0-7.2,5.8-13,13-13h34c7.2,0,13,5.8,13,13v34      C94,67.7,88.2,73.5,81,73.5z" fill="#B28F6F"/></g><g><path d="M47,70.4c-5.4,0-9.8-4.4-9.8-9.8v-34c0-5.4,4.4-9.8,9.8-9.8h34c5.4,0,9.8,4.4,9.8,9.8v34      c0,5.4-4.4,9.8-9.8,9.8H47z" fill="#65C8CE"/></g><g opacity="0.15"><path d="M37.1,26.5v34c0,5.4,4.4,9.8,9.8,9.8h0.2l5.9-8.5V20.5l-6.7-3.9C41.2,17,37.1,21.3,37.1,26.5z" fill="#FFFFFF"/></g><g opacity="0.1"><path d="M90.9,26.5v34c0,5.4-4.4,9.8-9.8,9.8h-0.2L75,61.8V20.5l6.7-3.9C86.8,17,90.9,21.3,90.9,26.5z"/></g><g><path d="M40.5,47V35.3c0-8.3,6.7-15,15-15h16.9c8.3,0,15,6.7,15,15V47c0,8.3-6.7,15-15,15H55.6      C47.3,62,40.5,55.3,40.5,47z" fill="#3F3E3D"/></g><g><g opacity="0.1"><path d="M43.5,47V35.3c0-8.3,6.7-15,15-15h-3c-8.3,0-15,6.7-15,15V47c0,8.3,6.7,15,15,15h3       C50.3,62,43.5,55.3,43.5,47z" fill="#FFFFFF"/></g><g opacity="0.1"><path d="M72.4,20.3h-3c8.3,0,15,6.7,15,15V47c0,8.3-6.7,15-15,15h3c8.3,0,15-6.7,15-15V35.3C87.5,27,80.7,20.3,72.4,20.3z"/></g></g><g opacity="0.1"><path d="M72.4,20.3H55.6c-8.3,0-15,6.7-15,15v3.6c7,1.4,15,2.2,23.5,2.2s16.5-0.8,23.5-2.2v-3.6      C87.5,27,80.7,20.3,72.4,20.3z" fill="#FFFFFF"/></g><g><circle cx="82.8" cy="65" fill="#DBAE49" r="4.2"/></g><g><path d="M82.8,68.5c-1.9,0-3.5-1.6-3.5-3.5s1.6-3.5,3.5-3.5s3.5,1.6,3.5,3.5S84.7,68.5,82.8,68.5z M82.8,62.5      c-1.4,0-2.5,1.1-2.5,2.5s1.1,2.5,2.5,2.5s2.5-1.1,2.5-2.5S84.1,62.5,82.8,62.5z" fill="#444444"/></g><g><circle cx="45.8" cy="65" fill="#DBAE49" r="4.2"/></g><g><path d="M45.8,68.5c-1.9,0-3.5-1.6-3.5-3.5s1.6-3.5,3.5-3.5s3.5,1.6,3.5,3.5S47.7,68.5,45.8,68.5z M45.8,62.5      c-1.4,0-2.5,1.1-2.5,2.5s1.1,2.5,2.5,2.5s2.5-1.1,2.5-2.5S47.1,62.5,45.8,62.5z" fill="#444444"/></g><g><path d="M64,68.9c-0.3,0-0.5-0.2-0.5-0.5v-4.9c0-0.3,0.2-0.5,0.5-0.5s0.5,0.2,0.5,0.5v4.9      C64.5,68.7,64.3,68.9,64,68.9z" fill="#444444"/></g><g><path d="M66,68.1c-0.3,0-0.5-0.2-0.5-0.5v-3.1c0-0.3,0.2-0.5,0.5-0.5s0.5,0.2,0.5,0.5v3.1      C66.5,67.8,66.3,68.1,66,68.1z" fill="#444444"/></g><g><path d="M68,67.5c-0.3,0-0.5-0.2-0.5-0.5V65c0-0.3,0.2-0.5,0.5-0.5s0.5,0.2,0.5,0.5V67      C68.5,67.3,68.3,67.5,68,67.5z" fill="#444444"/></g><g><path d="M70,67c-0.3,0-0.5-0.2-0.5-0.5v-1c0-0.3,0.2-0.5,0.5-0.5s0.5,0.2,0.5,0.5v1C70.5,66.8,70.3,67,70,67z" fill="#444444"/></g><g><path d="M62,68.1c-0.3,0-0.5-0.2-0.5-0.5v-3.1c0-0.3,0.2-0.5,0.5-0.5s0.5,0.2,0.5,0.5v3.1      C62.5,67.8,62.3,68.1,62,68.1z" fill="#444444"/></g><g><path d="M60,67.5c-0.3,0-0.5-0.2-0.5-0.5V65c0-0.3,0.2-0.5,0.5-0.5s0.5,0.2,0.5,0.5V67      C60.5,67.3,60.3,67.5,60,67.5z" fill="#444444"/></g><g><path d="M58,67c-0.3,0-0.5-0.2-0.5-0.5v-1c0-0.3,0.2-0.5,0.5-0.5s0.5,0.2,0.5,0.5v1C58.5,66.8,58.3,67,58,67z" fill="#444444"/></g><path d="M81,13.5H47c-7.2,0-13,5.8-13,13v34c0,7.2,5.8,13,13,13h34c7.2,0,13-5.8,13-13v-34     C94,19.3,88.2,13.5,81,13.5z M90.9,60.5c0,5.4-4.4,9.8-9.8,9.8H47c-5.4,0-9.8-4.4-9.8-9.8v-34c0-5.4,4.4-9.8,9.8-9.8h34     c5.4,0,9.8,4.4,9.8,9.8V60.5z" fill="#B28F6F"/></g></g><g opacity="0.1"><path d="M46.9,75.5C46.9,75.5,47,75.5,46.9,75.5l4.3,0l0.9-2h-4.5L46.9,75.5z"/></g><g opacity="0.1"><path d="M80.4,73.5h-4.5l0.9,2H81c0,0,0,0,0.1,0L80.4,73.5z"/></g><g><polygon fill="#65C8CE" points="92.6,111.5 94,111.5 90.4,101.6 88.5,102.2   "/></g><g><polygon fill="#65C8CE" points="88.5,102.2 92.6,111.5 88.5,102.2   "/></g><g><polygon fill="#65C8CE" points="37.6,101.6 34,111.5 35.4,111.5 39.4,102.3   "/></g></g></svg>