<?xml version="1.0" encoding="iso-8859-1"?>
<!-- Generator: Adobe Illustrator 19.1.0, SVG Export Plug-In . SVG Version: 6.00 Build 0)  -->
<svg version="1.1" id="Capa_1" xmlns="http://www.w3.org/2000/svg" xmlns:xlink="http://www.w3.org/1999/xlink" x="0px" y="0px"
	 viewBox="0 0 450.47 450.47" style="enable-background:new 0 0 450.47 450.47;" xml:space="preserve">
<g>
	<g id="XMLID_24_">
		<g>
			<rect x="63.09" y="407.31" style="fill:#E2C744;" width="42.05" height="12.79"/>
			<rect x="345.34" y="407.31" style="fill:#E2C744;" width="42.04" height="12.79"/>
			<rect x="113.98" y="365.01" style="fill:#E2C744;" width="222.51" height="27.3"/>
			<path style="fill:#4785DD;" d="M98.98,245.13v147.18H59.34c-9.79,0-17.76-7.97-17.76-17.77V289.2c0.01-0.23,0.01-0.47,0-0.7
				c-0.11-2.67-1.63-5.08-3.99-6.33c-13.78-7.29-22.34-21.48-22.34-37.04c0-23.08,18.78-41.86,41.86-41.86
				C80.2,203.27,98.98,222.05,98.98,245.13z"/>
			<path style="fill:#4785DD;" d="M435.22,245.13c0,15.56-8.56,29.75-22.34,37.04c-2.36,1.25-3.87,3.66-3.98,6.33
				c-0.01,0.2-0.01,0.39,0,0.59v85.45c0,9.8-7.97,17.77-17.77,17.77h-39.64V245.13c0-23.08,18.79-41.86,41.87-41.86
				C416.44,203.27,435.22,222.05,435.22,245.13z"/>
			<rect x="113.98" y="282.77" style="fill:#4785DD;" width="222.51" height="67.24"/>
			<path style="fill:#4785DD;" d="M364.74,100.38v95.65c-16.88,9.87-28.25,28.18-28.25,49.1v22.64H113.98v-22.64
				c0-20.92-11.37-39.23-28.24-49.1v-95.65c0-38.6,31.41-70.01,70.01-70.01h138.97C333.33,30.37,364.74,61.78,364.74,100.38z
				 M309.24,93.27c0-1.98-0.8-3.91-2.2-5.31c-1.4-1.39-3.33-2.19-5.3-2.19c-1.98,0-3.91,0.8-5.31,2.19
				c-1.39,1.4-2.19,3.33-2.19,5.31c0,1.97,0.8,3.9,2.19,5.3c1.4,1.4,3.33,2.2,5.31,2.2c1.97,0,3.9-0.8,5.3-2.2
				S309.24,95.24,309.24,93.27z M309.24,181.27c0-1.98-0.8-3.91-2.2-5.31c-1.4-1.39-3.33-2.19-5.3-2.19c-1.98,0-3.91,0.8-5.31,2.19
				c-1.39,1.4-2.19,3.33-2.19,5.31c0,1.97,0.8,3.9,2.19,5.3c1.4,1.4,3.33,2.2,5.31,2.2c1.97,0,3.9-0.8,5.3-2.2
				C308.44,185.17,309.24,183.24,309.24,181.27z M232.74,93.27c0-1.98-0.8-3.91-2.2-5.31c-1.4-1.39-3.33-2.19-5.3-2.19
				c-1.98,0-3.91,0.8-5.31,2.19c-1.39,1.4-2.19,3.33-2.19,5.31c0,1.97,0.8,3.9,2.19,5.3c1.4,1.4,3.33,2.2,5.31,2.2
				c1.97,0,3.9-0.8,5.3-2.2C231.94,97.17,232.74,95.24,232.74,93.27z M232.74,181.27c0-1.98-0.8-3.91-2.2-5.31
				c-1.4-1.39-3.33-2.19-5.3-2.19c-1.98,0-3.91,0.8-5.31,2.19c-1.39,1.4-2.19,3.33-2.19,5.31c0,1.97,0.8,3.9,2.19,5.3
				c1.4,1.4,3.33,2.2,5.31,2.2c1.97,0,3.9-0.8,5.3-2.2C231.94,185.17,232.74,183.24,232.74,181.27z M156.24,93.27
				c0-1.98-0.8-3.91-2.2-5.31c-1.4-1.39-3.33-2.19-5.3-2.19c-1.98,0-3.91,0.8-5.31,2.19c-1.39,1.4-2.19,3.33-2.19,5.31
				c0,1.97,0.8,3.9,2.19,5.3c1.4,1.4,3.33,2.2,5.31,2.2c1.97,0,3.9-0.8,5.3-2.2C155.44,97.18,156.24,95.24,156.24,93.27z
				 M156.24,181.27c0-1.98-0.8-3.91-2.2-5.31c-1.39-1.39-3.33-2.19-5.3-2.19c-1.98,0-3.91,0.8-5.31,2.19
				c-1.39,1.4-2.19,3.33-2.19,5.31c0,1.97,0.8,3.9,2.19,5.3c1.4,1.4,3.33,2.2,5.31,2.2c1.97,0,3.9-0.8,5.3-2.2
				C155.44,185.18,156.24,183.24,156.24,181.27z"/>
			<path d="M450.22,245.13c0,19.59-9.97,37.57-26.32,47.97v81.44c0,14.12-8.98,26.18-21.52,30.78v22.28c0,4.14-3.36,7.5-7.5,7.5
				h-57.04c-4.15,0-7.5-3.36-7.5-7.5v-20.29h-210.2v20.29c0,4.14-3.36,7.5-7.5,7.5H55.59c-4.14,0-7.5-3.36-7.5-7.5v-22.28
				c-12.54-4.6-21.51-16.66-21.51-30.78V293.1c-16.35-10.4-26.33-28.38-26.33-47.97c0-31.35,25.51-56.86,56.86-56.86
				c4.7,0,9.26,0.58,13.63,1.66v-89.55c0-46.88,38.14-85.01,85.01-85.01h138.97c46.88,0,85.02,38.13,85.02,85.01v89.55
				c4.36-1.08,8.92-1.66,13.62-1.66C424.72,188.27,450.22,213.78,450.22,245.13z M412.88,282.17c13.78-7.29,22.34-21.48,22.34-37.04
				c0-23.08-18.78-41.86-41.86-41.86c-23.08,0-41.87,18.78-41.87,41.86v147.18h39.64c9.8,0,17.77-7.97,17.77-17.77v-85.45
				c-0.01-0.2-0.01-0.39,0-0.59C409.01,285.83,410.52,283.42,412.88,282.17z M387.38,420.1v-12.79h-42.04v12.79H387.38z
				 M364.74,196.03v-95.65c0-38.6-31.41-70.01-70.02-70.01H155.75c-38.6,0-70.01,31.41-70.01,70.01v95.65
				c16.87,9.87,28.24,28.18,28.24,49.1v22.64h222.51v-22.64C336.49,224.21,347.86,205.9,364.74,196.03z M336.49,392.31v-27.3H113.98
				v27.3H336.49z M336.49,350.01v-67.24H113.98v67.24H336.49z M105.14,420.1v-12.79H63.09v12.79H105.14z M98.98,392.31V245.13
				c0-23.08-18.78-41.86-41.87-41.86c-23.08,0-41.86,18.78-41.86,41.86c0,15.56,8.56,29.75,22.34,37.04
				c2.36,1.25,3.88,3.66,3.99,6.33c0.01,0.23,0.01,0.47,0,0.7v85.34c0,9.8,7.97,17.77,17.76,17.77H98.98z"/>
			<path d="M307.04,87.96c1.4,1.4,2.2,3.33,2.2,5.31c0,1.97-0.8,3.9-2.2,5.3s-3.33,2.2-5.3,2.2c-1.98,0-3.91-0.8-5.31-2.2
				c-1.39-1.4-2.19-3.33-2.19-5.3c0-1.98,0.8-3.91,2.19-5.31c1.4-1.39,3.33-2.19,5.31-2.19C303.71,85.77,305.64,86.57,307.04,87.96z
				"/>
			<path d="M307.04,175.96c1.4,1.4,2.2,3.33,2.2,5.31c0,1.97-0.8,3.9-2.2,5.3c-1.4,1.4-3.33,2.2-5.3,2.2c-1.98,0-3.91-0.8-5.31-2.2
				c-1.39-1.4-2.19-3.33-2.19-5.3c0-1.98,0.8-3.91,2.19-5.31c1.4-1.39,3.33-2.19,5.31-2.19
				C303.71,173.77,305.64,174.57,307.04,175.96z"/>
			<path d="M230.54,87.96c1.4,1.4,2.2,3.33,2.2,5.31c0,1.97-0.8,3.9-2.2,5.3c-1.4,1.4-3.33,2.2-5.3,2.2c-1.98,0-3.91-0.8-5.31-2.2
				c-1.39-1.4-2.19-3.33-2.19-5.3c0-1.98,0.8-3.91,2.19-5.31c1.4-1.39,3.33-2.19,5.31-2.19C227.21,85.77,229.14,86.57,230.54,87.96z
				"/>
			<path d="M230.54,175.96c1.4,1.4,2.2,3.33,2.2,5.31c0,1.97-0.8,3.9-2.2,5.3c-1.4,1.4-3.33,2.2-5.3,2.2c-1.98,0-3.91-0.8-5.31-2.2
				c-1.39-1.4-2.19-3.33-2.19-5.3c0-1.98,0.8-3.91,2.19-5.31c1.4-1.39,3.33-2.19,5.31-2.19
				C227.21,173.77,229.14,174.57,230.54,175.96z"/>
			<path d="M154.04,87.96c1.4,1.4,2.2,3.33,2.2,5.31c0,1.97-0.8,3.91-2.2,5.3c-1.4,1.4-3.33,2.2-5.3,2.2c-1.98,0-3.91-0.8-5.31-2.2
				c-1.39-1.4-2.19-3.33-2.19-5.3c0-1.98,0.8-3.91,2.19-5.31c1.4-1.39,3.33-2.19,5.31-2.19C150.71,85.77,152.64,86.57,154.04,87.96z
				"/>
			<path d="M154.04,175.96c1.4,1.4,2.2,3.33,2.2,5.31c0,1.97-0.8,3.91-2.2,5.3c-1.4,1.4-3.33,2.2-5.3,2.2c-1.98,0-3.91-0.8-5.31-2.2
				c-1.39-1.4-2.19-3.33-2.19-5.3c0-1.98,0.8-3.91,2.19-5.31c1.4-1.39,3.33-2.19,5.31-2.19
				C150.71,173.77,152.65,174.57,154.04,175.96z"/>
		</g>
		<g>
		</g>
	</g>
</g>
<g>
</g>
<g>
</g>
<g>
</g>
<g>
</g>
<g>
</g>
<g>
</g>
<g>
</g>
<g>
</g>
<g>
</g>
<g>
</g>
<g>
</g>
<g>
</g>
<g>
</g>
<g>
</g>
<g>
</g>
</svg>
