<?xml version="1.0" encoding="iso-8859-1"?>
<!-- Generator: Adobe Illustrator 19.1.0, SVG Export Plug-In . SVG Version: 6.00 Build 0)  -->
<svg version="1.1" id="Capa_1" xmlns="http://www.w3.org/2000/svg" xmlns:xlink="http://www.w3.org/1999/xlink" x="0px" y="0px"
	 viewBox="0 0 481.23 481.23" style="enable-background:new 0 0 481.23 481.23;" xml:space="preserve">
<g>
	<g id="XMLID_44_">
		<g>
			<path d="M480.98,155.125v28.5c0,4.14-3.36,7.5-7.5,7.5H455.6l-16.98,63.26c-9.32,34.74-31.77,63.3-61.13,80.93v34.67
				c0,12.2-9.92,22.12-22.12,22.12c-12.21,0-22.13-9.92-22.13-22.12v-17.76c-8.22,1.57-16.67,2.38-25.27,2.38H112v15.38
				c0,12.2-9.92,22.12-22.12,22.12s-22.12-9.92-22.12-22.12v-25.95c-22.87-13.41-38.26-38.23-38.26-66.6v-86.31H19
				c-4.14,0-7.5-3.36-7.5-7.5v-28.5c0-4.15,3.36-7.5,7.5-7.5h19.5v-34.72c0-13.11,9.55-23.78,21.28-23.78h86.91
				c10.65,0,19.31,9.62,19.31,21.45v7.32c0,4.14-3.36,7.5-7.5,7.5c-4.15,0-7.5-3.36-7.5-7.5v-7.32c0-3.8-2.27-6.45-4.31-6.45H59.78
				c-3.4,0-6.28,4.02-6.28,8.78v34.72h419.98C477.62,147.625,480.98,150.975,480.98,155.125z M465.98,176.125v-13.5H26.5v13.5
				H465.98z M424.13,250.495l15.94-59.37H44.5v86.31c0,34.28,27.89,62.17,62.18,62.17h201.29
				C362.29,339.605,410.06,302.965,424.13,250.495z M362.49,369.985v-26.89c-4.63,2.05-9.39,3.84-14.25,5.36v21.53
				c0,3.93,3.19,7.12,7.12,7.12C359.29,377.105,362.49,373.915,362.49,369.985z M97,369.985v-16.01c-4.9-0.61-9.67-1.68-14.24-3.18
				v19.19c0,3.93,3.19,7.12,7.12,7.12S97,373.915,97,369.985z"/>
			<rect x="26.5" y="162.625" style="fill:#E55A42;" width="439.48" height="13.5"/>
			<path d="M413.04,205.035c4,1.08,6.37,5.19,5.3,9.19l-3.96,14.74c-0.9,3.35-3.93,5.56-7.24,5.56c-0.64,0-1.3-0.08-1.95-0.26
				c-4-1.07-6.37-5.18-5.3-9.18l3.96-14.75C404.92,206.335,409.04,203.965,413.04,205.035z"/>
			<path d="M402.22,246.405c3.88,1.44,5.86,5.76,4.41,9.64c-12.51,33.65-40.94,58.36-76.04,66.1c-0.54,0.12-1.09,0.18-1.62,0.18
				c-3.44,0-6.55-2.39-7.32-5.89c-0.89-4.04,1.67-8.05,5.71-8.94c30.1-6.64,54.48-27.83,65.21-56.68
				C394.02,246.935,398.34,244.955,402.22,246.405z"/>
			<path style="fill:#E2C744;" d="M362.49,343.095v26.89c0,3.93-3.2,7.12-7.13,7.12c-3.93,0-7.12-3.19-7.12-7.12v-21.53
				C353.1,346.935,357.86,345.145,362.49,343.095z"/>
			<path style="fill:#E2C744;" d="M97,353.975v16.01c0,3.93-3.19,7.12-7.12,7.12s-7.12-3.19-7.12-7.12v-19.19
				C87.33,352.295,92.1,353.365,97,353.975z"/>
			<path d="M85.75,118.075c4.14,0,7.5,3.36,7.5,7.5s-3.36,7.5-7.5,7.5H83.5v2.25c0,4.14-3.36,7.5-7.5,7.5s-7.5-3.36-7.5-7.5v-2.25
				h-2.25c-4.14,0-7.5-3.36-7.5-7.5s3.36-7.5,7.5-7.5h2.25v-2.25c0-4.14,3.36-7.5,7.5-7.5s7.5,3.36,7.5,7.5v2.25H85.75z"/>
			<path d="M27.25,118.075c4.14,0,7.5,3.36,7.5,7.5s-3.36,7.5-7.5,7.5H25v2.25c0,4.14-3.36,7.5-7.5,7.5s-7.5-3.36-7.5-7.5v-2.25
				H7.75c-4.14,0-7.5-3.36-7.5-7.5s3.36-7.5,7.5-7.5H10v-2.25c0-4.14,3.36-7.5,7.5-7.5s7.5,3.36,7.5,7.5v2.25H27.25z"/>
		</g>
		<g>
		</g>
	</g>
</g>
<g>
</g>
<g>
</g>
<g>
</g>
<g>
</g>
<g>
</g>
<g>
</g>
<g>
</g>
<g>
</g>
<g>
</g>
<g>
</g>
<g>
</g>
<g>
</g>
<g>
</g>
<g>
</g>
<g>
</g>
</svg>
