<?xml version="1.0" encoding="iso-8859-1"?>
<!-- Generator: Adobe Illustrator 19.1.0, SVG Export Plug-In . SVG Version: 6.00 Build 0)  -->
<svg version="1.1" id="Capa_1" xmlns="http://www.w3.org/2000/svg" xmlns:xlink="http://www.w3.org/1999/xlink" x="0px" y="0px"
	 viewBox="0 0 441.29 441.29" style="enable-background:new 0 0 441.29 441.29;" xml:space="preserve">
<g>
	<g id="XMLID_23_">
		<g>
			<path style="fill:#E55A42;" d="M426.04,88.335v146.27h-10.4v-9.34c0-9.53-7.76-17.29-17.29-17.29h-11.31
				c9.48-5.2,18.38-11.81,26.4-19.83c2.93-2.93,2.93-7.68,0-10.61c-45.7-45.69-120.06-45.69-165.76,0c-2.93,2.93-2.93,7.68,0,10.61
				c8.02,8.02,16.93,14.63,26.4,19.83H167.29c9.54-5.27,18.4-11.91,26.32-19.83c2.93-2.93,2.93-7.68,0-10.61
				c-22.14-22.13-51.57-34.33-82.88-34.33s-60.74,12.2-82.88,34.33c-2.93,2.93-2.93,7.68,0,10.61c7.92,7.92,16.78,14.56,26.32,19.83
				H42.95c-9.54,0-17.29,7.76-17.29,17.29v9.34H15.25V88.335c0-9.3,7.57-16.88,16.88-16.88h377.04
				C418.47,71.455,426.04,79.035,426.04,88.335z M384.14,120.845c0-1.97-0.8-3.91-2.2-5.3c-1.39-1.4-3.33-2.2-5.3-2.2
				c-1.97,0-3.91,0.8-5.3,2.2c-1.4,1.39-2.2,3.32-2.2,5.3c0,1.97,0.8,3.91,2.2,5.3c1.39,1.4,3.33,2.2,5.3,2.2
				c1.97,0,3.91-0.8,5.3-2.2C383.34,124.755,384.14,122.815,384.14,120.845z M280.14,120.845c0-1.97-0.8-3.91-2.19-5.3
				c-1.4-1.4-3.33-2.2-5.31-2.2c-1.97,0-3.9,0.8-5.3,2.2c-1.39,1.39-2.2,3.33-2.2,5.3c0,1.98,0.81,3.91,2.2,5.3
				c1.4,1.4,3.33,2.2,5.3,2.2c1.98,0,3.91-0.8,5.31-2.2C279.34,124.755,280.14,122.815,280.14,120.845z M176.15,120.845
				c0-1.97-0.8-3.91-2.2-5.3c-1.39-1.4-3.33-2.2-5.3-2.2s-3.91,0.8-5.3,2.2c-1.4,1.39-2.2,3.33-2.2,5.3s0.8,3.91,2.2,5.3
				c1.39,1.4,3.33,2.2,5.3,2.2s3.91-0.8,5.3-2.2C175.35,124.755,176.15,122.815,176.15,120.845z M72.16,120.845
				c0-1.97-0.81-3.91-2.2-5.3c-1.4-1.4-3.33-2.2-5.31-2.2c-1.97,0-3.9,0.8-5.3,2.2c-1.4,1.39-2.2,3.33-2.2,5.3s0.8,3.91,2.2,5.3
				c1.4,1.4,3.33,2.2,5.3,2.2c1.98,0,3.91-0.8,5.31-2.2C71.35,124.755,72.16,122.815,72.16,120.845z"/>
			<path style="fill:#4785DD;" d="M400.64,225.265v9.34H40.66v-9.34c0-1.26,1.02-2.29,2.29-2.29h355.4
				C399.61,222.975,400.64,224.005,400.64,225.265z"/>
			<path style="fill:#FFFFFF;" d="M110.73,158.205c24.69,0,48.04,8.7,66.56,24.64c-18.52,15.94-41.87,24.63-66.56,24.63
				s-48.04-8.69-66.56-24.63C62.69,166.905,86.04,158.205,110.73,158.205z"/>
			<path style="fill:#FFFFFF;" d="M264.01,182.845c38.15-32.78,94.95-32.78,133.1,0C358.96,215.625,302.16,215.625,264.01,182.845z"
				/>
			<rect x="73.05" y="327.835" style="fill:#E2C744;" width="295.2" height="16.5"/>
			<rect x="39.76" y="327.835" style="fill:#E2C744;" width="18.29" height="42"/>
			<rect x="383.25" y="327.835" style="fill:#E2C744;" width="18.28" height="42"/>
			<rect x="15.25" y="249.605" style="fill:#E2C744;" width="410.79" height="63.23"/>
			<path d="M441.04,88.335v232c0,4.14-3.35,7.5-7.5,7.5h-17.01v49.5c0,4.14-3.36,7.5-7.5,7.5h-33.28c-4.14,0-7.5-3.36-7.5-7.5v-18
				H73.05v18c0,4.14-3.36,7.5-7.5,7.5H32.26c-4.14,0-7.5-3.36-7.5-7.5v-49.5H7.75c-4.14,0-7.5-3.36-7.5-7.5v-232
				c0-17.58,14.3-31.88,31.88-31.88h377.04C426.74,56.455,441.04,70.755,441.04,88.335z M426.04,312.835v-63.23H15.25v63.23H426.04z
				 M426.04,234.605V88.335c0-9.3-7.57-16.88-16.87-16.88H32.13c-9.31,0-16.88,7.58-16.88,16.88v146.27h10.41v-9.34
				c0-9.53,7.75-17.29,17.29-17.29h11.22c-9.54-5.27-18.4-11.91-26.32-19.83c-2.93-2.93-2.93-7.68,0-10.61
				c22.14-22.13,51.57-34.33,82.88-34.33s60.74,12.2,82.88,34.33c2.93,2.93,2.93,7.68,0,10.61c-7.92,7.92-16.78,14.56-26.32,19.83
				h106.79c-9.47-5.2-18.38-11.81-26.4-19.83c-2.93-2.93-2.93-7.68,0-10.61c45.7-45.69,120.06-45.69,165.76,0
				c2.93,2.93,2.93,7.68,0,10.61c-8.02,8.02-16.92,14.63-26.4,19.83h11.31c9.53,0,17.29,7.76,17.29,17.29v9.34H426.04z
				 M401.53,369.835v-42h-18.28v42H401.53z M400.64,234.605v-9.34c0-1.26-1.03-2.29-2.29-2.29H42.95c-1.27,0-2.29,1.03-2.29,2.29
				v9.34H400.64z M368.25,344.335v-16.5H73.05v16.5H368.25z M397.11,182.845c-38.15-32.78-94.95-32.78-133.1,0
				C302.16,215.625,358.96,215.625,397.11,182.845z M177.29,182.845c-18.52-15.94-41.87-24.64-66.56-24.64s-48.04,8.7-66.56,24.64
				c18.52,15.94,41.87,24.63,66.56,24.63S158.77,198.785,177.29,182.845z M58.05,369.835v-42H39.76v42H58.05z"/>
			<path d="M381.94,115.545c1.4,1.39,2.2,3.33,2.2,5.3s-0.8,3.91-2.2,5.3c-1.39,1.4-3.33,2.2-5.3,2.2c-1.97,0-3.91-0.8-5.3-2.2
				c-1.4-1.39-2.2-3.33-2.2-5.3c0-1.98,0.8-3.91,2.2-5.3c1.39-1.4,3.33-2.2,5.3-2.2C378.61,113.345,380.55,114.145,381.94,115.545z"
				/>
			<path d="M277.95,115.545c1.39,1.39,2.19,3.33,2.19,5.3s-0.8,3.91-2.19,5.3c-1.4,1.4-3.33,2.2-5.31,2.2c-1.97,0-3.9-0.8-5.3-2.2
				c-1.39-1.39-2.2-3.32-2.2-5.3c0-1.97,0.81-3.91,2.2-5.3c1.4-1.4,3.33-2.2,5.3-2.2C274.62,113.345,276.55,114.145,277.95,115.545z
				"/>
			<path d="M173.95,115.545c1.4,1.39,2.2,3.33,2.2,5.3s-0.8,3.91-2.2,5.3c-1.39,1.4-3.33,2.2-5.3,2.2s-3.91-0.8-5.3-2.2
				c-1.4-1.39-2.2-3.33-2.2-5.3s0.8-3.91,2.2-5.3c1.39-1.4,3.33-2.2,5.3-2.2S172.56,114.145,173.95,115.545z"/>
			<path d="M69.96,115.545c1.39,1.39,2.2,3.33,2.2,5.3s-0.81,3.91-2.2,5.3c-1.4,1.4-3.33,2.2-5.31,2.2c-1.97,0-3.9-0.8-5.3-2.2
				c-1.4-1.39-2.2-3.33-2.2-5.3s0.8-3.91,2.2-5.3c1.4-1.4,3.33-2.2,5.3-2.2C66.63,113.345,68.56,114.145,69.96,115.545z"/>
		</g>
		<g>
		</g>
	</g>
</g>
<g>
</g>
<g>
</g>
<g>
</g>
<g>
</g>
<g>
</g>
<g>
</g>
<g>
</g>
<g>
</g>
<g>
</g>
<g>
</g>
<g>
</g>
<g>
</g>
<g>
</g>
<g>
</g>
<g>
</g>
</svg>
