<?xml version="1.0" encoding="iso-8859-1"?>
<!-- Generator: Adobe Illustrator 19.1.0, SVG Export Plug-In . SVG Version: 6.00 Build 0)  -->
<svg version="1.1" id="Capa_1" xmlns="http://www.w3.org/2000/svg" xmlns:xlink="http://www.w3.org/1999/xlink" x="0px" y="0px"
	 viewBox="0 0 394.98 394.98" style="enable-background:new 0 0 394.98 394.98;" xml:space="preserve">
<g>
	<g id="XMLID_23_">
		<g>
			<path style="fill:#4785DD;" d="M208.75,99.955l8.28,36.25c-6.43-0.63-12.95-0.96-19.54-0.96c-6.6,0-13.12,0.33-19.55,0.96
				l8.28-36.25H208.75z"/>
			<path style="fill:#E2C744;" d="M165.31,339.985h64.35c-3.41,14.61-16.54,25.54-32.17,25.54
				C181.85,365.525,168.72,354.595,165.31,339.985z"/>
			<path d="M394.73,332.485c0,4.14-3.36,7.5-7.5,7.5H244.94c-3.62,22.93-23.52,40.54-47.45,40.54c-23.94,0-43.84-17.61-47.46-40.54
				H7.75c-4.15,0-7.5-3.36-7.5-7.5c0-96.67,69.89-177.31,161.8-194.05l10.88-47.65c0.78-3.42,3.82-5.83,7.31-5.83h9.75v-63
				c0-4.15,3.35-7.5,7.5-7.5c4.14,0,7.5,3.35,7.5,7.5v63h9.74c3.49,0,6.53,2.41,7.31,5.83l10.88,47.65
				C324.83,155.175,394.73,235.815,394.73,332.485z M15.4,324.985h364.17c-3.95-97.02-84.11-174.74-182.08-174.74
				C99.51,150.245,19.35,227.965,15.4,324.985z M229.66,339.985h-64.35c3.41,14.61,16.54,25.54,32.18,25.54
				C213.12,365.525,226.25,354.595,229.66,339.985z M217.03,136.205l-8.28-36.25h-22.53l-8.28,36.25
				c6.43-0.63,12.95-0.96,19.55-0.96C204.08,135.245,210.6,135.575,217.03,136.205z"/>
			<path d="M366.57,305.295c0.66,4.09-2.13,7.94-6.22,8.59c-0.4,0.07-0.8,0.1-1.19,0.1c-3.62,0-6.81-2.63-7.4-6.32
				c-0.38-2.39-0.83-4.8-1.32-7.17c-0.85-4.05,1.75-8.02,5.81-8.87c4.05-0.84,8.03,1.75,8.87,5.81
				C365.66,300.025,366.15,302.675,366.57,305.295z"/>
			<path d="M358.52,274.205c1.41,3.89-0.6,8.2-4.49,9.61c-0.85,0.31-1.71,0.45-2.56,0.45c-3.07,0-5.95-1.89-7.05-4.94
				c-15.58-42.93-49.01-76.83-91.73-93.02c-3.87-1.46-5.82-5.79-4.35-9.67c1.47-3.87,5.79-5.82,9.67-4.35
				C304.81,190.025,341.45,227.175,358.52,274.205z"/>
			<path d="M224.84,163.425c4.09,0.66,6.87,4.51,6.21,8.6c-0.59,3.68-3.78,6.3-7.39,6.3c-0.4,0-0.8-0.03-1.21-0.09
				c-8.19-1.32-16.59-1.99-24.96-1.99c-4.15,0-7.5-3.36-7.5-7.5c0-4.15,3.35-7.5,7.5-7.5
				C206.65,161.245,215.86,161.975,224.84,163.425z"/>
		</g>
		<g>
		</g>
	</g>
</g>
<g>
</g>
<g>
</g>
<g>
</g>
<g>
</g>
<g>
</g>
<g>
</g>
<g>
</g>
<g>
</g>
<g>
</g>
<g>
</g>
<g>
</g>
<g>
</g>
<g>
</g>
<g>
</g>
<g>
</g>
</svg>
