<?xml version="1.0" encoding="iso-8859-1"?>
<!-- Generator: Adobe Illustrator 19.1.0, SVG Export Plug-In . SVG Version: 6.00 Build 0)  -->
<svg version="1.1" id="Capa_1" xmlns="http://www.w3.org/2000/svg" xmlns:xlink="http://www.w3.org/1999/xlink" x="0px" y="0px"
	 viewBox="0 0 429.48 429.48" style="enable-background:new 0 0 429.48 429.48;" xml:space="preserve">
<g>
	<g id="XMLID_43_">
		<g>
			<path style="fill:#E55A42;" d="M414.23,47.5v199.49H15.25V47.5H414.23z M403.23,228.49V66c0-4.14-3.36-7.5-7.5-7.5H227.74
				c-4.15,0-7.5,3.36-7.5,7.5v162.49c0,4.14,3.35,7.5,7.5,7.5h167.99C399.87,235.99,403.23,232.63,403.23,228.49z M209.24,228.49V66
				c0-4.14-3.36-7.5-7.5-7.5H33.75c-4.14,0-7.5,3.36-7.5,7.5v162.49c0,4.14,3.36,7.5,7.5,7.5h167.99
				C205.88,235.99,209.24,232.63,209.24,228.49z"/>
			<path d="M429.23,40v214.49c0,4.14-3.36,7.5-7.5,7.5h-16.5v127.49c0,4.14-3.36,7.5-7.5,7.5c-4.15,0-7.5-3.36-7.5-7.5V261.99H39.25
				v127.49c0,4.14-3.36,7.5-7.5,7.5c-4.15,0-7.5-3.36-7.5-7.5V261.99H7.75c-4.15,0-7.5-3.36-7.5-7.5V40c0-4.14,3.35-7.5,7.5-7.5
				h413.98C425.87,32.5,429.23,35.86,429.23,40z M414.23,246.99V47.5H15.25v199.49H414.23z"/>
			<path d="M403.23,66v162.49c0,4.14-3.36,7.5-7.5,7.5H227.74c-4.15,0-7.5-3.36-7.5-7.5V66c0-4.14,3.35-7.5,7.5-7.5h167.99
				C399.87,58.5,403.23,61.86,403.23,66z M388.23,220.99V73.5H235.24v147.49H388.23z"/>
			<path d="M255.29,139.69c1.39,1.4,2.2,3.33,2.2,5.3c0,1.98-0.81,3.91-2.2,5.31c-1.4,1.39-3.33,2.2-5.3,2.2
				c-1.98,0-3.91-0.81-5.31-2.2c-1.39-1.4-2.2-3.33-2.2-5.31c0-1.97,0.81-3.9,2.2-5.3c1.4-1.4,3.33-2.2,5.31-2.2
				C251.96,137.49,253.89,138.29,255.29,139.69z"/>
			<path d="M209.24,66v162.49c0,4.14-3.36,7.5-7.5,7.5H33.75c-4.14,0-7.5-3.36-7.5-7.5V66c0-4.14,3.36-7.5,7.5-7.5h167.99
				C205.88,58.5,209.24,61.86,209.24,66z M194.24,220.99V73.5H41.25v147.49H194.24z"/>
			<path d="M184.79,139.69c1.4,1.4,2.2,3.33,2.2,5.3c0,1.98-0.8,3.91-2.2,5.31c-1.39,1.39-3.33,2.19-5.3,2.19
				c-1.98,0-3.91-0.8-5.31-2.19c-1.39-1.4-2.19-3.33-2.19-5.31c0-1.97,0.8-3.9,2.19-5.3c1.4-1.39,3.33-2.2,5.31-2.2
				C181.46,137.49,183.4,138.3,184.79,139.69z"/>
		</g>
		<g>
		</g>
	</g>
</g>
<g>
</g>
<g>
</g>
<g>
</g>
<g>
</g>
<g>
</g>
<g>
</g>
<g>
</g>
<g>
</g>
<g>
</g>
<g>
</g>
<g>
</g>
<g>
</g>
<g>
</g>
<g>
</g>
<g>
</g>
</svg>
