<?xml version="1.0" encoding="iso-8859-1"?>
<!-- Generator: Adobe Illustrator 19.1.0, SVG Export Plug-In . SVG Version: 6.00 Build 0)  -->
<svg version="1.1" id="Capa_1" xmlns="http://www.w3.org/2000/svg" xmlns:xlink="http://www.w3.org/1999/xlink" x="0px" y="0px"
	 viewBox="0 0 452.23 452.23" style="enable-background:new 0 0 452.23 452.23;" xml:space="preserve">
<g>
	<g id="XMLID_6_">
		<g>
			<path style="fill:#E55A42;" d="M205.465,72.38c7.52,0,13.64,6.12,13.64,13.64c0,7.51-6.12,13.63-13.64,13.63
				c-7.52,0-13.63-6.12-13.63-13.63C191.835,78.5,197.945,72.38,205.465,72.38z"/>
			<path style="fill:#E55A42;" d="M129.245,72.38c7.52,0,13.64,6.12,13.64,13.64c0,7.51-6.12,13.63-13.64,13.63
				c-7.52,0-13.63-6.12-13.63-13.63C115.615,78.5,121.725,72.38,129.245,72.38z"/>
			<polygon style="fill:#E2C744;" points="338.235,379.96 338.235,398.51 145.995,398.51 145.995,379.96 172.875,379.96 
				311.345,379.96 			"/>
			<polygon style="fill:#4785DD;" points="306.235,211.51 306.235,224.51 173.285,224.51 158.255,211.51 229.115,211.51 
				255.115,211.51 			"/>
			<path style="fill:#4785DD;" d="M330.615,258.77v86.93c0,10.62-8.64,19.26-19.27,19.26h-138.47c-10.62,0-19.26-8.64-19.26-19.26
				v-86.93c0-10.62,8.64-19.26,19.26-19.26h138.47C321.975,239.51,330.615,248.15,330.615,258.77z M317.145,342.32v-82.5
				c0-4.14-3.36-7.5-7.5-7.5c-4.14,0-7.5,3.36-7.5,7.5v82.5c0,4.14,3.36,7.5,7.5,7.5C313.785,349.82,317.145,346.46,317.145,342.32z
				"/>
			<path d="M387.615,406.01v38.47c0,4.14-3.36,7.5-7.5,7.5h-308c-4.15,0-7.5-3.36-7.5-7.5V7.75c0-4.15,3.35-7.5,7.5-7.5h250
				c2.26,0,4.4,1.02,5.83,2.78c1.42,1.76,1.97,4.07,1.5,6.28l-34,159.18c-0.74,3.46-3.79,5.93-7.33,5.93h-25.5v22.09h51.12
				c4.14,0,7.5,3.35,7.5,7.5v20.5h15.8c21.27,0,38.58,17.3,38.58,38.58v74.92c0,4.14-3.36,7.5-7.5,7.5c-4.15,0-7.5-3.36-7.5-7.5
				v-74.92c0-12.07-9.12-22.05-20.83-23.42c3.68,5.46,5.83,12.03,5.83,19.1v86.93c0,7.14-2.2,13.77-5.95,19.26h6.07
				c4.14,0,7.5,3.36,7.5,7.5v26.05h26.88C384.255,398.51,387.615,401.86,387.615,406.01z M372.615,436.98v-23.47h-26.88h-207.24
				h-30.38c-4.15,0-7.5-3.36-7.5-7.5V166.92c0-4.14,3.35-7.5,7.5-7.5h121h26h26.93l24.76-115.91h-198.69c-4.15,0-7.5-3.36-7.5-7.5
				V15.25h-21v421.73H372.615z M338.235,398.51v-18.55h-26.89h-138.47h-26.88v18.55H338.235z M330.615,345.7v-86.93
				c0-10.62-8.64-19.26-19.27-19.26h-138.47c-10.62,0-19.26,8.64-19.26,19.26v86.93c0,10.62,8.64,19.26,19.26,19.26h138.47
				C321.975,364.96,330.615,356.32,330.615,345.7z M310.005,28.51l2.84-13.26h-197.23v13.26H310.005z M306.235,224.51v-13h-51.12
				h-26h-70.86l15.03,13H306.235z M247.615,196.51v-22.09h-11v22.09H247.615z M221.615,196.51v-22.09h-106v224.09h15.38v-26.05
				c0-4.14,3.36-7.5,7.5-7.5h6.06c-3.75-5.49-5.94-12.12-5.94-19.26v-86.93c0-12.64,6.88-23.7,17.09-29.63l-22.5-19.46
				c-2.37-2.05-3.21-5.36-2.12-8.29c1.09-2.94,3.89-4.88,7.03-4.88H221.615z"/>
			<path d="M317.145,259.82v82.5c0,4.14-3.36,7.5-7.5,7.5c-4.14,0-7.5-3.36-7.5-7.5v-82.5c0-4.14,3.36-7.5,7.5-7.5
				C313.785,252.32,317.145,255.68,317.145,259.82z"/>
			<path d="M205.465,57.38c15.79,0,28.64,12.85,28.64,28.64s-12.85,28.63-28.64,28.63s-28.63-12.84-28.63-28.63
				S189.675,57.38,205.465,57.38z M219.105,86.02c0-7.52-6.12-13.64-13.64-13.64c-7.52,0-13.63,6.12-13.63,13.64
				c0,7.51,6.11,13.63,13.63,13.63C212.985,99.65,219.105,93.53,219.105,86.02z"/>
			<path d="M129.245,57.38c15.79,0,28.64,12.85,28.64,28.64s-12.85,28.63-28.64,28.63s-28.63-12.84-28.63-28.63
				S113.455,57.38,129.245,57.38z M142.885,86.02c0-7.52-6.12-13.64-13.64-13.64c-7.52,0-13.63,6.12-13.63,13.64
				c0,7.51,6.11,13.63,13.63,13.63C136.765,99.65,142.885,93.53,142.885,86.02z"/>
		</g>
		<g>
		</g>
	</g>
</g>
<g>
</g>
<g>
</g>
<g>
</g>
<g>
</g>
<g>
</g>
<g>
</g>
<g>
</g>
<g>
</g>
<g>
</g>
<g>
</g>
<g>
</g>
<g>
</g>
<g>
</g>
<g>
</g>
<g>
</g>
</svg>
