<?xml version="1.0" encoding="iso-8859-1"?>
<!-- Generator: Adobe Illustrator 19.1.0, SVG Export Plug-In . SVG Version: 6.00 Build 0)  -->
<svg version="1.1" id="Capa_1" xmlns="http://www.w3.org/2000/svg" xmlns:xlink="http://www.w3.org/1999/xlink" x="0px" y="0px"
	 viewBox="0 0 437.31 437.31" style="enable-background:new 0 0 437.31 437.31;" xml:space="preserve">
<g id="XMLID_49_">
	<g>
		<path d="M429.56,16.155c4.14,0,7.5,3.36,7.5,7.5s-3.36,7.5-7.5,7.5h-20.11v382.5c0,4.14-3.36,7.5-7.5,7.5h-92.04
			c-4.14,0-7.5-3.36-7.5-7.5v-16.5H134.9v16.5c0,4.14-3.36,7.5-7.5,7.5H35.37c-4.14,0-7.5-3.36-7.5-7.5v-382.5H7.75
			c-4.14,0-7.5-3.36-7.5-7.5s3.36-7.5,7.5-7.5H429.56z M394.45,406.155v-103.48c-43.12,3.81-77.04,40.12-77.04,84.21v19.27H394.45z
			 M394.45,287.345V31.155H267.39v153.69c0,56.52,45.98,102.5,102.5,102.5H394.45z M302.53,382.155
			c1.62-34.62,21.02-64.66,49.24-81.21c-56.21-8.73-99.38-57.47-99.38-116.1V71.155h-26.23v311H302.53z M252.39,56.155v-25h-67.47
			v25H252.39z M211.16,382.155v-311h-26.24v113.69c0,58.63-43.16,107.37-99.38,116.1c28.23,16.55,47.62,46.59,49.25,81.21H211.16z
			 M169.92,184.845V31.155H42.87v256.19h24.55C123.94,287.345,169.92,241.365,169.92,184.845z M119.9,406.155v-19.27
			c0-44.09-33.92-80.4-77.03-84.21v103.48H119.9z"/>
		<path style="fill:#E55A42;" d="M394.45,302.675v103.48h-77.04v-19.27C317.41,342.795,351.33,306.485,394.45,302.675z"/>
		<path style="fill:#E55A42;" d="M394.45,31.155v256.19h-24.56c-56.52,0-102.5-45.98-102.5-102.5V31.155H394.45z"/>
		<path style="fill:#E55A42;" d="M169.92,31.155v153.69c0,56.52-45.98,102.5-102.5,102.5H42.87V31.155H169.92z"/>
		<path style="fill:#E55A42;" d="M119.9,386.885v19.27H42.87v-103.48C85.98,306.485,119.9,342.795,119.9,386.885z"/>
	</g>
	<g>
	</g>
</g>
<g>
</g>
<g>
</g>
<g>
</g>
<g>
</g>
<g>
</g>
<g>
</g>
<g>
</g>
<g>
</g>
<g>
</g>
<g>
</g>
<g>
</g>
<g>
</g>
<g>
</g>
<g>
</g>
<g>
</g>
</svg>
