<?xml version="1.0" encoding="iso-8859-1"?>
<!-- Generator: Adobe Illustrator 19.1.0, SVG Export Plug-In . SVG Version: 6.00 Build 0)  -->
<svg version="1.1" id="Capa_1" xmlns="http://www.w3.org/2000/svg" xmlns:xlink="http://www.w3.org/1999/xlink" x="0px" y="0px"
	 viewBox="0 0 447.5 447.5" style="enable-background:new 0 0 447.5 447.5;" xml:space="preserve">
<g>
	<g id="XMLID_1_">
		<g>
			<path style="fill:#E2C744;" d="M370.25,15.25v62h-293v-62H370.25z M132.25,33.75c0-4.14-3.36-7.5-7.5-7.5h-31
				c-4.15,0-7.5,3.36-7.5,7.5s3.35,7.5,7.5,7.5h31C128.89,41.25,132.25,37.89,132.25,33.75z M132.25,58.75c0-4.14-3.36-7.5-7.5-7.5
				h-31c-4.15,0-7.5,3.36-7.5,7.5s3.35,7.5,7.5,7.5h31C128.89,66.25,132.25,62.89,132.25,58.75z"/>
			<path d="M385.25,7.75v432c0,4.14-3.36,7.5-7.5,7.5h-308c-4.15,0-7.5-3.36-7.5-7.5v-432c0-4.14,3.35-7.5,7.5-7.5h308
				C381.89,0.25,385.25,3.61,385.25,7.75z M370.25,432.25v-340h-293v340H370.25z M370.25,77.25v-62h-293v62H370.25z"/>
			<path d="M124.75,26.25c4.14,0,7.5,3.36,7.5,7.5s-3.36,7.5-7.5,7.5h-31c-4.15,0-7.5-3.36-7.5-7.5s3.35-7.5,7.5-7.5H124.75z"/>
			<path d="M124.75,51.25c4.14,0,7.5,3.36,7.5,7.5s-3.36,7.5-7.5,7.5h-31c-4.15,0-7.5-3.36-7.5-7.5s3.35-7.5,7.5-7.5H124.75z"/>
		</g>
		<g>
		</g>
	</g>
</g>
<g>
</g>
<g>
</g>
<g>
</g>
<g>
</g>
<g>
</g>
<g>
</g>
<g>
</g>
<g>
</g>
<g>
</g>
<g>
</g>
<g>
</g>
<g>
</g>
<g>
</g>
<g>
</g>
<g>
</g>
</svg>
