<?xml version="1.0" encoding="iso-8859-1"?>
<!-- Generator: Adobe Illustrator 19.1.0, SVG Export Plug-In . SVG Version: 6.00 Build 0)  -->
<svg version="1.1" id="Capa_1" xmlns="http://www.w3.org/2000/svg" xmlns:xlink="http://www.w3.org/1999/xlink" x="0px" y="0px"
	 viewBox="0 0 453.48 453.48" style="enable-background:new 0 0 453.48 453.48;" xml:space="preserve">
<g>
	<g id="XMLID_23_">
		<g>
			<path style="fill:#E2C744;" d="M252.635,305.43l13.16,91.96h-78.1l13.15-91.96c8.42,1.43,17.07,2.19,25.9,2.19
				C235.565,307.62,244.215,306.86,252.635,305.43z"/>
			<path style="fill:#4785DD;" d="M325.035,436.78v1.45h-196.59v-1.45c0-13.45,10.95-24.39,24.4-24.39h147.8
				C314.095,412.39,325.035,423.33,325.035,436.78z"/>
			<path style="fill:#4785DD;" d="M226.745,146.9c3.88,0,7.04,3.15,7.04,7.04c0,3.88-3.16,7.04-7.04,7.04
				c-3.88,0-7.04-3.16-7.04-7.04C219.705,150.05,222.865,146.9,226.745,146.9z"/>
			<path style="fill:#E55A42;" d="M226.745,28.55c4.47,0,9.12,3.29,13.22,9.17c-4.34-0.49-8.75-0.75-13.22-0.75
				s-8.88,0.26-13.21,0.75C217.635,31.84,222.285,28.55,226.745,28.55z"/>
			<path style="fill:#E55A42;" d="M247.655,54.13c2.36,7.47,4.01,16.31,4.57,26.17c-7.99-2.77-16.56-4.3-25.48-4.3
				s-17.49,1.53-25.47,4.3c0.55-9.86,2.2-18.7,4.56-26.17c6.75-1.41,13.74-2.16,20.91-2.16
				C233.905,51.97,240.905,52.72,247.655,54.13z"/>
			<path style="fill:#E55A42;" d="M252.125,96.37c-0.46,6.78-1.47,13.29-2.98,19.33c-6.58-3.87-14.24-6.09-22.4-6.09
				c-8.17,0-15.82,2.22-22.39,6.09c-1.52-6.05-2.52-12.55-2.98-19.34c7.76-3.43,16.34-5.36,25.37-5.36S244.355,92.93,252.125,96.37z
				"/>
			<path style="fill:#E55A42;" d="M119.505,200.62c3.66,8.36,8.26,16.22,13.67,23.43c-7.59-0.48-13.06-2.87-15.35-6.85
				C115.535,213.25,116.185,207.38,119.505,200.62z"/>
			<path style="fill:#E55A42;" d="M176.045,213.05c-8.39,4.29-16.86,7.43-24.89,9.25c-9.41-10.4-16.71-22.75-21.22-36.35
				c5.55-6.04,12.48-11.8,20.35-16.93C153.725,186.49,163.025,201.87,176.045,213.05z"/>
			<path style="fill:#E55A42;" d="M204.995,192.54c-4.44,4.35-9.56,8.52-15.15,12.33c-13.93-10.11-23.56-25.79-25.61-43.74
				c6.07-2.93,12.22-5.3,18.18-6.99C182.495,170.6,191.585,184.96,204.995,192.54z"/>
			<path style="fill:#E55A42;" d="M289.255,161.13c-2.06,17.95-11.69,33.63-25.62,43.74c-5.58-3.81-10.71-7.98-15.14-12.33
				c13.41-7.58,22.5-21.94,22.57-38.4C277.025,155.83,283.185,158.2,289.255,161.13z"/>
			<path style="fill:#E55A42;" d="M323.555,185.95c-4.51,13.6-11.81,25.95-21.23,36.35c-8.02-1.82-16.5-4.96-24.89-9.25
				c13.02-11.18,22.32-26.56,25.76-44.03C311.075,174.15,317.995,179.91,323.555,185.95z"/>
			<path style="fill:#E55A42;" d="M333.975,200.62c3.32,6.76,3.97,12.63,1.69,16.59c-2.3,3.98-7.76,6.36-15.36,6.84
				C325.725,216.84,330.325,208.98,333.975,200.62z"/>
			<path d="M380.425,153.94c0,70.69-47.99,130.38-113.1,148.23l13.62,95.22h19.7c21.72,0,39.39,17.67,39.39,39.39v8.95
				c0,4.14-3.36,7.5-7.5,7.5h-211.59c-4.14,0-7.5-3.36-7.5-7.5v-8.95c0-21.72,17.68-39.39,39.4-39.39h19.69l13.62-95.22
				c-65.11-17.85-113.1-77.54-113.1-148.23c0-84.75,68.94-153.69,153.69-153.69C311.485,0.25,380.425,69.19,380.425,153.94z
				 M351.955,213.52c8.63-18.06,13.47-38.27,13.47-59.58c0-73.16-56.94-133.26-128.83-138.33c7.89,3.34,14.91,10.72,20.33,21.61
				c0.68,1.37,1.32,2.79,1.94,4.24c48.93,13.99,84.84,59.12,84.84,112.48c0,9.83-1.22,19.38-3.52,28.51
				c1.08,1.42,2.11,2.85,3.06,4.28C349.545,196.24,352.465,205.41,351.955,213.52z M335.665,217.21c2.28-3.96,1.63-9.83-1.69-16.59
				c-3.65,8.36-8.25,16.22-13.67,23.43C327.905,223.57,333.365,221.19,335.665,217.21z M340.385,233.33
				c-5.87,3.82-13.69,5.81-23.03,5.81c-1.4,0-2.83-0.04-4.29-0.13c-1.82-0.11-3.68-0.3-5.56-0.55
				c-21.01,20.09-49.47,32.44-80.76,32.44c-31.3,0-59.76-12.35-80.77-32.44c-1.88,0.25-3.73,0.44-5.55,0.55
				c-1.47,0.09-2.9,0.13-4.3,0.13c-9.34,0-17.16-1.99-23.03-5.81c25.11,35.82,66.68,59.29,113.65,59.29
				C273.705,292.62,315.285,269.15,340.385,233.33z M327.605,168.9c0.72-4.89,1.1-9.88,1.1-14.96c0-42.92-26.65-79.72-64.26-94.74
				c1.94,8.84,2.98,18.43,2.99,28.3c21.89,13.46,36.63,37.42,37.2,64.81c0.05,0.03,0.11,0.06,0.16,0.09
				C313.245,157.28,320.955,162.88,327.605,168.9z M325.035,438.23v-1.45c0-13.45-10.94-24.39-24.39-24.39h-147.8
				c-13.45,0-24.4,10.94-24.4,24.39v1.45H325.035z M302.325,222.3c9.42-10.4,16.72-22.75,21.23-36.35
				c-5.56-6.04-12.48-11.8-20.36-16.93c-3.44,17.47-12.74,32.85-25.76,44.03C285.825,217.34,294.305,220.48,302.325,222.3z
				 M288.975,144.53c-2.39-15.84-10.71-29.77-22.61-39.45c-0.96,7.61-2.56,14.86-4.75,21.53c2.68,3.42,4.87,7.24,6.47,11.35
				C274.915,139.38,281.945,141.59,288.975,144.53z M263.635,204.87c13.93-10.11,23.56-25.79,25.62-43.74
				c-6.07-2.93-12.23-5.3-18.19-6.99c-0.07,16.46-9.16,30.82-22.57,38.4C252.925,196.89,258.055,201.06,263.635,204.87z
				 M289.465,234.28c-8.43-2.75-17.02-6.59-25.36-11.4c-0.17-0.1-0.33-0.2-0.5-0.3c-10.98,5.92-23.54,9.29-36.86,9.29
				c-13.33,0-25.88-3.37-36.86-9.29c-0.17,0.1-0.34,0.2-0.51,0.3c-8.34,4.81-16.93,8.65-25.35,11.4
				c17.31,13.54,39.09,21.62,62.72,21.62S272.155,247.82,289.465,234.28z M265.795,397.39l-13.16-91.96
				c-8.42,1.43-17.07,2.19-25.89,2.19c-8.83,0-17.48-0.76-25.9-2.19l-13.15,91.96H265.795z M252.225,80.3
				c-0.56-9.86-2.21-18.7-4.57-26.17c-6.75-1.41-13.75-2.16-20.91-2.16c-7.17,0-14.16,0.75-20.91,2.16
				c-2.36,7.47-4.01,16.31-4.56,26.17c7.98-2.77,16.55-4.3,25.47-4.3S244.235,77.53,252.225,80.3z M249.145,115.7
				c1.51-6.04,2.52-12.55,2.98-19.33c-7.77-3.44-16.35-5.37-25.38-5.37s-17.61,1.93-25.37,5.36c0.46,6.79,1.46,13.29,2.98,19.34
				c6.57-3.87,14.22-6.09,22.39-6.09C234.905,109.61,242.565,111.83,249.145,115.7z M256.075,153.94
				c0-16.18-13.16-29.33-29.33-29.33c-16.18,0-29.33,13.15-29.33,29.33c0,16.17,13.15,29.33,29.33,29.33
				C242.915,183.27,256.075,170.11,256.075,153.94z M226.745,216.87c7.83,0,15.32-1.45,22.24-4.07c-6.08-4.67-11.51-9.7-16.15-14.96
				c-1.99,0.27-4.03,0.43-6.09,0.43c-2.07,0-4.1-0.16-6.1-0.43c-4.63,5.26-10.07,10.29-16.15,14.96
				C211.415,215.42,218.915,216.87,226.745,216.87z M239.965,37.72c-4.1-5.88-8.75-9.17-13.22-9.17c-4.46,0-9.11,3.29-13.21,9.17
				c4.33-0.49,8.74-0.75,13.21-0.75S235.625,37.23,239.965,37.72z M196.565,37.23c5.42-10.9,12.44-18.28,20.33-21.62
				c-71.89,5.07-128.84,65.17-128.84,138.33c0,21.31,4.84,41.52,13.47,59.58c-0.51-8.11,2.42-17.28,8.71-26.79
				c0.95-1.43,1.98-2.86,3.06-4.28c-2.29-9.13-3.52-18.68-3.52-28.51c0-53.36,35.92-98.49,84.85-112.48
				C195.245,40.01,195.885,38.59,196.565,37.23z M189.845,204.87c5.59-3.81,10.71-7.98,15.15-12.33
				c-13.41-7.58-22.5-21.94-22.58-38.4c-5.96,1.69-12.11,4.06-18.18,6.99C166.285,179.08,175.915,194.76,189.845,204.87z
				 M191.885,126.6c-2.2-6.67-3.79-13.92-4.75-21.52c-11.92,9.67-20.24,23.6-22.62,39.45c7.03-2.94,14.05-5.15,20.89-6.57
				C186.995,133.84,189.195,130.02,191.885,126.6z M186.055,87.49c0.02-9.87,1.05-19.45,2.99-28.29
				c-37.62,15.02-64.27,51.82-64.27,94.74c0,5.08,0.38,10.07,1.1,14.96c6.65-6.02,14.36-11.62,22.81-16.5
				c0.06-0.03,0.11-0.06,0.16-0.09C149.415,124.91,164.165,100.95,186.055,87.49z M151.155,222.3c8.03-1.82,16.5-4.96,24.89-9.25
				c-13.02-11.18-22.32-26.56-25.76-44.03c-7.87,5.13-14.8,10.89-20.35,16.93C134.445,199.55,141.745,211.9,151.155,222.3z
				 M133.175,224.05c-5.41-7.21-10.01-15.07-13.67-23.43c-3.32,6.76-3.97,12.63-1.68,16.58
				C120.115,221.18,125.585,223.57,133.175,224.05z"/>
			<path d="M226.745,131.9c12.15,0,22.04,9.88,22.04,22.04c0,12.15-9.89,22.04-22.04,22.04c-12.16,0-22.04-9.89-22.04-22.04
				C204.705,141.78,214.585,131.9,226.745,131.9z M233.785,153.94c0-3.89-3.16-7.04-7.04-7.04c-3.88,0-7.04,3.15-7.04,7.04
				c0,3.88,3.16,7.04,7.04,7.04C230.625,160.98,233.785,157.82,233.785,153.94z"/>
		</g>
		<g>
		</g>
	</g>
</g>
<g>
</g>
<g>
</g>
<g>
</g>
<g>
</g>
<g>
</g>
<g>
</g>
<g>
</g>
<g>
</g>
<g>
</g>
<g>
</g>
<g>
</g>
<g>
</g>
<g>
</g>
<g>
</g>
<g>
</g>
</svg>
