<?xml version="1.0" encoding="iso-8859-1"?>
<!-- Generator: Adobe Illustrator 19.1.0, SVG Export Plug-In . SVG Version: 6.00 Build 0)  -->
<svg version="1.1" id="Capa_1" xmlns="http://www.w3.org/2000/svg" xmlns:xlink="http://www.w3.org/1999/xlink" x="0px" y="0px"
	 viewBox="0 0 457.894 457.894" style="enable-background:new 0 0 457.894 457.894;" xml:space="preserve">
<g>
	<path d="M322.692,0h-187.49c-4.143,0-7.5,3.358-7.5,7.5v442.894c0,4.142,3.357,7.5,7.5,7.5h187.49c4.143,0,7.5-3.358,7.5-7.5V7.5
		C330.192,3.358,326.835,0,322.692,0z M315.192,15v206.239h-172.49v-9.749h71.996c4.143,0,7.5-3.358,7.5-7.5
		c0-4.142-3.357-7.5-7.5-7.5h-71.996V15H315.192z M142.702,442.894V260.988h71.996c4.143,0,7.5-3.358,7.5-7.5
		c0-4.142-3.357-7.5-7.5-7.5h-71.996v-9.749h172.49v206.655H142.702z"/>
	<path d="M219.197,53.998h19.499c4.143,0,7.5-3.358,7.5-7.5s-3.357-7.5-7.5-7.5h-19.499c-4.143,0-7.5,3.358-7.5,7.5
		S215.054,53.998,219.197,53.998z"/>
</g>
<g>
</g>
<g>
</g>
<g>
</g>
<g>
</g>
<g>
</g>
<g>
</g>
<g>
</g>
<g>
</g>
<g>
</g>
<g>
</g>
<g>
</g>
<g>
</g>
<g>
</g>
<g>
</g>
<g>
</g>
</svg>
