<?xml version="1.0" encoding="iso-8859-1"?>
<!-- Generator: Adobe Illustrator 19.1.0, SVG Export Plug-In . SVG Version: 6.00 Build 0)  -->
<svg version="1.1" id="Capa_1" xmlns="http://www.w3.org/2000/svg" xmlns:xlink="http://www.w3.org/1999/xlink" x="0px" y="0px"
	 viewBox="0 0 412.994 412.994" style="enable-background:new 0 0 412.994 412.994;" xml:space="preserve">
<g>
	<g id="XMLID_23_">
		<g>
			<polygon style="fill:#E55A42;" points="197.787,206.644 180.207,252.234 166.497,252.234 184.757,204.874 			"/>
			<path style="fill:#E2C744;" d="M242.867,246.564c11.99,0,21.75,9.76,21.75,21.75c0,11.99-9.76,21.75-21.75,21.75
				c-12,0-21.76-9.76-21.76-21.75C221.107,256.324,230.867,246.564,242.867,246.564z"/>
			<polygon style="fill:#4785DD;" points="43.607,47.884 43.607,170.454 30.087,168.604 30.087,49.734 			"/>
			<path style="fill:#4785DD;" d="M284.937,48.944c32.74,0,59.37,26.63,59.37,59.37c0,32.73-26.63,59.36-59.37,59.36
				c-32.73,0-59.36-26.63-59.36-59.36C225.577,75.574,252.207,48.944,284.937,48.944z M321.897,108.314
				c0-20.38-16.58-36.96-36.96-36.96c-20.37,0-36.95,16.58-36.95,36.96c0,20.37,16.58,36.95,36.95,36.95
				C305.317,145.264,321.897,128.684,321.897,108.314z"/>
			<path d="M397.907,109.174c0,22.2-6.78,43.62-19.1,61.58l-130.78,227.59c-5.11,8.88-14.63,14.4-24.87,14.4h-63.03
				c-9.45,0-18.29-4.66-23.64-12.46c-5.35-7.79-6.52-17.72-3.12-26.54l41.06-106.51h-18.85c-2.48,0-4.79-1.21-6.19-3.25
				c-1.4-2.04-1.7-4.64-0.81-6.94l20.91-54.26l-147.92-20.2c-3.71-0.51-6.48-3.68-6.48-7.43V43.184c0-3.75,2.77-6.92,6.48-7.43
				l252.68-34.5c31.17-4.26,62.65,5.16,86.35,25.85C384.307,47.794,397.907,77.704,397.907,109.174z M382.907,109.174
				c0-27.14-11.73-52.93-32.17-70.77s-47.58-25.96-74.46-22.29l-217.67,29.72v126.67l217.67,29.72
				c26.88,3.67,54.02-4.45,74.46-22.29S382.907,136.304,382.907,109.174z M235.017,390.874l107.34-186.79
				c-16.26,9.15-34.63,14.01-53.36,14.01c-4.91,0-9.83-0.33-14.75-1l-61.19-8.36l-65.69,170.4c-1.65,4.28-1.11,8.89,1.48,12.67
				c2.59,3.77,6.71,5.94,11.28,5.94h63.03C228.037,397.744,232.587,395.104,235.017,390.874z M180.207,252.234l17.58-45.59
				l-13.03-1.77l-18.26,47.36H180.207z M43.607,170.454V47.884l-13.52,1.85v118.87L43.607,170.454z"/>
			<path d="M284.937,33.944c41.01,0,74.37,33.36,74.37,74.37c0,41-33.36,74.36-74.37,74.36c-41,0-74.36-33.36-74.36-74.36
				C210.577,67.304,243.937,33.944,284.937,33.944z M344.307,108.314c0-32.74-26.63-59.37-59.37-59.37
				c-32.73,0-59.36,26.63-59.36,59.37c0,32.73,26.63,59.36,59.36,59.36C317.677,167.674,344.307,141.044,344.307,108.314z"/>
			<path d="M284.937,71.354c20.38,0,36.96,16.58,36.96,36.96c0,20.37-16.58,36.95-36.96,36.95c-20.37,0-36.95-16.58-36.95-36.95
				C247.987,87.934,264.567,71.354,284.937,71.354z M306.897,108.314c0-12.11-9.85-21.96-21.96-21.96
				c-12.1,0-21.95,9.85-21.95,21.96c0,12.1,9.85,21.95,21.95,21.95C297.047,130.264,306.897,120.414,306.897,108.314z"/>
			<path d="M242.867,231.564c20.26,0,36.75,16.48,36.75,36.75c0,20.26-16.49,36.75-36.75,36.75c-20.27,0-36.76-16.49-36.76-36.75
				C206.107,248.044,222.597,231.564,242.867,231.564z M264.617,268.314c0-11.99-9.76-21.75-21.75-21.75
				c-12,0-21.76,9.76-21.76,21.75c0,11.99,9.76,21.75,21.76,21.75C254.857,290.064,264.617,280.304,264.617,268.314z"/>
		</g>
		<g>
		</g>
	</g>
</g>
<g>
</g>
<g>
</g>
<g>
</g>
<g>
</g>
<g>
</g>
<g>
</g>
<g>
</g>
<g>
</g>
<g>
</g>
<g>
</g>
<g>
</g>
<g>
</g>
<g>
</g>
<g>
</g>
<g>
</g>
</svg>
