<?xml version="1.0" encoding="iso-8859-1"?>
<!-- Generator: Adobe Illustrator 19.1.0, SVG Export Plug-In . SVG Version: 6.00 Build 0)  -->
<svg version="1.1" id="Capa_1" xmlns="http://www.w3.org/2000/svg" xmlns:xlink="http://www.w3.org/1999/xlink" x="0px" y="0px"
	 viewBox="0 0 442.94 442.94" style="enable-background:new 0 0 442.94 442.94;" xml:space="preserve">
<g>
	<g id="XMLID_43_">
		<g>
			<path style="fill:#4785DD;" d="M180.875,320.07h-33.33v-30.73C164.205,291.26,177.655,303.84,180.875,320.07z"/>
			<rect x="90.975" y="246.2" style="fill:#E2C744;" width="41.57" height="21.87"/>
			<rect x="90.975" y="283.07" style="fill:#E2C744;" width="41.57" height="65"/>
			<path style="fill:#E2C744;" d="M132.545,363.07v64.62h-41.57v-64.62H132.545z M117.545,413.57c0-1.97-0.8-3.9-2.2-5.3
				c-1.39-1.4-3.32-2.2-5.3-2.2c-1.97,0-3.9,0.8-5.3,2.2c-1.4,1.4-2.2,3.33-2.2,5.3c0,1.98,0.8,3.91,2.2,5.31
				c1.4,1.39,3.33,2.19,5.3,2.19s3.91-0.8,5.3-2.19C116.745,417.48,117.545,415.55,117.545,413.57z"/>
			<rect x="147.545" y="335.07" style="fill:#4785DD;" width="204.42" height="92.62"/>
			<path style="fill:#4785DD;" d="M351.965,246.2v73.87h-155.89c-3.46-24.52-23.59-43.74-48.53-45.8V246.2H351.965z"/>
			<path d="M394.585,174.33c16.23,6.17,27.13,21.99,27.13,39.36c0,23.23-18.9,42.13-42.14,42.13h-12.61v179.37
				c0,4.15-3.36,7.5-7.5,7.5H83.475c-4.14,0-7.5-3.35-7.5-7.5V255.82h-12.61c-11.24,0-21.82-4.38-29.79-12.33
				c-7.96-7.97-12.35-18.55-12.35-29.8c0-17.37,10.91-33.19,27.13-39.37l165.62-63.16V82.09c-19.19-3.53-33.77-20.39-33.77-40.58
				c0-22.75,18.51-41.26,41.27-41.26c22.75,0,41.26,18.51,41.26,41.26c0,4.14-3.36,7.5-7.5,7.5s-7.5-3.36-7.5-7.5
				c0-14.48-11.78-26.26-26.26-26.26c-14.49,0-26.27,11.78-26.27,26.26s11.78,26.27,26.27,26.27c4.14,0,7.5,3.35,7.5,7.5v35.89
				L394.585,174.33z M406.715,213.69c0-11.18-7.02-21.37-17.47-25.35l-167.78-63.98l-167.77,63.98
				c-10.45,3.98-17.47,14.17-17.47,25.35c0,7.25,2.83,14.06,7.96,19.19c5.12,5.12,11.94,7.94,19.18,7.94h12.61v-2.12
				c0-4.14,3.36-7.5,7.5-7.5h275.99c4.14,0,7.5,3.36,7.5,7.5v2.12h12.61C394.545,240.82,406.715,228.65,406.715,213.69z
				 M351.965,427.69v-92.62h-204.42v92.62H351.965z M351.965,320.07V246.2h-204.42v28.07c24.94,2.06,45.07,21.28,48.53,45.8H351.965
				z M147.545,320.07h33.33c-3.22-16.23-16.67-28.81-33.33-30.73V320.07z M132.545,427.69v-64.62h-41.57v64.62H132.545z
				 M132.545,348.07v-65h-41.57v65H132.545z M132.545,268.07V246.2h-41.57v21.87H132.545z"/>
			<path d="M115.345,408.27c1.4,1.4,2.2,3.33,2.2,5.3c0,1.98-0.8,3.91-2.2,5.31c-1.39,1.39-3.33,2.19-5.3,2.19s-3.9-0.8-5.3-2.19
				c-1.4-1.4-2.2-3.33-2.2-5.31c0-1.97,0.8-3.9,2.2-5.3c1.4-1.4,3.33-2.2,5.3-2.2C112.025,406.07,113.955,406.87,115.345,408.27z"/>
		</g>
		<g>
		</g>
	</g>
</g>
<g>
</g>
<g>
</g>
<g>
</g>
<g>
</g>
<g>
</g>
<g>
</g>
<g>
</g>
<g>
</g>
<g>
</g>
<g>
</g>
<g>
</g>
<g>
</g>
<g>
</g>
<g>
</g>
<g>
</g>
</svg>
