<?xml version="1.0" encoding="iso-8859-1"?>
<!-- Generator: Adobe Illustrator 19.1.0, SVG Export Plug-In . SVG Version: 6.00 Build 0)  -->
<svg version="1.1" id="Capa_1" xmlns="http://www.w3.org/2000/svg" xmlns:xlink="http://www.w3.org/1999/xlink" x="0px" y="0px"
	 viewBox="0 0 444 444" style="enable-background:new 0 0 444 444;" xml:space="preserve">
<g>
	<g id="XMLID_13_">
		<g>
			<path style="fill:#E2C744;" d="M275.94,36.83v132.99H168.06V36.83H275.94z M269.34,149.18V81.69c0-4.14-3.35-7.5-7.5-7.5
				c-4.14,0-7.5,3.36-7.5,7.5v67.49c0,4.15,3.36,7.5,7.5,7.5C265.99,156.68,269.34,153.33,269.34,149.18z M269.34,60.69v-7.5
				c0-4.14-3.35-7.5-7.5-7.5c-4.14,0-7.5,3.36-7.5,7.5v7.5c0,4.14,3.36,7.5,7.5,7.5C265.99,68.19,269.34,64.83,269.34,60.69z"/>
			<path style="fill:#E55A42;" d="M428.75,345.71v61.46H15.25v-61.46H428.75z M408.74,376.44c0-1.97-0.8-3.91-2.2-5.3
				c-1.39-1.4-3.33-2.2-5.3-2.2c-1.98,0-3.91,0.8-5.3,2.2c-1.4,1.39-2.2,3.33-2.2,5.3s0.8,3.91,2.2,5.3c1.39,1.4,3.32,2.2,5.3,2.2
				c1.97,0,3.9-0.8,5.3-2.2C407.94,380.35,408.74,378.41,408.74,376.44z M88.52,376.44c0-1.97-0.8-3.91-2.19-5.3
				c-1.4-1.4-3.33-2.2-5.31-2.2c-1.97,0-3.91,0.8-5.3,2.2c-1.4,1.39-2.2,3.33-2.2,5.3c0,1.98,0.8,3.91,2.2,5.3
				c1.39,1.4,3.33,2.2,5.3,2.2c1.98,0,3.91-0.8,5.31-2.2C87.72,380.35,88.52,378.42,88.52,376.44z M61.44,376.44
				c0-1.97-0.8-3.91-2.19-5.3c-1.4-1.4-3.33-2.2-5.31-2.2c-1.97,0-3.91,0.8-5.3,2.2c-1.4,1.39-2.2,3.33-2.2,5.3s0.8,3.91,2.2,5.3
				c1.39,1.4,3.33,2.2,5.3,2.2c1.98,0,3.91-0.8,5.31-2.2C60.64,380.35,61.44,378.41,61.44,376.44z"/>
			<path d="M443.75,338.21v76.46c0,4.14-3.36,7.5-7.5,7.5H7.75c-4.14,0-7.5-3.36-7.5-7.5v-76.46c0-4.14,3.36-7.5,7.5-7.5h31.3
				l114.01-156.65V29.33c0-4.14,3.36-7.5,7.5-7.5h122.88c4.14,0,7.5,3.36,7.5,7.5v144.75l114.01,156.63h31.3
				C440.39,330.71,443.75,334.07,443.75,338.21z M428.75,407.17v-61.46H15.25v61.46H428.75z M386.4,330.71L280.21,184.82H163.78
				L57.6,330.71H386.4z M275.94,169.82V36.83H168.06v132.99H275.94z"/>
			<path d="M406.54,371.14c1.4,1.39,2.2,3.33,2.2,5.3s-0.8,3.91-2.2,5.3c-1.4,1.4-3.33,2.2-5.3,2.2c-1.98,0-3.91-0.8-5.3-2.2
				c-1.4-1.39-2.2-3.33-2.2-5.3s0.8-3.91,2.2-5.3c1.39-1.4,3.32-2.2,5.3-2.2C403.21,368.94,405.15,369.74,406.54,371.14z"/>
			<path d="M360.74,309.13c2.44,3.34,1.7,8.04-1.65,10.47c-1.33,0.97-2.88,1.44-4.41,1.44c-2.31,0-4.6-1.07-6.07-3.09l-10.57-14.53
				c-2.44-3.35-1.7-8.04,1.65-10.48c3.35-2.43,8.04-1.69,10.47,1.65L360.74,309.13z"/>
			<path d="M335.5,274.44c2.43,3.35,1.7,8.04-1.65,10.48c-1.34,0.97-2.88,1.44-4.41,1.44c-2.32,0-4.6-1.07-6.07-3.09l-58.6-80.51
				c-2.44-3.35-1.7-8.04,1.65-10.48c3.35-2.44,8.04-1.7,10.47,1.65L335.5,274.44z"/>
			<path d="M269.34,81.69v67.49c0,4.15-3.35,7.5-7.5,7.5c-4.14,0-7.5-3.35-7.5-7.5V81.69c0-4.14,3.36-7.5,7.5-7.5
				C265.99,74.19,269.34,77.55,269.34,81.69z"/>
			<path d="M269.34,53.19v7.5c0,4.14-3.35,7.5-7.5,7.5c-4.14,0-7.5-3.36-7.5-7.5v-7.5c0-4.14,3.36-7.5,7.5-7.5
				C265.99,45.69,269.34,49.05,269.34,53.19z"/>
			<path d="M86.33,371.14c1.39,1.39,2.19,3.33,2.19,5.3c0,1.98-0.8,3.91-2.19,5.3c-1.4,1.4-3.33,2.2-5.31,2.2
				c-1.97,0-3.91-0.8-5.3-2.2c-1.4-1.39-2.2-3.32-2.2-5.3c0-1.97,0.8-3.91,2.2-5.3c1.39-1.4,3.33-2.2,5.3-2.2
				C83,368.94,84.93,369.74,86.33,371.14z"/>
			<path d="M59.25,371.14c1.39,1.39,2.19,3.33,2.19,5.3s-0.8,3.91-2.19,5.3c-1.4,1.4-3.33,2.2-5.31,2.2c-1.97,0-3.91-0.8-5.3-2.2
				c-1.4-1.39-2.2-3.33-2.2-5.3s0.8-3.91,2.2-5.3c1.39-1.4,3.33-2.2,5.3-2.2C55.92,368.94,57.85,369.74,59.25,371.14z"/>
		</g>
		<g>
		</g>
	</g>
</g>
<g>
</g>
<g>
</g>
<g>
</g>
<g>
</g>
<g>
</g>
<g>
</g>
<g>
</g>
<g>
</g>
<g>
</g>
<g>
</g>
<g>
</g>
<g>
</g>
<g>
</g>
<g>
</g>
<g>
</g>
</svg>
