<?xml version="1.0" encoding="iso-8859-1"?>
<!-- Generator: Adobe Illustrator 19.1.0, SVG Export Plug-In . SVG Version: 6.00 Build 0)  -->
<svg version="1.1" id="Capa_1" xmlns="http://www.w3.org/2000/svg" xmlns:xlink="http://www.w3.org/1999/xlink" x="0px" y="0px"
	 viewBox="0 0 423.73 423.73" style="enable-background:new 0 0 423.73 423.73;" xml:space="preserve">
<g>
	<g id="XMLID_13_">
		<g>
			<path style="fill:#E55A42;" d="M370.86,218.785c5.2,0,9.43,4.23,9.43,9.43s-4.23,9.43-9.43,9.43c-5.2,0-9.43-4.23-9.43-9.43
				S365.66,218.785,370.86,218.785z"/>
			<path style="fill:#E2C744;" d="M408.48,193.275v169h-319v-8.25h15.04h194.46h28c4.15,0,7.5-3.36,7.5-7.5v-153.25H408.48z
				 M395.29,228.215c0-13.47-10.96-24.43-24.43-24.43c-13.47,0-24.43,10.96-24.43,24.43s10.96,24.43,24.43,24.43
				C384.33,252.645,395.29,241.685,395.29,228.215z"/>
			<path style="fill:#4785DD;" d="M267.48,248.975v66.05H136.02v-47.6c10.23-1.73,16.47-6.84,21.66-11.1
				c5.67-4.64,10.14-8.3,19.66-8.3c9.53,0,14,3.66,19.66,8.3c6.36,5.21,14.28,11.7,29.17,11.7c14.88,0,22.8-6.49,29.16-11.7
				C259.26,253.105,262.61,250.365,267.48,248.975z"/>
			<path d="M423.48,185.775v184c0,4.14-3.35,7.5-7.5,7.5h-334c-4.14,0-7.5-3.36-7.5-7.5v-23.25c0-4.14,3.36-7.5,7.5-7.5h15.04
				v-153.25c0-4.14,3.36-7.5,7.5-7.5h7.96v-1.47c0-1.98,0.79-3.89,2.2-5.3l21.28-21.28c1.41-1.41,3.32-2.2,5.31-2.2h30.71
				c4.15,0,7.5,3.36,7.5,7.5v22.75h119.5c4.15,0,7.5,3.36,7.5,7.5v11.25h13v-11.25c0-4.14,3.36-7.5,7.5-7.5h89
				C420.13,178.275,423.48,181.635,423.48,185.775z M408.48,362.275v-169h-74v153.25c0,4.14-3.35,7.5-7.5,7.5h-28H104.52H89.48v8.25
				H408.48z M319.48,339.025v-127h-13v127H319.48z M291.48,339.025v-145.75H112.02v145.75H291.48z M164.48,178.275v-15.25h-20.11
				l-15.24,15.25H164.48z"/>
			<path d="M370.86,203.785c13.47,0,24.43,10.96,24.43,24.43s-10.96,24.43-24.43,24.43c-13.47,0-24.43-10.96-24.43-24.43
				S357.39,203.785,370.86,203.785z M380.29,228.215c0-5.2-4.23-9.43-9.43-9.43c-5.2,0-9.43,4.23-9.43,9.43s4.23,9.43,9.43,9.43
				C376.06,237.645,380.29,233.415,380.29,228.215z"/>
			<path d="M282.48,240.795v81.73c0,4.14-3.36,7.5-7.5,7.5H128.52c-4.14,0-7.5-3.36-7.5-7.5v-62c0-4.14,3.36-7.5,7.5-7.5
				c9.53,0,14-3.66,19.66-8.3c6.36-5.21,14.28-11.7,29.16-11.7c14.89,0,22.81,6.49,29.17,11.7c5.66,4.64,10.13,8.3,19.66,8.3
				c9.52,0,13.99-3.66,19.65-8.3c6.36-5.21,14.28-11.7,29.16-11.7c4.15,0,7.5,3.36,7.5,7.5
				C282.48,240.615,282.48,240.705,282.48,240.795z M267.48,315.025v-66.05c-4.87,1.39-8.22,4.13-12.15,7.35
				c-6.36,5.21-14.28,11.7-29.16,11.7c-14.89,0-22.81-6.49-29.17-11.7c-5.66-4.64-10.13-8.3-19.66-8.3c-9.52,0-13.99,3.66-19.66,8.3
				c-5.19,4.26-11.43,9.37-21.66,11.1v47.6H267.48z"/>
			<path d="M115.16,131.515c3.01,2.85,3.14,7.6,0.29,10.6c-1.48,1.56-3.46,2.34-5.45,2.34c-1.85,0-3.7-0.68-5.15-2.05l-38-36
				c-3.01-2.85-3.14-7.6-0.29-10.6c2.85-3.01,7.6-3.14,10.6-0.29L115.16,131.515z"/>
			<path d="M115.5,81.955c0,4.15-3.35,7.5-7.5,7.5c-4.14,0-7.5-3.35-7.5-7.5c0-11.3-9.19-20.5-20.5-20.5
				c-7.77,0-14.78,4.32-18.3,11.27c-1.64,3.26-5.4,4.86-8.89,3.79c-2.51-0.77-5.13-1.16-7.78-1.16c-14.61,0-26.5,11.88-26.5,26.5
				c0,4.59,1.2,9.11,3.47,13.09c1.64,2.88,1.2,6.49-1.09,8.89c-3.65,3.83-5.66,8.86-5.66,14.14c0,11.3,9.2,20.5,20.5,20.5
				c4.14,0,7.5,3.36,7.5,7.5s-3.36,7.5-7.5,7.5c-19.58,0-35.5-15.93-35.5-35.5c0-7.35,2.24-14.41,6.41-20.34
				c-2.06-4.99-3.13-10.36-3.13-15.78c0-22.89,18.62-41.5,41.5-41.5c2.16,0,4.31,0.16,6.43,0.49c6.62-8.99,17.11-14.39,28.54-14.39
				C99.58,46.455,115.5,62.385,115.5,81.955z"/>
			<path d="M105.24,152.765c3.42,2.34,4.29,7.01,1.95,10.43c-1.45,2.12-3.8,3.27-6.19,3.27c-1.46,0-2.94-0.43-4.23-1.32l-38-26
				c-3.42-2.33-4.29-7-1.96-10.42c2.34-3.42,7.01-4.29,10.43-1.96L105.24,152.765z"/>
		</g>
		<g>
		</g>
	</g>
</g>
<g>
</g>
<g>
</g>
<g>
</g>
<g>
</g>
<g>
</g>
<g>
</g>
<g>
</g>
<g>
</g>
<g>
</g>
<g>
</g>
<g>
</g>
<g>
</g>
<g>
</g>
<g>
</g>
<g>
</g>
</svg>
