<?xml version="1.0" encoding="iso-8859-1"?>
<!-- Generator: Adobe Illustrator 19.1.0, SVG Export Plug-In . SVG Version: 6.00 Build 0)  -->
<svg version="1.1" id="Capa_1" xmlns="http://www.w3.org/2000/svg" xmlns:xlink="http://www.w3.org/1999/xlink" x="0px" y="0px"
	 viewBox="0 0 462.5 462.5" style="enable-background:new 0 0 462.5 462.5;" xml:space="preserve">
<g>
	<g id="XMLID_37_">
		<g>
			<path style="fill:#E55A42;" d="M115.09,40.384v94.39H74.17c-1.91,0-3.47-1.56-3.47-3.47v-27.81c0-23.31,12.58-44.96,32.82-56.51
				L115.09,40.384z M96.09,122.064v-32c0-4.15-3.36-7.5-7.5-7.5c-4.14,0-7.5,3.35-7.5,7.5v32c0,4.14,3.36,7.5,7.5,7.5
				C92.73,129.564,96.09,126.204,96.09,122.064z"/>
			<path style="fill:#4785DD;" d="M441.75,149.774c3.03,0,5.5,2.47,5.5,5.5s-2.47,5.5-5.5,5.5h-421c-3.03,0-5.5-2.47-5.5-5.5
				s2.47-5.5,5.5-5.5H441.75z"/>
			<path d="M441.75,134.774c11.3,0,20.5,9.2,20.5,20.5s-9.2,20.5-20.5,20.5h-47.81l-150.91,124.5l152.99,126.22
				c3.19,2.63,3.65,7.36,1.01,10.55c-1.48,1.8-3.63,2.73-5.79,2.73c-1.68,0-3.37-0.56-4.77-1.71l-155.22-128.07L76.02,438.064
				c-1.4,1.15-3.09,1.71-4.77,1.71c-2.16,0-4.31-0.93-5.79-2.73c-2.63-3.19-2.18-7.92,1.01-10.55l152.99-126.22l-150.91-124.5h-47.8
				c-11.31,0-20.5-9.2-20.5-20.5s9.19-20.5,20.5-20.5h35.29c-0.22-1.12-0.34-2.28-0.34-3.47v-27.81c0-28.68,15.48-55.33,40.39-69.54
				l17.08-9.75c3.49-1.99,7.82-1.97,11.29,0.05s5.63,5.76,5.63,9.78v100.74H441.75z M447.25,155.274c0-3.03-2.47-5.5-5.5-5.5h-421
				c-3.03,0-5.5,2.47-5.5,5.5s2.47,5.5,5.5,5.5h421C444.78,160.774,447.25,158.304,447.25,155.274z M231.25,290.554l139.12-114.78
				H92.12L231.25,290.554z M115.09,134.774v-94.39l-11.57,6.6c-20.24,11.55-32.82,33.2-32.82,56.51v27.81
				c0,1.91,1.56,3.47,3.47,3.47H115.09z"/>
			<path d="M96.09,90.064v32c0,4.14-3.36,7.5-7.5,7.5c-4.14,0-7.5-3.36-7.5-7.5v-32c0-4.15,3.36-7.5,7.5-7.5
				C92.73,82.564,96.09,85.914,96.09,90.064z"/>
		</g>
		<g>
		</g>
	</g>
</g>
<g>
</g>
<g>
</g>
<g>
</g>
<g>
</g>
<g>
</g>
<g>
</g>
<g>
</g>
<g>
</g>
<g>
</g>
<g>
</g>
<g>
</g>
<g>
</g>
<g>
</g>
<g>
</g>
<g>
</g>
</svg>
