<?xml version="1.0" encoding="iso-8859-1"?>
<!-- Generator: Adobe Illustrator 19.1.0, SVG Export Plug-In . SVG Version: 6.00 Build 0)  -->
<svg version="1.1" id="Capa_1" xmlns="http://www.w3.org/2000/svg" xmlns:xlink="http://www.w3.org/1999/xlink" x="0px" y="0px"
	 viewBox="0 0 432.51 432.51" style="enable-background:new 0 0 432.51 432.51;" xml:space="preserve">
<g>
	<g id="XMLID_13_">
		<g>
			<path style="fill:#E55A42;" d="M100.69,222.66l-28.46,28.46c-3.62-7.93-2.19-17.61,4.33-24.13c4.19-4.19,9.69-6.28,15.2-6.28
				C94.81,220.71,97.86,221.37,100.69,222.66z"/>
			<path style="fill:#E55A42;" d="M111.29,233.27c3.61,7.93,2.19,17.61-4.33,24.13c-6.51,6.51-16.2,7.94-24.13,4.33L111.29,233.27z"
				/>
			<path style="fill:#E55A42;" d="M178.26,222.07v40.25c-8.16-3.05-14-10.91-14-20.12C164.26,232.98,170.1,225.12,178.26,222.07z"/>
			<path style="fill:#E55A42;" d="M193.26,222.07c8.16,3.05,14,10.91,14,20.13c0,9.21-5.84,17.07-14,20.12V222.07z"/>
			<path style="fill:#4785DD;" d="M354.38,141.29v25.07c-7.77-8.92-16.09-17.29-24.89-25.07H354.38z"/>
			<rect x="65.43" y="304.32" style="fill:#E2C744;" width="329.4" height="11"/>
			<rect x="41.43" y="330.32" style="fill:#E2C744;" width="375.83" height="14.38"/>
			<path d="M432.26,322.82v29.38c0,4.14-3.36,7.5-7.5,7.5H33.93c-4.14,0-7.5-3.36-7.5-7.5v-29.38c0-4.14,3.36-7.5,7.5-7.5h16.5
				v-11.17c-1.96-0.4-3.71-1.56-4.82-3.29L1.54,231.85c-0.83-1.23-1.29-2.68-1.29-4.19V109.21c0-20.07,16.34-36.4,36.41-36.4h112.46
				c59.13,0,115.7,19.35,161.84,53.48h50.92c4.14,0,7.5,3.35,7.5,7.5v51.43c5.75,7.93,11.11,16.2,16.02,24.81l35.53,62.27
				c3.82,6.7,3.79,14.68-0.08,21.35c-2.56,4.41-6.45,7.64-11.02,9.33v12.34h14.93C428.9,315.32,432.26,318.68,432.26,322.82z
				 M417.26,344.7v-14.38H41.43v14.38H417.26z M407.88,286.12c0.55-0.96,1.67-3.5,0.02-6.39l-35.53-62.27
				C326.75,137.49,241.2,87.81,149.12,87.81H36.66c-11.8,0-21.41,9.6-21.41,21.4v116.25l40.79,63.86h346.28
				C405.66,289.32,407.32,287.08,407.88,286.12z M394.83,315.32v-11H65.43v11H394.83z M354.38,166.36v-25.07h-24.89
				C338.29,149.07,346.61,157.44,354.38,166.36z"/>
			<path d="M252.53,158.23c4,7.01,3.96,15.35-0.09,22.33c-4.05,6.97-11.28,11.14-19.35,11.14H62.76c-4.14,0-7.5-3.36-7.5-7.5v-48.9
				c0-4.14,3.36-7.5,7.5-7.5h137.38C221.75,127.8,241.82,139.46,252.53,158.23z M239.47,173.02c0.64-1.1,1.93-4.03,0.03-7.36
				c-8.04-14.1-23.12-22.86-39.36-22.86H70.26v33.9h162.83C236.93,176.7,238.83,174.13,239.47,173.02z"/>
			<path d="M185.76,205.7c20.12,0,36.5,16.37,36.5,36.5c0,20.12-16.38,36.5-36.5,36.5c-20.13,0-36.5-16.38-36.5-36.5
				C149.26,222.07,165.63,205.7,185.76,205.7z M207.26,242.2c0-9.22-5.84-17.08-14-20.13v40.25
				C201.42,259.27,207.26,251.41,207.26,242.2z M178.26,262.32v-40.25c-8.16,3.05-14,10.91-14,20.13
				C164.26,251.41,170.1,259.27,178.26,262.32z"/>
			<path d="M117.57,216.39c14.23,14.23,14.23,37.38,0,51.61c-7.12,7.12-16.46,10.68-25.81,10.68S73.07,275.12,65.95,268
				c-14.23-14.23-14.23-37.38,0-51.61C80.18,202.15,103.34,202.15,117.57,216.39z M106.96,257.4c6.52-6.52,7.94-16.2,4.33-24.13
				l-28.46,28.46C90.76,265.34,100.45,263.91,106.96,257.4z M72.23,251.12l28.46-28.46c-2.83-1.29-5.88-1.95-8.93-1.95
				c-5.51,0-11.01,2.09-15.2,6.28C70.04,233.51,68.61,243.19,72.23,251.12z"/>
		</g>
		<g>
		</g>
	</g>
</g>
<g>
</g>
<g>
</g>
<g>
</g>
<g>
</g>
<g>
</g>
<g>
</g>
<g>
</g>
<g>
</g>
<g>
</g>
<g>
</g>
<g>
</g>
<g>
</g>
<g>
</g>
<g>
</g>
<g>
</g>
</svg>
