<?xml version="1.0" encoding="iso-8859-1"?>
<!-- Generator: Adobe Illustrator 19.1.0, SVG Export Plug-In . SVG Version: 6.00 Build 0)  -->
<svg version="1.1" id="Capa_1" xmlns="http://www.w3.org/2000/svg" xmlns:xlink="http://www.w3.org/1999/xlink" x="0px" y="0px"
	 viewBox="0 0 471.48 471.48" style="enable-background:new 0 0 471.48 471.48;" xml:space="preserve">
<g id="XMLID_37_">
	<g>
		<path style="fill:#E55A42;" d="M265.703,456.23h-59.93c2.77-5.59,8.54-9.44,15.19-9.44h29.56
			C257.173,446.79,262.933,450.64,265.703,456.23z"/>
		<polygon style="fill:#4785DD;" points="186.213,15.25 173.823,132.27 157.583,132.27 177.133,15.25 		"/>
		<polygon style="fill:#4785DD;" points="213.833,15.25 209.583,132.27 188.903,132.27 201.293,15.25 		"/>
		<polygon style="fill:#4785DD;" points="242.633,15.25 246.883,132.27 224.593,132.27 228.843,15.25 		"/>
		<polygon style="fill:#4785DD;" points="270.183,15.25 282.573,132.27 261.893,132.27 257.643,15.25 		"/>
		<polygon style="fill:#4785DD;" points="294.343,15.25 313.893,132.27 297.663,132.27 285.263,15.25 		"/>
		<path d="M330.143,138.53c0.37,2.18-0.25,4.4-1.67,6.08c-1.43,1.69-3.52,2.66-5.72,2.66h-46.24v45.47c0,4.15-3.36,7.5-7.5,7.5
			c-4.14,0-7.5-3.35-7.5-7.5v-45.47h-18.27v284.52h7.28c17.61,0,31.94,14.33,31.94,31.94c0,4.14-3.36,7.5-7.5,7.5h-78.44
			c-4.14,0-7.5-3.36-7.5-7.5c0-17.61,14.32-31.94,31.94-31.94h7.28V147.27h-79.51c-2.21,0-4.3-0.97-5.73-2.66
			c-1.42-1.68-2.03-3.9-1.67-6.08l22.05-132.01c0.6-3.62,3.73-6.27,7.4-6.27h129.92c3.66,0,6.79,2.65,7.39,6.27L330.143,138.53z
			 M313.893,132.27l-19.55-117.02h-9.08l12.4,117.02H313.893z M282.573,132.27l-12.39-117.02h-12.54l4.25,117.02H282.573z
			 M205.773,456.23h59.93c-2.77-5.59-8.53-9.44-15.18-9.44h-29.56C214.313,446.79,208.543,450.64,205.773,456.23z M246.883,132.27
			l-4.25-117.02h-13.79l-4.25,117.02H246.883z M209.583,132.27l4.25-117.02h-12.54l-12.39,117.02H209.583z M173.823,132.27
			l12.39-117.02h-9.08l-19.55,117.02H173.823z"/>
	</g>
	<g>
	</g>
</g>
<g>
</g>
<g>
</g>
<g>
</g>
<g>
</g>
<g>
</g>
<g>
</g>
<g>
</g>
<g>
</g>
<g>
</g>
<g>
</g>
<g>
</g>
<g>
</g>
<g>
</g>
<g>
</g>
<g>
</g>
</svg>
