<?xml version="1.0" encoding="iso-8859-1"?>
<!-- Generator: Adobe Illustrator 19.1.0, SVG Export Plug-In . SVG Version: 6.00 Build 0)  -->
<svg version="1.1" id="Capa_1" xmlns="http://www.w3.org/2000/svg" xmlns:xlink="http://www.w3.org/1999/xlink" x="0px" y="0px"
	 viewBox="0 0 452.04 452.04" style="enable-background:new 0 0 452.04 452.04;" xml:space="preserve">
<g>
	<g id="XMLID_23_">
		<g>
			<rect x="172.38" y="396.29" style="fill:#4785DD;" width="107.28" height="12.75"/>
			<rect x="154.49" y="424.04" style="fill:#4785DD;" width="143.05" height="12.75"/>
			<path style="fill:#E2C744;" d="M313.76,37.27l47.93,129.58H90.35l47.92-129.58H313.76z M343.7,161.44
				c3.88-1.43,5.87-5.75,4.43-9.63l-3.65-9.87c-1.44-3.89-5.75-5.88-9.64-4.44c-3.88,1.44-5.87,5.75-4.43,9.64l3.65,9.87
				c1.12,3.03,3.99,4.9,7.04,4.9C341.96,161.91,342.84,161.76,343.7,161.44z M332.62,131.49c3.88-1.44,5.87-5.75,4.43-9.64
				L311.1,51.69c-1.43-3.89-5.75-5.87-9.63-4.43c-3.89,1.43-5.87,5.75-4.44,9.63l25.95,70.17c1.12,3.03,3.99,4.9,7.04,4.9
				C330.88,131.96,331.76,131.81,332.62,131.49z"/>
			<polygon style="fill:#E55A42;" points="367.23,181.85 370.32,190.19 81.71,190.19 84.8,181.85 			"/>
			<polygon style="fill:#E55A42;" points="305.62,15.25 308.22,22.27 143.82,22.27 146.41,15.25 			"/>
			<path d="M388.13,195.09c0.85,2.3,0.52,4.87-0.88,6.89c-1.41,2.01-3.71,3.21-6.16,3.21h-95.08v81.01c0,4.15-3.35,7.5-7.5,7.5
				c-4.14,0-7.5-3.35-7.5-7.5v-81.01h-11.1l-10.14,176.1h37.39c4.14,0,7.5,3.36,7.5,7.5v20.25h10.38c4.15,0,7.5,3.36,7.5,7.5v27.75
				c0,4.14-3.35,7.5-7.5,7.5H146.99c-4.14,0-7.5-3.36-7.5-7.5v-27.75c0-4.14,3.36-7.5,7.5-7.5h10.39v-20.25c0-4.14,3.36-7.5,7.5-7.5
				h37.38l-10.14-176.1H70.94c-2.45,0-4.75-1.2-6.15-3.21c-1.4-2.02-1.73-4.59-0.88-6.89L134.16,5.15c1.08-2.94,3.89-4.9,7.03-4.9
				h169.65c3.14,0,5.95,1.96,7.04,4.9L388.13,195.09z M370.32,190.19l-3.09-8.34H84.8l-3.09,8.34H370.32z M361.69,166.85
				L313.76,37.27H138.27L90.35,166.85H361.69z M308.22,22.27l-2.6-7.02H146.41l-2.59,7.02H308.22z M297.54,436.79v-12.75H154.49
				v12.75H297.54z M279.66,409.04v-12.75H172.38v12.75H279.66z M234.75,381.29l10.14-176.1h-37.74l10.13,176.1H234.75z"/>
			<path d="M348.13,151.81c1.44,3.88-0.55,8.2-4.43,9.63c-0.86,0.32-1.74,0.47-2.6,0.47c-3.05,0-5.92-1.87-7.04-4.9l-3.65-9.87
				c-1.44-3.89,0.55-8.2,4.43-9.64c3.89-1.44,8.2,0.55,9.64,4.44L348.13,151.81z"/>
			<path d="M337.05,121.85c1.44,3.89-0.55,8.2-4.43,9.64c-0.86,0.32-1.74,0.47-2.6,0.47c-3.05,0-5.92-1.87-7.04-4.9l-25.95-70.17
				c-1.43-3.88,0.55-8.2,4.44-9.63c3.88-1.44,8.2,0.54,9.63,4.43L337.05,121.85z"/>
		</g>
		<g>
		</g>
	</g>
</g>
<g>
</g>
<g>
</g>
<g>
</g>
<g>
</g>
<g>
</g>
<g>
</g>
<g>
</g>
<g>
</g>
<g>
</g>
<g>
</g>
<g>
</g>
<g>
</g>
<g>
</g>
<g>
</g>
<g>
</g>
</svg>
