<?xml version="1.0" encoding="iso-8859-1"?>
<!-- Generator: Adobe Illustrator 19.1.0, SVG Export Plug-In . SVG Version: 6.00 Build 0)  -->
<svg version="1.1" id="Capa_1" xmlns="http://www.w3.org/2000/svg" xmlns:xlink="http://www.w3.org/1999/xlink" x="0px" y="0px"
	 viewBox="0 0 446.77 446.77" style="enable-background:new 0 0 446.77 446.77;" xml:space="preserve">
<g>
	<g id="XMLID_13_">
		<g>
			<rect x="220.386" y="15.25" style="fill:#E55A42;" width="45" height="16.27"/>
			<rect x="179.386" y="214.52" style="fill:#4785DD;" width="15" height="51"/>
			<rect x="179.386" y="280.52" style="fill:#4785DD;" width="15" height="67"/>
			<path style="fill:#E2C744;" d="M342.386,80.52v299h-199v-299H342.386z M328.996,356.3V146.31c0-4.14-3.36-7.5-7.5-7.5
				c-4.14,0-7.5,3.36-7.5,7.5V356.3c0,4.14,3.36,7.5,7.5,7.5C325.636,363.8,328.996,360.44,328.996,356.3z M328.996,117.81v-19.5
				c0-4.14-3.36-7.5-7.5-7.5c-4.14,0-7.5,3.36-7.5,7.5v19.5c0,4.14,3.36,7.5,7.5,7.5C325.636,125.31,328.996,121.95,328.996,117.81z
				 M209.386,355.02v-250c0-4.15-3.36-7.5-7.5-7.5h-30c-4.15,0-7.5,3.35-7.5,7.5v250c0,4.14,3.35,7.5,7.5,7.5h30
				C206.026,362.52,209.386,359.16,209.386,355.02z"/>
			<path d="M401.646,69.77c1.25,2.61,0.89,5.69-0.92,7.94l-43.34,53.94v254.23l15.81,50.91c0.7,2.28,0.29,4.75-1.13,6.67
				c-1.41,1.92-3.65,3.06-6.03,3.06h-246.3c-2.39,0-4.63-1.14-6.04-3.06c-1.41-1.92-1.83-4.39-1.12-6.67l15.81-50.91v-37.76
				l-69.49-69.48c-9.36-9.36-14.51-21.81-14.51-35.04V112.85c0-27.33,22.23-49.56,49.56-49.56h35.16
				c3.52-18.08,19.46-31.77,38.55-31.77h37.73V7.75c0-4.15,3.35-7.5,7.5-7.5h60c4.14,0,7.5,3.35,7.5,7.5v23.77h37.72
				c19.87,0,36.33,14.83,38.91,34h37.87C397.766,65.52,400.396,67.17,401.646,69.77z M357.386,107.71l21.85-27.19h-21.85V107.71z
				 M355.846,431.52l-11.49-37h-202.95l-11.49,37H355.846z M342.386,379.52v-299h-199v299H342.386z M143.956,65.52h197.85
				c-2.41-10.86-12.12-19-23.7-19h-150.45C156.086,46.52,146.376,54.66,143.956,65.52z M265.386,31.52V15.25h-45v16.27H265.386z
				 M128.386,326.91V295.8l-43.33-43.32c-2.34-2.37-3.67-5.6-3.67-8.88V112.85c0-6.93,5.63-12.56,12.56-12.56h34.44v-22h-34.44
				c-19.06,0-34.56,15.5-34.56,34.56V243.6c0,9.23,3.59,17.9,10.12,24.43L128.386,326.91z M128.386,274.59v-159.3h-32v127.3
				L128.386,274.59z"/>
			<path d="M328.996,146.31V356.3c0,4.14-3.36,7.5-7.5,7.5c-4.14,0-7.5-3.36-7.5-7.5V146.31c0-4.14,3.36-7.5,7.5-7.5
				C325.636,138.81,328.996,142.17,328.996,146.31z"/>
			<path d="M328.996,98.31v19.5c0,4.14-3.36,7.5-7.5,7.5c-4.14,0-7.5-3.36-7.5-7.5v-19.5c0-4.14,3.36-7.5,7.5-7.5
				C325.636,90.81,328.996,94.17,328.996,98.31z"/>
			<path d="M209.386,105.02v250c0,4.14-3.36,7.5-7.5,7.5h-30c-4.15,0-7.5-3.36-7.5-7.5v-250c0-4.15,3.35-7.5,7.5-7.5h30
				C206.026,97.52,209.386,100.87,209.386,105.02z M194.386,347.52v-67h-15v67H194.386z M194.386,265.52v-51h-15v51H194.386z
				 M194.386,199.52v-43h-15v43H194.386z M194.386,141.52v-29h-15v29H194.386z"/>
		</g>
		<g>
		</g>
	</g>
</g>
<g>
</g>
<g>
</g>
<g>
</g>
<g>
</g>
<g>
</g>
<g>
</g>
<g>
</g>
<g>
</g>
<g>
</g>
<g>
</g>
<g>
</g>
<g>
</g>
<g>
</g>
<g>
</g>
<g>
</g>
</svg>
