<?xml version="1.0" encoding="iso-8859-1"?>
<!-- Generator: Adobe Illustrator 19.1.0, SVG Export Plug-In . SVG Version: 6.00 Build 0)  -->
<svg version="1.1" id="Capa_1" xmlns="http://www.w3.org/2000/svg" xmlns:xlink="http://www.w3.org/1999/xlink" x="0px" y="0px"
	 viewBox="0 0 417.96 417.96" style="enable-background:new 0 0 417.96 417.96;" xml:space="preserve">
<g>
	<g id="XMLID_13_">
		<g>
			<path style="fill:#E2C744;" d="M320.19,374.875v19.72H21.61v-19.72c0-4.87,3.97-8.83,8.84-8.83h280.91
				C316.23,366.045,320.19,370.005,320.19,374.875z"/>
			<path style="fill:#E2C744;" d="M177.02,299.585c5.4,0,9.8,4.4,9.8,9.8c0,5.4-4.4,9.8-9.8,9.8c-5.4,0-9.8-4.4-9.8-9.8
				C167.22,303.985,171.62,299.585,177.02,299.585z"/>
			<path style="fill:#E2C744;" d="M104.62,274.915c12.2,0,22.13,9.93,22.13,22.14c0,12.2-9.93,22.13-22.13,22.13
				s-22.13-9.93-22.13-22.13C82.49,284.845,92.42,274.915,104.62,274.915z"/>
			<path style="fill:#4785DD;" d="M402.71,218.525v90.84h-19.28v-1.64c0-0.04,0.01-0.08,0.01-0.12v-87.33
				c0-0.04-0.01-0.08-0.01-0.12v-1.63H402.71z"/>
			<path style="fill:#4785DD;" d="M368.43,227.775v72.33h-58.86v-71.78c0-0.19,0-0.37,0-0.55H368.43z"/>
			<rect x="62.29" y="66.225" style="fill:#E55A42;" width="37.69" height="50.69"/>
			<path style="fill:#E55A42;" d="M16.05,23.365h161.26c-18.23,17.66-42.92,27.86-68.63,27.86H50.61
				C33.68,51.225,19.49,39.275,16.05,23.365z"/>
			<path d="M417.71,211.025v105.84c0,4.14-3.36,7.5-7.5,7.5h-34.28c-4.14,0-7.5-3.36-7.5-7.5v-1.76h-58.86v35.94h1.79
				c13.14,0,23.83,10.69,23.83,23.83v27.22c0,4.14-3.35,7.5-7.5,7.5H14.11c-4.14,0-7.5-3.36-7.5-7.5v-27.22
				c0-13.14,10.7-23.83,23.84-23.83h1.78v-213.82c0-9.38,6.4-17.27,15.06-19.6v-51.52c-26.23-1.72-47.04-23.59-47.04-50.24
				c0-4.15,3.35-7.5,7.5-7.5h186.08c2.83,0,5.43,1.59,6.7,4.12s1.01,5.57-0.67,7.84c-20.06,27.05-51.43,43.84-84.88,45.72v50.87
				h83.18c56.16,0,102.74,41.76,110.32,95.86h59.95v-1.75c0-4.15,3.36-7.5,7.5-7.5h34.28
				C414.35,203.525,417.71,206.875,417.71,211.025z M402.71,309.365v-90.84h-19.28v1.63c0,0.04,0.01,0.08,0.01,0.12v87.33
				c0,0.04-0.01,0.08-0.01,0.12v1.64H402.71z M368.43,300.105v-72.33h-58.86c0,0.18,0,0.36,0,0.55v71.78H368.43z M320.19,394.595
				v-19.72c0-4.87-3.96-8.83-8.83-8.83H30.45c-4.87,0-8.84,3.96-8.84,8.83v19.72H320.19z M294.57,351.045v-122.72
				c0-53.16-43.25-96.41-96.41-96.41H54.79h-2.24c-2.93,0-5.32,2.38-5.32,5.31v213.82H294.57z M177.31,23.365H16.05
				c3.44,15.91,17.63,27.86,34.56,27.86h58.07C134.39,51.225,159.08,41.025,177.31,23.365z M99.98,116.915v-50.69H62.29v50.69H99.98
				z"/>
			<path d="M177.02,284.585c13.67,0,24.8,11.13,24.8,24.8c0,13.67-11.13,24.8-24.8,24.8s-24.8-11.13-24.8-24.8
				C152.22,295.715,163.35,284.585,177.02,284.585z M186.82,309.385c0-5.4-4.4-9.8-9.8-9.8c-5.4,0-9.8,4.4-9.8,9.8
				c0,5.4,4.4,9.8,9.8,9.8C182.42,319.185,186.82,314.785,186.82,309.385z"/>
			<path d="M104.62,259.915c20.48,0,37.13,16.66,37.13,37.14c0,20.47-16.65,37.13-37.13,37.13c-20.47,0-37.13-16.66-37.13-37.13
				C67.49,276.575,84.15,259.915,104.62,259.915z M126.75,297.055c0-12.21-9.93-22.14-22.13-22.14s-22.13,9.93-22.13,22.14
				c0,12.2,9.93,22.13,22.13,22.13S126.75,309.255,126.75,297.055z"/>
			<path d="M120.34,152.615c4.14,0,7.5,3.36,7.5,7.5c0,4.15-3.36,7.5-7.5,7.5H71.59c-4.15,0-7.5-3.35-7.5-7.5
				c0-4.14,3.35-7.5,7.5-7.5H120.34z"/>
			<path d="M120.34,179.515c4.14,0,7.5,3.36,7.5,7.5s-3.36,7.5-7.5,7.5H71.59c-4.15,0-7.5-3.36-7.5-7.5s3.35-7.5,7.5-7.5H120.34z"/>
			<path d="M120.34,206.415c4.14,0,7.5,3.36,7.5,7.5s-3.36,7.5-7.5,7.5H71.59c-4.15,0-7.5-3.36-7.5-7.5s3.35-7.5,7.5-7.5H120.34z"/>
		</g>
		<g>
		</g>
	</g>
</g>
<g>
</g>
<g>
</g>
<g>
</g>
<g>
</g>
<g>
</g>
<g>
</g>
<g>
</g>
<g>
</g>
<g>
</g>
<g>
</g>
<g>
</g>
<g>
</g>
<g>
</g>
<g>
</g>
<g>
</g>
</svg>
