<?xml version="1.0" encoding="iso-8859-1"?>
<!-- Generator: Adobe Illustrator 19.1.0, SVG Export Plug-In . SVG Version: 6.00 Build 0)  -->
<svg version="1.1" id="Capa_1" xmlns="http://www.w3.org/2000/svg" xmlns:xlink="http://www.w3.org/1999/xlink" x="0px" y="0px"
	 viewBox="0 0 433.5 433.5" style="enable-background:new 0 0 433.5 433.5;" xml:space="preserve">
<g>
	<g id="XMLID_1_">
		<g>
			<path style="fill:#E55A42;" d="M379.53,105.54c7.51,0,13.63,6.12,13.63,13.64s-6.12,13.63-13.63,13.63
				c-7.52,0-13.64-6.11-13.64-13.63S372.01,105.54,379.53,105.54z"/>
			<path style="fill:#E55A42;" d="M379.53,171.32c7.51,0,13.63,6.12,13.63,13.64c0,7.52-6.12,13.63-13.63,13.63
				c-7.52,0-13.64-6.11-13.64-13.63C365.89,177.44,372.01,171.32,379.53,171.32z"/>
			<path style="fill:#4785DD;" d="M274.08,137.97v135c0,1.17-0.95,2.12-2.12,2.12H69.09c-1.17,0-2.12-0.95-2.12-2.12v-135
				c0-1.17,0.95-2.13,2.12-2.13h202.87C273.13,135.84,274.08,136.8,274.08,137.97z M263.25,170.77c0-4.15-3.36-7.5-7.5-7.5H85.3
				c-4.14,0-7.5,3.35-7.5,7.5c0,4.14,3.36,7.5,7.5,7.5h170.45C259.89,178.27,263.25,174.91,263.25,170.77z M263.25,205.47
				c0-4.14-3.36-7.5-7.5-7.5H85.3c-4.14,0-7.5,3.36-7.5,7.5s3.36,7.5,7.5,7.5h170.45C259.89,212.97,263.25,209.61,263.25,205.47z
				 M263.25,240.17c0-4.14-3.36-7.5-7.5-7.5H85.3c-4.14,0-7.5,3.36-7.5,7.5s3.36,7.5,7.5,7.5h170.45
				C259.89,247.67,263.25,244.31,263.25,240.17z"/>
			<path d="M433.25,74.47v262c0,4.14-3.36,7.5-7.5,7.5h-21.5v15.06c0,4.15-3.36,7.5-7.5,7.5h-49c-4.15,0-7.5-3.35-7.5-7.5v-15.06
				h-247v15.06c0,4.15-3.36,7.5-7.5,7.5h-49c-4.15,0-7.5-3.35-7.5-7.5v-15.06H7.75c-4.15,0-7.5-3.36-7.5-7.5v-262
				c0-4.14,3.35-7.5,7.5-7.5h418C429.89,66.97,433.25,70.33,433.25,74.47z M418.25,328.97v-49.16H340.8v49.16H418.25z
				 M418.25,264.81V81.97H340.8v182.84H418.25z M389.25,351.53v-7.56h-34v7.56H389.25z M325.8,328.97v-247H15.25v247H325.8z
				 M78.25,351.53v-7.56h-34v7.56H78.25z"/>
			<path d="M379.53,90.54c15.79,0,28.63,12.85,28.63,28.64s-12.84,28.63-28.63,28.63s-28.64-12.84-28.64-28.63
				S363.74,90.54,379.53,90.54z M393.16,119.18c0-7.52-6.12-13.64-13.63-13.64c-7.52,0-13.64,6.12-13.64,13.64
				s6.12,13.63,13.64,13.63C387.04,132.81,393.16,126.7,393.16,119.18z"/>
			<path d="M379.53,156.32c15.79,0,28.63,12.85,28.63,28.64s-12.84,28.63-28.63,28.63s-28.64-12.84-28.64-28.63
				S363.74,156.32,379.53,156.32z M393.16,184.96c0-7.52-6.12-13.64-13.63-13.64c-7.52,0-13.64,6.12-13.64,13.64
				c0,7.52,6.12,13.63,13.64,13.63C387.04,198.59,393.16,192.48,393.16,184.96z"/>
			<path d="M311.08,130.76v149.41c0,17.6-14.32,31.92-31.92,31.92H61.89c-17.6,0-31.92-14.32-31.92-31.92V130.76
				c0-17.6,14.32-31.92,31.92-31.92h217.27C296.76,98.84,311.08,113.16,311.08,130.76z M296.08,280.17V130.76
				c0-9.33-7.59-16.92-16.92-16.92H61.89c-9.33,0-16.92,7.59-16.92,16.92v149.41c0,9.33,7.59,16.92,16.92,16.92h217.27
				C288.49,297.09,296.08,289.5,296.08,280.17z"/>
			<path d="M289.08,137.97v135c0,9.44-7.68,17.12-17.12,17.12H69.09c-9.44,0-17.12-7.68-17.12-17.12v-135
				c0-9.44,7.68-17.13,17.12-17.13h202.87C281.4,120.84,289.08,128.53,289.08,137.97z M274.08,272.97v-135
				c0-1.17-0.95-2.13-2.12-2.13H69.09c-1.17,0-2.12,0.96-2.12,2.13v135c0,1.17,0.95,2.12,2.12,2.12h202.87
				C273.13,275.09,274.08,274.14,274.08,272.97z"/>
			<path d="M255.75,163.27c4.14,0,7.5,3.35,7.5,7.5c0,4.14-3.36,7.5-7.5,7.5H85.3c-4.14,0-7.5-3.36-7.5-7.5c0-4.15,3.36-7.5,7.5-7.5
				H255.75z"/>
			<path d="M255.75,197.97c4.14,0,7.5,3.36,7.5,7.5s-3.36,7.5-7.5,7.5H85.3c-4.14,0-7.5-3.36-7.5-7.5s3.36-7.5,7.5-7.5H255.75z"/>
			<path d="M255.75,232.67c4.14,0,7.5,3.36,7.5,7.5s-3.36,7.5-7.5,7.5H85.3c-4.14,0-7.5-3.36-7.5-7.5s3.36-7.5,7.5-7.5H255.75z"/>
		</g>
		<g>
		</g>
	</g>
</g>
<g>
</g>
<g>
</g>
<g>
</g>
<g>
</g>
<g>
</g>
<g>
</g>
<g>
</g>
<g>
</g>
<g>
</g>
<g>
</g>
<g>
</g>
<g>
</g>
<g>
</g>
<g>
</g>
<g>
</g>
</svg>
