<?xml version="1.0" encoding="iso-8859-1"?>
<!-- Generator: Adobe Illustrator 19.1.0, SVG Export Plug-In . SVG Version: 6.00 Build 0)  -->
<svg version="1.1" id="Capa_1" xmlns="http://www.w3.org/2000/svg" xmlns:xlink="http://www.w3.org/1999/xlink" x="0px" y="0px"
	 viewBox="0 0 441.5 441.5" style="enable-background:new 0 0 441.5 441.5;" xml:space="preserve">
<g>
	<g id="XMLID_34_">
		<g>
			<path style="fill:#E2C744;" d="M220.755,15.25c79.75,0,144.64,92.19,144.64,205.5s-64.89,205.5-144.64,205.5
				c-79.76,0-144.65-92.19-144.65-205.5S140.995,15.25,220.755,15.25z M342.665,220.75c0-50.65-13.83-97.89-38.93-133.04
				c-22.91-32.07-52.38-49.73-82.98-49.73c-30.61,0-60.08,17.66-82.98,49.73c-25.11,35.15-38.93,82.39-38.93,133.04
				s13.82,97.9,38.93,133.04c22.9,32.07,52.37,49.73,82.98,49.73c30.6,0,60.07-17.66,82.98-49.73
				C328.835,318.65,342.665,271.4,342.665,220.75z"/>
			<path d="M334.435,65.78c29.64,41.49,45.96,96.53,45.96,154.97c0,58.45-16.32,113.48-45.96,154.97
				c-30.18,42.26-70.56,65.53-113.68,65.53c-43.13,0-83.5-23.27-113.69-65.53c-29.63-41.49-45.96-96.52-45.96-154.97
				c0-58.44,16.33-113.48,45.96-154.97c30.19-42.26,70.56-65.53,113.69-65.53C263.875,0.25,304.255,23.52,334.435,65.78z
				 M365.395,220.75c0-113.31-64.89-205.5-144.64-205.5c-79.76,0-144.65,92.19-144.65,205.5s64.89,205.5,144.65,205.5
				C300.505,426.25,365.395,334.06,365.395,220.75z"/>
			<path d="M303.735,87.71c25.1,35.15,38.93,82.39,38.93,133.04s-13.83,97.9-38.93,133.04c-22.91,32.07-52.38,49.73-82.98,49.73
				c-30.61,0-60.08-17.66-82.98-49.73c-25.11-35.14-38.93-82.39-38.93-133.04s13.82-97.89,38.93-133.04
				c22.9-32.07,52.37-49.73,82.98-49.73C251.355,37.98,280.825,55.64,303.735,87.71z M327.665,220.75c0-20.44-2.38-40.25-6.94-58.79
				l-152.11,204.27c16.03,14.52,33.96,22.29,52.14,22.29c25.63,0,50.76-15.43,70.77-43.45
				C314.835,312.45,327.665,268.3,327.665,220.75z M158.025,355.34l157.44-211.43c-2.58-7.58-5.54-14.88-8.89-21.85l-161.1,216.35
				c1.45,2.27,2.95,4.5,4.5,6.66C152.575,348.71,155.265,352.13,158.025,355.34z M137.315,324.25l161.43-216.78
				c-2.29-3.81-4.69-7.5-7.22-11.04c-13.13-18.39-28.47-31.35-44.71-38.09l-132.5,177.94
				C116.235,268.55,124.165,298.76,137.315,324.25z M114.005,211.58l117.42-157.7c-3.54-0.59-7.1-0.9-10.67-0.9
				c-25.63,0-50.77,15.43-70.78,43.45C128.175,126.94,115.545,167.55,114.005,211.58z"/>
			<path style="fill:#4785DD;" d="M320.725,161.96c4.56,18.54,6.94,38.35,6.94,58.79c0,47.55-12.83,91.7-36.14,124.32
				c-20.01,28.02-45.14,43.45-70.77,43.45c-18.18,0-36.11-7.77-52.14-22.29L320.725,161.96z"/>
			<path style="fill:#4785DD;" d="M298.745,107.47l-161.43,216.78c-13.15-25.49-21.08-55.7-23-87.97l132.5-177.94
				c16.24,6.74,31.58,19.7,44.71,38.09C294.055,99.97,296.455,103.66,298.745,107.47z"/>
		</g>
		<g>
		</g>
	</g>
</g>
<g>
</g>
<g>
</g>
<g>
</g>
<g>
</g>
<g>
</g>
<g>
</g>
<g>
</g>
<g>
</g>
<g>
</g>
<g>
</g>
<g>
</g>
<g>
</g>
<g>
</g>
<g>
</g>
<g>
</g>
</svg>
