<?xml version="1.0" encoding="iso-8859-1"?>
<!-- Generator: Adobe Illustrator 19.1.0, SVG Export Plug-In . SVG Version: 6.00 Build 0)  -->
<svg version="1.1" id="Capa_1" xmlns="http://www.w3.org/2000/svg" xmlns:xlink="http://www.w3.org/1999/xlink" x="0px" y="0px"
	 viewBox="0 0 452.23 452.23" style="enable-background:new 0 0 452.23 452.23;" xml:space="preserve">
<g>
	<g id="XMLID_6_">
		<g>
			<path style="fill:#E2C744;" d="M210.314,330.24v55.74c-12.29-3.31-21.36-14.55-21.36-27.87
				C188.954,344.79,198.024,333.55,210.314,330.24z"/>
			<path style="fill:#E2C744;" d="M225.314,330.24c12.29,3.31,21.37,14.55,21.37,27.87c0,13.32-9.08,24.56-21.37,27.87V330.24z"/>
			<path d="M345.614,98.72c9.36,11.7,12.84,26.8,9.55,41.42l-14.97,66.56c-4.09,18.17-18.61,31.81-37,34.77l-4.31,0.69l-3.04,29.46
				l23.62,171.84c0.29,2.14-0.36,4.31-1.78,5.95c-1.43,1.63-3.49,2.57-5.65,2.57h-188.43c-2.17,0-4.23-0.94-5.65-2.57
				c-1.43-1.64-2.08-3.81-1.78-5.95l23.62-171.84L116.834,49.5h-13.48c-4.14,0-7.5-3.35-7.5-7.5V7.75c0-4.15,3.36-7.5,7.5-7.5
				h225.81c4.14,0,7.5,3.35,7.5,7.5V42c0,4.15-3.36,7.5-7.5,7.5h-10.37l-3.25,31.49C327.324,82.98,337.994,89.19,345.614,98.72z
				 M340.534,136.85c2.29-10.15-0.13-20.64-6.63-28.76c-5.08-6.35-12.12-10.57-19.91-12.12l-13.51,130.74l0.33-0.05
				c12.3-1.98,22.01-11.11,24.74-23.26L340.534,136.85z M321.664,34.5V15.25h-210.81V34.5H321.664z M281.524,264.25l22.19-214.75
				h-171.8l22.2,214.75H281.524z M303.424,436.98l-21.68-157.73h-127.86l-21.68,157.73H303.424z"/>
			<path style="fill:#4785DD;" d="M303.714,49.5l-22.19,214.75h-127.41l-22.2-214.75H303.714z M288.444,70.78
				c0.43-4.12-2.57-7.81-6.69-8.24c-4.11-0.42-7.8,2.57-8.23,6.69l-4.34,42.04c-3.61-0.73-6.17-2.04-9.12-3.55
				c-5.32-2.74-11.36-5.83-22.91-5.83s-17.58,3.09-22.91,5.83c-4.54,2.33-8.12,4.17-16.05,4.17c-7.93,0-11.52-1.84-16.06-4.17
				c-4.26-2.19-8.98-4.61-16.62-5.48l-3.41-33.01c-0.42-4.12-4.09-7.11-8.23-6.69c-4.12,0.43-7.11,4.12-6.69,8.24l17.96,173.74
				c0.39,3.82,3.61,6.73,7.46,6.73h90.43c3.84,0,7.06-2.91,7.46-6.73L288.444,70.78z"/>
			<path d="M281.754,62.54c4.12,0.43,7.12,4.12,6.69,8.24l-17.95,173.74c-0.4,3.82-3.62,6.73-7.46,6.73h-90.43
				c-3.85,0-7.07-2.91-7.46-6.73l-17.96-173.74c-0.42-4.12,2.57-7.81,6.69-8.24c4.14-0.42,7.81,2.57,8.23,6.69l3.41,33.01
				c7.64,0.87,12.36,3.29,16.62,5.48c4.54,2.33,8.13,4.17,16.06,4.17c7.93,0,11.51-1.84,16.05-4.17c5.33-2.74,11.36-5.83,22.91-5.83
				s17.59,3.09,22.91,5.83c2.95,1.51,5.51,2.82,9.12,3.55l4.34-42.04C273.954,65.11,277.644,62.12,281.754,62.54z M256.264,236.25
				l11.37-110.02c-6.37-1.05-10.59-3.2-14.42-5.17c-4.54-2.33-8.13-4.17-16.06-4.17c-7.93,0-11.51,1.84-16.06,4.17
				c-5.32,2.73-11.35,5.83-22.9,5.83c-11.56,0-17.59-3.1-22.91-5.83c-2.69-1.38-5.05-2.58-8.17-3.34l12.25,118.53H256.264z"/>
			<path style="fill:#E55A42;" d="M267.634,126.23l-11.37,110.02h-76.9l-12.25-118.53c3.12,0.76,5.48,1.96,8.17,3.34
				c5.32,2.73,11.35,5.83,22.91,5.83c11.55,0,17.58-3.1,22.9-5.83c4.55-2.33,8.13-4.17,16.06-4.17c7.93,0,11.52,1.84,16.06,4.17
				C257.044,123.03,261.264,125.18,267.634,126.23z"/>
			<path d="M217.814,314.25c24.19,0,43.87,19.67,43.87,43.86c0,24.19-19.68,43.87-43.87,43.87s-43.86-19.68-43.86-43.87
				C173.954,333.92,193.624,314.25,217.814,314.25z M246.684,358.11c0-13.32-9.08-24.56-21.37-27.87v55.74
				C237.604,382.67,246.684,371.43,246.684,358.11z M210.314,385.98v-55.74c-12.29,3.31-21.36,14.55-21.36,27.87
				C188.954,371.43,198.024,382.67,210.314,385.98z"/>
		</g>
		<g>
		</g>
	</g>
</g>
<g>
</g>
<g>
</g>
<g>
</g>
<g>
</g>
<g>
</g>
<g>
</g>
<g>
</g>
<g>
</g>
<g>
</g>
<g>
</g>
<g>
</g>
<g>
</g>
<g>
</g>
<g>
</g>
<g>
</g>
</svg>
