<?xml version="1.0" encoding="iso-8859-1"?>
<!-- Generator: Adobe Illustrator 19.1.0, SVG Export Plug-In . SVG Version: 6.00 Build 0)  -->
<svg version="1.1" id="Capa_1" xmlns="http://www.w3.org/2000/svg" xmlns:xlink="http://www.w3.org/1999/xlink" x="0px" y="0px"
	 viewBox="0 0 443.5 443.5" style="enable-background:new 0 0 443.5 443.5;" xml:space="preserve">
<g>
	<g id="XMLID_14_">
		<g>
			<path style="fill:#4785DD;" d="M382.25,47.1v113.3c0,17.56-14.29,31.85-31.85,31.85H107.04c-25.25,0-45.79-20.54-45.79-45.79
				c0-72.35,58.86-131.21,131.21-131.21H350.4C367.96,15.25,382.25,29.54,382.25,47.1z M344.44,76.85c0-4.14-3.36-7.5-7.5-7.5
				h-48.75c-4.15,0-7.5,3.36-7.5,7.5c0,4.15,3.35,7.5,7.5,7.5h48.75C341.08,84.35,344.44,81,344.44,76.85z M344.44,103.75
				c0-4.14-3.36-7.5-7.5-7.5h-48.75c-4.15,0-7.5,3.36-7.5,7.5s3.35,7.5,7.5,7.5h48.75C341.08,111.25,344.44,107.89,344.44,103.75z
				 M344.44,130.65c0-4.14-3.36-7.5-7.5-7.5h-48.75c-4.15,0-7.5,3.36-7.5,7.5c0,4.14,3.35,7.5,7.5,7.5h48.75
				C341.08,138.15,344.44,134.79,344.44,130.65z M229.25,78.25c0-18.2-14.81-33-33-33h-3.79c-38.09,0-72.6,21.1-90.07,55.07
				c-1.2,2.33-1.1,5.11,0.27,7.34c1.36,2.23,3.78,3.59,6.4,3.59h87.19C214.44,111.25,229.25,96.45,229.25,78.25z"/>
			<path d="M397.25,47.1v113.3c0,23.28-17.07,42.64-39.35,46.24v103.61h14.56c8.69,0,15.76,7.07,15.76,15.76v87.49
				c0,8.68-7.07,15.75-15.76,15.75H357.9v6.5c0,4.14-3.36,7.5-7.5,7.5c-4.15,0-7.5-3.36-7.5-7.5v-6.5h-14.57
				c-8.69,0-15.76-7.07-15.76-15.75v-87.49c0-8.69,7.07-15.76,15.76-15.76h14.57v-103H107.04c-33.52,0-60.79-27.27-60.79-60.79
				c0-80.62,65.59-146.21,146.21-146.21H350.4C376.23,0.25,397.25,21.27,397.25,47.1z M382.25,160.4V47.1
				c0-17.56-14.29-31.85-31.85-31.85H192.46c-72.35,0-131.21,58.86-131.21,131.21c0,25.25,20.54,45.79,45.79,45.79H350.4
				C367.96,192.25,382.25,177.96,382.25,160.4z M373.22,413.5v-87.49c0-0.42-0.34-0.76-0.76-0.76H357.9v89h14.56
				C372.88,414.25,373.22,413.91,373.22,413.5z M342.9,414.25v-89h-14.57c-0.42,0-0.76,0.34-0.76,0.76v87.49
				c0,0.41,0.34,0.75,0.76,0.75H342.9z"/>
			<path d="M336.94,69.35c4.14,0,7.5,3.36,7.5,7.5c0,4.15-3.36,7.5-7.5,7.5h-48.75c-4.15,0-7.5-3.35-7.5-7.5
				c0-4.14,3.35-7.5,7.5-7.5H336.94z"/>
			<path d="M336.94,96.25c4.14,0,7.5,3.36,7.5,7.5s-3.36,7.5-7.5,7.5h-48.75c-4.15,0-7.5-3.36-7.5-7.5s3.35-7.5,7.5-7.5H336.94z"/>
			<path d="M336.94,123.15c4.14,0,7.5,3.36,7.5,7.5c0,4.14-3.36,7.5-7.5,7.5h-48.75c-4.15,0-7.5-3.36-7.5-7.5
				c0-4.14,3.35-7.5,7.5-7.5H336.94z"/>
			<path d="M196.25,45.25c18.19,0,33,14.8,33,33s-14.81,33-33,33h-87.19c-2.62,0-5.04-1.36-6.4-3.59c-1.37-2.23-1.47-5.01-0.27-7.34
				c17.47-33.97,51.98-55.07,90.07-55.07H196.25z M214.25,78.25c0-9.92-8.08-18-18-18h-3.79c-28.14,0-53.99,13.53-70.06,36h73.85
				C206.17,96.25,214.25,88.18,214.25,78.25z"/>
		</g>
		<g>
		</g>
	</g>
</g>
<g>
</g>
<g>
</g>
<g>
</g>
<g>
</g>
<g>
</g>
<g>
</g>
<g>
</g>
<g>
</g>
<g>
</g>
<g>
</g>
<g>
</g>
<g>
</g>
<g>
</g>
<g>
</g>
<g>
</g>
</svg>
