<?xml version="1.0" encoding="iso-8859-1"?>
<!-- Generator: Adobe Illustrator 19.1.0, SVG Export Plug-In . SVG Version: 6.00 Build 0)  -->
<svg version="1.1" id="Capa_1" xmlns="http://www.w3.org/2000/svg" xmlns:xlink="http://www.w3.org/1999/xlink" x="0px" y="0px"
	 viewBox="0 0 435.48 435.48" style="enable-background:new 0 0 435.48 435.48;" xml:space="preserve">
<g>
	<g id="XMLID_13_">
		<g>
			<polygon style="fill:#E55A42;" points="234.78,323.49 238.83,360.57 196.64,360.57 200.7,323.49 			"/>
			<polygon style="fill:#E2C744;" points="303.97,375.57 313.07,390.98 122.4,390.98 131.5,375.57 			"/>
			<path style="fill:#E2C744;" d="M420.23,44.5v263.99H15.25V44.5H420.23z M411.23,291.99V61c0-4.14-3.36-7.5-7.5-7.5H31.75
				c-4.14,0-7.5,3.36-7.5,7.5v230.99c0,4.14,3.36,7.5,7.5,7.5h371.98C407.87,299.49,411.23,296.13,411.23,291.99z"/>
			<path d="M435.23,37v278.99c0,4.14-3.36,7.5-7.5,7.5H249.87l4.05,37.08h54.33c2.66,0,5.11,1.4,6.46,3.68l17.96,30.42
				c1.37,2.32,1.39,5.19,0.06,7.53c-1.34,2.34-3.83,3.78-6.52,3.78H109.26c-2.69,0-5.18-1.44-6.51-3.78
				c-1.34-2.34-1.32-5.21,0.05-7.53l17.96-30.42c1.35-2.28,3.81-3.68,6.46-3.68h54.33l4.06-37.08H7.75c-4.14,0-7.5-3.36-7.5-7.5V37
				c0-4.14,3.36-7.5,7.5-7.5h419.98C431.87,29.5,435.23,32.86,435.23,37z M420.23,308.49V44.5H15.25v263.99H420.23z M313.07,390.98
				l-9.1-15.41H131.5l-9.1,15.41H313.07z M238.83,360.57l-4.05-37.08H200.7l-4.06,37.08H238.83z"/>
			<path d="M411.23,61v230.99c0,4.14-3.36,7.5-7.5,7.5H31.75c-4.14,0-7.5-3.36-7.5-7.5V61c0-4.14,3.36-7.5,7.5-7.5h371.98
				C407.87,53.5,411.23,56.86,411.23,61z M396.23,284.49V68.5H307.5L146.67,284.49H396.23z M127.97,284.49L288.8,68.5H39.25v215.99
				H127.97z"/>
		</g>
		<g>
		</g>
	</g>
</g>
<g>
</g>
<g>
</g>
<g>
</g>
<g>
</g>
<g>
</g>
<g>
</g>
<g>
</g>
<g>
</g>
<g>
</g>
<g>
</g>
<g>
</g>
<g>
</g>
<g>
</g>
<g>
</g>
<g>
</g>
</svg>
