<?xml version="1.0" encoding="iso-8859-1"?>
<!-- Generator: Adobe Illustrator 19.1.0, SVG Export Plug-In . SVG Version: 6.00 Build 0)  -->
<svg version="1.1" id="Capa_1" xmlns="http://www.w3.org/2000/svg" xmlns:xlink="http://www.w3.org/1999/xlink" x="0px" y="0px"
	 viewBox="0 0 429.5 429.5" style="enable-background:new 0 0 429.5 429.5;" xml:space="preserve">
<g>
	<g id="XMLID_32_">
		<g>
			<polygon style="fill:#E55A42;" points="31.25,134.4 31.25,340.58 15.25,356.58 15.25,118.4 			"/>
			<polygon style="fill:#E55A42;" points="403.64,367.18 25.85,367.18 41.85,351.18 387.64,351.18 			"/>
			<polygon style="fill:#E55A42;" points="414.25,118.4 414.25,356.57 398.25,340.57 398.25,134.4 			"/>
			<polygon style="fill:#E55A42;" points="403.64,107.79 387.64,123.79 41.85,123.79 25.85,107.79 			"/>
			<path style="fill:#E2C744;" d="M186.21,287.58v2.6H92.25v-19.21c7.85-1.43,15.86-2.16,23.9-2.16c23.32,0,46.25,6.14,66.31,17.76
				C183.63,287.25,184.93,287.58,186.21,287.58z"/>
			<path d="M429.25,100.29v274.39c0,4.14-3.36,7.5-7.5,7.5h-414c-4.15,0-7.5-3.36-7.5-7.5V100.29c0-4.14,3.35-7.5,7.5-7.5h158.42
				l43.27-43.27c1.41-1.41,3.32-2.2,5.31-2.2s3.89,0.79,5.3,2.2l43.27,43.27h158.43C425.89,92.79,429.25,96.15,429.25,100.29z
				 M414.25,356.57V118.4l-16,16v206.17L414.25,356.57z M387.64,123.79l16-16H25.85l16,16H387.64z M25.85,367.18h377.79l-16-16
				H41.85L25.85,367.18z M383.25,336.18V138.79h-337v197.39H383.25z M187.38,92.79h54.73l-27.36-27.36L187.38,92.79z M31.25,340.58
				V134.4l-16-16v238.18L31.25,340.58z"/>
			<path d="M352.25,177.29v120.39c0,4.14-3.36,7.5-7.5,7.5h-260c-4.15,0-7.5-3.36-7.5-7.5V177.29c0-4.14,3.35-7.5,7.5-7.5h260
				C348.89,169.79,352.25,173.15,352.25,177.29z M337.25,290.18v-25.84c-17.71-8.46-37.36-12.92-57.13-12.92
				c-32.92,0-64.49,12.15-88.87,34.22c-1.41,1.28-3.22,1.94-5.04,1.94c-1.28,0-2.58-0.33-3.75-1.01
				c-20.06-11.62-42.99-17.76-66.31-17.76c-8.04,0-16.05,0.73-23.9,2.16v19.21h93.96H337.25z M337.25,247.92v-63.13h-245v70.96
				c7.87-1.28,15.88-1.94,23.9-1.94c24.15,0,47.92,5.92,69.1,17.16c26.55-22.32,60.02-34.55,94.87-34.55
				C299.74,236.42,319.26,240.38,337.25,247.92z"/>
			<path style="fill:#E2C744;" d="M337.25,264.34v25.84H186.21v-2.6c1.82,0,3.63-0.66,5.04-1.94
				c24.38-22.07,55.95-34.22,88.87-34.22C299.89,251.42,319.54,255.88,337.25,264.34z"/>
			<path style="fill:#4785DD;" d="M337.25,184.79v63.13c-17.99-7.54-37.51-11.5-57.13-11.5c-34.85,0-68.32,12.23-94.87,34.55
				c-21.18-11.24-44.95-17.16-69.1-17.16c-8.02,0-16.03,0.66-23.9,1.94v-70.96H337.25z M187.25,220.29c0-15.16-12.34-27.5-27.5-27.5
				c-15.17,0-27.5,12.34-27.5,27.5c0,15.16,12.33,27.5,27.5,27.5C174.91,247.79,187.25,235.45,187.25,220.29z"/>
			<path d="M159.75,192.79c15.16,0,27.5,12.34,27.5,27.5c0,15.16-12.34,27.5-27.5,27.5c-15.17,0-27.5-12.34-27.5-27.5
				C132.25,205.13,144.58,192.79,159.75,192.79z M172.25,220.29c0-6.89-5.61-12.5-12.5-12.5c-6.9,0-12.5,5.61-12.5,12.5
				s5.6,12.5,12.5,12.5C166.64,232.79,172.25,227.18,172.25,220.29z"/>
			<path style="fill:#E55A42;" d="M159.75,207.79c6.89,0,12.5,5.61,12.5,12.5s-5.61,12.5-12.5,12.5c-6.9,0-12.5-5.61-12.5-12.5
				S152.85,207.79,159.75,207.79z"/>
		</g>
		<g>
		</g>
	</g>
</g>
<g>
</g>
<g>
</g>
<g>
</g>
<g>
</g>
<g>
</g>
<g>
</g>
<g>
</g>
<g>
</g>
<g>
</g>
<g>
</g>
<g>
</g>
<g>
</g>
<g>
</g>
<g>
</g>
<g>
</g>
</svg>
