<?xml version="1.0" encoding="iso-8859-1"?>
<!-- Generator: Adobe Illustrator 19.1.0, SVG Export Plug-In . SVG Version: 6.00 Build 0)  -->
<svg version="1.1" id="Capa_1" xmlns="http://www.w3.org/2000/svg" xmlns:xlink="http://www.w3.org/1999/xlink" x="0px" y="0px"
	 viewBox="0 0 421.98 421.98" style="enable-background:new 0 0 421.98 421.98;" xml:space="preserve">
<g>
	<g id="XMLID_23_">
		<g>
			<rect x="43" y="363.73" style="fill:#E2C744;" width="32.99" height="6.75"/>
			<path d="M421.73,86.01v247.57c0,15.82-12.25,28.82-27.75,30.05v14.35c0,4.14-3.36,7.5-7.5,7.5h-48c-4.14,0-7.5-3.36-7.5-7.5
				v-14.25H90.99v14.25c0,4.14-3.35,7.5-7.5,7.5H35.5c-4.15,0-7.5-3.36-7.5-7.5v-14.35C12.49,362.4,0.25,349.4,0.25,333.58V86.01
				c0-27.3,22.21-49.51,49.51-49.51h322.45C399.52,36.5,421.73,58.71,421.73,86.01z M406.73,333.58V86.01
				c0-19.03-15.49-34.51-34.52-34.51H49.76c-19.03,0-34.51,15.48-34.51,34.51v247.57c0,8.36,6.79,15.15,15.15,15.15h361.18
				C399.93,348.73,406.73,341.94,406.73,333.58z M378.98,370.48v-6.75h-33v6.75H378.98z M75.99,370.48v-6.75H43v6.75H75.99z"/>
			<path style="fill:#E55A42;" d="M406.73,86.01v247.57c0,8.36-6.8,15.15-15.15,15.15H30.4c-8.36,0-15.15-6.79-15.15-15.15V86.01
				c0-19.03,15.48-34.51,34.51-34.51h322.45C391.24,51.5,406.73,66.98,406.73,86.01z M378.24,252.76V106.22
				c0-19.07-15.52-34.59-34.6-34.59H78.33c-19.07,0-34.59,15.52-34.59,34.59v146.54c0,19.08,15.52,34.6,34.59,34.6h32.28
				c13.62,0,26.02-8.04,31.58-20.48l6.72-15.05c3.15-7.04,10.17-11.6,17.89-11.6h88.37c7.72,0,14.74,4.56,17.89,11.6l6.73,15.05
				c5.56,12.44,17.95,20.48,31.58,20.48h32.27C362.72,287.36,378.24,271.84,378.24,252.76z M353.69,316.43
				c0-12.44-10.12-22.55-22.56-22.55c-12.43,0-22.55,10.11-22.55,22.55s10.12,22.56,22.55,22.56
				C343.57,338.99,353.69,328.87,353.69,316.43z M267.74,303.74c0-4.15-3.36-7.5-7.5-7.5h-98.51c-4.14,0-7.5,3.35-7.5,7.5
				c0,4.14,3.36,7.5,7.5,7.5h98.51C264.38,311.24,267.74,307.88,267.74,303.74z M249.83,281.99c0-4.14-3.36-7.5-7.5-7.5h-62.69
				c-4.14,0-7.5,3.36-7.5,7.5c0,4.14,3.36,7.5,7.5,7.5h62.69C246.47,289.49,249.83,286.13,249.83,281.99z M249.83,325.49
				c0-4.15-3.36-7.5-7.5-7.5h-62.69c-4.14,0-7.5,3.35-7.5,7.5c0,4.14,3.36,7.5,7.5,7.5h62.69
				C246.47,332.99,249.83,329.63,249.83,325.49z M113.4,316.43c0-12.44-10.12-22.55-22.56-22.55c-12.43,0-22.55,10.11-22.55,22.55
				s10.12,22.56,22.55,22.56C103.28,338.99,113.4,328.87,113.4,316.43z"/>
			<rect x="345.98" y="363.73" style="fill:#E2C744;" width="33" height="6.75"/>
			<path style="fill:#E55A42;" d="M378.24,106.22v146.54c0,19.08-15.52,34.6-34.6,34.6h-32.27c-13.63,0-26.02-8.04-31.58-20.48
				l-6.73-15.05c-3.15-7.04-10.17-11.6-17.89-11.6H166.8c-7.72,0-14.74,4.56-17.89,11.6l-6.72,15.05
				c-5.56,12.44-17.96,20.48-31.58,20.48H78.33c-19.07,0-34.59-15.52-34.59-34.6V106.22c0-19.07,15.52-34.59,34.59-34.59h265.31
				C362.72,71.63,378.24,87.15,378.24,106.22z M363.24,238.9v-18.45H58.74v18.45h80.53c6.46-8.48,16.59-13.67,27.53-13.67h88.37
				c10.94,0,21.08,5.19,27.53,13.67H363.24z M363.24,205.45v-18.46H58.74v18.46H363.24z M363.24,171.99v-18.45H58.74v18.45H363.24z
				 M363.24,138.54v-18.46H58.74v18.46H363.24z M58.8,105.08h304.38c-0.6-10.27-9.12-18.45-19.54-18.45H78.33
				C67.91,86.63,59.39,94.81,58.8,105.08z M363.18,253.9h-72.77l3.07,6.86c3.15,7.04,10.17,11.6,17.89,11.6h32.27
				C354.06,272.36,362.58,264.18,363.18,253.9z M128.49,260.76l3.07-6.86H58.8c0.59,10.28,9.11,18.46,19.53,18.46h32.28
				C118.32,272.36,125.34,267.8,128.49,260.76z"/>
			<path d="M331.13,293.88c12.44,0,22.56,10.11,22.56,22.55s-10.12,22.56-22.56,22.56c-12.43,0-22.55-10.12-22.55-22.56
				S318.7,293.88,331.13,293.88z M338.69,316.43c0-4.17-3.39-7.55-7.56-7.55c-4.16,0-7.55,3.38-7.55,7.55
				c0,4.17,3.39,7.56,7.55,7.56C335.3,323.99,338.69,320.6,338.69,316.43z"/>
			<path style="fill:#E2C744;" d="M331.13,308.88c4.17,0,7.56,3.38,7.56,7.55c0,4.17-3.39,7.56-7.56,7.56
				c-4.16,0-7.55-3.39-7.55-7.56C323.58,312.26,326.97,308.88,331.13,308.88z"/>
			<path d="M260.24,296.24c4.14,0,7.5,3.35,7.5,7.5c0,4.14-3.36,7.5-7.5,7.5h-98.51c-4.14,0-7.5-3.36-7.5-7.5
				c0-4.15,3.36-7.5,7.5-7.5H260.24z"/>
			<path d="M242.33,274.49c4.14,0,7.5,3.36,7.5,7.5c0,4.14-3.36,7.5-7.5,7.5h-62.69c-4.14,0-7.5-3.36-7.5-7.5
				c0-4.14,3.36-7.5,7.5-7.5H242.33z"/>
			<path d="M242.33,317.99c4.14,0,7.5,3.35,7.5,7.5c0,4.14-3.36,7.5-7.5,7.5h-62.69c-4.14,0-7.5-3.36-7.5-7.5
				c0-4.15,3.36-7.5,7.5-7.5H242.33z"/>
			<path d="M90.84,293.88c12.44,0,22.56,10.11,22.56,22.55s-10.12,22.56-22.56,22.56c-12.43,0-22.55-10.12-22.55-22.56
				S78.41,293.88,90.84,293.88z M98.4,316.43c0-4.17-3.39-7.55-7.56-7.55c-4.16,0-7.55,3.38-7.55,7.55c0,4.17,3.39,7.56,7.55,7.56
				C95.01,323.99,98.4,320.6,98.4,316.43z"/>
			<path style="fill:#E2C744;" d="M90.84,308.88c4.17,0,7.56,3.38,7.56,7.55c0,4.17-3.39,7.56-7.56,7.56
				c-4.16,0-7.55-3.39-7.55-7.56C83.29,312.26,86.68,308.88,90.84,308.88z"/>
		</g>
		<g>
		</g>
	</g>
</g>
<g>
</g>
<g>
</g>
<g>
</g>
<g>
</g>
<g>
</g>
<g>
</g>
<g>
</g>
<g>
</g>
<g>
</g>
<g>
</g>
<g>
</g>
<g>
</g>
<g>
</g>
<g>
</g>
<g>
</g>
</svg>
