<?xml version="1.0" encoding="iso-8859-1"?>
<!-- Generator: Adobe Illustrator 19.1.0, SVG Export Plug-In . SVG Version: 6.00 Build 0)  -->
<svg version="1.1" id="Capa_1" xmlns="http://www.w3.org/2000/svg" xmlns:xlink="http://www.w3.org/1999/xlink" x="0px" y="0px"
	 viewBox="0 0 417.67 417.67" style="enable-background:new 0 0 417.67 417.67;" xml:space="preserve">
<g id="XMLID_43_">
	<g>
		<path style="fill:#4785DD;" d="M324.25,118.335v83.5h-15v-83.5c0-4.14,3.37-7.5,7.51-7.5
			C320.89,110.835,324.25,114.195,324.25,118.335z"/>
		<polygon style="fill:#E55A42;" points="343.46,216.835 337.13,279.835 296.38,279.835 290.05,216.835 		"/>
		<polygon style="fill:#E2C744;" points="165.97,145.565 222.28,264.985 196.05,277.355 139.74,157.925 		"/>
		<polygon style="fill:#4785DD;" points="78.25,140.305 78.25,279.835 49.25,279.835 49.25,134.335 78.25,134.335 		"/>
		<rect x="93.25" y="147.805" style="fill:#E55A42;" width="29" height="132.03"/>
		<path d="M417.42,287.335v27c0,4.15-3.36,7.5-7.5,7.5H7.75c-4.14,0-7.5-3.35-7.5-7.5v-27c0-4.14,3.36-7.5,7.5-7.5h26.5v-153
			c0-4.15,3.36-7.5,7.5-7.5h44c4.15,0,7.5,3.35,7.5,7.5v5.97h36.5c4.15,0,7.5,3.35,7.5,7.5v2.21l29.1-13.72
			c3.75-1.77,8.22-0.16,9.99,3.58l62.7,132.99c1.77,3.75,0.17,8.22-3.58,9.99l-9.51,4.48h55.36l-7.02-69.75
			c-0.21-2.11,0.48-4.21,1.9-5.78c1.42-1.58,3.44-2.47,5.56-2.47h12.5v-83.5c0-12.41,10.1-22.5,22.5-22.5h0.01
			c12.4,0,22.49,10.09,22.49,22.5v29.5h5v-18.5c0-4.14,3.36-7.5,7.5-7.5c4.15,0,7.5,3.36,7.5,7.5v26c0,4.14-3.35,7.5-7.5,7.5h-12.5
			v39h12.5c2.12,0,4.14,0.89,5.57,2.47c1.42,1.57,2.11,3.67,1.9,5.78l-7.02,69.75h57.72
			C414.06,279.835,417.42,283.195,417.42,287.335z M402.42,306.835v-12H15.25v12H402.42z M337.13,279.835l6.33-63h-53.41l6.33,63
			H337.13z M324.25,201.835v-83.5c0-4.14-3.36-7.5-7.49-7.5c-4.14,0-7.51,3.36-7.51,7.5v83.5H324.25z M222.28,264.985l-56.31-119.42
			l-26.23,12.36l56.31,119.43L222.28,264.985z M180.63,279.835l-43.38-92v92H180.63z M122.25,279.835v-132.03h-29v132.03H122.25z
			 M78.25,279.835v-139.53v-5.97h-29v145.5H78.25z"/>
	</g>
	<g>
	</g>
</g>
<g>
</g>
<g>
</g>
<g>
</g>
<g>
</g>
<g>
</g>
<g>
</g>
<g>
</g>
<g>
</g>
<g>
</g>
<g>
</g>
<g>
</g>
<g>
</g>
<g>
</g>
<g>
</g>
<g>
</g>
</svg>
