<?xml version="1.0" encoding="iso-8859-1"?>
<!-- Generator: Adobe Illustrator 19.1.0, SVG Export Plug-In . SVG Version: 6.00 Build 0)  -->
<svg version="1.1" id="Capa_1" xmlns="http://www.w3.org/2000/svg" xmlns:xlink="http://www.w3.org/1999/xlink" x="0px" y="0px"
	 viewBox="0 0 445.5 445.5" style="enable-background:new 0 0 445.5 445.5;" xml:space="preserve">
<g>
	<g id="XMLID_43_">
		<g>
			<path d="M369.745,110.69c0,2.59-0.07,5.17-0.2,7.73v319.33c0,4.14-3.36,7.5-7.5,7.5H83.465c-4.15,0-7.5-3.36-7.5-7.5V118.42
				c-0.14-2.56-0.21-5.14-0.21-7.73c0-4.14,3.36-7.5,7.5-7.5h0.21h58.63V85.26c0-4.14,3.36-7.5,7.5-7.5h25.64
				c4.15,0,7.5,3.36,7.5,7.5v17.93h11.52V13.68c0-7.4,6.02-13.43,13.43-13.43h30.14c7.4,0,13.43,6.03,13.43,13.43v89.51h11.51V85.26
				c0-4.14,3.36-7.5,7.5-7.5h25.64c4.14,0,7.5,3.36,7.5,7.5v17.93h58.64h0.2C366.385,103.19,369.745,106.55,369.745,110.69z
				 M354.545,430.25v-69.61H90.965v69.61H354.545z M354.545,345.64V283.3H90.965v62.34H354.545z M354.545,268.3v-92.56
				c-24.04,48.51-74.08,81.94-131.79,81.94s-107.75-33.43-131.79-81.94v92.56H354.545z M354.535,118.19H90.965
				c3.91,69.3,61.52,124.49,131.79,124.49C293.015,242.68,350.635,187.49,354.535,118.19z M288.405,103.19V92.76h-10.64v10.43
				H288.405z M236.255,103.19V37.3h-27v65.89H236.255z M236.255,22.3v-7.05h-27v7.05H236.255z M167.735,103.19V92.76h-10.64v10.43
				H167.735z"/>
			<path style="fill:#E55A42;" d="M354.545,360.64v69.61H90.965v-69.61H354.545z M248.915,376.67c0-4.14-3.35-7.5-7.5-7.5h-37.33
				c-4.14,0-7.5,3.36-7.5,7.5c0,4.14,3.36,7.5,7.5,7.5h37.33C245.565,384.17,248.915,380.81,248.915,376.67z"/>
			<path style="fill:#E55A42;" d="M354.545,283.3v62.34H90.965V283.3H354.545z M248.915,298.67c0-4.14-3.35-7.5-7.5-7.5h-37.33
				c-4.14,0-7.5,3.36-7.5,7.5c0,4.14,3.36,7.5,7.5,7.5h37.33C245.565,306.17,248.915,302.81,248.915,298.67z"/>
			<path style="fill:#FFFFFF;" d="M354.545,175.74v92.56H90.965v-92.56c24.04,48.51,74.08,81.94,131.79,81.94
				S330.505,224.25,354.545,175.74z"/>
			<path style="fill:#E2C744;" d="M90.965,118.19h263.57c-3.9,69.3-61.52,124.49-131.78,124.49
				C152.485,242.68,94.875,187.49,90.965,118.19z M340.545,138.4c0.94-4.03-1.56-8.06-5.59-9.01s-8.07,1.55-9.02,5.58
				c-0.77,3.31-1.72,6.62-2.82,9.84c-1.34,3.92,0.76,8.18,4.68,9.52c0.8,0.27,1.61,0.4,2.42,0.4c3.12,0,6.03-1.96,7.09-5.08
				C338.565,145.97,339.655,142.19,340.545,138.4z M327.655,170.92c2.07-3.58,0.84-8.17-2.75-10.24c-3.59-2.07-8.17-0.83-10.24,2.76
				c-18.93,32.84-54.15,53.24-91.91,53.24c-4.15,0-7.5,3.36-7.5,7.5c0,4.14,3.35,7.5,7.5,7.5
				C265.865,231.68,306.065,208.4,327.655,170.92z"/>
			<path d="M334.955,129.39c4.03,0.95,6.53,4.98,5.59,9.01c-0.89,3.79-1.98,7.57-3.24,11.25c-1.06,3.12-3.97,5.08-7.09,5.08
				c-0.81,0-1.62-0.13-2.42-0.4c-3.92-1.34-6.02-5.6-4.68-9.52c1.1-3.22,2.05-6.53,2.82-9.84
				C326.885,130.94,330.925,128.44,334.955,129.39z"/>
			<path d="M324.905,160.68c3.59,2.07,4.82,6.66,2.75,10.24c-21.59,37.48-61.79,60.76-104.9,60.76c-4.15,0-7.5-3.36-7.5-7.5
				c0-4.14,3.35-7.5,7.5-7.5c37.76,0,72.98-20.4,91.91-53.24C316.735,159.85,321.315,158.61,324.905,160.68z"/>
			<rect x="277.765" y="92.76" style="fill:#4785DD;" width="10.64" height="10.43"/>
			<path d="M241.415,291.17c4.15,0,7.5,3.36,7.5,7.5c0,4.14-3.35,7.5-7.5,7.5h-37.33c-4.14,0-7.5-3.36-7.5-7.5
				c0-4.14,3.36-7.5,7.5-7.5H241.415z"/>
			<path d="M241.415,369.17c4.15,0,7.5,3.36,7.5,7.5c0,4.14-3.35,7.5-7.5,7.5h-37.33c-4.14,0-7.5-3.36-7.5-7.5
				c0-4.14,3.36-7.5,7.5-7.5H241.415z"/>
			<rect x="209.255" y="37.3" style="fill:#4785DD;" width="27" height="65.89"/>
			<rect x="209.255" y="15.25" style="fill:#4785DD;" width="27" height="7.05"/>
			<rect x="157.095" y="92.76" style="fill:#E55A42;" width="10.64" height="10.43"/>
		</g>
		<g>
		</g>
	</g>
</g>
<g>
</g>
<g>
</g>
<g>
</g>
<g>
</g>
<g>
</g>
<g>
</g>
<g>
</g>
<g>
</g>
<g>
</g>
<g>
</g>
<g>
</g>
<g>
</g>
<g>
</g>
<g>
</g>
<g>
</g>
</svg>
