<?xml version="1.0" encoding="iso-8859-1"?>
<!-- Generator: Adobe Illustrator 19.1.0, SVG Export Plug-In . SVG Version: 6.00 Build 0)  -->
<svg version="1.1" id="Capa_1" xmlns="http://www.w3.org/2000/svg" xmlns:xlink="http://www.w3.org/1999/xlink" x="0px" y="0px"
	 viewBox="0 0 469.12 469.12" style="enable-background:new 0 0 469.12 469.12;" xml:space="preserve">
<g>
	<g id="XMLID_13_">
		<g>
			<path style="fill:#4785DD;" d="M375.785,15.25v438.62H93.335V15.25H375.785z M367.785,438.37V30.75c0-4.14-3.36-7.5-7.5-7.5
				h-251.45c-4.14,0-7.5,3.36-7.5,7.5v407.62c0,4.14,3.36,7.5,7.5,7.5h251.45C364.425,445.87,367.785,442.51,367.785,438.37z"/>
			<path style="fill:#E55A42;" d="M234.565,222.39c50.45,0,91.49,41.04,91.49,91.49s-41.04,91.5-91.49,91.5s-91.5-41.05-91.5-91.5
				S184.115,222.39,234.565,222.39z M317.565,313.88c0-45.76-37.24-83-83-83c-45.77,0-83,37.24-83,83c0,45.77,37.23,83,83,83
				C280.325,396.88,317.565,359.65,317.565,313.88z"/>
			<path style="fill:#E2C744;" d="M296.205,145.18c14.02,0,25.43,11.41,25.43,25.43s-11.41,25.42-25.43,25.42
				c-14.02,0-25.42-11.4-25.42-25.42S282.185,145.18,296.205,145.18z M303.705,170.61c0-1.98-0.8-3.91-2.19-5.31
				c-1.4-1.39-3.33-2.19-5.31-2.19c-1.97,0-3.9,0.8-5.3,2.19c-1.4,1.4-2.2,3.33-2.2,5.31c0,1.97,0.8,3.9,2.2,5.3
				c1.4,1.4,3.33,2.2,5.3,2.2c1.98,0,3.91-0.8,5.31-2.2C302.905,174.51,303.705,172.58,303.705,170.61z"/>
			<path style="fill:#E2C744;" d="M197.815,67.58c26.88,0,48.75,21.87,48.75,48.76c0,26.88-21.87,48.75-48.75,48.75
				s-48.75-21.87-48.75-48.75C149.065,89.45,170.935,67.58,197.815,67.58z M218.845,116.34c0-11.6-9.43-21.03-21.03-21.03
				c-11.59,0-21.03,9.43-21.03,21.03c0,11.59,9.44,21.03,21.03,21.03C209.415,137.37,218.845,127.93,218.845,116.34z"/>
			<path style="fill:#E2C744;" d="M234.565,245.88c37.49,0,68,30.51,68,68c0,37.5-30.51,68-68,68c-37.5,0-68-30.5-68-68
				C166.565,276.39,197.065,245.88,234.565,245.88z M269.425,313.88c0-19.22-15.64-34.86-34.86-34.86
				c-19.23,0-34.87,15.64-34.87,34.86c0,19.23,15.64,34.87,34.87,34.87C253.785,348.75,269.425,333.11,269.425,313.88z"/>
			<path d="M390.785,7.75v453.62c0,4.14-3.36,7.5-7.5,7.5H85.835c-4.14,0-7.5-3.36-7.5-7.5V7.75c0-4.14,3.36-7.5,7.5-7.5h297.45
				C387.425,0.25,390.785,3.61,390.785,7.75z M375.785,453.87V15.25H93.335v438.62H375.785z"/>
			<path d="M367.785,30.75v407.62c0,4.14-3.36,7.5-7.5,7.5h-251.45c-4.14,0-7.5-3.36-7.5-7.5V30.75c0-4.14,3.36-7.5,7.5-7.5h251.45
				C364.425,23.25,367.785,26.61,367.785,30.75z M352.785,430.87V38.25h-236.45v392.62H352.785z"/>
			<path d="M296.205,130.18c22.29,0,40.43,18.14,40.43,40.43s-18.14,40.42-40.43,40.42c-22.29,0-40.42-18.13-40.42-40.42
				S273.915,130.18,296.205,130.18z M321.635,170.61c0-14.02-11.41-25.43-25.43-25.43c-14.02,0-25.42,11.41-25.42,25.43
				s11.4,25.42,25.42,25.42C310.225,196.03,321.635,184.63,321.635,170.61z"/>
			<path d="M234.565,207.39c58.72,0,106.49,47.77,106.49,106.49s-47.77,106.5-106.49,106.5s-106.5-47.78-106.5-106.5
				S175.845,207.39,234.565,207.39z M326.055,313.88c0-50.45-41.04-91.49-91.49-91.49s-91.5,41.04-91.5,91.49s41.05,91.5,91.5,91.5
				S326.055,364.33,326.055,313.88z"/>
			<path d="M301.515,165.3c1.39,1.4,2.19,3.33,2.19,5.31c0,1.97-0.8,3.9-2.19,5.3c-1.4,1.4-3.33,2.2-5.31,2.2
				c-1.97,0-3.9-0.8-5.3-2.2c-1.4-1.4-2.2-3.33-2.2-5.3c0-1.98,0.8-3.91,2.2-5.31c1.4-1.39,3.33-2.19,5.3-2.19
				C298.185,163.11,300.115,163.91,301.515,165.3z"/>
			<path d="M234.565,230.88c45.76,0,83,37.24,83,83c0,45.77-37.24,83-83,83c-45.77,0-83-37.23-83-83
				C151.565,268.12,188.795,230.88,234.565,230.88z M302.565,313.88c0-37.49-30.51-68-68-68c-37.5,0-68,30.51-68,68
				c0,37.5,30.5,68,68,68C272.055,381.88,302.565,351.38,302.565,313.88z"/>
			<path d="M234.565,279.02c19.22,0,34.86,15.64,34.86,34.86c0,19.23-15.64,34.87-34.86,34.87c-19.23,0-34.87-15.64-34.87-34.87
				C199.695,294.66,215.335,279.02,234.565,279.02z M254.425,313.88c0-10.95-8.91-19.86-19.86-19.86
				c-10.96,0-19.87,8.91-19.87,19.86c0,10.96,8.91,19.87,19.87,19.87C245.515,333.75,254.425,324.84,254.425,313.88z"/>
			<path d="M197.815,52.58c35.16,0,63.75,28.6,63.75,63.76c0,35.15-28.59,63.75-63.75,63.75c-35.15,0-63.75-28.6-63.75-63.75
				C134.065,81.18,162.665,52.58,197.815,52.58z M246.565,116.34c0-26.89-21.87-48.76-48.75-48.76s-48.75,21.87-48.75,48.76
				c0,26.88,21.87,48.75,48.75,48.75S246.565,143.22,246.565,116.34z"/>
			<path d="M197.815,95.31c11.6,0,21.03,9.43,21.03,21.03c0,11.59-9.43,21.03-21.03,21.03c-11.59,0-21.03-9.44-21.03-21.03
				C176.785,104.74,186.225,95.31,197.815,95.31z M203.845,116.34c0-3.33-2.7-6.03-6.03-6.03c-3.32,0-6.03,2.7-6.03,6.03
				c0,3.32,2.71,6.03,6.03,6.03C201.145,122.37,203.845,119.66,203.845,116.34z"/>
		</g>
		<g>
		</g>
	</g>
</g>
<g>
</g>
<g>
</g>
<g>
</g>
<g>
</g>
<g>
</g>
<g>
</g>
<g>
</g>
<g>
</g>
<g>
</g>
<g>
</g>
<g>
</g>
<g>
</g>
<g>
</g>
<g>
</g>
<g>
</g>
</svg>
