<?xml version="1.0" encoding="iso-8859-1"?>
<!-- Generator: Adobe Illustrator 19.1.0, SVG Export Plug-In . SVG Version: 6.00 Build 0)  -->
<svg version="1.1" id="Capa_1" xmlns="http://www.w3.org/2000/svg" xmlns:xlink="http://www.w3.org/1999/xlink" x="0px" y="0px"
	 viewBox="0 0 384.92 384.92" style="enable-background:new 0 0 384.92 384.92;" xml:space="preserve">
<g id="XMLID_40_">
	<g>
		<rect x="30.825" y="15.25" style="fill:#4785DD;" width="323.27" height="49.91"/>
		<rect x="105.325" y="229.96" style="fill:#E2C744;" width="174.27" height="21"/>
		<rect x="105.325" y="80.16" style="fill:#E2C744;" width="174.27" height="30.1"/>
		<path d="M369.095,7.75v64.91c0,4.14-3.35,7.5-7.5,7.5h-16.64v297.01c0,4.15-3.36,7.5-7.5,7.5h-50.36c-4.14,0-7.5-3.35-7.5-7.5
			V265.96h-174.27v111.21c0,4.15-3.36,7.5-7.5,7.5h-50.36c-4.14,0-7.5-3.35-7.5-7.5V80.16h-16.64c-4.14,0-7.5-3.36-7.5-7.5V7.75
			c0-4.14,3.36-7.5,7.5-7.5h338.27C365.745,0.25,369.095,3.61,369.095,7.75z M354.095,65.16V15.25H30.825v49.91H354.095z
			 M329.955,369.67V80.16h-35.36v37.6v104.7v36v111.21H329.955z M279.595,250.96v-21h-174.27v21H279.595z M279.595,214.96v-89.7
			h-174.27v89.7H279.595z M279.595,110.26v-30.1h-174.27v30.1H279.595z M90.325,369.67V258.46v-36v-104.7v-37.6h-35.36v289.51
			H90.325z"/>
	</g>
	<g>
	</g>
</g>
<g>
</g>
<g>
</g>
<g>
</g>
<g>
</g>
<g>
</g>
<g>
</g>
<g>
</g>
<g>
</g>
<g>
</g>
<g>
</g>
<g>
</g>
<g>
</g>
<g>
</g>
<g>
</g>
<g>
</g>
</svg>
