<?xml version="1.0" encoding="iso-8859-1"?>
<!-- Generator: Adobe Illustrator 19.1.0, SVG Export Plug-In . SVG Version: 6.00 Build 0)  -->
<svg version="1.1" id="Capa_1" xmlns="http://www.w3.org/2000/svg" xmlns:xlink="http://www.w3.org/1999/xlink" x="0px" y="0px"
	 viewBox="0 0 435.5 435.5" style="enable-background:new 0 0 435.5 435.5;" xml:space="preserve">
<g>
	<g id="XMLID_1_">
		<g>
			<path style="fill:#E2C744;" d="M340.495,58.03c5.52,0,10,4.49,10,10c0,5.52-4.48,10-10,10c-5.51,0-10-4.48-10-10
				C330.495,62.52,334.985,58.03,340.495,58.03z"/>
			<path style="fill:#E2C744;" d="M258.665,58.03c5.52,0,10,4.49,10,10c0,5.52-4.48,10-10,10c-5.51,0-10-4.48-10-10
				C248.665,62.52,253.155,58.03,258.665,58.03z"/>
			<path style="fill:#E2C744;" d="M176.835,58.03c5.52,0,10,4.49,10,10c0,5.52-4.48,10-10,10c-5.51,0-10-4.48-10-10
				C166.835,62.52,171.325,58.03,176.835,58.03z"/>
			<path style="fill:#E2C744;" d="M95.005,58.03c5.52,0,10,4.49,10,10c0,5.52-4.48,10-10,10c-5.51,0-10-4.48-10-10
				C85.005,62.52,89.495,58.03,95.005,58.03z"/>
			<rect x="264.755" y="15.25" style="fill:#E55A42;" width="83" height="7.57"/>
			<rect x="87.755" y="15.25" style="fill:#E55A42;" width="83" height="7.57"/>
			<rect x="127.095" y="290.77" style="fill:#4785DD;" width="181.32" height="19.7"/>
			<rect x="127.095" y="256.07" style="fill:#4785DD;" width="181.32" height="19.7"/>
			<rect x="127.095" y="221.36" style="fill:#4785DD;" width="181.32" height="19.71"/>
			<rect x="127.095" y="186.66" style="fill:#4785DD;" width="181.32" height="19.7"/>
			<path d="M399.615,30.32v397.43c0,4.14-3.36,7.5-7.5,7.5H43.385c-4.14,0-7.5-3.36-7.5-7.5V30.32c0-4.14,3.36-7.5,7.5-7.5h29.37
				V7.75c0-4.14,3.35-7.5,7.5-7.5h98c4.14,0,7.5,3.36,7.5,7.5v15.07h64V7.75c0-4.14,3.35-7.5,7.5-7.5h98c4.14,0,7.5,3.36,7.5,7.5
				v15.07h29.36C396.255,22.82,399.615,26.18,399.615,30.32z M384.615,420.25v-30.33H50.885v30.33H384.615z M384.615,374.92V113.25
				H50.885v261.67H384.615z M384.615,98.25V37.82H50.885v60.43H384.615z M347.755,22.82v-7.57h-83v7.57H347.755z M170.755,22.82
				v-7.57h-83v7.57H170.755z"/>
			<path d="M340.495,43.03c13.79,0,25,11.22,25,25c0,13.79-11.21,25-25,25c-13.78,0-25-11.21-25-25
				C315.495,54.25,326.715,43.03,340.495,43.03z M350.495,68.03c0-5.51-4.48-10-10-10c-5.51,0-10,4.49-10,10c0,5.52,4.49,10,10,10
				C346.015,78.03,350.495,73.55,350.495,68.03z"/>
			<path d="M344.885,157.69v181.76c0,4.14-3.36,7.5-7.5,7.5H98.115c-4.14,0-7.5-3.36-7.5-7.5V157.69c0-4.15,3.36-7.5,7.5-7.5h239.27
				C341.525,150.19,344.885,153.54,344.885,157.69z M329.885,331.95V165.19h-224.27v166.76H329.885z"/>
			<path d="M323.415,179.16v138.81c0,4.14-3.36,7.5-7.5,7.5h-196.32c-4.14,0-7.5-3.36-7.5-7.5V179.16c0-4.14,3.36-7.5,7.5-7.5
				h196.32C320.055,171.66,323.415,175.02,323.415,179.16z M308.415,310.47v-19.7h-181.32v19.7H308.415z M308.415,275.77v-19.7
				h-181.32v19.7H308.415z M308.415,241.07v-19.71h-181.32v19.71H308.415z M308.415,206.36v-19.7h-181.32v19.7H308.415z"/>
			<path d="M258.665,43.03c13.79,0,25,11.22,25,25c0,13.79-11.21,25-25,25c-13.78,0-25-11.21-25-25
				C233.665,54.25,244.885,43.03,258.665,43.03z M268.665,68.03c0-5.51-4.48-10-10-10c-5.51,0-10,4.49-10,10c0,5.52,4.49,10,10,10
				C264.185,78.03,268.665,73.55,268.665,68.03z"/>
			<path d="M252.385,126.02c4.14,0,7.5,3.36,7.5,7.5s-3.36,7.5-7.5,7.5h-69.27c-4.14,0-7.5-3.36-7.5-7.5s3.36-7.5,7.5-7.5H252.385z"
				/>
			<path d="M176.835,43.03c13.79,0,25,11.22,25,25c0,13.79-11.21,25-25,25c-13.78,0-25-11.21-25-25
				C151.835,54.25,163.055,43.03,176.835,43.03z M186.835,68.03c0-5.51-4.48-10-10-10c-5.51,0-10,4.49-10,10c0,5.52,4.49,10,10,10
				C182.355,78.03,186.835,73.55,186.835,68.03z"/>
			<path d="M95.005,43.03c13.79,0,25,11.22,25,25c0,13.79-11.21,25-25,25c-13.78,0-25-11.21-25-25
				C70.005,54.25,81.225,43.03,95.005,43.03z M105.005,68.03c0-5.51-4.48-10-10-10c-5.51,0-10,4.49-10,10c0,5.52,4.49,10,10,10
				C100.525,78.03,105.005,73.55,105.005,68.03z"/>
		</g>
		<g>
		</g>
	</g>
</g>
<g>
</g>
<g>
</g>
<g>
</g>
<g>
</g>
<g>
</g>
<g>
</g>
<g>
</g>
<g>
</g>
<g>
</g>
<g>
</g>
<g>
</g>
<g>
</g>
<g>
</g>
<g>
</g>
<g>
</g>
</svg>
