<?xml version="1.0" encoding="iso-8859-1"?>
<!-- Generator: Adobe Illustrator 19.1.0, SVG Export Plug-In . SVG Version: 6.00 Build 0)  -->
<svg version="1.1" id="Capa_1" xmlns="http://www.w3.org/2000/svg" xmlns:xlink="http://www.w3.org/1999/xlink" x="0px" y="0px"
	 viewBox="0 0 381.436 381.436" style="enable-background:new 0 0 381.436 381.436;" xml:space="preserve">
<g>
	<g id="XMLID_6_">
		<g>
			<path style="fill:#4785DD;" d="M366.08,305.088c0.52,4.45-0.84,8.75-3.81,12.1c-2.98,3.34-7.09,5.19-11.57,5.19H59.59
				c-4.48,0-8.58-1.85-11.56-5.19c-2.98-3.35-4.34-7.65-3.82-12.1l16.05-137.3c3.48-29.83,28.76-52.32,58.8-52.32h172.18
				c30.03,0,55.31,22.49,58.79,52.32L366.08,305.088z M337.24,223.248c0-4.14-3.36-7.5-7.5-7.5h-48.75c-4.15,0-7.5,3.36-7.5,7.5
				s3.35,7.5,7.5,7.5h48.75C333.88,230.748,337.24,227.388,337.24,223.248z M337.24,250.148c0-4.15-3.36-7.5-7.5-7.5h-48.75
				c-4.15,0-7.5,3.35-7.5,7.5c0,4.14,3.35,7.5,7.5,7.5h48.75C333.88,257.648,337.24,254.288,337.24,250.148z M337.24,277.038
				c0-4.14-3.36-7.5-7.5-7.5h-48.75c-4.15,0-7.5,3.36-7.5,7.5c0,4.15,3.35,7.5,7.5,7.5h48.75
				C333.88,284.538,337.24,281.188,337.24,277.038z M136.81,223.248c0-4.14-3.36-7.5-7.5-7.5H80.55c-4.14,0-7.5,3.36-7.5,7.5
				s3.36,7.5,7.5,7.5h48.76C133.45,230.748,136.81,227.388,136.81,223.248z M136.81,250.148c0-4.15-3.36-7.5-7.5-7.5H80.55
				c-4.14,0-7.5,3.35-7.5,7.5c0,4.14,3.36,7.5,7.5,7.5h48.76C133.45,257.648,136.81,254.288,136.81,250.148z M136.81,277.038
				c0-4.14-3.36-7.5-7.5-7.5H80.55c-4.14,0-7.5,3.36-7.5,7.5c0,4.15,3.36,7.5,7.5,7.5h48.76
				C133.45,284.538,136.81,281.188,136.81,277.038z"/>
			<path style="fill:#E2C744;" d="M301.15,64.488v3.58c0,1.52-1.23,2.75-2.75,2.75c-9.79,0-17.75,7.97-17.75,17.76v11.89H129.64
				v-11.89c0-9.79-7.96-17.76-17.75-17.76c-1.52,0-2.75-1.23-2.75-2.75v-3.58c0-18.75,15.25-34,34-34h124.01
				C285.9,30.488,301.15,45.738,301.15,64.488z"/>
			<path d="M380.98,303.348c1.01,8.64-1.73,17.31-7.51,23.81c-4.08,4.58-9.42,7.78-15.27,9.27v13c0,9.11-7.41,16.52-16.53,16.52
				h-28.41c-9.11,0-16.52-7.41-16.52-16.52v-12.05H113.56v12.05c0,9.11-7.42,16.52-16.53,16.52H68.62
				c-9.11,0-16.53-7.41-16.53-16.52v-13c-5.84-1.49-11.19-4.69-15.27-9.27c-5.78-6.5-8.51-15.17-7.5-23.81l12.82-109.7H7.75
				c-4.14,0-7.5-3.36-7.5-7.5v-24c0-4.15,3.36-7.5,7.5-7.5h39.87c8.43-30.18,35.23-52.16,67.02-54.04v-12.03
				c0-1.52-1.23-2.76-2.75-2.76c-9.79,0-17.75-7.96-17.75-17.75v-3.58c0-27.02,21.98-49,49-49h124.01c27.02,0,49,21.98,49,49v3.58
				c0,9.79-7.96,17.75-17.75,17.75c-1.52,0-2.75,1.24-2.75,2.76v12.03c35.68,2.11,65.08,29.53,69.28,65.44L380.98,303.348z
				 M362.27,317.188c2.97-3.35,4.33-7.65,3.81-12.1l-16.05-137.3c-3.48-29.83-28.76-52.32-58.79-52.32H119.06
				c-30.04,0-55.32,22.49-58.8,52.32l-16.05,137.3c-0.52,4.45,0.84,8.75,3.82,12.1c2.98,3.34,7.08,5.19,11.56,5.19H350.7
				C355.18,322.378,359.29,320.528,362.27,317.188z M343.2,349.428v-12.05h-31.46v12.05c0,0.84,0.68,1.52,1.52,1.52h28.41
				C342.51,350.948,343.2,350.268,343.2,349.428z M301.15,68.068v-3.58c0-18.75-15.25-34-34-34H143.14c-18.75,0-34,15.25-34,34v3.58
				c0,1.52,1.23,2.75,2.75,2.75c9.79,0,17.75,7.97,17.75,17.76v11.89h151.01v-11.89c0-9.79,7.96-17.76,17.75-17.76
				C299.92,70.818,301.15,69.588,301.15,68.068z M98.56,349.428v-12.05H67.09v12.05c0,0.84,0.69,1.52,1.53,1.52h28.41
				C97.87,350.948,98.56,350.268,98.56,349.428z M43.89,178.648l1.05-9H15.25v9H43.89z"/>
			<path d="M329.74,215.748c4.14,0,7.5,3.36,7.5,7.5s-3.36,7.5-7.5,7.5h-48.75c-4.15,0-7.5-3.36-7.5-7.5s3.35-7.5,7.5-7.5H329.74z"
				/>
			<path d="M329.74,242.648c4.14,0,7.5,3.35,7.5,7.5c0,4.14-3.36,7.5-7.5,7.5h-48.75c-4.15,0-7.5-3.36-7.5-7.5
				c0-4.15,3.35-7.5,7.5-7.5H329.74z"/>
			<path d="M329.74,269.538c4.14,0,7.5,3.36,7.5,7.5c0,4.15-3.36,7.5-7.5,7.5h-48.75c-4.15,0-7.5-3.35-7.5-7.5
				c0-4.14,3.35-7.5,7.5-7.5H329.74z"/>
			<path d="M129.31,215.748c4.14,0,7.5,3.36,7.5,7.5s-3.36,7.5-7.5,7.5H80.55c-4.14,0-7.5-3.36-7.5-7.5s3.36-7.5,7.5-7.5H129.31z"/>
			<path d="M129.31,242.648c4.14,0,7.5,3.35,7.5,7.5c0,4.14-3.36,7.5-7.5,7.5H80.55c-4.14,0-7.5-3.36-7.5-7.5
				c0-4.15,3.36-7.5,7.5-7.5H129.31z"/>
			<path d="M129.31,269.538c4.14,0,7.5,3.36,7.5,7.5c0,4.15-3.36,7.5-7.5,7.5H80.55c-4.14,0-7.5-3.35-7.5-7.5
				c0-4.14,3.36-7.5,7.5-7.5H129.31z"/>
		</g>
		<g>
		</g>
	</g>
</g>
<g>
</g>
<g>
</g>
<g>
</g>
<g>
</g>
<g>
</g>
<g>
</g>
<g>
</g>
<g>
</g>
<g>
</g>
<g>
</g>
<g>
</g>
<g>
</g>
<g>
</g>
<g>
</g>
<g>
</g>
</svg>
