<?xml version="1.0" encoding="iso-8859-1"?>
<!-- Generator: Adobe Illustrator 19.1.0, SVG Export Plug-In . SVG Version: 6.00 Build 0)  -->
<svg version="1.1" id="Capa_1" xmlns="http://www.w3.org/2000/svg" xmlns:xlink="http://www.w3.org/1999/xlink" x="0px" y="0px"
	 viewBox="0 0 457.98 457.98" style="enable-background:new 0 0 457.98 457.98;" xml:space="preserve">
<g>
	<g id="XMLID_43_">
		<g>
			<path style="fill:#4785DD;" d="M364.885,225.67v7.29H93.095v-7.29c0-2.75,2.24-4.98,4.98-4.98h261.83
				C362.655,220.69,364.885,222.92,364.885,225.67z"/>
			<path style="fill:#E55A42;" d="M255.035,17.35v9.71h-50.45v-9.71c0-1.16,0.94-2.1,2.1-2.1h46.26
				C254.095,15.25,255.035,16.19,255.035,17.35z"/>
			<path d="M379.885,240.46v24.81c0,9.43-7.67,17.11-17.11,17.11h-3.63c-3.95,37.08-23.27,69.34-51.36,90.51v77.34
				c0,4.14-3.36,7.5-7.5,7.5c-4.14,0-7.5-3.36-7.5-7.5v-67.57c-18.9,10.55-40.67,16.55-63.78,16.55c-23.12,0-44.89-6-63.79-16.55
				v67.57c0,4.14-3.36,7.5-7.5,7.5c-4.15,0-7.5-3.36-7.5-7.5v-77.34c-28.1-21.17-47.42-53.43-51.37-90.51h-3.64
				c-9.43,0-17.11-7.68-17.11-17.11v-24.81v-14.79c0-11.02,8.97-19.98,19.98-19.98h4.17l14.39-149.08
				c1.63-16.85,15.62-29.55,32.55-29.55h40.4v-9.71c0-9.43,7.67-17.1,17.1-17.1h46.26c9.42,0,17.09,7.67,17.09,17.1v9.71h40.41
				c16.92,0,30.91,12.7,32.54,29.55l14.4,149.08h2.52c11.02,0,19.98,8.96,19.98,19.98V240.46z M364.885,265.27v-17.31H93.095v17.31
				c0,1.16,0.95,2.11,2.11,2.11h267.57C363.945,267.38,364.885,266.43,364.885,265.27z M364.885,232.96v-7.29
				c0-2.75-2.23-4.98-4.98-4.98H98.075c-2.74,0-4.98,2.23-4.98,4.98v7.29H364.885z M344.045,282.38h-230.1
				c6.95,57.7,56.03,101.83,115.05,101.83S337.095,340.08,344.045,282.38z M342.315,205.69l-14.26-147.64
				c-0.88-9.12-8.45-15.99-17.61-15.99h-161.26c-9.16,0-16.74,6.87-17.62,15.99l-14.25,147.64H342.315z M255.035,27.06v-9.71
				c0-1.16-0.94-2.1-2.09-2.1h-46.26c-1.16,0-2.1,0.94-2.1,2.1v9.71H255.035z"/>
			<path d="M328.605,190.29c0.39,4.12-2.63,7.79-6.75,8.19c-0.24,0.02-0.49,0.03-0.73,0.03c-3.82,0-7.08-2.9-7.45-6.78l-9.5-98.36
				c-0.4-4.12,2.62-7.79,6.74-8.18c4.11-0.4,7.79,2.62,8.19,6.74L328.605,190.29z"/>
			<path d="M321.725,296.19c3.92,1.33,6.02,5.59,4.69,9.51c-0.89,2.62-1.91,5.22-3.02,7.76c-1.24,2.8-3.99,4.47-6.87,4.47
				c-1.01,0-2.04-0.2-3.02-0.64c-3.79-1.67-5.51-6.1-3.84-9.89c0.94-2.13,1.8-4.33,2.55-6.53
				C313.545,296.95,317.805,294.85,321.725,296.19z"/>
			<path d="M317.005,70.27c0.4,4.12-2.62,7.79-6.74,8.19c-0.24,0.02-0.49,0.03-0.73,0.03c-3.82,0-7.08-2.9-7.46-6.78l-1.31-13.66
				c-0.4-4.12,2.62-7.79,6.74-8.19c4.12-0.39,7.79,2.62,8.19,6.75L317.005,70.27z"/>
			<path d="M309.815,323.43c3.26,2.56,3.83,7.27,1.28,10.53c-12.97,16.54-31.23,28.54-51.44,33.78c-0.63,0.17-1.27,0.24-1.89,0.24
				c-3.33,0-6.38-2.24-7.25-5.61c-1.04-4.01,1.36-8.11,5.37-9.15c17.04-4.42,32.45-14.55,43.4-28.51
				C301.845,321.45,306.555,320.88,309.815,323.43z"/>
		</g>
		<g>
		</g>
	</g>
</g>
<g>
</g>
<g>
</g>
<g>
</g>
<g>
</g>
<g>
</g>
<g>
</g>
<g>
</g>
<g>
</g>
<g>
</g>
<g>
</g>
<g>
</g>
<g>
</g>
<g>
</g>
<g>
</g>
<g>
</g>
</svg>
