<?xml version="1.0" encoding="iso-8859-1"?>
<!-- Generator: Adobe Illustrator 19.1.0, SVG Export Plug-In . SVG Version: 6.00 Build 0)  -->
<svg version="1.1" id="Capa_1" xmlns="http://www.w3.org/2000/svg" xmlns:xlink="http://www.w3.org/1999/xlink" x="0px" y="0px"
	 viewBox="0 0 447.49 447.49" style="enable-background:new 0 0 447.49 447.49;" xml:space="preserve">
<g id="XMLID_48_">
	<g>
		<path style="fill:#4785DD;" d="M354.24,278.555v34.69H93.25v-34.69c10.69,0.91,16.88,3.77,23.84,7
			c8.79,4.07,18.75,8.69,37.66,8.69c18.9,0,28.86-4.62,37.65-8.69c8.45-3.92,15.75-7.31,31.34-7.31c15.6,0,22.89,3.39,31.35,7.31
			c8.78,4.07,18.75,8.69,37.65,8.69c18.9,0,28.87-4.62,37.65-8.69C337.36,282.325,343.55,279.465,354.24,278.555z"/>
		<path style="fill:#E2C744;" d="M432.24,83.745v45.83c0,20.77-16.9,37.67-37.67,37.67h-25.33v-7h20.99
			c19.31,0,35.01-15.7,35.01-35.01v-41.49c0-1.93,1.57-3.5,3.5-3.5C430.67,80.245,432.24,81.815,432.24,83.745z"/>
		<path style="fill:#E2C744;" d="M78.25,160.245v7H52.93c-20.78,0-37.68-16.9-37.68-37.67v-45.83c0-1.93,1.57-3.5,3.5-3.5
			s3.5,1.57,3.5,3.5v41.49c0,19.31,15.71,35.01,35.01,35.01H78.25z"/>
		<path style="fill:#E55A42;" d="M354.24,249.225v14.3c-14.19,1.03-22.61,4.92-30.16,8.42c-8.45,3.92-15.75,7.3-31.34,7.3
			s-22.89-3.38-31.34-7.3c-8.79-4.08-18.75-8.7-37.66-8.7c-18.9,0-28.86,4.62-37.65,8.7c-8.45,3.92-15.75,7.3-31.34,7.3
			c-15.6,0-22.9-3.38-31.34-7.3c-7.55-3.5-15.97-7.39-30.16-8.42v-14.3c10.69,0.9,16.88,3.77,23.84,7
			c8.79,4.07,18.75,8.69,37.66,8.69c18.9,0,28.86-4.62,37.65-8.69c8.45-3.92,15.75-7.31,31.34-7.31c15.6,0,22.89,3.39,31.35,7.31
			c8.78,4.07,18.75,8.69,37.65,8.69c18.9,0,28.87-4.62,37.65-8.69C337.36,252.995,343.55,250.125,354.24,249.225z"/>
		<path d="M447.24,83.745v45.83c0,29.04-23.63,52.67-52.67,52.67h-25.33v138.5v54c0,4.14-3.36,7.5-7.5,7.5c-4.14,0-7.5-3.36-7.5-7.5
			v-46.5h-10.09v46.5c0,4.14-3.36,7.5-7.5,7.5c-4.14,0-7.5-3.36-7.5-7.5v-46.5h-10.09v46.5c0,4.14-3.36,7.5-7.5,7.5
			c-4.14,0-7.5-3.36-7.5-7.5v-46.5h-10.09v46.5c0,4.14-3.36,7.5-7.5,7.5c-4.14,0-7.5-3.36-7.5-7.5v-46.5h-10.09v46.5
			c0,4.14-3.36,7.5-7.5,7.5c-4.14,0-7.5-3.36-7.5-7.5v-46.5h-10.09v46.5c0,4.14-3.36,7.5-7.5,7.5s-7.5-3.36-7.5-7.5v-46.5H218.7
			v46.5c0,4.14-3.36,7.5-7.5,7.5s-7.5-3.36-7.5-7.5v-46.5h-10.09v46.5c0,4.14-3.36,7.5-7.5,7.5s-7.5-3.36-7.5-7.5v-46.5h-10.09v46.5
			c0,4.14-3.36,7.5-7.5,7.5s-7.5-3.36-7.5-7.5v-46.5h-10.09v46.5c0,4.14-3.36,7.5-7.5,7.5c-4.14,0-7.5-3.36-7.5-7.5v-46.5h-10.09
			v46.5c0,4.14-3.36,7.5-7.5,7.5c-4.14,0-7.5-3.36-7.5-7.5v-46.5H93.25v46.5c0,4.14-3.35,7.5-7.5,7.5c-4.14,0-7.5-3.36-7.5-7.5v-54
			v-138.5H52.93c-29.05,0-52.68-23.63-52.68-52.67v-45.83c0-10.2,8.3-18.5,18.5-18.5s18.5,8.3,18.5,18.5v41.49
			c0,11.04,8.98,20.01,20.01,20.01h20.99v-7.76c0-11.43,9.3-20.73,20.73-20.73h249.53c11.43,0,20.73,9.3,20.73,20.73v7.76h20.99
			c11.04,0,20.01-8.97,20.01-20.01v-41.49c0-10.2,8.3-18.5,18.5-18.5C438.94,65.245,447.24,73.545,447.24,83.745z M432.24,129.575
			v-45.83c0-1.93-1.57-3.5-3.5-3.5c-1.93,0-3.5,1.57-3.5,3.5v41.49c0,19.31-15.7,35.01-35.01,35.01h-20.99v7h25.33
			C415.34,167.245,432.24,150.345,432.24,129.575z M354.24,313.245v-34.69c-10.69,0.91-16.88,3.77-23.85,7
			c-8.78,4.07-18.75,8.69-37.65,8.69c-18.9,0-28.87-4.62-37.65-8.69c-8.46-3.92-15.75-7.31-31.35-7.31
			c-15.59,0-22.89,3.39-31.34,7.31c-8.79,4.07-18.75,8.69-37.65,8.69c-18.91,0-28.87-4.62-37.66-8.69c-6.96-3.23-13.15-6.09-23.84-7
			v34.69H354.24z M354.24,263.525v-14.3c-10.69,0.9-16.88,3.77-23.85,7c-8.78,4.07-18.75,8.69-37.65,8.69
			c-18.9,0-28.87-4.62-37.65-8.69c-8.46-3.92-15.75-7.31-31.35-7.31c-15.59,0-22.89,3.39-31.34,7.31
			c-8.79,4.07-18.75,8.69-37.65,8.69c-18.91,0-28.87-4.62-37.66-8.69c-6.96-3.23-13.15-6.1-23.84-7v14.3
			c14.19,1.03,22.61,4.92,30.16,8.42c8.44,3.92,15.74,7.3,31.34,7.3c15.59,0,22.89-3.38,31.34-7.3c8.79-4.08,18.75-8.7,37.65-8.7
			c18.91,0,28.87,4.62,37.66,8.7c8.45,3.92,15.75,7.3,31.34,7.3s22.89-3.38,31.34-7.3C331.63,268.445,340.05,264.555,354.24,263.525
			z M354.24,234.185v-96.7c0-3.16-2.57-5.73-5.73-5.73H98.98c-3.16,0-5.73,2.57-5.73,5.73v15.26v22v59.44
			c14.19,1.04,22.61,4.93,30.16,8.43c8.44,3.92,15.74,7.3,31.34,7.3c15.59,0,22.89-3.38,31.34-7.3c8.79-4.08,18.75-8.7,37.65-8.7
			c18.91,0,28.87,4.62,37.66,8.7c8.45,3.92,15.75,7.3,31.34,7.3s22.89-3.38,31.34-7.3C331.63,239.115,340.05,235.225,354.24,234.185
			z M78.25,167.245v-7H57.26c-19.3,0-35.01-15.7-35.01-35.01v-41.49c0-1.93-1.57-3.5-3.5-3.5s-3.5,1.57-3.5,3.5v45.83
			c0,20.77,16.9,37.67,37.68,37.67H78.25z"/>
	</g>
	<g>
	</g>
</g>
<g>
</g>
<g>
</g>
<g>
</g>
<g>
</g>
<g>
</g>
<g>
</g>
<g>
</g>
<g>
</g>
<g>
</g>
<g>
</g>
<g>
</g>
<g>
</g>
<g>
</g>
<g>
</g>
<g>
</g>
</svg>
