<?xml version="1.0" encoding="iso-8859-1"?>
<!-- Generator: Adobe Illustrator 19.1.0, SVG Export Plug-In . SVG Version: 6.00 Build 0)  -->
<svg version="1.1" id="Capa_1" xmlns="http://www.w3.org/2000/svg" xmlns:xlink="http://www.w3.org/1999/xlink" x="0px" y="0px"
	 viewBox="0 0 453.48 453.48" style="enable-background:new 0 0 453.48 453.48;" xml:space="preserve">
<g>
	<g id="XMLID_13_">
		<g>
			<path style="fill:#E55A42;" d="M318.23,174.16v83.99H15.25v-83.99H318.23z M295.73,231.16v-30c0-4.15-3.35-7.5-7.5-7.5H45.25
				c-4.15,0-7.5,3.35-7.5,7.5v30c0,4.14,3.35,7.5,7.5,7.5h242.98C292.38,238.66,295.73,235.3,295.73,231.16z"/>
			<rect x="52.75" y="208.66" style="fill:#4785DD;" width="227.98" height="15"/>
			<path style="fill:#4785DD;" d="M438.23,174.16v83.99h-105v-83.99H438.23z M429.98,190.66c0-4.14-3.36-7.5-7.5-7.5h-73.5
				c-4.14,0-7.5,3.36-7.5,7.5s3.36,7.5,7.5,7.5h73.5C426.62,198.16,429.98,194.8,429.98,190.66z M429.98,213.16
				c0-4.15-3.36-7.5-7.5-7.5h-73.5c-4.14,0-7.5,3.35-7.5,7.5c0,4.14,3.36,7.5,7.5,7.5h73.5
				C426.62,220.66,429.98,217.3,429.98,213.16z"/>
			<path d="M453.23,166.66v98.99c0,4.15-3.36,7.5-7.5,7.5h-25.99v13.67c0,4.15-3.36,7.5-7.5,7.5H361.9c-4.14,0-7.5-3.35-7.5-7.5
				v-13.67H99.07v13.67c0,4.15-3.36,7.5-7.5,7.5H41.23c-4.14,0-7.5-3.35-7.5-7.5v-13.67H7.75c-4.14,0-7.5-3.35-7.5-7.5v-98.99
				c0-4.14,3.36-7.5,7.5-7.5h437.98C449.87,159.16,453.23,162.52,453.23,166.66z M438.23,258.15v-83.99h-105v83.99H438.23z
				 M404.74,279.32v-6.17H369.4v6.17H404.74z M318.23,258.15v-83.99H15.25v83.99H318.23z M84.07,279.32v-6.17H48.73v6.17H84.07z"/>
			<path d="M422.48,183.16c4.14,0,7.5,3.36,7.5,7.5s-3.36,7.5-7.5,7.5h-73.5c-4.14,0-7.5-3.36-7.5-7.5s3.36-7.5,7.5-7.5H422.48z"/>
			<path d="M422.48,205.66c4.14,0,7.5,3.35,7.5,7.5c0,4.14-3.36,7.5-7.5,7.5h-73.5c-4.14,0-7.5-3.36-7.5-7.5
				c0-4.15,3.36-7.5,7.5-7.5H422.48z"/>
			<path d="M295.73,201.16v30c0,4.14-3.35,7.5-7.5,7.5H45.25c-4.15,0-7.5-3.36-7.5-7.5v-30c0-4.15,3.35-7.5,7.5-7.5h242.98
				C292.38,193.66,295.73,197.01,295.73,201.16z M280.73,223.66v-15H52.75v15H280.73z"/>
		</g>
		<g>
		</g>
	</g>
</g>
<g>
</g>
<g>
</g>
<g>
</g>
<g>
</g>
<g>
</g>
<g>
</g>
<g>
</g>
<g>
</g>
<g>
</g>
<g>
</g>
<g>
</g>
<g>
</g>
<g>
</g>
<g>
</g>
<g>
</g>
</svg>
